<?xml version="1.0" standalone="no"?>
<!DOCTYPE svg PUBLIC "-//W3C//DTD SVG 1.1//EN" "http://www.w3.org/Graphics/SVG/1.1/DTD/svg11.dtd" >
<svg xmlns="http://www.w3.org/2000/svg" xmlns:xlink="http://www.w3.org/1999/xlink" version="1.1">
<metadata>
Created by FontForge 20170731 at Sun Feb 19 15:25:37 2017
 By Aleksey,,,
Copyright (c)2016. HK Nova is a trademark of Alfredo Marco Pradil. All rights reserved.
</metadata>
<defs>
<font id="" horiz-adv-x="0" >
  <font-face 
    font-family=""
    font-weight="400"
    font-stretch="normal"
    units-per-em="2048"
    panose-1="0 0 5 0 0 0 0 0 0 0"
    ascent="1536"
    descent="-512"
    x-height="1059"
    cap-height="1536"
    bbox="-1634 -570.429 2943 2510"
    underline-thickness="0"
    underline-position="0"
    unicode-range="U+0020-FB02"
  />
<missing-glyph horiz-adv-x="1188" 
d="M215 0q-41 0 -41 41v1454q0 41 41 41h758q41 0 41 -41v-1454q0 -41 -41 -41h-758zM305 172q0 -41 41 -41h496q41 0 41 41v1192q0 41 -41 41h-496q-41 0 -41 -41v-1192z" />
    <glyph glyph-name="uniFB01" unicode="fi" horiz-adv-x="1192" 
d="M256 0q-41 0 -41 41v833q0 41 -41 41h-96q-41 0 -41 41v62q0 41 41 41h96q41 0 41 41v145q0 142 81.5 226.5t215.5 84.5q54 0 109 -14q34 -6 34 -45v-61q0 -44 -47 -35q-40 10 -71 10q-75 0 -118.5 -48t-43.5 -136v-127q0 -41 41 -41h198q41 0 41 -41v-62q0 -41 -41 -41
h-198q-41 0 -41 -41v-833q0 -41 -41 -41h-78zM938 1329q-46 0 -80.5 33.5t-34.5 79.5q0 48 34 81t81 33t81 -33t34 -81q0 -46 -34.5 -79.5t-80.5 -33.5zM899 0q-41 0 -41 41v977q0 41 41 41h78q41 0 41 -41v-977q0 -41 -41 -41h-78z" />
    <glyph glyph-name="uniFB02" unicode="fl" horiz-adv-x="1192" 
d="M256 0q-41 0 -41 41v833q0 41 -41 41h-96q-41 0 -41 41v62q0 41 41 41h96q41 0 41 41v145q0 142 81.5 226.5t215.5 84.5q54 0 109 -14q34 -6 34 -45v-61q0 -44 -47 -35q-40 10 -71 10q-75 0 -118.5 -48t-43.5 -136v-127q0 -41 41 -41h198q41 0 41 -41v-62q0 -41 -41 -41
h-198q-41 0 -41 -41v-833q0 -41 -41 -41h-78zM899 0q-41 0 -41 41v1454q0 41 41 41h78q41 0 41 -41v-1454q0 -41 -41 -41h-78z" />
    <glyph glyph-name="f_f.liga" unicode="ff" horiz-adv-x="1292" 
d="M256 0q-41 0 -41 41v833q0 41 -41 41h-96q-41 0 -41 41v62q0 41 41 41h96q41 0 41 41v145q0 143 82 227t219 84q61 0 111 -16q28 -11 28 -47v-74q0 -46 -45 -26q-42 14 -75 14q-71 0 -115.5 -49.5t-44.5 -130.5v-127q0 -41 41 -41h366q41 0 41 41v145q0 143 82 227
t219 84q61 0 111 -16q29 -12 29 -47v-74q0 -22 -12 -29t-33 3q-44 14 -76 14q-71 0 -115.5 -49.5t-44.5 -130.5v-127q0 -41 41 -41h199q41 0 41 -41v-62q0 -41 -41 -41h-199q-41 0 -41 -41v-833q0 -41 -41 -41h-78q-41 0 -41 41v833q0 41 -41 41h-366q-41 0 -41 -41v-833
q0 -41 -41 -41h-78z" />
    <glyph glyph-name=".notdef" horiz-adv-x="1188" 
d="M215 0q-41 0 -41 41v1454q0 41 41 41h758q41 0 41 -41v-1454q0 -41 -41 -41h-758zM305 172q0 -41 41 -41h496q41 0 41 41v1192q0 41 -41 41h-496q-41 0 -41 -41v-1192z" />
    <glyph glyph-name="glyph1" 
 />
    <glyph glyph-name="glyph2" horiz-adv-x="682" 
 />
    <glyph glyph-name="space" unicode=" " horiz-adv-x="594" 
 />
    <glyph glyph-name="exclam" unicode="!" horiz-adv-x="635" 
d="M266 442q-41 0 -41 41v1012q0 41 41 41h86q41 0 41 -41v-1012q0 -41 -41 -41h-86zM309 -20q-46 0 -80 34t-34 80q0 48 34 81.5t80 33.5q47 0 81 -33.5t34 -81.5q0 -46 -34.5 -80t-80.5 -34z" />
    <glyph glyph-name="quotedbl" unicode="&#x22;" horiz-adv-x="991" 
d="M285 893q-41 0 -41 41v561q0 41 41 41h77q41 0 41 -41l3 -561q0 -41 -41 -41h-80zM625 893q-41 0 -41 41l2 561q0 41 41 41h80q41 0 41 -41v-561q0 -41 -41 -41h-82z" />
    <glyph glyph-name="numbersign" unicode="#" horiz-adv-x="1532" 
d="M389 0q-21 0 -31.5 11.5t-7.5 31.5l39 272q3 20 -7.5 31.5t-31.5 11.5h-200q-43 0 -37 43l6 45q3 39 43 39h211q39 0 45 37l59 398q3 19 -8 31t-31 12h-200q-20 0 -30 12.5t-7 32.5l6 43q6 36 45 36h207q39 0 45 37l41 287q5 37 45 37h41q20 0 30 -11.5t7 -31.5l-37 -275
q-3 -20 7 -31.5t30 -11.5h305q39 0 45 37l39 285q6 39 45 39h41q20 0 31 -11.5t8 -31.5l-39 -275q-3 -19 8 -31t31 -12h200q20 0 30 -12.5t7 -32.5l-6 -43q-6 -36 -45 -36h-209q-39 0 -45 -37l-55 -398q-3 -19 8 -31t31 -12h198q43 0 37 -43l-6 -45q-2 -18 -13 -28.5
t-30 -10.5h-209q-39 0 -45 -36l-43 -285q-5 -37 -45 -37h-39q-20 0 -31 11.5t-8 31.5l39 272q3 20 -7.5 31.5t-31.5 11.5h-307q-39 0 -45 -39l-39 -280q-6 -39 -43 -39h-41zM545 528q-3 -19 8 -31t31 -12h303q39 0 45 37l57 398q3 19 -8 31t-31 12h-305q-39 0 -45 -37z" />
    <glyph glyph-name="dollar" unicode="$" horiz-adv-x="1270" 
d="M1118 406q0 -186 -115 -296.5t-294 -126.5v-118q0 -41 -41 -41h-84q-41 0 -41 41v124q-115 19 -215 73t-171 131q-24 28 5 57l65 65q30 30 57 -4q149 -174 355 -174q136 0 224.5 72t88.5 190q0 37 -10.5 69.5t-25 57.5t-42.5 49.5t-51.5 41t-64 37t-67 32t-73.5 31.5
q-57 24 -90 38.5t-82.5 40.5t-78.5 48t-63.5 55.5t-53 69t-31 83t-12.5 101.5q0 158 93 263.5t243 131.5v127q0 41 41 41h84q41 0 41 -41v-124q197 -24 341 -175q30 -28 0 -57l-51 -53q-27 -32 -59 2q-77 73 -147.5 102t-155.5 29q-112 0 -188 -62t-76 -172q0 -49 20 -91
t44 -68.5t77.5 -57t85.5 -44.5t103 -43q8 -3 12 -5q52 -21 84.5 -35.5t79.5 -40t77 -48.5t64 -58t53 -72.5t32 -87.5t13 -108z" />
    <glyph glyph-name="percent" unicode="%" horiz-adv-x="1616" 
d="M440 928q-131 0 -223 92.5t-92 224.5q0 129 92 220t223 91q129 0 220.5 -91t91.5 -220q0 -132 -91.5 -224.5t-220.5 -92.5zM303 0q-25 0 -32 13.5t5 35.5l891 1460q16 27 50 27h90q24 0 31.5 -13.5t-5.5 -35.5l-887 -1460q-14 -27 -49 -27h-94zM440 1067q73 0 123.5 52
t50.5 126q0 71 -51 122.5t-123 51.5q-73 0 -125.5 -51.5t-52.5 -122.5q0 -73 52 -125.5t126 -52.5zM1178 -16q-130 0 -222 92t-92 223q0 129 92.5 220t221.5 91t221 -91t92 -220q0 -130 -92 -222.5t-221 -92.5zM1178 121q73 0 124.5 52t51.5 126q0 72 -52 123t-124 51
q-74 0 -125.5 -51t-51.5 -123q0 -74 51.5 -126t125.5 -52z" />
    <glyph glyph-name="ampersand" unicode="&#x26;" horiz-adv-x="1503" 
d="M575 -25q-196 0 -319 124.5t-123 318.5q0 73 19 132t64.5 115t92.5 98t131 107q32 27 9 60q-70 87 -101 158.5t-31 144.5q0 139 93.5 231t238.5 92q146 0 240 -90t94 -225q0 -53 -15.5 -99t-50.5 -90t-70.5 -77t-94.5 -82q-32 -27 -9 -59l252 -326q27 -37 58 0l149 186
q27 33 58 8l65 -51q34 -26 6 -59l-178 -221q-20 -28 0 -58l203 -264q15 -22 8.5 -36.5t-31.5 -14.5l-127 -2q-31 0 -49 24l-119 156q-26 37 -63 -2q-206 -199 -400 -199zM649 999q88 66 130 116.5t42 119.5q0 74 -50.5 120.5t-121.5 49.5q-78 3 -125 -45t-47 -129
q0 -43 17 -83.5t35.5 -66t60.5 -75.5q26 -31 59 -7zM563 141q80 0 157 46.5t161 129.5q25 26 4 58l-281 362q-25 35 -57 8q-128 -93 -188 -165t-60 -162q0 -107 77.5 -192t186.5 -85z" />
    <glyph glyph-name="quotesingle" unicode="'" horiz-adv-x="651" 
d="M285 893q-41 0 -41 41v561q0 41 41 41h82q41 0 41 -41v-561q0 -41 -41 -41h-82z" />
    <glyph glyph-name="parenleft" unicode="(" horiz-adv-x="670" 
d="M565 -428q-11 -16 -26.5 -19t-30.5 9q-181 135 -284 412t-103 673q0 391 103.5 672.5t283.5 415.5q15 12 30.5 8.5t26.5 -19.5l27 -36q22 -33 -8 -58q-155 -125 -242.5 -375t-87.5 -608q0 -364 87 -610t243 -369q31 -25 8 -57z" />
    <glyph glyph-name="parenright" unicode=")" horiz-adv-x="670" 
d="M162 -438q-32 -26 -58 10l-26 39q-24 32 8 57q156 123 243 369t87 610q0 358 -87.5 608t-242.5 375q-31 26 -8 58l26 36q26 36 58 11q179 -134 283 -416t104 -672q0 -396 -103 -673t-284 -412z" />
    <glyph glyph-name="asterisk" unicode="*" horiz-adv-x="971" 
d="M317 952l-8 4q-34 23 -10 58l123 166q15 21 7 36.5t-34 12.5l-211 -21q-20 -2 -31.5 9t-11.5 30v8q0 20 11.5 30.5t31.5 8.5l211 -22q26 -3 34 11t-7 36l-123 170q-26 36 12 55l6 4q38 21 56 -18l84 -189q11 -24 28 -24t27 24l84 189q7 18 23 23t32 -5l8 -4
q38 -20 13 -55l-125 -170q-16 -22 -8 -36t34 -11l211 22q43 3 43 -39v-8q0 -20 -11.5 -30t-31.5 -9l-211 21q-25 3 -33.5 -12.5t7.5 -36.5l125 -166q26 -34 -10 -58l-11 -6q-16 -9 -32 -4t-23 23l-84 190q-10 25 -27 25t-28 -25l-84 -190q-18 -40 -56 -17z" />
    <glyph glyph-name="plus" unicode="+" horiz-adv-x="1245" 
d="M584 188q-41 0 -41 41v326q0 41 -41 41h-326q-41 0 -41 41v78q0 41 41 41h326q41 0 41 41v325q0 41 41 41h78q40 0 40 -41v-325q0 -41 41 -41h326q41 0 41 -41v-78q0 -41 -41 -41h-326q-41 0 -41 -41v-326q0 -41 -40 -41h-78z" />
    <glyph glyph-name="comma" unicode="," horiz-adv-x="647" 
d="M240 -377q-20 0 -31 12.5t-8 32.5l88 545q5 37 45 37h106q22 0 31.5 -12.5t3.5 -32.5l-145 -547q-9 -35 -47 -35h-43z" />
    <glyph glyph-name="hyphen" unicode="-" horiz-adv-x="1057" 
d="M211 467q-41 0 -41 41v49q0 41 41 41h635q41 0 41 -41v-49q0 -41 -41 -41h-635z" />
    <glyph glyph-name="period" unicode="." horiz-adv-x="647" 
d="M324 -20q-47 0 -81 33.5t-34 80.5q0 46 34.5 80.5t80.5 34.5t80 -34.5t34 -80.5q0 -47 -34 -80.5t-80 -33.5z" />
    <glyph glyph-name="slash" unicode="/" horiz-adv-x="1169" 
d="M61 -348q-23 0 -31 13.5t3 35.5l952 1806q14 29 49 29h74q23 0 31 -13.5t-2 -35.5l-951 -1806q-14 -29 -49 -29h-76z" />
    <glyph glyph-name="zero" unicode="0" horiz-adv-x="1290" 
d="M645 -20q-119 0 -220 52t-175.5 149.5t-116 248t-41.5 338.5q0 379 148 583.5t405 204.5q256 0 404.5 -205t148.5 -583q0 -188 -42 -338.5t-116 -248t-175 -149.5t-220 -52zM647 143q178 0 277.5 157.5t99.5 467.5q0 169 -28.5 292.5t-81 194.5t-119 104.5t-148.5 33.5
q-66 0 -121.5 -20t-104 -67t-82 -118t-52.5 -177.5t-19 -242.5q0 -310 100 -467.5t279 -157.5z" />
    <glyph glyph-name="one" unicode="1" horiz-adv-x="1290" 
d="M754 205q0 -41 41 -41h254q41 0 41 -41v-82q0 -41 -41 -41h-762q-41 0 -41 41v82q0 41 41 41h254q41 0 41 41v1048q0 27 -14 34t-36 -9l-237 -184q-22 -17 -35.5 -10t-13.5 34v99q0 27 24 49l322 252q24 18 51 18h70q41 0 41 -41v-1290z" />
    <glyph glyph-name="two" unicode="2" horiz-adv-x="1290" 
d="M463 215q-23 -20 -17.5 -35.5t33.5 -15.5h637q41 0 41 -41v-82q0 -41 -41 -41h-917q-41 0 -41 41v80q0 32 24 51q181 160 313.5 292.5t209.5 226.5t122 175t59.5 135t14.5 109q0 143 -77.5 214t-196.5 71t-193.5 -68.5t-85.5 -185.5q-3 -41 -43 -41l-106 2q-42 0 -39 41
q15 187 148.5 302.5t326.5 113.5q192 -2 316 -117.5t124 -298.5q0 -143 -86 -310.5t-218.5 -318.5t-307.5 -299z" />
    <glyph glyph-name="three" unicode="3" horiz-adv-x="1290" 
d="M891 862q-41 -21 2 -39q126 -51 196 -151.5t70 -235.5q0 -136 -70.5 -240.5t-190.5 -160t-269 -55.5q-137 0 -251 49.5t-186 142.5t-83 213q-5 41 38 41l95 2q38 0 41 -39q16 -113 111.5 -179.5t234.5 -66.5q159 0 257.5 81t98.5 220q0 140 -98.5 218.5t-257.5 78.5h-111
q-41 0 -41 41v82q0 41 41 41h111q119 0 190.5 71.5t71.5 178.5q0 106 -71 172t-191 66q-110 0 -182.5 -51t-86.5 -136q-10 -39 -43 -39h-92q-20 0 -31 11t-10 32q17 154 142 250t303 96q120 0 219 -48t158 -138t59 -205q0 -202 -174 -303z" />
    <glyph glyph-name="four" unicode="4" horiz-adv-x="1290" 
d="M1198 487q41 0 41 -41v-81q0 -41 -41 -41h-190q-41 0 -41 -41v-242q0 -41 -41 -41h-92q-41 0 -41 41v242q0 41 -41 41h-660q-41 0 -41 41v45q0 23 15 49l667 1050q15 27 49 27h144q41 0 41 -41v-967q0 -41 41 -41h190zM291 537q-13 -22 -5.5 -36t31.5 -14h435q41 0 41 41
v734q0 29 -17 33.5t-33 -21.5z" />
    <glyph glyph-name="five" unicode="5" horiz-adv-x="1290" 
d="M596 958q279 0 418 -123.5t139 -338.5q0 -232 -143.5 -372t-374.5 -140q-123 0 -229.5 44t-184.5 138t-100 223q-4 20 6 31.5t31 11.5h104q36 0 45 -37q32 -124 124.5 -186t205.5 -62q152 0 247 92t95 248q0 146 -93 227t-280 81h-397q-44 0 -37 45l125 659q6 37 43 37
h721q41 0 41 -41v-82q0 -41 -41 -41h-584q-37 0 -43 -37l-61 -331q-3 -20 7 -33t30 -13h186z" />
    <glyph glyph-name="six" unicode="6" horiz-adv-x="1290" 
d="M1184 528q6 -143 -63 -269t-191.5 -200.5t-265.5 -74.5q-226 0 -387 142.5t-171 356.5q-8 195 132 369l524 659q18 25 49 25h119q26 0 32.5 -15t-10.5 -36l-356 -424q-19 -22 -12 -34t34 -7q46 4 76 4q62 0 128.5 -22t129 -65t113 -101.5t83 -138.5t36.5 -169zM1014 526
q-10 158 -115.5 254.5t-253.5 96.5q-171 0 -273.5 -113.5t-92.5 -278.5q9 -151 115 -241t268 -90q159 0 260 109t92 263z" />
    <glyph glyph-name="seven" unicode="7" horiz-adv-x="1290" 
d="M129 1495q0 41 41 41h954q41 0 41 -41v-96q0 -27 -12 -51l-737 -1319q-14 -29 -49 -29h-115q-24 0 -32.5 15t3.5 34l725 1274q13 20 4.5 34.5t-32.5 14.5h-750q-41 0 -41 41v82z" />
    <glyph glyph-name="eight" unicode="8" horiz-adv-x="1290" 
d="M629 -20q-149 0 -269 55.5t-191 160t-71 240.5q0 134 69.5 234t194.5 151q42 19 3 43q-172 101 -172 301q0 174 125.5 282.5t310.5 108.5q120 0 219 -48t158 -138t59 -205q0 -202 -174 -303q-41 -21 2 -39q126 -51 196 -151.5t70 -235.5q0 -136 -70.5 -240.5t-190.5 -160
t-269 -55.5zM629 905q119 0 190.5 71.5t71.5 178.5q0 106 -71 172t-191 66t-191 -66t-71 -172q0 -107 71.5 -178.5t190.5 -71.5zM629 143q159 0 257.5 81t98.5 220q0 140 -98.5 218.5t-257.5 78.5t-258 -78.5t-99 -218.5q0 -139 99 -220t258 -81z" />
    <glyph glyph-name="nine" unicode="9" horiz-adv-x="1290" 
d="M360 0q-26 0 -32.5 15t10.5 36l356 424q19 22 12.5 34t-34.5 7q-46 -4 -76 -4q-62 0 -128.5 22t-129 65t-113 101.5t-83 138.5t-36.5 169q-6 143 63 269t191.5 200.5t266.5 74.5q226 0 386.5 -142.5t170.5 -356.5q8 -196 -131 -369l-525 -659q-18 -25 -49 -25h-119z
M645 659q172 0 274 113.5t93 278.5q-10 151 -115.5 241t-267.5 90q-159 0 -260.5 -109.5t-92.5 -262.5q10 -158 115.5 -254.5t253.5 -96.5z" />
    <glyph glyph-name="colon" unicode=":" horiz-adv-x="623" 
d="M311 815q-46 0 -80 33.5t-34 81.5q0 46 34 80t80 34t80.5 -34t34.5 -80q0 -48 -34 -81.5t-81 -33.5zM311 -20q-46 0 -80 33.5t-34 80.5q0 46 34 80.5t80 34.5q47 0 81 -34.5t34 -80.5q0 -47 -34 -80.5t-81 -33.5z" />
    <glyph glyph-name="semicolon" unicode=";" horiz-adv-x="647" 
d="M350 815q-47 0 -80.5 33.5t-33.5 81.5q0 46 33.5 80t80.5 34q46 0 80.5 -34t34.5 -80q0 -48 -34 -81.5t-81 -33.5zM205 -377q-20 0 -31 12.5t-8 32.5l88 545q5 37 45 37h107q21 0 31 -13t3 -32l-145 -547q-9 -35 -47 -35h-43z" />
    <glyph glyph-name="less" unicode="&#x3c;" horiz-adv-x="1409" 
d="M1206 1358q22 10 35.5 2t13.5 -31v-90q0 -32 -30 -47l-879 -442q-23 -11 -23 -29t23 -29l881 -444q28 -14 28 -47v-92q0 -24 -13.5 -33t-35.5 2l-1052 532q-29 15 -29 47v125q0 32 31 47z" />
    <glyph glyph-name="equal" unicode="=" horiz-adv-x="1243" 
d="M301 805q-41 0 -41 41v78q0 41 41 41h641q41 0 41 -41v-78q0 -41 -41 -41h-641zM301 391q-41 0 -41 41v76q0 41 41 41h641q41 0 41 -41v-76q0 -41 -41 -41h-641z" />
    <glyph glyph-name="greater" unicode="&#x3e;" horiz-adv-x="1409" 
d="M154 1329q0 23 13.5 31t35.5 -2l1050 -529q31 -15 31 -47v-125q0 -32 -29 -47l-1052 -532q-22 -11 -35.5 -2t-13.5 33v92q0 33 28 47l881 444q23 11 23 29t-23 29l-879 442q-30 15 -30 47v90z" />
    <glyph glyph-name="question" unicode="?" horiz-adv-x="1098" 
d="M502 430q-41 0 -41 41v336q0 41 41 41q40 0 67 1.5t64.5 7.5t63 16.5t53 31t44 48.5t27 71t10.5 98q0 120 -82.5 197.5t-211.5 77.5q-112 0 -191 -66t-96 -170q-6 -39 -43 -39h-70q-20 0 -31 11t-10 32q17 165 140.5 272t300.5 107q193 0 318.5 -119.5t125.5 -302.5
q0 -85 -22 -153.5t-56 -110.5t-79.5 -71.5t-86.5 -42t-84 -17.5q-39 -3 -39 -41v-215q0 -41 -41 -41h-71zM545 -20q-47 0 -81 33.5t-34 80.5q0 46 34 80.5t81 34.5t80.5 -34t33.5 -81t-33.5 -80.5t-80.5 -33.5z" />
    <glyph glyph-name="at" unicode="@" horiz-adv-x="1788" 
d="M920 -229q-217 0 -390 92t-272.5 262.5t-99.5 390.5q0 211 102 384.5t279 271.5t391 98q112 0 215.5 -26t192.5 -79.5t155 -129.5t103.5 -181.5t37.5 -230.5q0 -232 -110 -361t-271 -129q-68 0 -113 30.5t-63 80.5q-6 17 -12.5 18.5t-20.5 -12.5q-45 -52 -107.5 -83.5
t-127.5 -31.5q-129 0 -206 88.5t-77 233.5q0 119 49.5 221.5t140.5 165.5t204 63q115 0 186 -71q36 -41 45 -2l2 10q7 37 45 37h41q21 0 31 -12t6 -33q-45 -236 -70 -353q-11 -56 -14 -94.5t3.5 -70.5t28.5 -48t60 -16q94 0 156.5 95.5t62.5 258.5q0 250 -157.5 394.5
t-417.5 144.5q-183 0 -325.5 -81.5t-220 -225.5t-77.5 -326q0 -141 48.5 -258.5t133 -196.5t200 -122t247.5 -43q277 0 475 151q35 24 59 -6l25 -31q24 -30 -2 -53q-230 -184 -571 -184zM838 262q59 0 106 29.5t75 76t43 97.5t17 102q3 95 -33.5 155t-125.5 60
q-71 0 -127 -51t-83.5 -125.5t-27.5 -154.5q0 -33 7.5 -64t24.5 -60t49 -47t75 -18z" />
    <glyph glyph-name="A" unicode="A" horiz-adv-x="1544" 
d="M111 0q-23 0 -31.5 12.5t0.5 34.5l600 1458q11 31 47 31h90q36 0 47 -31l600 -1458q9 -22 1 -34.5t-31 -12.5h-93q-33 0 -47 33l-114 282q-14 33 -47 33h-719q-34 0 -47 -33l-117 -282q-13 -33 -47 -33h-92zM496 512h553q23 0 31.5 12.5t0.5 34.5l-282 701q-11 24 -27 24
t-27 -24l-282 -701q-8 -22 1 -34.5t32 -12.5z" />
    <glyph glyph-name="B" unicode="B" horiz-adv-x="1362" 
d="M260 0q-41 0 -41 41v1454q0 41 41 41h461q179 0 302.5 -115.5t123.5 -294.5q0 -205 -148 -311q-36 -27 5 -41q119 -42 186 -137.5t67 -230.5q0 -177 -121.5 -291.5t-299.5 -114.5h-576zM432 850h270q113 0 192 75.5t79 186.5q0 118 -66.5 189t-204.5 71h-270
q-41 0 -41 -41v-440q0 -41 41 -41zM432 164h381q124 0 197 74t73 188q0 110 -78.5 185t-191.5 75h-381q-41 0 -41 -41v-440q0 -41 41 -41z" />
    <glyph glyph-name="C" unicode="C" horiz-adv-x="1534" 
d="M901 -20q-161 0 -307 62t-251.5 167.5t-167.5 251.5t-62 307t62 307t167.5 251.5t251.5 167.5t307 62q138 0 279.5 -54.5t246.5 -147.5q30 -28 0 -58l-65 -65q-29 -29 -57 0q-82 71 -188.5 111t-215.5 40q-126 0 -240 -48t-196 -129.5t-130 -195.5t-48 -241t48 -241
t130 -195.5t196 -129.5t240 -48q109 0 215.5 40.5t188.5 112.5q28 27 57 -2l65 -65q30 -30 0 -58q-105 -93 -246.5 -147.5t-279.5 -54.5z" />
    <glyph glyph-name="D" unicode="D" horiz-adv-x="1573" 
d="M260 0q-41 0 -41 41v1454q0 41 41 41h424q360 0 564 -208t204 -560t-204 -560t-564 -208h-424zM432 164h250q293 0 444.5 157t151.5 447t-151.5 447t-444.5 157h-250q-41 0 -41 -41v-1126q0 -41 41 -41z" />
    <glyph glyph-name="E" unicode="E" horiz-adv-x="1178" 
d="M260 0q-41 0 -41 41v1454q0 41 41 41h762q41 0 41 -41v-82q0 -41 -41 -41h-588q-41 0 -41 -41v-442q0 -41 41 -41h502q41 0 41 -41v-82q0 -41 -41 -41h-502q-41 0 -41 -41v-438q0 -41 41 -41h588q41 0 41 -41v-82q0 -41 -41 -41h-762z" />
    <glyph glyph-name="F" unicode="F" horiz-adv-x="1143" 
d="M260 0q-41 0 -41 41v1454q0 41 41 41h762q41 0 41 -41v-82q0 -41 -41 -41h-588q-41 0 -41 -41v-440q0 -41 41 -41h502q41 0 41 -41v-82q0 -41 -41 -41h-502q-41 0 -41 -41v-604q0 -41 -41 -41h-92z" />
    <glyph glyph-name="G" unicode="G" horiz-adv-x="1778" 
d="M901 -20q-214 0 -395.5 105.5t-287 287t-105.5 395.5t105.5 395.5t287 287t395.5 105.5q195 0 364.5 -88.5t276.5 -240.5q25 -34 -12 -56l-80 -47q-34 -18 -57 15q-85 113 -214 178t-278 65q-167 0 -308.5 -81.5t-223.5 -223t-82 -309.5t82 -309.5t223.5 -223
t308.5 -81.5q210 0 372 122.5t218 317.5q9 45 -37 45h-338q-41 0 -41 41v82q0 41 41 41h533q41 0 41 -45q-3 -45 -7 -78q-27 -204 -136 -364t-277.5 -248t-368.5 -88z" />
    <glyph glyph-name="H" unicode="H" horiz-adv-x="1620" 
d="M260 0q-41 0 -41 41v1454q0 41 41 41h92q41 0 41 -41v-604q0 -41 41 -41h752q41 0 41 41v604q0 41 41 41h92q41 0 41 -41v-1454q0 -41 -41 -41h-92q-41 0 -41 41v606q0 41 -41 41h-752q-41 0 -41 -41v-606q0 -41 -41 -41h-92z" />
    <glyph glyph-name="I" unicode="I" horiz-adv-x="612" 
d="M260 0q-41 0 -41 41v1454q0 41 41 41h92q41 0 41 -41v-1454q0 -41 -41 -41h-92z" />
    <glyph glyph-name="J" unicode="J" horiz-adv-x="1067" 
d="M369 -20q-150 0 -279 63q-37 17 -16 55l43 82q18 35 55 17q97 -47 209 -47q148 0 233.5 98.5t85.5 243.5v1003q0 41 41 41h93q40 0 40 -41v-1032q0 -212 -141 -347.5t-364 -135.5z" />
    <glyph glyph-name="K" unicode="K" horiz-adv-x="1323" 
d="M260 0q-41 0 -41 41v1454q0 41 41 41h92q41 0 41 -41v-545q0 -28 16.5 -34t34.5 16l519 581q21 23 51 23h123q26 0 33 -16t-11 -35l-563 -621q-26 -30 -2 -57l633 -756q17 -21 10 -36t-33 -15h-125q-33 0 -51 25l-584 706q-18 23 -34.5 16.5t-16.5 -34.5v-672
q0 -41 -41 -41h-92z" />
    <glyph glyph-name="L" unicode="L" horiz-adv-x="1024" 
d="M260 0q-41 0 -41 41v1454q0 41 41 41h92q41 0 41 -41v-1290q0 -41 41 -41h486q41 0 41 -41v-82q0 -41 -41 -41h-660z" />
    <glyph glyph-name="M" unicode="M" horiz-adv-x="1939" 
d="M260 0q-41 0 -41 41v1454q0 41 41 41h121q37 0 49 -31l514 -1143q10 -24 26 -24t27 24l512 1143q13 31 50 31h120q41 0 41 -41v-1454q0 -41 -41 -41h-92q-41 0 -41 41v1049q0 30 -17 34.5t-30 -24.5l-477 -1069q-12 -31 -49 -31h-8q-37 0 -50 31l-475 1067
q-12 29 -29.5 24.5t-17.5 -35.5v-1046q0 -41 -41 -41h-92z" />
    <glyph glyph-name="N" unicode="N" horiz-adv-x="1767" 
d="M260 0q-41 0 -41 41v1454q0 41 41 41h45q32 0 51 -23l977 -1151q19 -21 35 -15t16 34v1114q0 41 41 41h82q41 0 41 -41v-1454q0 -41 -41 -41h-45q-32 0 -51 23l-977 1151q-18 21 -34.5 15t-16.5 -34v-1114q0 -41 -41 -41h-82z" />
    <glyph glyph-name="O" unicode="O" horiz-adv-x="1802" 
d="M901 -20q-214 0 -395.5 105.5t-287 287t-105.5 395.5t105.5 395.5t287 287t395.5 105.5q161 0 307 -62.5t251.5 -167.5t168 -251t62.5 -307t-62.5 -307t-168 -251t-251.5 -167.5t-307 -62.5zM901 154q168 0 309.5 81.5t223.5 223t82 309.5t-82 309.5t-223.5 223
t-309.5 81.5q-167 0 -308.5 -81.5t-223.5 -223t-82 -309.5t82 -309.5t223.5 -223t308.5 -81.5z" />
    <glyph glyph-name="P" unicode="P" horiz-adv-x="1378" 
d="M260 0q-41 0 -41 41v1454q0 41 41 41h555q207 0 339 -135t132 -332q0 -198 -131.5 -330.5t-339.5 -132.5h-381q-41 0 -41 -41v-524q0 -41 -41 -41h-92zM434 762h365q145 0 229 81.5t84 223.5q0 139 -85 226t-228 87h-365q-41 0 -41 -41v-536q0 -41 41 -41z" />
    <glyph glyph-name="Q" unicode="Q" horiz-adv-x="1835" 
d="M1604 -61q-32 -17 -56 8l-157 155q-26 26 -58 7q-193 -129 -432 -129q-214 0 -395.5 105.5t-287 287t-105.5 395.5t105.5 395.5t287 287t395.5 105.5q161 0 307 -62.5t251.5 -167.5t168 -251t62.5 -307q0 -282 -179 -500q-25 -32 2 -59l181 -174q32 -34 -11 -58zM901 154
q165 0 297 75q42 24 8 58l-239 239q-33 34 10 56l74 34q31 17 55 -8l225 -219q33 -31 58 2q127 169 127 377q0 168 -82 309.5t-223.5 223t-309.5 81.5q-167 0 -308.5 -81.5t-223.5 -223t-82 -309.5t82 -309.5t223.5 -223t308.5 -81.5z" />
    <glyph glyph-name="R" unicode="R" horiz-adv-x="1395" 
d="M260 0q-41 0 -41 41v1454q0 41 41 41h535q179 0 304.5 -126t125.5 -304q0 -135 -73.5 -241t-193.5 -152q-41 -17 -20 -54l356 -610q13 -19 4.5 -34t-32.5 -15h-99q-35 0 -49 29l-354 624q-14 29 -49 29h-281q-41 0 -41 -41v-600q0 -41 -41 -41h-92zM393 887q0 -41 41 -41
h344q118 0 195.5 68.5t77.5 189.5q0 118 -78.5 193t-194.5 75h-344q-41 0 -41 -41v-444z" />
    <glyph glyph-name="S" unicode="S" horiz-adv-x="1171" 
d="M600 -20q-145 0 -275 59t-219 154q-24 28 5 57l65 65q30 30 57 -4q149 -174 355 -174q136 0 224.5 72t88.5 190q0 37 -10.5 69.5t-25 57.5t-42.5 49.5t-51.5 41t-64 37t-67 32t-73.5 31.5q-57 24 -90 38.5t-82.5 40.5t-78.5 48t-63.5 55.5t-53 69t-31 83t-12.5 101.5
q0 182 121 292.5t305 110.5q246 0 417 -180q30 -28 0 -57l-51 -53q-27 -32 -59 2q-77 73 -147.5 102t-155.5 29q-112 0 -188 -62t-76 -172q0 -49 20 -91t44 -68.5t77.5 -57t85.5 -44.5t103 -43q8 -3 12 -5q52 -21 84.5 -35.5t79.5 -40t77 -48.5t64 -58t53 -72.5t32 -87.5
t13 -108q0 -102 -37 -184t-101.5 -134t-148.5 -80t-180 -28z" />
    <glyph glyph-name="T" unicode="T" horiz-adv-x="1145" 
d="M526 0q-41 0 -41 41v1290q0 41 -41 41h-340q-41 0 -41 41v82q0 41 41 41h936q41 0 41 -41v-82q0 -41 -41 -41h-340q-41 0 -41 -41v-1290q0 -41 -41 -41h-92z" />
    <glyph glyph-name="U" unicode="U" horiz-adv-x="1538" 
d="M768 -20q-252 0 -416 148.5t-164 375.5v991q0 41 41 41h93q40 0 40 -41v-952q0 -202 110 -301t296 -99q187 0 297.5 99t110.5 301v952q0 41 41 41h92q41 0 41 -41v-991q0 -227 -164.5 -375.5t-417.5 -148.5z" />
    <glyph glyph-name="V" unicode="V" horiz-adv-x="1491" 
d="M717 0q-34 0 -47 33l-592 1456q-9 22 0.5 34.5t32.5 12.5h86q34 0 47 -33l475 -1192q11 -26 27 -26t26 26l475 1192q13 33 47 33h86q23 0 32 -12.5t1 -34.5l-592 -1456q-13 -33 -47 -33h-57z" />
    <glyph glyph-name="W" unicode="W" horiz-adv-x="2193" 
d="M588 0q-36 0 -45 35l-461 1454q-6 22 3.5 34.5t31.5 12.5h94q36 0 45 -35l342 -1089q6 -19 16 -26t20.5 0t16.5 26l350 1091q10 33 46 33h100q36 0 45 -33l350 -1091q6 -19 16 -26t20.5 0t16.5 26l342 1089q11 35 45 35h95q21 0 31 -13t3 -34l-460 -1454q-9 -35 -45 -35
h-62q-36 0 -45 33l-375 1159q-6 19 -16 26t-20.5 0t-16.5 -26l-377 -1159q-11 -33 -45 -33h-61z" />
    <glyph glyph-name="X" unicode="X" horiz-adv-x="1368" 
d="M125 0q-25 0 -33 15t6 34l473 701q18 28 0 57l-458 680q-14 19 -6.5 34t32.5 15h117q32 0 49 -27l350 -540q13 -20 29 -20t29 20l350 540q17 27 49 27h117q25 0 32.5 -15t-6.5 -34l-458 -678q-18 -29 0 -57l473 -703q14 -19 6 -34t-33 -15h-119q-32 0 -49 27l-362 563
q-13 20 -29 20t-29 -20l-362 -563q-17 -27 -49 -27h-119z" />
    <glyph glyph-name="Y" unicode="Y" horiz-adv-x="1343" 
d="M627 0q-41 0 -41 41v655q0 29 -15 52l-489 739q-14 19 -6 34t33 15h124q33 0 50 -27l362 -575q13 -20 29 -20t28 20l363 575q15 27 49 27h121q25 0 33 -15t-6 -34l-488 -737q-14 -24 -14 -52v-657q0 -41 -41 -41h-92z" />
    <glyph glyph-name="Z" unicode="Z" horiz-adv-x="1257" 
d="M141 0q-41 0 -41 41v78q0 26 17 51l784 1153q14 22 7 35.5t-31 13.5h-736q-41 0 -41 41v82q0 41 41 41h975q41 0 41 -41v-82q0 -25 -16 -51l-783 -1149q-14 -20 -6 -34.5t33 -14.5h731q41 0 41 -41v-82q0 -41 -41 -41h-975z" />
    <glyph glyph-name="bracketleft" unicode="[" horiz-adv-x="645" 
d="M215 -512q-41 0 -41 41v2212q0 41 41 41h330q41 0 41 -41v-47q0 -41 -41 -41h-183q-40 0 -40 -41v-1954q0 -41 40 -41h183q41 0 41 -41v-47q0 -41 -41 -41h-330z" />
    <glyph glyph-name="backslash" unicode="\" horiz-adv-x="1169" 
d="M1034 -348q-35 0 -49 29l-952 1806q-11 22 -3 35.5t31 13.5h76q35 0 49 -29l951 -1806q10 -22 2 -35.5t-31 -13.5h-74z" />
    <glyph glyph-name="bracketright" unicode="]" horiz-adv-x="645" 
d="M100 -512q-41 0 -41 41v47q0 41 41 41h183q41 0 41 41v1954q0 41 -41 41h-183q-41 0 -41 41v47q0 41 41 41h330q41 0 41 -41v-2212q0 -41 -41 -41h-330z" />
    <glyph glyph-name="asciicircum" unicode="^" horiz-adv-x="1505" 
d="M162 406q-23 0 -32 13.5t1 35.5l531 1050q15 31 47 31h88q32 0 47 -31l530 -1050q11 -22 2 -35.5t-33 -13.5h-57q-32 0 -47 30l-457 907q-10 23 -28 23t-29 -23l-459 -909q-14 -28 -47 -28h-57z" />
    <glyph glyph-name="underscore" unicode="_" horiz-adv-x="1364" 
d="M211 -131q-41 0 -41 41v49q0 41 41 41h942q41 0 41 -41v-49q0 -41 -41 -41h-942z" />
    <glyph glyph-name="grave" unicode="`" horiz-adv-x="492" 
d="M332 1219q-29 0 -51 22l-181 191q-27 30 4 57l33 27q34 26 60 -7l194 -241q17 -22 9.5 -35.5t-33.5 -13.5h-35z" />
    <glyph glyph-name="a" unicode="a" horiz-adv-x="1364" 
d="M616 -20q-106 0 -203.5 43.5t-170 117t-115.5 175.5t-43 214t43 214t115.5 175t170 116.5t203.5 43.5q220 0 367 -141q20 -20 33.5 -14.5t13.5 32.5v62q0 41 41 41h78q41 0 41 -41v-977q0 -41 -41 -41h-78q-41 0 -41 41v61q0 28 -12 35t-29 -10q-147 -147 -373 -147z
M637 135q164 0 278.5 115.5t114.5 279.5t-114.5 279t-278.5 115q-163 0 -278 -115.5t-115 -278.5q0 -164 115 -279.5t278 -115.5z" />
    <glyph glyph-name="b" unicode="b" horiz-adv-x="1364" 
d="M748 -20q-220 0 -367 141q-20 20 -33.5 14.5t-13.5 -33.5v-61q0 -41 -41 -41h-78q-41 0 -41 41v1454q0 41 41 41h78q41 0 41 -41v-539q0 -27 13.5 -32.5t33.5 14.5q147 141 367 141q106 0 203.5 -43.5t170 -116.5t115.5 -175t43 -214t-43 -214t-115.5 -175.5t-170 -117
t-203.5 -43.5zM727 135q163 0 278 115.5t115 279.5q0 163 -115 278.5t-278 115.5q-164 0 -278.5 -115t-114.5 -279t114.5 -279.5t278.5 -115.5z" />
    <glyph glyph-name="c" unicode="c" horiz-adv-x="1147" 
d="M637 -18q-151 0 -278.5 73t-201 199t-73.5 276q0 151 73.5 277t201 199t278.5 73q128 0 240 -53.5t190 -146.5q24 -31 -8 -58l-66 -47q-31 -25 -57 8q-113 142 -299 142q-167 0 -280 -113.5t-113 -280.5q0 -166 113 -279.5t280 -113.5q187 0 299 142q26 33 57 8l66 -47
q32 -24 10 -56q-78 -94 -191 -148t-241 -54z" />
    <glyph glyph-name="d" unicode="d" horiz-adv-x="1364" 
d="M616 -20q-106 0 -203.5 43.5t-170 117t-115.5 175.5t-43 214t43 214t115.5 175t170 116.5t203.5 43.5q220 0 367 -141q20 -20 33.5 -14.5t13.5 32.5v539q0 41 41 41h78q41 0 41 -41v-1454q0 -41 -41 -41h-78q-41 0 -41 41v61q0 28 -12 35t-29 -10q-147 -147 -373 -147z
M637 135q164 0 278.5 115.5t114.5 279.5t-114.5 279t-278.5 115q-163 0 -278 -115.5t-115 -278.5q0 -164 115 -279.5t278 -115.5z" />
    <glyph glyph-name="e" unicode="e" horiz-adv-x="1251" 
d="M637 -20q-153 0 -280 73.5t-200 200t-73 276.5t73 276t200 199.5t278 73.5q149 0 274 -70t198.5 -189.5t78.5 -262.5v-4q-1 -19 -13 -30t-30 -11h-867q-20 0 -31 -11.5t-7 -31.5q19 -148 132.5 -246t264.5 -98q93 0 175 39t138 110q25 31 58 17l59 -25q43 -19 18 -55
q-76 -108 -192.5 -169.5t-253.5 -61.5zM299 641h670q22 0 31.5 13t0.5 34q-45 111 -143.5 178.5t-222.5 67.5q-125 0 -224.5 -67t-144.5 -179q-9 -21 1 -34t32 -13z" />
    <glyph glyph-name="f" unicode="f" horiz-adv-x="684" 
d="M256 0q-41 0 -41 41v833q0 41 -41 41h-96q-41 0 -41 41v62q0 41 41 41h96q41 0 41 41v145q0 142 81.5 226.5t215.5 84.5q54 0 109 -14q34 -6 34 -45v-61q0 -44 -47 -35q-40 10 -71 10q-75 0 -118.5 -48t-43.5 -136v-127q0 -41 41 -41h198q41 0 41 -41v-62q0 -41 -41 -41
h-198q-41 0 -41 -41v-833q0 -41 -41 -41h-78z" />
    <glyph glyph-name="g" unicode="g" horiz-adv-x="1331" 
d="M637 -498q-150 0 -276 61t-207 195q-19 34 14 58l59 43q35 24 58 -15q107 -186 348 -186q180 0 271 94.5t91 251.5v117q0 27 -13.5 32t-33.5 -14q-130 -127 -330 -127q-149 0 -272.5 71.5t-193.5 194t-70 269.5q0 110 41.5 208.5t112.5 169.5t170.5 112.5t211.5 41.5
q200 0 330 -127q20 -18 33.5 -13t13.5 32v47q0 41 41 41h80q41 0 41 -41v-1014q0 -141 -58 -253.5t-177.5 -180.5t-284.5 -68zM618 168q157 0 268 111t111 268t-111 268t-268 111q-156 0 -266 -111t-110 -268t110 -268t266 -111z" />
    <glyph glyph-name="h" unicode="h" horiz-adv-x="1210" 
d="M215 0q-41 0 -41 41v1454q0 41 41 41h70q41 0 41 -41v-514q0 -27 12 -31t31 17q103 112 272 112q186 0 305 -119.5t119 -345.5v-573q0 -41 -41 -41h-68q-41 0 -41 41v561q0 170 -81 250t-213 80q-129 0 -211.5 -83t-83.5 -237v-571q0 -41 -41 -41h-70z" />
    <glyph glyph-name="i" unicode="i" horiz-adv-x="508" 
d="M254 1329q-46 0 -80.5 33.5t-34.5 79.5q0 48 34 81t81 33t81 -33t34 -81q0 -46 -34.5 -79.5t-80.5 -33.5zM215 0q-41 0 -41 41v977q0 41 41 41h78q41 0 41 -41v-977q0 -41 -41 -41h-78z" />
    <glyph glyph-name="j" unicode="j" horiz-adv-x="508" 
d="M254 1329q-46 0 -80.5 33.5t-34.5 79.5q0 48 34 81t81 33t81 -33t34 -81q0 -46 -34.5 -79.5t-80.5 -33.5zM-143 -496q-43 -3 -43 39v74q0 40 41 43q157 10 238 104t81 240v1014q0 41 41 41h78q41 0 41 -41v-1014q0 -135 -53.5 -244t-163 -178.5t-260.5 -77.5z" />
    <glyph glyph-name="k" unicode="k" horiz-adv-x="1081" 
d="M215 0q-41 0 -41 41v1454q0 41 41 41h78q41 0 41 -41v-827q0 -28 16 -34.5t35 13.5l365 389q21 23 51 23h117q26 0 32.5 -15.5t-12.5 -35.5l-391 -400q-29 -27 0 -57l473 -500q18 -19 10.5 -35t-33.5 -16h-116q-29 0 -52 23l-444 473q-19 20 -35 13.5t-16 -34.5v-434
q0 -41 -41 -41h-78z" />
    <glyph glyph-name="l" unicode="l" horiz-adv-x="508" 
d="M215 0q-41 0 -41 41v1454q0 41 41 41h78q41 0 41 -41v-1454q0 -41 -41 -41h-78z" />
    <glyph glyph-name="m" unicode="m" horiz-adv-x="1739" 
d="M215 0q-41 0 -41 41v977q0 41 41 41h78q41 0 41 -41v-33q0 -28 12 -31t31 19q93 106 252 106q180 0 264 -125q26 -35 51 -2q102 127 279 127q160 0 262 -102t102 -256v-680q0 -41 -41 -41h-78q-41 0 -41 41v616q0 141 -63 204t-164 63q-108 0 -173.5 -68.5t-65.5 -200.5
v-614q0 -41 -41 -41h-78q-41 0 -41 41v616q0 141 -63.5 204t-164.5 63q-109 0 -174 -68t-65 -201v-614q0 -41 -41 -41h-78z" />
    <glyph glyph-name="n" unicode="n" horiz-adv-x="1219" 
d="M215 0q-41 0 -41 41v977q0 41 41 41h78q41 0 41 -41v-37q0 -27 12 -31t31 17q103 112 272 112q186 0 305 -119.5t119 -345.5v-573q0 -41 -41 -41h-78q-41 0 -41 41v561q0 171 -76.5 250.5t-207.5 79.5q-129 0 -211.5 -83t-83.5 -237v-571q0 -41 -41 -41h-78z" />
    <glyph glyph-name="o" unicode="o" horiz-adv-x="1274" 
d="M637 -20q-151 0 -278.5 73.5t-201 200t-73.5 276.5t73.5 276t201 199.5t278.5 73.5t278.5 -73.5t201 -199.5t73.5 -276t-73.5 -276.5t-201 -200t-278.5 -73.5zM637 135q163 0 278 115.5t115 279.5q0 163 -115 278.5t-278 115.5q-164 0 -278.5 -115t-114.5 -279
t114.5 -279.5t278.5 -115.5z" />
    <glyph glyph-name="p" unicode="p" horiz-adv-x="1364" 
d="M215 -498q-41 0 -41 41v1475q0 41 41 41h78q41 0 41 -41v-62q0 -27 13.5 -32.5t33.5 14.5q147 141 367 141q106 0 203.5 -43.5t170 -116.5t115.5 -175t43 -214t-43 -214t-115.5 -175.5t-170 -117t-203.5 -43.5q-220 0 -367 141q-20 20 -33.5 14.5t-13.5 -33.5v-559
q0 -41 -41 -41h-78zM727 135q163 0 278 115.5t115 279.5q0 163 -115 278.5t-278 115.5q-164 0 -278.5 -115t-114.5 -279t114.5 -279.5t278.5 -115.5z" />
    <glyph glyph-name="q" unicode="q" horiz-adv-x="1364" 
d="M1071 -498q-41 0 -41 41v559q0 28 -13.5 33.5t-33.5 -14.5q-147 -141 -367 -141q-106 0 -203.5 43.5t-170 117t-115.5 175.5t-43 214t43 214t115.5 175t170 116.5t203.5 43.5q220 0 367 -141q20 -20 33.5 -14.5t13.5 32.5v62q0 41 41 41h78q41 0 41 -41v-1475
q0 -41 -41 -41h-78zM637 135q164 0 278.5 115.5t114.5 279.5t-114.5 279t-278.5 115q-163 0 -278 -115.5t-115 -278.5q0 -164 115 -279.5t278 -115.5z" />
    <glyph glyph-name="r" unicode="r" horiz-adv-x="733" 
d="M215 0q-41 0 -41 41v977q0 41 41 41h78q41 0 41 -41v-57q0 -28 12.5 -32.5t32.5 15.5q100 111 283 123q43 3 43 -39v-72q0 -18 -11 -30t-30 -13q-330 -14 -330 -333v-539q0 -41 -41 -41h-78z" />
    <glyph glyph-name="s" unicode="s" horiz-adv-x="936" 
d="M467 -20q-200 0 -369 116q-32 25 -10 58l45 67q22 35 57 8q132 -98 283 -98q98 0 156.5 43t58.5 121q0 23 -7 43t-17 34.5t-30 28.5t-35.5 22.5t-45.5 19.5t-48 16.5t-54 15.5q-49 15 -69.5 21t-64.5 23t-65 30t-52 37t-45.5 49.5t-26 61.5t-11.5 79q0 96 52.5 166
t135.5 103.5t184 33.5q164 0 302 -84q35 -22 10 -55l-47 -61q-23 -32 -58 -11q-103 66 -221 66q-90 0 -145.5 -38t-55.5 -105q0 -48 40.5 -83.5t78 -49.5t125.5 -39q15 -5 23 -7q54 -16 90.5 -29t82 -38.5t73 -55.5t46.5 -77.5t19 -106.5q0 -153 -105.5 -239t-279.5 -86z
" />
    <glyph glyph-name="t" unicode="t" horiz-adv-x="727" 
d="M514 0q-136 0 -218.5 75.5t-82.5 215.5v583q0 41 -41 41h-96q-41 0 -41 41v62q0 41 41 41h96q41 0 41 41v211q0 41 41 41h78q41 0 41 -41v-211q0 -41 41 -41h198q41 0 41 -41v-62q0 -41 -41 -41h-198q-41 0 -41 -41v-565q0 -80 43.5 -125t115.5 -45h80q41 0 41 -41v-57
q0 -41 -41 -41h-98z" />
    <glyph glyph-name="u" unicode="u" horiz-adv-x="1143" 
d="M571 -20q-190 0 -305.5 101t-115.5 279v658q0 41 40 41h74q41 0 41 -41v-653q0 -114 73.5 -172t192.5 -58q121 0 194 58t73 172v653q0 41 41 41h73q41 0 41 -41v-658q0 -178 -115.5 -279t-306.5 -101z" />
    <glyph glyph-name="v" unicode="v" horiz-adv-x="1118" 
d="M543 0q-36 0 -49 31l-445 981q-9 21 -0.5 34t31.5 13h84q37 0 49 -31l319 -743q11 -26 27 -26t27 26l319 743q12 31 49 31h84q23 0 31.5 -13t-0.5 -34l-446 -981q-15 -31 -48 -31h-32z" />
    <glyph glyph-name="w" unicode="w" horiz-adv-x="1749" 
d="M471 0q-34 0 -47 33l-373 979q-8 21 1 34t32 13h88q36 0 47 -33l254 -696q6 -18 16 -24.5t20 0t17 22.5l295 700q11 31 47 31h13q36 0 47 -31l295 -700q7 -16 17 -22.5t20 0t16 24.5l254 696q11 33 47 33h88q23 0 32 -13t1 -34l-373 -979q-13 -33 -47 -33h-31
q-38 0 -49 31l-297 696q-11 26 -27 26t-26 -26l-297 -696q-11 -31 -49 -31h-31z" />
    <glyph glyph-name="x" unicode="x" horiz-adv-x="1141" 
d="M98 0q-26 0 -33.5 15t9.5 36l375 451q23 28 0 57l-375 449q-17 21 -9.5 36t33.5 15h99q33 0 51 -25l293 -354q29 -33 57 0l295 356q16 23 51 23h98q27 0 34.5 -15t-9.5 -36l-375 -449q-23 -29 0 -57l375 -451q17 -21 9.5 -36t-34.5 -15h-98q-33 0 -51 25l-293 354
q-28 32 -57 0l-295 -356q-16 -23 -51 -23h-99z" />
    <glyph glyph-name="y" unicode="y" horiz-adv-x="1067" 
d="M293 -498q-23 0 -32 13t-1 34l178 453q11 25 0 53l-389 957q-9 21 0.5 34t32.5 13h92q34 0 47 -33l293 -745q11 -27 27.5 -26t25.5 28l277 743q13 33 47 33h94q23 0 32 -13t1 -34l-594 -1477q-13 -33 -47 -33h-84z" />
    <glyph glyph-name="z" unicode="z" horiz-adv-x="1020" 
d="M106 0q-24 0 -31 15t7 34l553 813q14 20 6 34.5t-33 14.5h-481q-41 0 -41 41v66q0 41 41 41h774q24 0 31.5 -14.5t-6.5 -34.5l-553 -813q-14 -20 -6 -35t32 -15h521q41 0 41 -41v-65q0 -41 -41 -41h-814z" />
    <glyph glyph-name="braceleft" unicode="{" horiz-adv-x="594" 
d="M432 -512q-90 0 -150.5 75.5t-60.5 186.5v498q0 140 -23 206t-102 109q-28 19 -28 49v45q0 30 28 50q79 43 102 110t23 205v496q0 113 60 188.5t151 75.5h49q41 0 41 -41v-39q0 -41 -26 -41h-29q-61 0 -87 -45.5t-26 -134.5v-488q0 -115 -21 -193.5t-85 -137.5
q-30 -27 0 -54q64 -59 85 -137.5t21 -194.5v-489q0 -89 26 -132.5t87 -43.5h14q41 0 41 -41v-41q0 -41 -41 -41h-49z" />
    <glyph glyph-name="bar" unicode="|" horiz-adv-x="637" 
d="M303 -307q-41 0 -41 41v1761q0 41 41 41h31q41 0 41 -41v-1761q0 -41 -41 -41h-31z" />
    <glyph glyph-name="braceright" unicode="}" horiz-adv-x="594" 
d="M113 -512q-41 0 -41 41v41q0 41 28 41h27q61 0 87 43.5t26 132.5v489q0 116 21 194.5t85 137.5q30 27 0 54q-64 59 -85 137.5t-21 193.5v488q0 89 -26 134.5t-87 45.5h-14q-41 0 -41 41v39q0 41 41 41h49q91 0 151 -75.5t60 -188.5v-496q0 -138 23 -205t102 -110
q28 -20 28 -50v-45q0 -30 -28 -49q-79 -43 -102 -109t-23 -206v-498q0 -111 -60.5 -186.5t-150.5 -75.5h-49z" />
    <glyph glyph-name="asciitilde" unicode="~" horiz-adv-x="1430" 
d="M930 342q-51 0 -95.5 14t-82 43.5t-55.5 47t-48 51.5q-37 42 -67.5 61t-67.5 19q-65 0 -106 -49t-50 -126q-6 -41 -43 -41h-67q-20 0 -31 11t-10 30q3 145 88 234.5t221 89.5q81 0 138 -35.5t120 -111.5q36 -45 67.5 -68t76.5 -23q61 0 104 47t49 126q3 40 41 40h68
q19 0 31 -12t12 -33q-5 -137 -87 -226t-206 -89z" />
    <glyph glyph-name="exclamdown" unicode="&#xa1;" horiz-adv-x="635" 
d="M309 1044q46 0 80.5 -34t34.5 -80q0 -48 -34 -81.5t-81 -33.5q-46 0 -80 33.5t-34 81.5q0 46 34 80t80 34zM266 582h86q41 0 41 -41v-1012q0 -41 -41 -41h-86q-41 0 -41 41v1012q0 41 41 41z" />
    <glyph glyph-name="cent" unicode="&#xa2;" horiz-adv-x="1356" 
d="M672 0q-41 0 -41 41v149q0 37 -37 43q-189 39 -312.5 189t-123.5 348t123.5 348t312.5 189q37 6 37 43v145q0 41 41 41h26q41 0 41 -41v-137q0 -36 39 -43q108 -13 202 -64.5t161 -132.5q25 -31 -8 -57l-66 -47q-31 -26 -57 8q-112 141 -299 141q-168 0 -281 -113.5
t-113 -279.5t113 -279.5t281 -113.5q187 0 299 141q26 34 57 8l66 -47q33 -23 10 -55q-67 -81 -162 -133.5t-203 -65.5q-39 -7 -39 -43v-141q0 -41 -41 -41h-26z" />
    <glyph glyph-name="sterling" unicode="&#xa3;" horiz-adv-x="1407" 
d="M207 0q-41 0 -41 41v51q0 41 18 41h17q63 3 96 37.5t33 97.5v363q0 41 -41 41h-82q-41 0 -41 41v71q0 41 41 41h82q41 0 41 41v201q0 214 133.5 351.5t343.5 137.5q140 0 262 -82t174 -212q14 -36 -22 -54l-93 -41q-39 -16 -51 25q-31 83 -106.5 134.5t-163.5 51.5
q-135 0 -217 -85.5t-82 -225.5v-201q0 -41 41 -41h299q41 0 41 -41v-71q0 -41 -41 -41h-299q-41 0 -41 -41v-426q0 -41 41 -41h649q41 0 41 -41v-82q0 -41 -41 -41h-991z" />
    <glyph glyph-name="currency" unicode="&#xa4;" horiz-adv-x="1393" 
d="M694 295q-129 0 -235 67q-31 22 -58 -4l-49 -49q-27 -30 -57 0l-35 39q-26 30 0 58l49 47q28 24 4 57q-65 109 -65 233q0 128 65 234q25 33 -4 57l-47 45q-26 28 0 58l35 39q27 30 57 0l49 -50q27 -25 58 -4q106 70 237 70q123 0 232 -68q31 -22 57 4l47 48q29 27 58 0
l36 -35q29 -29 0 -58l-47 -47q-26 -26 -4 -57q68 -109 68 -236q0 -126 -68 -235q-21 -32 4 -57l47 -45q28 -28 0 -58l-34 -39q-27 -29 -58 0l-49 49q-25 27 -59 4q-104 -67 -234 -67zM694 426q132 0 225 92.5t93 224.5q0 131 -93.5 223.5t-224.5 92.5q-132 0 -224.5 -94
t-92.5 -226q0 -131 93 -222t224 -91z" />
    <glyph glyph-name="yen" unicode="&#xa5;" horiz-adv-x="1495" 
d="M702 0q-40 0 -40 41v199q0 41 -41 41h-324q-41 0 -41 41v61q0 41 41 41h324q41 0 41 41v90q0 41 -41 41h-324q-41 0 -41 41v61q0 41 41 41h295q25 0 32.5 14.5t-6.5 34.5l-460 699q-14 19 -6 34t32 15h125q34 0 49 -27l363 -575q12 -20 28.5 -20t28.5 20l363 575
q15 27 49 27h121q24 0 32 -15t-6 -34l-460 -699q-14 -20 -6.5 -34.5t32.5 -14.5h297q41 0 41 -41v-61q0 -41 -41 -41h-323q-41 0 -41 -41v-90q0 -41 41 -41h321q41 0 41 -41v-61q0 -41 -41 -41h-321q-41 0 -41 -41v-199q0 -41 -41 -41h-93z" />
    <glyph glyph-name="brokenbar" unicode="&#xa6;" horiz-adv-x="637" 
d="M303 799q-41 0 -41 41v655q0 41 41 41h31q41 0 41 -41v-655q0 -41 -41 -41h-31zM303 -307q-41 0 -41 41v655q0 41 41 41h31q41 0 41 -41v-655q0 -41 -41 -41h-31z" />
    <glyph glyph-name="section" unicode="&#xa7;" horiz-adv-x="991" 
d="M506 0q-80 3 -147.5 33.5t-112.5 81.5q-29 30 6 57l35 27q27 21 57 -6q65 -65 164 -68q78 -3 131.5 35.5t54.5 111.5q2 52 -25 91.5t-72.5 66t-100.5 50.5t-110 52.5t-100 64t-72 93t-24 131.5q4 109 66 180q23 33 -4 58q-87 77 -82 201q4 129 94 205t221 71
q157 -6 258 -115q14 -14 12 -29.5t-18 -27.5l-32 -27q-29 -25 -58 6q-61 69 -164 72q-79 2 -132 -36.5t-56 -114.5q-2 -51 25.5 -90.5t72.5 -65.5t100.5 -50t110 -52.5t99.5 -64t72 -93t24 -131.5q-3 -108 -64 -182q-23 -30 2 -56q87 -80 82 -200q-4 -131 -93 -207.5
t-220 -71.5zM557 588q30 -14 55 2q61 44 64 127q1 44 -16.5 79t-52.5 61.5t-72 45.5t-88 42q-11 5 -17 7q-30 17 -55 -4q-59 -45 -62 -127q-1 -43 16.5 -77.5t51.5 -60.5t71 -45.5t86 -41.5q13 -5 19 -8z" />
    <glyph glyph-name="dieresis" unicode="&#xa8;" horiz-adv-x="887" 
d="M254 1329q-46 0 -80.5 33.5t-34.5 79.5q0 48 34 81t81 33t81 -33t34 -81q0 -46 -34.5 -79.5t-80.5 -33.5zM631 1329q-47 0 -81 33.5t-34 79.5q0 48 34 81t81 33q48 0 81 -33t33 -81q0 -47 -33.5 -80t-80.5 -33z" />
    <glyph glyph-name="copyright" unicode="&#xa9;" horiz-adv-x="1884" 
d="M942 -20q-160 0 -306 62.5t-251.5 168t-168 251.5t-62.5 306t62.5 306t168 251.5t251.5 168t306 62.5q128 0 248.5 -40t217.5 -113t170 -170t113 -217t40 -248t-40 -248t-113 -217t-170 -170t-217.5 -113t-248.5 -40zM942 80q142 0 270 54t220 146t146 219.5t54 268.5
t-54 268.5t-146 219.5t-220 146t-270 54q-188 0 -346.5 -91.5t-250 -250t-91.5 -346.5t91.5 -346.5t250 -250t346.5 -91.5zM944 330q-183 0 -310.5 127.5t-127.5 310.5t127.5 310.5t310.5 127.5q71 0 145.5 -27t133.5 -73q29 -28 0 -57l-11 -11q-26 -26 -57 -2
q-93 74 -211 74q-143 0 -242.5 -99t-99.5 -243q0 -142 99.5 -241t242.5 -99q118 0 211 74q31 24 57 -2l11 -11q30 -30 0 -59q-59 -46 -133.5 -73t-145.5 -27z" />
    <glyph glyph-name="ordfeminine" unicode="&#xaa;" horiz-adv-x="1028" 
d="M457 909q-128 0 -219 93.5t-91 226.5q0 132 91 225.5t219 93.5q118 0 196 -80q20 -18 32.5 -16t12.5 25v18q0 41 41 41h33q41 0 41 -41v-532q0 -41 -41 -41h-33q-41 0 -41 41v8q0 26 -11 31.5t-30 -13.5q-83 -80 -200 -80zM479 1010q91 0 155 64t64 155q0 89 -64 152
t-155 63t-154 -63t-63 -152q0 -91 63 -155t154 -64z" />
    <glyph glyph-name="guillemotleft" unicode="&#xab;" horiz-adv-x="997" 
d="M418 195q-33 0 -51 24l-267 324q-23 29 0 57l267 324q18 24 51 24h47q27 0 34 -14.5t-10 -36.5l-245 -297q-24 -28 0 -57l245 -297q17 -22 10 -36.5t-34 -14.5h-47zM795 195q-33 0 -52 24l-266 324q-23 29 0 57l266 324q19 24 52 24h51q27 0 34 -14.5t-10 -36.5
l-245 -297q-24 -28 0 -57l245 -297q17 -22 10 -36.5t-34 -14.5h-51z" />
    <glyph glyph-name="logicalnot" unicode="&#xac;" horiz-adv-x="1661" 
d="M1294 225q-41 0 -41 41v443q0 41 -41 41h-1030q-41 0 -41 41v67q0 41 41 41h1178q41 0 41 -41v-592q0 -41 -41 -41h-66z" />
    <glyph glyph-name="uni00AD" unicode="&#xad;" horiz-adv-x="1057" 
d="M211 459q-41 0 -41 41v63q0 41 41 41h635q41 0 41 -41v-63q0 -41 -41 -41h-635z" />
    <glyph glyph-name="registered" unicode="&#xae;" horiz-adv-x="1884" 
d="M942 -20q-160 0 -306 62.5t-251.5 168t-168 251.5t-62.5 306t62.5 306t168 251.5t251.5 168t306 62.5q128 0 248.5 -40t217.5 -113t170 -170t113 -217t40 -248t-40 -248t-113 -217t-170 -170t-217.5 -113t-248.5 -40zM942 80q142 0 270 54t220 146t146 219.5t54 268.5
t-54 268.5t-146 219.5t-220 146t-270 54q-188 0 -346.5 -91.5t-250 -250t-91.5 -346.5t91.5 -346.5t250 -250t346.5 -91.5zM702 272q-40 0 -40 41v910q0 41 40 41h318q117 0 197.5 -80.5t80.5 -196.5q0 -77 -37 -140t-100 -99q-35 -24 -20 -56l166 -373q9 -21 0.5 -34
t-31.5 -13h-33q-37 0 -49 31l-168 377q-12 31 -49 31h-162q-41 0 -41 -41v-357q0 -41 -41 -41h-31zM774 860q0 -41 41 -41h195q76 0 126 44.5t50 121.5q0 75 -50.5 122.5t-125.5 47.5h-195q-41 0 -41 -41v-254z" />
    <glyph glyph-name="macron" unicode="&#xaf;" horiz-adv-x="975" 
d="M211 1247q-41 0 -41 41v33q0 41 41 41h553q41 0 41 -41v-33q0 -41 -41 -41h-553z" />
    <glyph glyph-name="degree" unicode="&#xb0;" horiz-adv-x="944" 
d="M471 1008q-113 0 -193.5 81t-80.5 193q0 114 80 194t194 80t194 -80t80 -194q0 -112 -80.5 -193t-193.5 -81zM471 1106q73 0 124.5 51t51.5 125t-51.5 126t-124.5 52t-124.5 -52t-51.5 -126t51.5 -125t124.5 -51z" />
    <glyph glyph-name="plusminus" unicode="&#xb1;" horiz-adv-x="1303" 
d="M616 338q-41 0 -41 41v326q0 40 -40 40h-326q-41 0 -41 41v78q0 41 41 41h326q40 0 40 41v326q0 41 41 41h78q41 0 41 -41v-326q0 -41 41 -41h326q41 0 41 -41v-78q0 -41 -41 -41h-326q-41 0 -41 -40v-326q0 -41 -41 -41h-78zM193 4q-41 0 -41 41v78q0 41 41 41h909
q41 0 41 -41v-78q0 -41 -41 -41h-909z" />
    <glyph glyph-name="acute" unicode="&#xb4;" horiz-adv-x="485" 
d="M160 1219h-35q-26 0 -33.5 13.5t9.5 35.5l194 241q26 33 60 7l33 -27q31 -27 4 -57l-181 -191q-22 -22 -51 -22z" />
    <glyph glyph-name="mu" unicode="&#xb5;" horiz-adv-x="1366" 
d="M303 -512q-41 0 -41 41v1454q0 41 41 41h86q41 0 41 -41v-580q0 -113 81 -193.5t196 -80.5q116 0 199 80.5t83 193.5v580q0 41 41 41h86q41 0 41 -41v-942q0 -41 -41 -41h-86q-41 0 -41 41v39q0 28 -13.5 32t-33.5 -16q-118 -116 -280 -116q-122 0 -222 67
q-21 15 -35 8.5t-14 -30.5v-496q0 -41 -41 -41h-47z" />
    <glyph glyph-name="paragraph" unicode="&#xb6;" horiz-adv-x="1192" 
d="M590 -307q-41 0 -41 41v1075q0 41 -33 41h-33q-171 0 -267.5 89.5t-96.5 254.5t96.5 253.5t267.5 88.5h119q41 0 41 -41v-1761q0 -41 -41 -41h-12zM877 -307q-41 0 -41 41v1761q0 41 41 41h12q41 0 41 -41v-1761q0 -41 -41 -41h-12z" />
    <glyph glyph-name="periodcentered" unicode="&#xb7;" horiz-adv-x="614" 
d="M307 645q-37 0 -64.5 26.5t-27.5 65.5q0 37 27.5 64.5t64.5 27.5t65.5 -27.5t28.5 -64.5q0 -39 -28 -65.5t-66 -26.5z" />
    <glyph glyph-name="cedilla" unicode="&#xb8;" horiz-adv-x="625" 
d="M317 -532q-57 0 -115 27t-96 71q-14 15 -9 30t26 23l16 6q28 12 58 -10q52 -47 120 -47q47 0 79 32.5t32 80.5q0 49 -31.5 77.5t-83.5 28.5q-27 0 -55 -8q-32 -10 -55 6l-21 14q-30 23 -16 56l76 149h100l-41 -86q-18 -37 -5 -47q3 -3 7 -2q8 2 27 2q86 0 142 -53
t56 -137q0 -89 -61 -151t-150 -62z" />
    <glyph glyph-name="ordmasculine" unicode="&#xba;" horiz-adv-x="868" 
d="M432 909q-138 0 -235 93.5t-97 226.5q0 132 97 225.5t235 93.5q139 0 236.5 -93.5t97.5 -225.5q0 -134 -97.5 -227t-236.5 -93zM432 1010q91 0 155 64t64 155q0 89 -64 152t-155 63t-154 -63t-63 -152q0 -91 63 -155t154 -64z" />
    <glyph glyph-name="guillemotright" unicode="&#xbb;" horiz-adv-x="997" 
d="M152 195q-27 0 -34.5 14.5t9.5 36.5l246 297q23 29 0 57l-246 297q-17 22 -9.5 36.5t34.5 14.5h47q33 0 51 -24l266 -324q23 -28 0 -57l-266 -324q-18 -24 -51 -24h-47zM528 195q-26 0 -33.5 14.5t9.5 36.5l246 297q23 29 0 57l-246 297q-17 22 -9.5 36.5t33.5 14.5h52
q32 0 51 -24l266 -324q23 -28 0 -57l-266 -324q-19 -24 -51 -24h-52z" />
    <glyph glyph-name="onequarter" unicode="&#xbc;" horiz-adv-x="1592" 
d="M248 614q-9 0 -15 6t-6 15v758l-180 -140q-9 -8 -16.5 -4.5t-7.5 15.5v86q0 14 12 26l194 152q12 8 25 8h86q20 0 20 -20v-881q0 -21 -20 -21h-92zM256 0q-23 0 -32 15t3 34l824 1458q14 29 49 29h67q23 0 32.5 -15t-3.5 -34l-823 -1458q-14 -29 -49 -29h-68zM1317 0
q-20 0 -20 20v175h-420q-20 0 -20 20v53q0 11 8 27l381 612q11 15 24 15h137q21 0 21 -21v-594h72q20 0 20 -20v-72q0 -20 -20 -20h-72v-175q0 -20 -21 -20h-90zM996 307h301v496z" />
    <glyph glyph-name="onehalf" unicode="&#xbd;" horiz-adv-x="1649" 
d="M248 614q-9 0 -15 6t-6 15v758l-180 -140q-9 -8 -16.5 -4.5t-7.5 15.5v86q0 14 12 26l194 152q12 8 25 8h86q20 0 20 -20v-881q0 -21 -20 -21h-92zM256 0q-23 0 -32 15t3 34l824 1458q14 29 49 29h67q23 0 32.5 -15t-3.5 -34l-823 -1458q-14 -29 -49 -29h-68zM990 0
q-21 0 -21 20v89q0 12 13 24q192 171 288 270.5t125 151t29 102.5q0 78 -42.5 117t-105.5 39q-65 0 -105 -37t-46 -100q-3 -21 -23 -21h-94q-9 0 -14 6t-4 15q9 118 88 189t200 71q119 0 196.5 -71.5t80.5 -192.5q3 -115 -88.5 -231.5t-355.5 -331.5h452q9 0 15 -6t6 -15
v-68q0 -20 -21 -20h-573z" />
    <glyph glyph-name="threequarters" unicode="&#xbe;" horiz-adv-x="1797" 
d="M342 602q-116 0 -200 71.5t-93 180.5q0 20 21 20l94 3q19 0 22 -21q8 -57 53 -93t105 -36q69 0 115.5 47.5t46.5 118.5q0 70 -46.5 115t-117.5 45h-45q-21 0 -21 20v72q0 20 21 20h39q55 0 93 39t38 94t-37 91t-92 36q-49 0 -82 -27.5t-39 -72.5q-3 -20 -22 -20l-93 2
q-20 0 -20 20q9 98 81 159.5t175 61.5q106 0 179 -68.5t73 -168.5q0 -118 -98 -181q69 -36 109 -99t40 -142q0 -120 -86.5 -203.5t-212.5 -83.5zM461 0q-23 0 -32 15t3 34l824 1458q14 29 49 29h67q23 0 32.5 -15t-3.5 -34l-823 -1458q-14 -29 -49 -29h-68zM1522 0
q-20 0 -20 20v175h-420q-20 0 -20 20v53q0 11 8 27l381 612q11 15 24 15h137q21 0 21 -21v-594h72q20 0 20 -20v-72q0 -20 -20 -20h-72v-175q0 -20 -21 -20h-90zM1201 307h301v496z" />
    <glyph glyph-name="questiondown" unicode="&#xbf;" horiz-adv-x="1098" 
d="M532 1046q47 0 81 -33.5t34 -80.5q0 -46 -34.5 -80.5t-80.5 -34.5q-47 0 -80.5 34t-33.5 81t33.5 80.5t80.5 33.5zM575 596q41 0 41 -41v-336q0 -41 -41 -41q-40 0 -67 -1.5t-64.5 -7.5t-63 -16.5t-53 -31t-44 -48.5t-27 -71t-10.5 -98q0 -120 82.5 -197.5t211.5 -77.5
q112 0 191 66t96 170q7 39 43 39h70q20 0 31 -11t10 -32q-17 -165 -140.5 -272t-300.5 -107q-193 0 -318.5 119.5t-125.5 302.5q0 85 22 153.5t56 110.5t79.5 71.5t86.5 42t84 17.5q39 3 39 41v215q0 41 41 41h71z" />
    <glyph glyph-name="Agrave" unicode="&#xc0;" horiz-adv-x="1544" 
d="M737 1696q-29 0 -51 22l-181 191q-27 30 4 57l33 27q34 26 60 -7l194 -241q17 -22 9.5 -35.5t-33.5 -13.5h-35zM111 0q-23 0 -31.5 12.5t0.5 34.5l600 1458q11 31 47 31h90q36 0 47 -31l600 -1458q9 -22 1 -34.5t-31 -12.5h-93q-33 0 -47 33l-114 282q-14 33 -47 33h-719
q-34 0 -47 -33l-117 -282q-13 -33 -47 -33h-92zM496 512h553q23 0 31.5 12.5t0.5 34.5l-282 701q-11 24 -27 24t-27 -24l-282 -701q-8 -22 1 -34.5t32 -12.5z" />
    <glyph glyph-name="Aacute" unicode="&#xc1;" horiz-adv-x="1544" 
d="M782 1696h-35q-26 0 -33.5 13.5t9.5 35.5l194 241q26 33 60 7l33 -27q31 -27 4 -57l-181 -191q-22 -22 -51 -22zM111 0q-23 0 -31.5 12.5t0.5 34.5l600 1458q11 31 47 31h90q36 0 47 -31l600 -1458q9 -22 1 -34.5t-31 -12.5h-93q-33 0 -47 33l-114 282q-14 33 -47 33
h-719q-34 0 -47 -33l-117 -282q-13 -33 -47 -33h-92zM496 512h553q23 0 31.5 12.5t0.5 34.5l-282 701q-11 24 -27 24t-27 -24l-282 -701q-8 -22 1 -34.5t32 -12.5z" />
    <glyph glyph-name="Acircumflex" unicode="&#xc2;" horiz-adv-x="1544" 
d="M622 1741q-16 -25 -49 -25h-31q-25 0 -32.5 15t6.5 34l149 221q17 27 49 27h111q32 0 49 -27l150 -221q14 -21 7 -35t-32 -14h-33q-33 0 -49 25l-117 163q-12 18 -28.5 18t-28.5 -18zM111 0q-23 0 -31.5 12.5t0.5 34.5l600 1458q11 31 47 31h90q36 0 47 -31l600 -1458
q9 -22 1 -34.5t-31 -12.5h-93q-33 0 -47 33l-114 282q-14 33 -47 33h-719q-34 0 -47 -33l-117 -282q-13 -33 -47 -33h-92zM496 512h553q23 0 31.5 12.5t0.5 34.5l-282 701q-11 24 -27 24t-27 -24l-282 -701q-8 -22 1 -34.5t32 -12.5z" />
    <glyph glyph-name="Atilde" unicode="&#xc3;" horiz-adv-x="1544" 
d="M914 1753q-114 0 -183 108q-40 66 -102 66q-45 0 -73.5 -33t-37.5 -88q-3 -41 -41 -41h-10q-44 0 -41 43q11 94 64.5 151.5t136.5 57.5q110 0 180 -108q42 -66 107 -66q45 0 74 31.5t36 89.5q3 41 41 41h8q20 0 31 -12.5t10 -34.5q-12 -92 -64.5 -148.5t-135.5 -56.5z
M111 0q-23 0 -31.5 12.5t0.5 34.5l600 1458q11 31 47 31h90q36 0 47 -31l600 -1458q9 -22 1 -34.5t-31 -12.5h-93q-33 0 -47 33l-114 282q-14 33 -47 33h-719q-34 0 -47 -33l-117 -282q-13 -33 -47 -33h-92zM496 512h553q23 0 31.5 12.5t0.5 34.5l-282 701q-11 24 -27 24
t-27 -24l-282 -701q-8 -22 1 -34.5t32 -12.5z" />
    <glyph glyph-name="Adieresis" unicode="&#xc4;" horiz-adv-x="1544" 
d="M584 1806q-46 0 -80.5 33.5t-34.5 79.5q0 48 34 81t81 33t81 -33t34 -81q0 -46 -34.5 -79.5t-80.5 -33.5zM961 1806q-47 0 -81 33.5t-34 79.5q0 48 34 81t81 33q48 0 81 -33t33 -81q0 -47 -33.5 -80t-80.5 -33zM111 0q-23 0 -31.5 12.5t0.5 34.5l600 1458q11 31 47 31h90
q36 0 47 -31l600 -1458q9 -22 1 -34.5t-31 -12.5h-93q-33 0 -47 33l-114 282q-14 33 -47 33h-719q-34 0 -47 -33l-117 -282q-13 -33 -47 -33h-92zM496 512h553q23 0 31.5 12.5t0.5 34.5l-282 701q-11 24 -27 24t-27 -24l-282 -701q-8 -22 1 -34.5t32 -12.5z" />
    <glyph glyph-name="Aring" unicode="&#xc5;" horiz-adv-x="1544" 
d="M772 1673q-89 0 -153 64t-64 151q0 89 64 152t153 63q88 0 150.5 -63t62.5 -152q0 -87 -63 -151t-150 -64zM772 1763q51 0 87 36t36 89q0 51 -36.5 89t-86.5 38q-52 0 -87.5 -37.5t-35.5 -89.5q0 -53 35.5 -89t87.5 -36zM111 0q-23 0 -31.5 12.5t0.5 34.5l600 1458
q11 31 47 31h90q36 0 47 -31l600 -1458q9 -22 1 -34.5t-31 -12.5h-93q-33 0 -47 33l-114 282q-14 33 -47 33h-719q-34 0 -47 -33l-117 -282q-13 -33 -47 -33h-92zM496 512h553q23 0 31.5 12.5t0.5 34.5l-282 701q-11 24 -27 24t-27 -24l-282 -701q-8 -22 1 -34.5t32 -12.5z
" />
    <glyph glyph-name="AE" unicode="&#xc6;" horiz-adv-x="1915" 
d="M111 0q-23 0 -31.5 12.5t0.5 34.5l600 1458q11 31 47 31h1032q41 0 41 -41v-82q0 -41 -41 -41h-588q-41 0 -41 -41v-442q0 -41 41 -41h502q41 0 41 -41v-82q0 -41 -41 -41h-502q-41 0 -41 -41v-438q0 -41 41 -41h588q41 0 41 -41v-82q0 -41 -41 -41h-762q-41 0 -41 41
v266q0 41 -41 41h-495q-34 0 -47 -33l-113 -282q-13 -33 -47 -33h-102zM502 512h413q41 0 41 41v776q0 41 -41 41h-90q-34 0 -47 -33l-309 -778q-8 -22 1 -34.5t32 -12.5z" />
    <glyph glyph-name="Ccedilla" unicode="&#xc7;" horiz-adv-x="1534" 
d="M1362 305l65 -65q30 -30 0 -58q-99 -88 -232.5 -142t-265.5 -59l-30 -63q-18 -37 -5 -47q3 -3 7 -2q8 2 27 2q86 0 142 -53t56 -137q0 -89 -61 -151t-150 -62q-57 0 -115 27t-96 71q-14 15 -9 30t26 23l16 6q28 12 58 -10q52 -47 120 -47q47 0 79 32.5t32 80.5
q0 49 -31.5 77.5t-83.5 28.5q-27 0 -55 -8q-32 -10 -55 6l-21 14q-30 23 -16 56l65 128q-149 13 -282 80t-228 170.5t-150.5 242.5t-55.5 292q0 161 62 307t167.5 251.5t251.5 167.5t307 62q138 0 279.5 -54.5t246.5 -147.5q30 -28 0 -58l-65 -65q-29 -29 -57 0
q-82 71 -188.5 111t-215.5 40q-126 0 -240 -48t-196 -129.5t-130 -195.5t-48 -241t48 -241t130 -195.5t196 -129.5t240 -48q109 0 215.5 40.5t188.5 112.5q28 27 57 -2z" />
    <glyph glyph-name="Egrave" unicode="&#xc8;" horiz-adv-x="1178" 
d="M606 1696q-29 0 -51 22l-181 191q-27 30 4 57l33 27q34 26 60 -7l194 -241q17 -22 9.5 -35.5t-33.5 -13.5h-35zM260 0q-41 0 -41 41v1454q0 41 41 41h762q41 0 41 -41v-82q0 -41 -41 -41h-588q-41 0 -41 -41v-442q0 -41 41 -41h502q41 0 41 -41v-82q0 -41 -41 -41h-502
q-41 0 -41 -41v-438q0 -41 41 -41h588q41 0 41 -41v-82q0 -41 -41 -41h-762z" />
    <glyph glyph-name="Eacute" unicode="&#xc9;" horiz-adv-x="1178" 
d="M651 1696h-35q-26 0 -33.5 13.5t9.5 35.5l194 241q26 33 60 7l33 -27q31 -27 4 -57l-181 -191q-22 -22 -51 -22zM260 0q-41 0 -41 41v1454q0 41 41 41h762q41 0 41 -41v-82q0 -41 -41 -41h-588q-41 0 -41 -41v-442q0 -41 41 -41h502q41 0 41 -41v-82q0 -41 -41 -41h-502
q-41 0 -41 -41v-438q0 -41 41 -41h588q41 0 41 -41v-82q0 -41 -41 -41h-762z" />
    <glyph glyph-name="Ecircumflex" unicode="&#xca;" horiz-adv-x="1178" 
d="M491 1741q-16 -25 -49 -25h-31q-25 0 -32.5 15t6.5 34l149 221q17 27 49 27h111q32 0 49 -27l150 -221q14 -21 7 -35t-32 -14h-33q-33 0 -49 25l-117 163q-12 18 -28.5 18t-28.5 -18zM260 0q-41 0 -41 41v1454q0 41 41 41h762q41 0 41 -41v-82q0 -41 -41 -41h-588
q-41 0 -41 -41v-442q0 -41 41 -41h502q41 0 41 -41v-82q0 -41 -41 -41h-502q-41 0 -41 -41v-438q0 -41 41 -41h588q41 0 41 -41v-82q0 -41 -41 -41h-762z" />
    <glyph glyph-name="Edieresis" unicode="&#xcb;" horiz-adv-x="1178" 
d="M453 1806q-46 0 -80.5 33.5t-34.5 79.5q0 48 34 81t81 33t81 -33t34 -81q0 -46 -34.5 -79.5t-80.5 -33.5zM830 1806q-47 0 -81 33.5t-34 79.5q0 48 34 81t81 33q48 0 81 -33t33 -81q0 -47 -33.5 -80t-80.5 -33zM260 0q-41 0 -41 41v1454q0 41 41 41h762q41 0 41 -41v-82
q0 -41 -41 -41h-588q-41 0 -41 -41v-442q0 -41 41 -41h502q41 0 41 -41v-82q0 -41 -41 -41h-502q-41 0 -41 -41v-438q0 -41 41 -41h588q41 0 41 -41v-82q0 -41 -41 -41h-762z" />
    <glyph glyph-name="Igrave" unicode="&#xcc;" horiz-adv-x="612" 
d="M270 1696q-29 0 -51 22l-181 191q-27 30 4 57l33 27q34 26 60 -7l194 -241q17 -22 9.5 -35.5t-33.5 -13.5h-35zM260 0q-41 0 -41 41v1454q0 41 41 41h92q41 0 41 -41v-1454q0 -41 -41 -41h-92z" />
    <glyph glyph-name="Iacute" unicode="&#xcd;" horiz-adv-x="612" 
d="M315 1696h-35q-26 0 -33.5 13.5t9.5 35.5l194 241q26 33 60 7l33 -27q31 -27 4 -57l-181 -191q-22 -22 -51 -22zM260 0q-41 0 -41 41v1454q0 41 41 41h92q41 0 41 -41v-1454q0 -41 -41 -41h-92z" />
    <glyph glyph-name="Icircumflex" unicode="&#xce;" horiz-adv-x="612" 
d="M155 1741q-16 -25 -49 -25h-31q-25 0 -32.5 15t6.5 34l149 221q17 27 49 27h111q32 0 49 -27l150 -221q14 -21 7 -35t-32 -14h-33q-33 0 -49 25l-117 163q-12 18 -28.5 18t-28.5 -18zM260 0q-41 0 -41 41v1454q0 41 41 41h92q41 0 41 -41v-1454q0 -41 -41 -41h-92z" />
    <glyph glyph-name="Idieresis" unicode="&#xcf;" horiz-adv-x="612" 
d="M117 1806q-46 0 -80.5 33.5t-34.5 79.5q0 48 34 81t81 33t81 -33t34 -81q0 -46 -34.5 -79.5t-80.5 -33.5zM494 1806q-47 0 -81 33.5t-34 79.5q0 48 34 81t81 33q48 0 81 -33t33 -81q0 -47 -33.5 -80t-80.5 -33zM260 0q-41 0 -41 41v1454q0 41 41 41h92q41 0 41 -41v-1454
q0 -41 -41 -41h-92z" />
    <glyph glyph-name="Eth" unicode="&#xd0;" horiz-adv-x="1573" 
d="M684 1536q360 0 564 -208t204 -560t-204 -560t-564 -208h-424q-41 0 -41 41v668h-114q-41 0 -41 41v37q0 41 41 41h114v667q0 41 41 41h424zM682 164q293 0 444.5 157t151.5 447t-151.5 447t-444.5 157h-250q-41 0 -41 -41v-503h234q41 0 41 -41v-37q0 -41 -41 -41h-234
v-504q0 -41 41 -41h250z" />
    <glyph glyph-name="Ntilde" unicode="&#xd1;" horiz-adv-x="1767" 
d="M1025 1753q-114 0 -183 108q-40 66 -102 66q-45 0 -73.5 -33t-37.5 -88q-3 -41 -41 -41h-10q-44 0 -41 43q11 94 64.5 151.5t136.5 57.5q110 0 180 -108q42 -66 107 -66q45 0 74 31.5t36 89.5q3 41 41 41h8q20 0 31 -12.5t10 -34.5q-12 -92 -64.5 -148.5t-135.5 -56.5z
M260 0q-41 0 -41 41v1454q0 41 41 41h45q32 0 51 -23l977 -1151q19 -21 35 -15t16 34v1114q0 41 41 41h82q41 0 41 -41v-1454q0 -41 -41 -41h-45q-32 0 -51 23l-977 1151q-18 21 -34.5 15t-16.5 -34v-1114q0 -41 -41 -41h-82z" />
    <glyph glyph-name="Ograve" unicode="&#xd2;" horiz-adv-x="1802" 
d="M866 1696q-29 0 -51 22l-181 191q-27 30 4 57l33 27q34 26 60 -7l194 -241q17 -22 9.5 -35.5t-33.5 -13.5h-35zM901 -20q-214 0 -395.5 105.5t-287 287t-105.5 395.5t105.5 395.5t287 287t395.5 105.5q161 0 307 -62.5t251.5 -167.5t168 -251t62.5 -307t-62.5 -307
t-168 -251t-251.5 -167.5t-307 -62.5zM901 154q168 0 309.5 81.5t223.5 223t82 309.5t-82 309.5t-223.5 223t-309.5 81.5q-167 0 -308.5 -81.5t-223.5 -223t-82 -309.5t82 -309.5t223.5 -223t308.5 -81.5z" />
    <glyph glyph-name="Oacute" unicode="&#xd3;" horiz-adv-x="1802" 
d="M911 1696h-35q-26 0 -33.5 13.5t9.5 35.5l194 241q26 33 60 7l33 -27q31 -27 4 -57l-181 -191q-22 -22 -51 -22zM901 -20q-214 0 -395.5 105.5t-287 287t-105.5 395.5t105.5 395.5t287 287t395.5 105.5q161 0 307 -62.5t251.5 -167.5t168 -251t62.5 -307t-62.5 -307
t-168 -251t-251.5 -167.5t-307 -62.5zM901 154q168 0 309.5 81.5t223.5 223t82 309.5t-82 309.5t-223.5 223t-309.5 81.5q-167 0 -308.5 -81.5t-223.5 -223t-82 -309.5t82 -309.5t223.5 -223t308.5 -81.5z" />
    <glyph glyph-name="Ocircumflex" unicode="&#xd4;" horiz-adv-x="1802" 
d="M751 1741q-16 -25 -49 -25h-31q-25 0 -32.5 15t6.5 34l149 221q17 27 49 27h111q32 0 49 -27l150 -221q14 -21 7 -35t-32 -14h-33q-33 0 -49 25l-117 163q-12 18 -28.5 18t-28.5 -18zM901 -20q-214 0 -395.5 105.5t-287 287t-105.5 395.5t105.5 395.5t287 287
t395.5 105.5q161 0 307 -62.5t251.5 -167.5t168 -251t62.5 -307t-62.5 -307t-168 -251t-251.5 -167.5t-307 -62.5zM901 154q168 0 309.5 81.5t223.5 223t82 309.5t-82 309.5t-223.5 223t-309.5 81.5q-167 0 -308.5 -81.5t-223.5 -223t-82 -309.5t82 -309.5t223.5 -223
t308.5 -81.5z" />
    <glyph glyph-name="Otilde" unicode="&#xd5;" horiz-adv-x="1802" 
d="M1043 1753q-114 0 -183 108q-40 66 -102 66q-45 0 -73.5 -33t-37.5 -88q-3 -41 -41 -41h-10q-44 0 -41 43q11 94 64.5 151.5t136.5 57.5q110 0 180 -108q42 -66 107 -66q45 0 74 31.5t36 89.5q3 41 41 41h8q20 0 31 -12.5t10 -34.5q-12 -92 -64.5 -148.5t-135.5 -56.5z
M901 -20q-214 0 -395.5 105.5t-287 287t-105.5 395.5t105.5 395.5t287 287t395.5 105.5q161 0 307 -62.5t251.5 -167.5t168 -251t62.5 -307t-62.5 -307t-168 -251t-251.5 -167.5t-307 -62.5zM901 154q168 0 309.5 81.5t223.5 223t82 309.5t-82 309.5t-223.5 223t-309.5 81.5
q-167 0 -308.5 -81.5t-223.5 -223t-82 -309.5t82 -309.5t223.5 -223t308.5 -81.5z" />
    <glyph glyph-name="Odieresis" unicode="&#xd6;" horiz-adv-x="1802" 
d="M713 1806q-46 0 -80.5 33.5t-34.5 79.5q0 48 34 81t81 33t81 -33t34 -81q0 -46 -34.5 -79.5t-80.5 -33.5zM1090 1806q-47 0 -81 33.5t-34 79.5q0 48 34 81t81 33q48 0 81 -33t33 -81q0 -47 -33.5 -80t-80.5 -33zM901 -20q-214 0 -395.5 105.5t-287 287t-105.5 395.5
t105.5 395.5t287 287t395.5 105.5q161 0 307 -62.5t251.5 -167.5t168 -251t62.5 -307t-62.5 -307t-168 -251t-251.5 -167.5t-307 -62.5zM901 154q168 0 309.5 81.5t223.5 223t82 309.5t-82 309.5t-223.5 223t-309.5 81.5q-167 0 -308.5 -81.5t-223.5 -223t-82 -309.5
t82 -309.5t223.5 -223t308.5 -81.5z" />
    <glyph glyph-name="multiply" unicode="&#xd7;" horiz-adv-x="1077" 
d="M297 311q-30 -30 -57 0l-54 56q-27 30 0 57l211 211q30 28 0 57l-211 209q-26 28 0 57l54 56q27 30 57 0l213 -209q28 -30 57 0l211 209q29 27 58 0l55 -56q28 -28 0 -57l-213 -209q-30 -29 0 -57l213 -211q29 -28 0 -57l-55 -56q-29 -27 -58 0l-211 211q-29 30 -57 0z
" />
    <glyph glyph-name="Oslash" unicode="&#xd8;" horiz-adv-x="1802" 
d="M373 -55l-58 35q-34 21 -12 57l66 96q21 34 -7 57q-117 110 -183 260.5t-66 317.5q0 214 105.5 395.5t287 287t395.5 105.5q185 0 350 -81q37 -19 58 12l63 92q23 37 58 12l57 -37q32 -21 10 -57l-65 -94q-22 -34 6 -57q118 -110 185 -260.5t67 -317.5q0 -161 -62.5 -307
t-168 -251t-251.5 -167.5t-307 -62.5q-185 0 -350 81q-38 20 -57 -12l-64 -92q-20 -34 -57 -12zM459 340q31 -33 57 6l647 930q13 18 8.5 33t-24.5 22q-114 51 -246 51q-167 0 -308.5 -81.5t-223.5 -223t-82 -309.5q0 -124 45 -233.5t127 -194.5zM901 154q168 0 309.5 81.5
t223.5 223t82 309.5q0 124 -45.5 234.5t-127.5 195.5q-31 32 -57 -6l-647 -932q-12 -18 -8 -32.5t22 -22.5q117 -51 248 -51z" />
    <glyph glyph-name="Ugrave" unicode="&#xd9;" horiz-adv-x="1538" 
d="M733 1696q-29 0 -51 22l-181 191q-27 30 4 57l33 27q34 26 60 -7l194 -241q17 -22 9.5 -35.5t-33.5 -13.5h-35zM768 -20q-252 0 -416 148.5t-164 375.5v991q0 41 41 41h93q40 0 40 -41v-952q0 -202 110 -301t296 -99q187 0 297.5 99t110.5 301v952q0 41 41 41h92
q41 0 41 -41v-991q0 -227 -164.5 -375.5t-417.5 -148.5z" />
    <glyph glyph-name="Uacute" unicode="&#xda;" horiz-adv-x="1538" 
d="M778 1696h-35q-26 0 -33.5 13.5t9.5 35.5l194 241q26 33 60 7l33 -27q31 -27 4 -57l-181 -191q-22 -22 -51 -22zM768 -20q-252 0 -416 148.5t-164 375.5v991q0 41 41 41h93q40 0 40 -41v-952q0 -202 110 -301t296 -99q187 0 297.5 99t110.5 301v952q0 41 41 41h92
q41 0 41 -41v-991q0 -227 -164.5 -375.5t-417.5 -148.5z" />
    <glyph glyph-name="Ucircumflex" unicode="&#xdb;" horiz-adv-x="1538" 
d="M618 1741q-16 -25 -49 -25h-31q-25 0 -32.5 15t6.5 34l149 221q17 27 49 27h111q32 0 49 -27l150 -221q14 -21 7 -35t-32 -14h-33q-33 0 -49 25l-117 163q-12 18 -28.5 18t-28.5 -18zM768 -20q-252 0 -416 148.5t-164 375.5v991q0 41 41 41h93q40 0 40 -41v-952
q0 -202 110 -301t296 -99q187 0 297.5 99t110.5 301v952q0 41 41 41h92q41 0 41 -41v-991q0 -227 -164.5 -375.5t-417.5 -148.5z" />
    <glyph glyph-name="Udieresis" unicode="&#xdc;" horiz-adv-x="1538" 
d="M580 1806q-46 0 -80.5 33.5t-34.5 79.5q0 48 34 81t81 33t81 -33t34 -81q0 -46 -34.5 -79.5t-80.5 -33.5zM957 1806q-47 0 -81 33.5t-34 79.5q0 48 34 81t81 33q48 0 81 -33t33 -81q0 -47 -33.5 -80t-80.5 -33zM768 -20q-252 0 -416 148.5t-164 375.5v991q0 41 41 41h93
q40 0 40 -41v-952q0 -202 110 -301t296 -99q187 0 297.5 99t110.5 301v952q0 41 41 41h92q41 0 41 -41v-991q0 -227 -164.5 -375.5t-417.5 -148.5z" />
    <glyph glyph-name="Yacute" unicode="&#xdd;" horiz-adv-x="1343" 
d="M684 1696h-35q-26 0 -33.5 13.5t9.5 35.5l194 241q26 33 60 7l33 -27q31 -27 4 -57l-181 -191q-22 -22 -51 -22zM627 0q-41 0 -41 41v655q0 29 -15 52l-489 739q-14 19 -6 34t33 15h124q33 0 50 -27l362 -575q13 -20 29 -20t28 20l363 575q15 27 49 27h121q25 0 33 -15
t-6 -34l-488 -737q-14 -24 -14 -52v-657q0 -41 -41 -41h-92z" />
    <glyph glyph-name="Thorn" unicode="&#xde;" horiz-adv-x="1286" 
d="M258 0q-41 0 -41 41v1446q0 41 41 41h86q41 0 41 -41v-123q0 -41 41 -41h344q177 0 302.5 -126.5t125.5 -305.5q0 -176 -125 -299t-303 -123h-344q-41 0 -41 -41v-387q0 -41 -41 -41h-86zM385 674q0 -41 41 -41h330q117 0 192.5 73.5t75.5 188.5t-76 189.5t-192 74.5
h-330q-41 0 -41 -41v-444z" />
    <glyph glyph-name="germandbls" unicode="&#xdf;" horiz-adv-x="1274" 
d="M215 0q-41 0 -41 41v967q0 268 131 408t342 140q198 0 326.5 -117.5t128.5 -299.5q0 -186 -129 -312q-30 -29 6 -53q97 -58 153 -155.5t56 -215.5q0 -175 -114.5 -290t-278.5 -113h-154q-41 0 -41 41v72q0 41 41 41h125q111 0 185.5 65t74.5 193q0 122 -84.5 207.5
t-204.5 85.5h-116q-41 0 -41 40v54q0 41 41 41h49q116 0 197 86t81 209q0 124 -83.5 201t-215.5 77q-143 0 -229 -100t-86 -305v-967q0 -41 -41 -41h-78z" />
    <glyph glyph-name="agrave" unicode="&#xe0;" horiz-adv-x="1364" 
d="M647 1219q-29 0 -51 22l-181 191q-27 30 4 57l33 27q34 26 60 -7l194 -241q17 -22 9.5 -35.5t-33.5 -13.5h-35zM616 -20q-106 0 -203.5 43.5t-170 117t-115.5 175.5t-43 214t43 214t115.5 175t170 116.5t203.5 43.5q220 0 367 -141q20 -20 33.5 -14.5t13.5 32.5v62
q0 41 41 41h78q41 0 41 -41v-977q0 -41 -41 -41h-78q-41 0 -41 41v61q0 28 -12 35t-29 -10q-147 -147 -373 -147zM637 135q164 0 278.5 115.5t114.5 279.5t-114.5 279t-278.5 115q-163 0 -278 -115.5t-115 -278.5q0 -164 115 -279.5t278 -115.5z" />
    <glyph glyph-name="aacute" unicode="&#xe1;" horiz-adv-x="1364" 
d="M692 1219h-35q-26 0 -33.5 13.5t9.5 35.5l194 241q26 33 60 7l33 -27q31 -27 4 -57l-181 -191q-22 -22 -51 -22zM616 -20q-106 0 -203.5 43.5t-170 117t-115.5 175.5t-43 214t43 214t115.5 175t170 116.5t203.5 43.5q220 0 367 -141q20 -20 33.5 -14.5t13.5 32.5v62
q0 41 41 41h78q41 0 41 -41v-977q0 -41 -41 -41h-78q-41 0 -41 41v61q0 28 -12 35t-29 -10q-147 -147 -373 -147zM637 135q164 0 278.5 115.5t114.5 279.5t-114.5 279t-278.5 115q-163 0 -278 -115.5t-115 -278.5q0 -164 115 -279.5t278 -115.5z" />
    <glyph glyph-name="acircumflex" unicode="&#xe2;" horiz-adv-x="1364" 
d="M532 1264q-16 -25 -49 -25h-31q-25 0 -32.5 14.5t6.5 34.5l149 221q17 27 49 27h111q32 0 49 -27l150 -221q14 -21 7 -35t-32 -14h-33q-33 0 -49 25l-117 163q-12 18 -28.5 18t-28.5 -18zM616 -20q-106 0 -203.5 43.5t-170 117t-115.5 175.5t-43 214t43 214t115.5 175
t170 116.5t203.5 43.5q220 0 367 -141q20 -20 33.5 -14.5t13.5 32.5v62q0 41 41 41h78q41 0 41 -41v-977q0 -41 -41 -41h-78q-41 0 -41 41v61q0 28 -12 35t-29 -10q-147 -147 -373 -147zM637 135q164 0 278.5 115.5t114.5 279.5t-114.5 279t-278.5 115q-163 0 -278 -115.5
t-115 -278.5q0 -164 115 -279.5t278 -115.5z" />
    <glyph glyph-name="atilde" unicode="&#xe3;" horiz-adv-x="1364" 
d="M824 1276q-114 0 -183 108q-40 66 -102 66q-45 0 -73.5 -33t-37.5 -88q-3 -41 -41 -41h-10q-44 0 -41 43q11 94 64.5 151.5t136.5 57.5q110 0 180 -108q42 -66 107 -66q45 0 74 31.5t36 89.5q3 41 41 41h8q20 0 31 -12.5t10 -34.5q-12 -92 -64.5 -148.5t-135.5 -56.5z
M616 -20q-106 0 -203.5 43.5t-170 117t-115.5 175.5t-43 214t43 214t115.5 175t170 116.5t203.5 43.5q220 0 367 -141q20 -20 33.5 -14.5t13.5 32.5v62q0 41 41 41h78q41 0 41 -41v-977q0 -41 -41 -41h-78q-41 0 -41 41v61q0 28 -12 35t-29 -10q-147 -147 -373 -147z
M637 135q164 0 278.5 115.5t114.5 279.5t-114.5 279t-278.5 115q-163 0 -278 -115.5t-115 -278.5q0 -164 115 -279.5t278 -115.5z" />
    <glyph glyph-name="adieresis" unicode="&#xe4;" horiz-adv-x="1364" 
d="M494 1329q-46 0 -80.5 33.5t-34.5 79.5q0 48 34 81t81 33t81 -33t34 -81q0 -46 -34.5 -79.5t-80.5 -33.5zM871 1329q-47 0 -81 33.5t-34 79.5q0 48 34 81t81 33q48 0 81 -33t33 -81q0 -47 -33.5 -80t-80.5 -33zM616 -20q-106 0 -203.5 43.5t-170 117t-115.5 175.5
t-43 214t43 214t115.5 175t170 116.5t203.5 43.5q220 0 367 -141q20 -20 33.5 -14.5t13.5 32.5v62q0 41 41 41h78q41 0 41 -41v-977q0 -41 -41 -41h-78q-41 0 -41 41v61q0 28 -12 35t-29 -10q-147 -147 -373 -147zM637 135q164 0 278.5 115.5t114.5 279.5t-114.5 279
t-278.5 115q-163 0 -278 -115.5t-115 -278.5q0 -164 115 -279.5t278 -115.5z" />
    <glyph glyph-name="aring" unicode="&#xe5;" horiz-adv-x="1364" 
d="M682 1196q-89 0 -153 64t-64 151q0 89 64 152t153 63q88 0 150.5 -63t62.5 -152q0 -87 -63 -151t-150 -64zM682 1286q51 0 87 36t36 89q0 51 -36.5 89t-86.5 38q-52 0 -87.5 -37.5t-35.5 -89.5q0 -53 35.5 -89t87.5 -36zM616 -20q-106 0 -203.5 43.5t-170 117
t-115.5 175.5t-43 214t43 214t115.5 175t170 116.5t203.5 43.5q220 0 367 -141q20 -20 33.5 -14.5t13.5 32.5v62q0 41 41 41h78q41 0 41 -41v-977q0 -41 -41 -41h-78q-41 0 -41 41v61q0 28 -12 35t-29 -10q-147 -147 -373 -147zM637 135q164 0 278.5 115.5t114.5 279.5
t-114.5 279t-278.5 115q-163 0 -278 -115.5t-115 -278.5q0 -164 115 -279.5t278 -115.5z" />
    <glyph glyph-name="ae" unicode="&#xe6;" horiz-adv-x="1909" 
d="M451 -20q-159 0 -263 83.5t-104 229.5q0 68 25 127.5t73.5 107t128 75t181.5 28.5l223 2q36 0 45 37q5 19 10.5 38.5t7.5 26.5t2 16.5t-4 20.5q-51 166 -254 166q-159 0 -299 -111q-15 -13 -30.5 -10.5t-26.5 19.5l-37 53q-20 32 8 57q170 135 385 135q116 0 202 -39.5
t136 -105.5q25 -34 55 -6q160 149 377 149q148 0 273.5 -69.5t199 -187.5t78.5 -257q0 -10 -4 -22q-5 -31 -37 -31h-868q-21 0 -31.5 -11.5t-7.5 -31.5q20 -148 133.5 -246t263.5 -98q94 0 176 39t138 110q24 31 57 17l59 -25q43 -19 17 -55q-75 -109 -191.5 -170
t-253.5 -61q-124 0 -231.5 49t-183.5 137q-28 30 -56 -2q-145 -184 -372 -184zM956 641h670q22 0 32 13t1 34q-46 111 -144.5 178.5t-222.5 67.5q-125 0 -224 -67t-144 -179q-9 -21 0.5 -34t31.5 -13zM459 117q194 0 309 164q18 23 6 55q-21 63 -29 131q-6 39 -43 39h-159
q-87 0 -148.5 -18.5t-93.5 -50t-45.5 -66t-13.5 -74.5q0 -88 58.5 -134t158.5 -46z" />
    <glyph glyph-name="ccedilla" unicode="&#xe7;" horiz-adv-x="1147" 
d="M1059 240q32 -24 10 -56q-71 -86 -171.5 -138.5t-215.5 -61.5l-31 -66q-18 -37 -5 -47q3 -3 7 -2q8 2 27 2q86 0 142 -53t56 -137q0 -89 -61 -151t-150 -62q-57 0 -115 27t-96 71q-14 15 -9 30t26 23l16 6q28 12 58 -10q52 -47 120 -47q47 0 79 32.5t32 80.5
q0 49 -31.5 77.5t-83.5 28.5q-27 0 -55 -8q-32 -10 -55 6l-21 14q-30 23 -16 56l66 130q-139 13 -253 88t-179.5 195.5t-65.5 261.5q0 151 73.5 277t201 199t278.5 73q128 0 240 -53.5t190 -146.5q24 -31 -8 -58l-66 -47q-31 -25 -57 8q-113 142 -299 142
q-167 0 -280 -113.5t-113 -280.5q0 -166 113 -279.5t280 -113.5q187 0 299 142q26 33 57 8z" />
    <glyph glyph-name="egrave" unicode="&#xe8;" horiz-adv-x="1251" 
d="M610 1231q-29 0 -51 22l-181 191q-27 30 4 57l33 27q34 26 60 -7l194 -241q17 -22 9.5 -35.5t-33.5 -13.5h-35zM637 -20q-153 0 -280 73.5t-200 200t-73 276.5t73 276t200 199.5t278 73.5q149 0 274 -70t198.5 -189.5t78.5 -262.5v-4q-1 -19 -13 -30t-30 -11h-867
q-20 0 -31 -11.5t-7 -31.5q19 -148 132.5 -246t264.5 -98q93 0 175 39t138 110q25 31 58 17l59 -25q43 -19 18 -55q-76 -108 -192.5 -169.5t-253.5 -61.5zM299 641h670q22 0 31.5 13t0.5 34q-45 111 -143.5 178.5t-222.5 67.5q-125 0 -224.5 -67t-144.5 -179q-9 -21 1 -34
t32 -13z" />
    <glyph glyph-name="eacute" unicode="&#xe9;" horiz-adv-x="1251" 
d="M655 1231h-35q-26 0 -33.5 13.5t9.5 35.5l194 241q26 33 60 7l33 -27q31 -27 4 -57l-181 -191q-22 -22 -51 -22zM637 -20q-153 0 -280 73.5t-200 200t-73 276.5t73 276t200 199.5t278 73.5q149 0 274 -70t198.5 -189.5t78.5 -262.5v-4q-1 -19 -13 -30t-30 -11h-867
q-20 0 -31 -11.5t-7 -31.5q19 -148 132.5 -246t264.5 -98q93 0 175 39t138 110q25 31 58 17l59 -25q43 -19 18 -55q-76 -108 -192.5 -169.5t-253.5 -61.5zM299 641h670q22 0 31.5 13t0.5 34q-45 111 -143.5 178.5t-222.5 67.5q-125 0 -224.5 -67t-144.5 -179q-9 -21 1 -34
t32 -13z" />
    <glyph glyph-name="ecircumflex" unicode="&#xea;" horiz-adv-x="1251" 
d="M495 1276q-16 -25 -49 -25h-31q-25 0 -32.5 14.5t6.5 34.5l149 221q17 27 49 27h111q32 0 49 -27l150 -221q14 -21 7 -35t-32 -14h-33q-33 0 -49 25l-117 163q-12 18 -28.5 18t-28.5 -18zM637 -20q-153 0 -280 73.5t-200 200t-73 276.5t73 276t200 199.5t278 73.5
q149 0 274 -70t198.5 -189.5t78.5 -262.5v-4q-1 -19 -13 -30t-30 -11h-867q-20 0 -31 -11.5t-7 -31.5q19 -148 132.5 -246t264.5 -98q93 0 175 39t138 110q25 31 58 17l59 -25q43 -19 18 -55q-76 -108 -192.5 -169.5t-253.5 -61.5zM299 641h670q22 0 31.5 13t0.5 34
q-45 111 -143.5 178.5t-222.5 67.5q-125 0 -224.5 -67t-144.5 -179q-9 -21 1 -34t32 -13z" />
    <glyph glyph-name="edieresis" unicode="&#xeb;" horiz-adv-x="1251" 
d="M457 1341q-46 0 -80.5 33.5t-34.5 79.5q0 48 34 81t81 33t81 -33t34 -81q0 -46 -34.5 -79.5t-80.5 -33.5zM834 1341q-47 0 -81 33.5t-34 79.5q0 48 34 81t81 33q48 0 81 -33t33 -81q0 -47 -33.5 -80t-80.5 -33zM637 -20q-153 0 -280 73.5t-200 200t-73 276.5t73 276
t200 199.5t278 73.5q149 0 274 -70t198.5 -189.5t78.5 -262.5v-4q-1 -19 -13 -30t-30 -11h-867q-20 0 -31 -11.5t-7 -31.5q19 -148 132.5 -246t264.5 -98q93 0 175 39t138 110q25 31 58 17l59 -25q43 -19 18 -55q-76 -108 -192.5 -169.5t-253.5 -61.5zM299 641h670
q22 0 31.5 13t0.5 34q-45 111 -143.5 178.5t-222.5 67.5q-125 0 -224.5 -67t-144.5 -179q-9 -21 1 -34t32 -13z" />
    <glyph glyph-name="igrave" unicode="&#xec;" horiz-adv-x="508" 
d="M219 1219q-29 0 -51 22l-181 191q-27 30 4 57l33 27q34 26 60 -7l194 -241q17 -22 9.5 -35.5t-33.5 -13.5h-35zM215 0q-41 0 -41 41v977q0 41 41 41h78q41 0 41 -41v-977q0 -41 -41 -41h-78z" />
    <glyph glyph-name="iacute" unicode="&#xed;" horiz-adv-x="508" 
d="M264 1219h-35q-26 0 -33.5 13.5t9.5 35.5l194 241q26 33 60 7l33 -27q31 -27 4 -57l-181 -191q-22 -22 -51 -22zM215 0q-41 0 -41 41v977q0 41 41 41h78q41 0 41 -41v-977q0 -41 -41 -41h-78z" />
    <glyph glyph-name="icircumflex" unicode="&#xee;" horiz-adv-x="508" 
d="M104 1264q-16 -25 -49 -25h-31q-25 0 -32.5 14.5t6.5 34.5l149 221q17 27 49 27h111q32 0 49 -27l150 -221q14 -21 7 -35t-32 -14h-33q-33 0 -49 25l-117 163q-12 18 -28.5 18t-28.5 -18zM215 0q-41 0 -41 41v977q0 41 41 41h78q41 0 41 -41v-977q0 -41 -41 -41h-78z" />
    <glyph glyph-name="idieresis" unicode="&#xef;" horiz-adv-x="508" 
d="M66 1329q-46 0 -80.5 33.5t-34.5 79.5q0 48 34 81t81 33t81 -33t34 -81q0 -46 -34.5 -79.5t-80.5 -33.5zM443 1329q-47 0 -81 33.5t-34 79.5q0 48 34 81t81 33q48 0 81 -33t33 -81q0 -47 -33.5 -80t-80.5 -33zM215 0q-41 0 -41 41v977q0 41 41 41h78q41 0 41 -41v-977
q0 -41 -41 -41h-78z" />
    <glyph glyph-name="eth" unicode="&#xf0;" horiz-adv-x="1237" 
d="M600 -16q-108 0 -206.5 44.5t-168.5 118t-109.5 174t-35.5 207.5q4 110 52.5 206t120.5 157.5t155 97t161 35.5q46 0 60 39q7 37 -21 67l-69 84q-21 26 -56 17l-202 -55q-38 -13 -50 30l-4 17q-10 40 29 49l139 37q22 6 27 22t-10 33l-103 121q-16 21 -8.5 36t33.5 15
h119q30 0 49 -25q16 -20 47.5 -58.5t46.5 -57.5q21 -28 53 -19l195 54q38 12 49 -31l4 -17q10 -40 -29 -49l-133 -35q-21 -5 -20 -29.5t26 -56.5q196 -240 265 -333q98 -135 127 -212.5t24 -183.5q-9 -214 -170 -356.5t-387 -142.5zM602 154q162 0 268 90t115 241
q9 165 -93 278.5t-274 113.5q-148 0 -253.5 -96.5t-114.5 -254.5q-9 -154 92 -263t260 -109z" />
    <glyph glyph-name="ntilde" unicode="&#xf1;" horiz-adv-x="1219" 
d="M754 1276q-114 0 -183 108q-40 66 -102 66q-45 0 -73.5 -33t-37.5 -88q-3 -41 -41 -41h-10q-44 0 -41 43q11 94 64.5 151.5t136.5 57.5q110 0 180 -108q42 -66 107 -66q45 0 74 31.5t36 89.5q3 41 41 41h8q20 0 31 -12.5t10 -34.5q-12 -92 -64.5 -148.5t-135.5 -56.5z
M215 0q-41 0 -41 41v977q0 41 41 41h78q41 0 41 -41v-37q0 -27 12 -31t31 17q103 112 272 112q186 0 305 -119.5t119 -345.5v-573q0 -41 -41 -41h-78q-41 0 -41 41v561q0 171 -76.5 250.5t-207.5 79.5q-129 0 -211.5 -83t-83.5 -237v-571q0 -41 -41 -41h-78z" />
    <glyph glyph-name="ograve" unicode="&#xf2;" horiz-adv-x="1274" 
d="M602 1219q-29 0 -51 22l-181 191q-27 30 4 57l33 27q34 26 60 -7l194 -241q17 -22 9.5 -35.5t-33.5 -13.5h-35zM637 -20q-151 0 -278.5 73.5t-201 200t-73.5 276.5t73.5 276t201 199.5t278.5 73.5t278.5 -73.5t201 -199.5t73.5 -276t-73.5 -276.5t-201 -200t-278.5 -73.5
zM637 135q163 0 278 115.5t115 279.5q0 163 -115 278.5t-278 115.5q-164 0 -278.5 -115t-114.5 -279t114.5 -279.5t278.5 -115.5z" />
    <glyph glyph-name="oacute" unicode="&#xf3;" horiz-adv-x="1274" 
d="M647 1219h-35q-26 0 -33.5 13.5t9.5 35.5l194 241q26 33 60 7l33 -27q31 -27 4 -57l-181 -191q-22 -22 -51 -22zM637 -20q-151 0 -278.5 73.5t-201 200t-73.5 276.5t73.5 276t201 199.5t278.5 73.5t278.5 -73.5t201 -199.5t73.5 -276t-73.5 -276.5t-201 -200
t-278.5 -73.5zM637 135q163 0 278 115.5t115 279.5q0 163 -115 278.5t-278 115.5q-164 0 -278.5 -115t-114.5 -279t114.5 -279.5t278.5 -115.5z" />
    <glyph glyph-name="ocircumflex" unicode="&#xf4;" horiz-adv-x="1274" 
d="M487 1264q-16 -25 -49 -25h-31q-25 0 -32.5 14.5t6.5 34.5l149 221q17 27 49 27h111q32 0 49 -27l150 -221q14 -21 7 -35t-32 -14h-33q-33 0 -49 25l-117 163q-12 18 -28.5 18t-28.5 -18zM637 -20q-151 0 -278.5 73.5t-201 200t-73.5 276.5t73.5 276t201 199.5
t278.5 73.5t278.5 -73.5t201 -199.5t73.5 -276t-73.5 -276.5t-201 -200t-278.5 -73.5zM637 135q163 0 278 115.5t115 279.5q0 163 -115 278.5t-278 115.5q-164 0 -278.5 -115t-114.5 -279t114.5 -279.5t278.5 -115.5z" />
    <glyph glyph-name="otilde" unicode="&#xf5;" horiz-adv-x="1274" 
d="M779 1276q-114 0 -183 108q-40 66 -102 66q-45 0 -73.5 -33t-37.5 -88q-3 -41 -41 -41h-10q-44 0 -41 43q11 94 64.5 151.5t136.5 57.5q110 0 180 -108q42 -66 107 -66q45 0 74 31.5t36 89.5q3 41 41 41h8q20 0 31 -12.5t10 -34.5q-12 -92 -64.5 -148.5t-135.5 -56.5z
M637 -20q-151 0 -278.5 73.5t-201 200t-73.5 276.5t73.5 276t201 199.5t278.5 73.5t278.5 -73.5t201 -199.5t73.5 -276t-73.5 -276.5t-201 -200t-278.5 -73.5zM637 135q163 0 278 115.5t115 279.5q0 163 -115 278.5t-278 115.5q-164 0 -278.5 -115t-114.5 -279t114.5 -279.5
t278.5 -115.5z" />
    <glyph glyph-name="odieresis" unicode="&#xf6;" horiz-adv-x="1274" 
d="M449 1329q-46 0 -80.5 33.5t-34.5 79.5q0 48 34 81t81 33t81 -33t34 -81q0 -46 -34.5 -79.5t-80.5 -33.5zM826 1329q-47 0 -81 33.5t-34 79.5q0 48 34 81t81 33q48 0 81 -33t33 -81q0 -47 -33.5 -80t-80.5 -33zM637 -20q-151 0 -278.5 73.5t-201 200t-73.5 276.5
t73.5 276t201 199.5t278.5 73.5t278.5 -73.5t201 -199.5t73.5 -276t-73.5 -276.5t-201 -200t-278.5 -73.5zM637 135q163 0 278 115.5t115 279.5q0 163 -115 278.5t-278 115.5q-164 0 -278.5 -115t-114.5 -279t114.5 -279.5t278.5 -115.5z" />
    <glyph glyph-name="divide" unicode="&#xf7;" horiz-adv-x="997" 
d="M496 913q-49 0 -84 34.5t-35 84.5q0 49 35.5 85t83.5 36q49 0 85.5 -36t36.5 -85q0 -50 -36.5 -84.5t-85.5 -34.5zM178 596q-41 0 -41 41v78q0 41 41 41h641q41 0 41 -41v-78q0 -41 -41 -41h-641zM496 199q-49 0 -84 34.5t-35 85.5q0 48 35.5 83.5t83.5 35.5
q49 0 85.5 -35.5t36.5 -83.5q0 -51 -36 -85.5t-86 -34.5z" />
    <glyph glyph-name="oslash" unicode="&#xf8;" horiz-adv-x="1274" 
d="M266 -45l-39 25q-34 21 -12 57l33 49q19 32 -6 57q-75 75 -116.5 175t-41.5 212q0 150 73.5 276t201 199.5t278.5 73.5q125 0 227 -49q38 -15 58 14l30 48q25 34 58 12l39 -25q16 -10 18.5 -26t-8.5 -31l-33 -49q-19 -31 6 -58q75 -75 116.5 -174.5t41.5 -210.5
q0 -150 -73.5 -276.5t-201 -200t-278.5 -73.5q-123 0 -225 47q-37 15 -58 -15l-30 -45q-23 -30 -58 -12zM332 283q14 -17 29.5 -15.5t27.5 19.5l391 559q13 16 8.5 33t-24.5 24q-68 21 -127 21q-164 0 -278.5 -115t-114.5 -279q0 -142 88 -247zM637 135q163 0 278 115.5
t115 279.5q0 139 -88 246q-14 17 -29.5 15.5t-27.5 -19.5l-391 -559q-13 -17 -9.5 -33t23.5 -22q60 -23 129 -23z" />
    <glyph glyph-name="ugrave" unicode="&#xf9;" horiz-adv-x="1143" 
d="M536 1219q-29 0 -51 22l-181 191q-27 30 4 57l33 27q34 26 60 -7l194 -241q17 -22 9.5 -35.5t-33.5 -13.5h-35zM571 -20q-190 0 -305.5 101t-115.5 279v658q0 41 40 41h74q41 0 41 -41v-653q0 -114 73.5 -172t192.5 -58q121 0 194 58t73 172v653q0 41 41 41h73
q41 0 41 -41v-658q0 -178 -115.5 -279t-306.5 -101z" />
    <glyph glyph-name="uacute" unicode="&#xfa;" horiz-adv-x="1143" 
d="M581 1219h-35q-26 0 -33.5 13.5t9.5 35.5l194 241q26 33 60 7l33 -27q31 -27 4 -57l-181 -191q-22 -22 -51 -22zM571 -20q-190 0 -305.5 101t-115.5 279v658q0 41 40 41h74q41 0 41 -41v-653q0 -114 73.5 -172t192.5 -58q121 0 194 58t73 172v653q0 41 41 41h73
q41 0 41 -41v-658q0 -178 -115.5 -279t-306.5 -101z" />
    <glyph glyph-name="ucircumflex" unicode="&#xfb;" horiz-adv-x="1143" 
d="M421 1264q-16 -25 -49 -25h-31q-25 0 -32.5 14.5t6.5 34.5l149 221q17 27 49 27h111q32 0 49 -27l150 -221q14 -21 7 -35t-32 -14h-33q-33 0 -49 25l-117 163q-12 18 -28.5 18t-28.5 -18zM571 -20q-190 0 -305.5 101t-115.5 279v658q0 41 40 41h74q41 0 41 -41v-653
q0 -114 73.5 -172t192.5 -58q121 0 194 58t73 172v653q0 41 41 41h73q41 0 41 -41v-658q0 -178 -115.5 -279t-306.5 -101z" />
    <glyph glyph-name="udieresis" unicode="&#xfc;" horiz-adv-x="1143" 
d="M383 1329q-46 0 -80.5 33.5t-34.5 79.5q0 48 34 81t81 33t81 -33t34 -81q0 -46 -34.5 -79.5t-80.5 -33.5zM760 1329q-47 0 -81 33.5t-34 79.5q0 48 34 81t81 33q48 0 81 -33t33 -81q0 -47 -33.5 -80t-80.5 -33zM571 -20q-190 0 -305.5 101t-115.5 279v658q0 41 40 41h74
q41 0 41 -41v-653q0 -114 73.5 -172t192.5 -58q121 0 194 58t73 172v653q0 41 41 41h73q41 0 41 -41v-658q0 -178 -115.5 -279t-306.5 -101z" />
    <glyph glyph-name="yacute" unicode="&#xfd;" horiz-adv-x="1067" 
d="M545 1219h-35q-26 0 -33.5 13.5t9.5 35.5l194 241q26 33 60 7l33 -27q31 -27 4 -57l-181 -191q-22 -22 -51 -22zM293 -498q-23 0 -32 13t-1 34l178 453q11 25 0 53l-389 957q-9 21 0.5 34t32.5 13h92q34 0 47 -33l293 -745q11 -27 27.5 -26t25.5 28l277 743q13 33 47 33
h94q23 0 32 -13t1 -34l-594 -1477q-13 -33 -47 -33h-84z" />
    <glyph glyph-name="thorn" unicode="&#xfe;" horiz-adv-x="1366" 
d="M217 -498q-41 0 -41 41v1952q0 41 41 41h78q41 0 41 -41v-539q0 -27 13.5 -32.5t33.5 14.5q147 141 367 141q106 0 203.5 -43.5t170 -116.5t115.5 -175t43 -214t-43 -214t-115.5 -175.5t-170 -117t-203.5 -43.5q-220 0 -367 141q-20 20 -33.5 14.5t-13.5 -33.5v-559
q0 -41 -41 -41h-78zM729 135q163 0 278 115.5t115 279.5q0 163 -115 278.5t-278 115.5q-164 0 -278.5 -115t-114.5 -279t114.5 -279.5t278.5 -115.5z" />
    <glyph glyph-name="ydieresis" unicode="&#xff;" horiz-adv-x="1067" 
d="M347 1329q-46 0 -80.5 33.5t-34.5 79.5q0 48 34 81t81 33t81 -33t34 -81q0 -46 -34.5 -79.5t-80.5 -33.5zM724 1329q-47 0 -81 33.5t-34 79.5q0 48 34 81t81 33q48 0 81 -33t33 -81q0 -47 -33.5 -80t-80.5 -33zM293 -498q-23 0 -32 13t-1 34l178 453q11 25 0 53l-389 957
q-9 21 0.5 34t32.5 13h92q34 0 47 -33l293 -745q11 -27 27.5 -26t25.5 28l277 743q13 33 47 33h94q23 0 32 -13t1 -34l-594 -1477q-13 -33 -47 -33h-84z" />
    <glyph glyph-name="Amacron" unicode="&#x100;" horiz-adv-x="1544" 
d="M496 1724q-41 0 -41 41v33q0 41 41 41h553q41 0 41 -41v-33q0 -41 -41 -41h-553zM111 0q-23 0 -31.5 12.5t0.5 34.5l600 1458q11 31 47 31h90q36 0 47 -31l600 -1458q9 -22 1 -34.5t-31 -12.5h-93q-33 0 -47 33l-114 282q-14 33 -47 33h-719q-34 0 -47 -33l-117 -282
q-13 -33 -47 -33h-92zM496 512h553q23 0 31.5 12.5t0.5 34.5l-282 701q-11 24 -27 24t-27 -24l-282 -701q-8 -22 1 -34.5t32 -12.5z" />
    <glyph glyph-name="amacron" unicode="&#x101;" horiz-adv-x="1364" 
d="M406 1247q-41 0 -41 41v33q0 41 41 41h553q41 0 41 -41v-33q0 -41 -41 -41h-553zM616 -20q-106 0 -203.5 43.5t-170 117t-115.5 175.5t-43 214t43 214t115.5 175t170 116.5t203.5 43.5q220 0 367 -141q20 -20 33.5 -14.5t13.5 32.5v62q0 41 41 41h78q41 0 41 -41v-977
q0 -41 -41 -41h-78q-41 0 -41 41v61q0 28 -12 35t-29 -10q-147 -147 -373 -147zM637 135q164 0 278.5 115.5t114.5 279.5t-114.5 279t-278.5 115q-163 0 -278 -115.5t-115 -278.5q0 -164 115 -279.5t278 -115.5z" />
    <glyph glyph-name="Abreve" unicode="&#x102;" horiz-adv-x="1544" 
d="M769 1698q-136 0 -228 73.5t-107 198.5q-3 43 41 43h22q38 0 41 -39q13 -86 77 -138t154 -52q92 0 156.5 52t77.5 138q3 39 41 39h22q44 0 41 -41q-13 -126 -106 -200t-232 -74zM111 0q-23 0 -31.5 12.5t0.5 34.5l600 1458q11 31 47 31h90q36 0 47 -31l600 -1458
q9 -22 1 -34.5t-31 -12.5h-93q-33 0 -47 33l-114 282q-14 33 -47 33h-719q-34 0 -47 -33l-117 -282q-13 -33 -47 -33h-92zM496 512h553q23 0 31.5 12.5t0.5 34.5l-282 701q-11 24 -27 24t-27 -24l-282 -701q-8 -22 1 -34.5t32 -12.5z" />
    <glyph glyph-name="abreve" unicode="&#x103;" horiz-adv-x="1364" 
d="M679 1221q-136 0 -228 73.5t-107 198.5q-3 43 41 43h22q38 0 41 -39q13 -86 77 -138t154 -52q92 0 156.5 52t77.5 138q3 39 41 39h22q44 0 41 -41q-13 -126 -106 -200t-232 -74zM616 -20q-106 0 -203.5 43.5t-170 117t-115.5 175.5t-43 214t43 214t115.5 175t170 116.5
t203.5 43.5q220 0 367 -141q20 -20 33.5 -14.5t13.5 32.5v62q0 41 41 41h78q41 0 41 -41v-977q0 -41 -41 -41h-78q-41 0 -41 41v61q0 28 -12 35t-29 -10q-147 -147 -373 -147zM637 135q164 0 278.5 115.5t114.5 279.5t-114.5 279t-278.5 115q-163 0 -278 -115.5t-115 -278.5
q0 -164 115 -279.5t278 -115.5z" />
    <glyph glyph-name="Aogonek" unicode="&#x104;" horiz-adv-x="1544" 
d="M1464 47q9 -22 1 -34.5t-31 -12.5q-114 -48 -189 -122.5t-75 -158.5q0 -55 33 -82.5t86 -27.5q43 0 98 20q22 10 34.5 2.5t12.5 -30.5v-72q0 -35 -32 -47q-59 -15 -121 -12q-105 5 -167.5 60t-62.5 151q0 99 69 182t195 144q-13 7 -21 26l-114 282q-14 33 -47 33h-719
q-34 0 -47 -33l-117 -282q-13 -33 -47 -33h-92q-23 0 -31.5 12.5t0.5 34.5l600 1458q11 31 47 31h90q36 0 47 -31zM1049 512q23 0 31.5 12.5t0.5 34.5l-282 701q-11 24 -27 24t-27 -24l-282 -701q-8 -22 1 -34.5t32 -12.5h553z" />
    <glyph glyph-name="aogonek" unicode="&#x105;" horiz-adv-x="1364" 
d="M1149 1059q41 0 41 -41v-977q0 -41 -41 -41q-114 -48 -189 -122.5t-75 -158.5q0 -55 33 -82.5t86 -27.5q43 0 98 20q22 10 34.5 2.5t12.5 -30.5v-72q0 -35 -32 -47q-59 -15 -121 -12q-105 5 -167.5 60t-62.5 151q0 101 71.5 185t202.5 145q-10 10 -10 30v61q0 28 -12 35
t-29 -10q-147 -147 -373 -147q-106 0 -203.5 43.5t-170 117t-115.5 175.5t-43 214t43 214t115.5 175t170 116.5t203.5 43.5q220 0 367 -141q20 -20 33.5 -14.5t13.5 32.5v62q0 41 41 41h78zM637 135q164 0 278.5 115.5t114.5 279.5t-114.5 279t-278.5 115
q-163 0 -278 -115.5t-115 -278.5q0 -164 115 -279.5t278 -115.5z" />
    <glyph glyph-name="Cacute" unicode="&#x106;" horiz-adv-x="1534" 
d="M911 1696h-35q-26 0 -33.5 13.5t9.5 35.5l194 241q26 33 60 7l33 -27q31 -27 4 -57l-181 -191q-22 -22 -51 -22zM901 -20q-161 0 -307 62t-251.5 167.5t-167.5 251.5t-62 307t62 307t167.5 251.5t251.5 167.5t307 62q138 0 279.5 -54.5t246.5 -147.5q30 -28 0 -58
l-65 -65q-29 -29 -57 0q-82 71 -188.5 111t-215.5 40q-126 0 -240 -48t-196 -129.5t-130 -195.5t-48 -241t48 -241t130 -195.5t196 -129.5t240 -48q109 0 215.5 40.5t188.5 112.5q28 27 57 -2l65 -65q30 -30 0 -58q-105 -93 -246.5 -147.5t-279.5 -54.5z" />
    <glyph glyph-name="cacute" unicode="&#x107;" horiz-adv-x="1147" 
d="M647 1219h-35q-26 0 -33.5 13.5t9.5 35.5l194 241q26 33 60 7l33 -27q31 -27 4 -57l-181 -191q-22 -22 -51 -22zM637 -18q-151 0 -278.5 73t-201 199t-73.5 276q0 151 73.5 277t201 199t278.5 73q128 0 240 -53.5t190 -146.5q24 -31 -8 -58l-66 -47q-31 -25 -57 8
q-113 142 -299 142q-167 0 -280 -113.5t-113 -280.5q0 -166 113 -279.5t280 -113.5q187 0 299 142q26 33 57 8l66 -47q32 -24 10 -56q-78 -94 -191 -148t-241 -54z" />
    <glyph glyph-name="Cdotaccent" unicode="&#x10a;" horiz-adv-x="1534" 
d="M901 1806q-46 0 -80.5 33.5t-34.5 79.5q0 48 34 81t81 33t81 -33t34 -81q0 -46 -34.5 -79.5t-80.5 -33.5zM901 -20q-161 0 -307 62t-251.5 167.5t-167.5 251.5t-62 307t62 307t167.5 251.5t251.5 167.5t307 62q138 0 279.5 -54.5t246.5 -147.5q30 -28 0 -58l-65 -65
q-29 -29 -57 0q-82 71 -188.5 111t-215.5 40q-126 0 -240 -48t-196 -129.5t-130 -195.5t-48 -241t48 -241t130 -195.5t196 -129.5t240 -48q109 0 215.5 40.5t188.5 112.5q28 27 57 -2l65 -65q30 -30 0 -58q-105 -93 -246.5 -147.5t-279.5 -54.5z" />
    <glyph glyph-name="cdotaccent" unicode="&#x10b;" horiz-adv-x="1147" 
d="M637 1329q-46 0 -80.5 33.5t-34.5 79.5q0 48 34 81t81 33t81 -33t34 -81q0 -46 -34.5 -79.5t-80.5 -33.5zM637 -18q-151 0 -278.5 73t-201 199t-73.5 276q0 151 73.5 277t201 199t278.5 73q128 0 240 -53.5t190 -146.5q24 -31 -8 -58l-66 -47q-31 -25 -57 8
q-113 142 -299 142q-167 0 -280 -113.5t-113 -280.5q0 -166 113 -279.5t280 -113.5q187 0 299 142q26 33 57 8l66 -47q32 -24 10 -56q-78 -94 -191 -148t-241 -54z" />
    <glyph glyph-name="Ccaron" unicode="&#x10c;" horiz-adv-x="1534" 
d="M843 1716q-32 0 -49 27l-149 221q-14 20 -6.5 34.5t32.5 14.5h31q33 0 49 -25l121 -163q12 -18 28.5 -18t28.5 18l117 163q18 25 49 25h33q25 0 32 -13.5t-7 -35.5l-150 -221q-17 -27 -49 -27h-111zM901 -20q-161 0 -307 62t-251.5 167.5t-167.5 251.5t-62 307t62 307
t167.5 251.5t251.5 167.5t307 62q138 0 279.5 -54.5t246.5 -147.5q30 -28 0 -58l-65 -65q-29 -29 -57 0q-82 71 -188.5 111t-215.5 40q-126 0 -240 -48t-196 -129.5t-130 -195.5t-48 -241t48 -241t130 -195.5t196 -129.5t240 -48q109 0 215.5 40.5t188.5 112.5q28 27 57 -2
l65 -65q30 -30 0 -58q-105 -93 -246.5 -147.5t-279.5 -54.5z" />
    <glyph glyph-name="ccaron" unicode="&#x10d;" horiz-adv-x="1147" 
d="M579 1239q-32 0 -49 27l-149 221q-14 19 -6.5 34t32.5 15h31q33 0 49 -25l121 -163q12 -18 28.5 -18t28.5 18l117 163q18 25 49 25h33q25 0 32 -13.5t-7 -35.5l-150 -221q-17 -27 -49 -27h-111zM637 -18q-151 0 -278.5 73t-201 199t-73.5 276q0 151 73.5 277t201 199
t278.5 73q128 0 240 -53.5t190 -146.5q24 -31 -8 -58l-66 -47q-31 -25 -57 8q-113 142 -299 142q-167 0 -280 -113.5t-113 -280.5q0 -166 113 -279.5t280 -113.5q187 0 299 142q26 33 57 8l66 -47q32 -24 10 -56q-78 -94 -191 -148t-241 -54z" />
    <glyph glyph-name="Dcaron" unicode="&#x10e;" horiz-adv-x="1573" 
d="M583 1716q-32 0 -49 27l-149 221q-14 20 -6.5 34.5t32.5 14.5h31q33 0 49 -25l121 -163q12 -18 28.5 -18t28.5 18l117 163q18 25 49 25h33q25 0 32 -13.5t-7 -35.5l-150 -221q-17 -27 -49 -27h-111zM260 0q-41 0 -41 41v1454q0 41 41 41h424q360 0 564 -208t204 -560
t-204 -560t-564 -208h-424zM432 164h250q293 0 444.5 157t151.5 447t-151.5 447t-444.5 157h-250q-41 0 -41 -41v-1126q0 -41 41 -41z" />
    <glyph glyph-name="dcaron" unicode="&#x10f;" horiz-adv-x="1520" 
d="M1372 910q-20 0 -31 12.5t-8 32.5l88 545q5 37 45 37h106q22 0 31.5 -12.5t3.5 -32.5l-145 -547q-9 -35 -47 -35h-43zM616 -20q-106 0 -203.5 43.5t-170 117t-115.5 175.5t-43 214t43 214t115.5 175t170 116.5t203.5 43.5q220 0 367 -141q20 -20 33.5 -14.5t13.5 32.5
v539q0 41 41 41h78q41 0 41 -41v-1454q0 -41 -41 -41h-78q-41 0 -41 41v61q0 28 -12 35t-29 -10q-147 -147 -373 -147zM637 135q164 0 278.5 115.5t114.5 279.5t-114.5 279t-278.5 115q-163 0 -278 -115.5t-115 -278.5q0 -164 115 -279.5t278 -115.5z" />
    <glyph glyph-name="Dcroat" unicode="&#x110;" horiz-adv-x="1573" 
d="M684 1536q360 0 564 -208t204 -560t-204 -560t-564 -208h-424q-41 0 -41 41v668h-114q-41 0 -41 41v37q0 41 41 41h114v667q0 41 41 41h424zM682 164q293 0 444.5 157t151.5 447t-151.5 447t-444.5 157h-250q-41 0 -41 -41v-503h234q41 0 41 -41v-37q0 -41 -41 -41h-234
v-504q0 -41 41 -41h250z" />
    <glyph glyph-name="dcroat" unicode="&#x111;" horiz-adv-x="1364" 
d="M616 -20q-106 0 -203.5 43.5t-170 117t-115.5 175.5t-43 214t43 214t115.5 175t170 116.5t203.5 43.5q220 0 367 -141q20 -20 33.5 -14.5t13.5 32.5v254q0 41 -41 41h-223q-41 0 -41 41v37q0 41 41 41h223q41 0 41 41v84q0 41 41 41h78q41 0 41 -41v-84q0 -41 41 -41h55
q41 0 41 -41v-37q0 -41 -41 -41h-55q-41 0 -41 -41v-1169q0 -41 -41 -41h-78q-41 0 -41 41v61q0 28 -12 35t-29 -10q-147 -147 -373 -147zM637 135q164 0 278.5 115.5t114.5 279.5t-114.5 279t-278.5 115q-163 0 -278 -115.5t-115 -278.5q0 -164 115 -279.5t278 -115.5z" />
    <glyph glyph-name="Emacron" unicode="&#x112;" horiz-adv-x="1178" 
d="M365 1724q-41 0 -41 41v33q0 41 41 41h553q41 0 41 -41v-33q0 -41 -41 -41h-553zM260 0q-41 0 -41 41v1454q0 41 41 41h762q41 0 41 -41v-82q0 -41 -41 -41h-588q-41 0 -41 -41v-442q0 -41 41 -41h502q41 0 41 -41v-82q0 -41 -41 -41h-502q-41 0 -41 -41v-438
q0 -41 41 -41h588q41 0 41 -41v-82q0 -41 -41 -41h-762z" />
    <glyph glyph-name="emacron" unicode="&#x113;" horiz-adv-x="1251" 
d="M369 1259q-41 0 -41 41v33q0 41 41 41h553q41 0 41 -41v-33q0 -41 -41 -41h-553zM637 -20q-153 0 -280 73.5t-200 200t-73 276.5t73 276t200 199.5t278 73.5q149 0 274 -70t198.5 -189.5t78.5 -262.5v-4q-1 -19 -13 -30t-30 -11h-867q-20 0 -31 -11.5t-7 -31.5
q19 -148 132.5 -246t264.5 -98q93 0 175 39t138 110q25 31 58 17l59 -25q43 -19 18 -55q-76 -108 -192.5 -169.5t-253.5 -61.5zM299 641h670q22 0 31.5 13t0.5 34q-45 111 -143.5 178.5t-222.5 67.5q-125 0 -224.5 -67t-144.5 -179q-9 -21 1 -34t32 -13z" />
    <glyph glyph-name="Edotaccent" unicode="&#x116;" horiz-adv-x="1178" 
d="M641 1806q-46 0 -80.5 33.5t-34.5 79.5q0 48 34 81t81 33t81 -33t34 -81q0 -46 -34.5 -79.5t-80.5 -33.5zM260 0q-41 0 -41 41v1454q0 41 41 41h762q41 0 41 -41v-82q0 -41 -41 -41h-588q-41 0 -41 -41v-442q0 -41 41 -41h502q41 0 41 -41v-82q0 -41 -41 -41h-502
q-41 0 -41 -41v-438q0 -41 41 -41h588q41 0 41 -41v-82q0 -41 -41 -41h-762z" />
    <glyph glyph-name="edotaccent" unicode="&#x117;" horiz-adv-x="1251" 
d="M645 1341q-46 0 -80.5 33.5t-34.5 79.5q0 48 34 81t81 33t81 -33t34 -81q0 -46 -34.5 -79.5t-80.5 -33.5zM637 -20q-153 0 -280 73.5t-200 200t-73 276.5t73 276t200 199.5t278 73.5q149 0 274 -70t198.5 -189.5t78.5 -262.5v-4q-1 -19 -13 -30t-30 -11h-867
q-20 0 -31 -11.5t-7 -31.5q19 -148 132.5 -246t264.5 -98q93 0 175 39t138 110q25 31 58 17l59 -25q43 -19 18 -55q-76 -108 -192.5 -169.5t-253.5 -61.5zM299 641h670q22 0 31.5 13t0.5 34q-45 111 -143.5 178.5t-222.5 67.5q-125 0 -224.5 -67t-144.5 -179q-9 -21 1 -34
t32 -13z" />
    <glyph glyph-name="Eogonek" unicode="&#x118;" horiz-adv-x="1178" 
d="M434 1372q-41 0 -41 -41v-442q0 -41 41 -41h502q41 0 41 -41v-82q0 -41 -41 -41h-502q-41 0 -41 -41v-438q0 -41 41 -41h588q41 0 41 -41v-82q0 -41 -41 -41q-114 -48 -189 -122.5t-75 -158.5q0 -55 33 -82.5t86 -27.5q43 0 98 20q22 10 34.5 2.5t12.5 -30.5v-72
q0 -35 -32 -47q-59 -15 -121 -12q-105 5 -167.5 60t-62.5 151q0 192 251 319h-630q-41 0 -41 41v1454q0 41 41 41h762q41 0 41 -41v-82q0 -41 -41 -41h-588z" />
    <glyph glyph-name="eogonek" unicode="&#x119;" horiz-adv-x="1251" 
d="M635 1079q149 0 274 -70t198.5 -189.5t78.5 -262.5v-4q-1 -19 -13 -30t-30 -11h-867q-20 0 -31 -11.5t-7 -31.5q19 -148 132.5 -246t264.5 -98q93 0 175 39t138 110q25 31 58 17l59 -25q43 -19 18 -55q-105 -149 -275 -204q-132 -96 -132 -208q0 -55 33 -82.5t86 -27.5
q43 0 98 20q22 10 34.5 2.5t12.5 -30.5v-72q0 -35 -32 -47q-59 -15 -121 -12q-105 5 -167.5 60t-62.5 151q0 121 104 220q-8 -1 -24 -1q-153 0 -280 73.5t-200 200t-73 276.5t73 276t200 199.5t278 73.5zM969 641q22 0 31.5 13t0.5 34q-45 111 -143.5 178.5t-222.5 67.5
q-125 0 -224.5 -67t-144.5 -179q-9 -21 1 -34t32 -13h670z" />
    <glyph glyph-name="Ecaron" unicode="&#x11a;" horiz-adv-x="1178" 
d="M583 1716q-32 0 -49 27l-149 221q-14 20 -6.5 34.5t32.5 14.5h31q33 0 49 -25l121 -163q12 -18 28.5 -18t28.5 18l117 163q18 25 49 25h33q25 0 32 -13.5t-7 -35.5l-150 -221q-17 -27 -49 -27h-111zM260 0q-41 0 -41 41v1454q0 41 41 41h762q41 0 41 -41v-82
q0 -41 -41 -41h-588q-41 0 -41 -41v-442q0 -41 41 -41h502q41 0 41 -41v-82q0 -41 -41 -41h-502q-41 0 -41 -41v-438q0 -41 41 -41h588q41 0 41 -41v-82q0 -41 -41 -41h-762z" />
    <glyph glyph-name="ecaron" unicode="&#x11b;" horiz-adv-x="1251" 
d="M587 1251q-32 0 -49 27l-149 221q-14 19 -6.5 34t32.5 15h31q33 0 49 -25l121 -163q12 -18 28.5 -18t28.5 18l117 163q18 25 49 25h33q25 0 32 -13.5t-7 -35.5l-150 -221q-17 -27 -49 -27h-111zM637 -20q-153 0 -280 73.5t-200 200t-73 276.5t73 276t200 199.5t278 73.5
q149 0 274 -70t198.5 -189.5t78.5 -262.5v-4q-1 -19 -13 -30t-30 -11h-867q-20 0 -31 -11.5t-7 -31.5q19 -148 132.5 -246t264.5 -98q93 0 175 39t138 110q25 31 58 17l59 -25q43 -19 18 -55q-76 -108 -192.5 -169.5t-253.5 -61.5zM299 641h670q22 0 31.5 13t0.5 34
q-45 111 -143.5 178.5t-222.5 67.5q-125 0 -224.5 -67t-144.5 -179q-9 -21 1 -34t32 -13z" />
    <glyph glyph-name="Gbreve" unicode="&#x11e;" horiz-adv-x="1778" 
d="M886 1698q-136 0 -228 73.5t-107 198.5q-3 43 41 43h22q38 0 41 -39q13 -86 77 -138t154 -52q92 0 156.5 52t77.5 138q3 39 41 39h22q44 0 41 -41q-13 -126 -106 -200t-232 -74zM901 -20q-214 0 -395.5 105.5t-287 287t-105.5 395.5t105.5 395.5t287 287t395.5 105.5
q195 0 364.5 -88.5t276.5 -240.5q25 -34 -12 -56l-80 -47q-34 -18 -57 15q-85 113 -214 178t-278 65q-167 0 -308.5 -81.5t-223.5 -223t-82 -309.5t82 -309.5t223.5 -223t308.5 -81.5q210 0 372 122.5t218 317.5q9 45 -37 45h-338q-41 0 -41 41v82q0 41 41 41h533
q41 0 41 -45q-3 -45 -7 -78q-27 -204 -136 -364t-277.5 -248t-368.5 -88z" />
    <glyph glyph-name="gbreve" unicode="&#x11f;" horiz-adv-x="1331" 
d="M618 1221q-136 0 -228 73.5t-107 198.5q-3 43 41 43h22q38 0 41 -39q13 -86 77 -138t154 -52q92 0 156.5 52t77.5 138q3 39 41 39h22q44 0 41 -41q-13 -126 -106 -200t-232 -74zM637 -498q-150 0 -276 61t-207 195q-19 34 14 58l59 43q35 24 58 -15q107 -186 348 -186
q180 0 271 94.5t91 251.5v117q0 27 -13.5 32t-33.5 -14q-130 -127 -330 -127q-149 0 -272.5 71.5t-193.5 194t-70 269.5q0 110 41.5 208.5t112.5 169.5t170.5 112.5t211.5 41.5q200 0 330 -127q20 -18 33.5 -13t13.5 32v47q0 41 41 41h80q41 0 41 -41v-1014
q0 -141 -58 -253.5t-177.5 -180.5t-284.5 -68zM618 168q157 0 268 111t111 268t-111 268t-268 111q-156 0 -266 -111t-110 -268t110 -268t266 -111z" />
    <glyph glyph-name="Gdotaccent" unicode="&#x120;" horiz-adv-x="1778" 
d="M889 1806q-46 0 -80.5 33.5t-34.5 79.5q0 48 34 81t81 33t81 -33t34 -81q0 -46 -34.5 -79.5t-80.5 -33.5zM901 -20q-214 0 -395.5 105.5t-287 287t-105.5 395.5t105.5 395.5t287 287t395.5 105.5q195 0 364.5 -88.5t276.5 -240.5q25 -34 -12 -56l-80 -47q-34 -18 -57 15
q-85 113 -214 178t-278 65q-167 0 -308.5 -81.5t-223.5 -223t-82 -309.5t82 -309.5t223.5 -223t308.5 -81.5q210 0 372 122.5t218 317.5q9 45 -37 45h-338q-41 0 -41 41v82q0 41 41 41h533q41 0 41 -45q-3 -45 -7 -78q-27 -204 -136 -364t-277.5 -248t-368.5 -88z" />
    <glyph glyph-name="gdotaccent" unicode="&#x121;" horiz-adv-x="1331" 
d="M621 1329q-46 0 -80.5 33.5t-34.5 79.5q0 48 34 81t81 33t81 -33t34 -81q0 -46 -34.5 -79.5t-80.5 -33.5zM637 -498q-150 0 -276 61t-207 195q-19 34 14 58l59 43q35 24 58 -15q107 -186 348 -186q180 0 271 94.5t91 251.5v117q0 27 -13.5 32t-33.5 -14
q-130 -127 -330 -127q-149 0 -272.5 71.5t-193.5 194t-70 269.5q0 110 41.5 208.5t112.5 169.5t170.5 112.5t211.5 41.5q200 0 330 -127q20 -18 33.5 -13t13.5 32v47q0 41 41 41h80q41 0 41 -41v-1014q0 -141 -58 -253.5t-177.5 -180.5t-284.5 -68zM618 168q157 0 268 111
t111 268t-111 268t-268 111q-156 0 -266 -111t-110 -268t110 -268t266 -111z" />
    <glyph glyph-name="uni0122" unicode="&#x122;" horiz-adv-x="1778" 
d="M901 -20q-214 0 -395.5 105.5t-287 287t-105.5 395.5t105.5 395.5t287 287t395.5 105.5q195 0 364.5 -88.5t276.5 -240.5q25 -34 -12 -56l-80 -47q-34 -18 -57 15q-85 113 -214 178t-278 65q-167 0 -308.5 -81.5t-223.5 -223t-82 -309.5t82 -309.5t223.5 -223
t308.5 -81.5q210 0 372 122.5t218 317.5q9 45 -37 45h-338q-41 0 -41 41v82q0 41 41 41h533q41 0 41 -45q-3 -45 -7 -78q-27 -204 -136 -364t-277.5 -248t-368.5 -88zM698 -567l-18 8q-39 15 -23 53l133 311q13 31 50 31h75q25 0 33 -14.5t-4 -34.5l-192 -336
q-20 -30 -54 -18z" />
    <glyph glyph-name="uni0123" unicode="&#x123;" horiz-adv-x="1331" 
d="M721 1538q20 0 31 -6t8 -16l-88 -266q-6 -18 -45 -18h-106q-22 0 -31.5 6t-3.5 16l145 267q9 17 47 17h43zM637 -498q-150 0 -276 61t-207 195q-19 34 14 58l59 43q35 24 58 -15q107 -186 348 -186q180 0 271 94.5t91 251.5v117q0 27 -13.5 32t-33.5 -14
q-130 -127 -330 -127q-149 0 -272.5 71.5t-193.5 194t-70 269.5q0 110 41.5 208.5t112.5 169.5t170.5 112.5t211.5 41.5q200 0 330 -127q20 -18 33.5 -13t13.5 32v47q0 41 41 41h80q41 0 41 -41v-1014q0 -141 -58 -253.5t-177.5 -180.5t-284.5 -68zM618 168q157 0 268 111
t111 268t-111 268t-268 111q-156 0 -266 -111t-110 -268t110 -268t266 -111z" />
    <glyph glyph-name="Hbar" unicode="&#x126;" horiz-adv-x="1620" 
d="M1499 1258q41 0 41 -41v-37q0 -41 -41 -41h-98v-1098q0 -41 -41 -41h-92q-41 0 -41 41v606q0 41 -41 41h-752q-41 0 -41 -41v-606q0 -41 -41 -41h-92q-41 0 -41 41v1098h-102q-41 0 -41 41v37q0 41 41 41h102v237q0 41 41 41h92q41 0 41 -41v-237h834v237q0 41 41 41h92
q41 0 41 -41v-237h98zM1227 891v248h-834v-248q0 -41 41 -41h752q41 0 41 41z" />
    <glyph glyph-name="hbar" unicode="&#x127;" horiz-adv-x="1210" 
d="M215 0q-41 0 -41 41v1169q0 41 -41 41h-53q-41 0 -41 41v37q0 41 41 41h53q41 0 41 41v84q0 41 41 41h70q41 0 41 -41v-84q0 -41 41 -41h233q41 0 41 -41v-37q0 -41 -41 -41h-233q-41 0 -41 -41v-229q0 -27 12 -31t31 17q103 112 272 112q186 0 305 -119.5t119 -345.5
v-573q0 -41 -41 -41h-68q-41 0 -41 41v561q0 170 -81 250t-213 80q-129 0 -211.5 -83t-83.5 -237v-571q0 -41 -41 -41h-70z" />
    <glyph glyph-name="Itilde" unicode="&#x128;" horiz-adv-x="612" 
d="M447 1753q-114 0 -183 108q-40 66 -102 66q-45 0 -73.5 -33t-37.5 -88q-3 -41 -41 -41h-10q-44 0 -41 43q11 94 64.5 151.5t136.5 57.5q110 0 180 -108q42 -66 107 -66q45 0 74 31.5t36 89.5q3 41 41 41h8q20 0 31 -12.5t10 -34.5q-12 -92 -64.5 -148.5t-135.5 -56.5z
M260 0q-41 0 -41 41v1454q0 41 41 41h92q41 0 41 -41v-1454q0 -41 -41 -41h-92z" />
    <glyph glyph-name="itilde" unicode="&#x129;" horiz-adv-x="508" 
d="M396 1276q-114 0 -183 108q-40 66 -102 66q-45 0 -73.5 -33t-37.5 -88q-3 -41 -41 -41h-10q-44 0 -41 43q11 94 64.5 151.5t136.5 57.5q110 0 180 -108q42 -66 107 -66q45 0 74 31.5t36 89.5q3 41 41 41h8q20 0 31 -12.5t10 -34.5q-12 -92 -64.5 -148.5t-135.5 -56.5z
M215 0q-41 0 -41 41v977q0 41 41 41h78q41 0 41 -41v-977q0 -41 -41 -41h-78z" />
    <glyph glyph-name="Imacron" unicode="&#x12a;" horiz-adv-x="612" 
d="M29 1724q-41 0 -41 41v33q0 41 41 41h553q41 0 41 -41v-33q0 -41 -41 -41h-553zM260 0q-41 0 -41 41v1454q0 41 41 41h92q41 0 41 -41v-1454q0 -41 -41 -41h-92z" />
    <glyph glyph-name="imacron" unicode="&#x12b;" horiz-adv-x="508" 
d="M-22 1247q-41 0 -41 41v33q0 41 41 41h553q41 0 41 -41v-33q0 -41 -41 -41h-553zM215 0q-41 0 -41 41v977q0 41 41 41h78q41 0 41 -41v-977q0 -41 -41 -41h-78z" />
    <glyph glyph-name="Iogonek" unicode="&#x12e;" horiz-adv-x="612" 
d="M393 41q0 -24 -14 -33l14 -8q-114 -48 -189 -122.5t-75 -158.5q0 -55 33 -82.5t86 -27.5q43 0 98 20q22 10 34.5 2.5t12.5 -30.5v-72q0 -35 -32 -47q-59 -15 -121 -12q-105 5 -167.5 60t-62.5 151q0 192 251 319h-1q-41 0 -41 41v1454q0 41 41 41h92q41 0 41 -41v-1454z
" />
    <glyph glyph-name="iogonek" unicode="&#x12f;" horiz-adv-x="508" 
d="M254 1556q47 0 81 -33t34 -81q0 -46 -34.5 -79.5t-80.5 -33.5t-80.5 33.5t-34.5 79.5q0 48 34 81t81 33zM293 1059q41 0 41 -41v-977q0 -24 -14 -33l14 -8q-114 -48 -189 -122.5t-75 -158.5q0 -55 33 -82.5t86 -27.5q43 0 98 20q22 10 34.5 2.5t12.5 -30.5v-72
q0 -35 -32 -47q-59 -15 -121 -12q-105 5 -167.5 60t-62.5 151q0 97 66 178t187 142q-30 6 -30 40v977q0 41 41 41h78z" />
    <glyph glyph-name="Idotaccent" unicode="&#x130;" horiz-adv-x="612" 
d="M305 1806q-46 0 -80.5 33.5t-34.5 79.5q0 48 34 81t81 33t81 -33t34 -81q0 -46 -34.5 -79.5t-80.5 -33.5zM260 0q-41 0 -41 41v1454q0 41 41 41h92q41 0 41 -41v-1454q0 -41 -41 -41h-92z" />
    <glyph glyph-name="dotlessi" unicode="&#x131;" horiz-adv-x="508" 
d="M215 0q-41 0 -41 41v977q0 41 41 41h78q41 0 41 -41v-977q0 -41 -41 -41h-78z" />
    <glyph glyph-name="uni0136" unicode="&#x136;" horiz-adv-x="1323" 
d="M260 0q-41 0 -41 41v1454q0 41 41 41h92q41 0 41 -41v-545q0 -28 16.5 -34t34.5 16l519 581q21 23 51 23h123q26 0 33 -16t-11 -35l-563 -621q-26 -30 -2 -57l633 -756q17 -21 10 -36t-33 -15h-125q-33 0 -51 25l-584 706q-18 23 -34.5 16.5t-16.5 -34.5v-672
q0 -41 -41 -41h-92zM471 -567l-18 8q-39 15 -23 53l133 311q13 31 50 31h75q25 0 33 -14.5t-4 -34.5l-192 -336q-19 -30 -54 -18z" />
    <glyph glyph-name="uni0137" unicode="&#x137;" horiz-adv-x="1081" 
d="M215 0q-41 0 -41 41v1454q0 41 41 41h78q41 0 41 -41v-827q0 -28 16 -34.5t35 13.5l365 389q21 23 51 23h117q26 0 32.5 -15.5t-12.5 -35.5l-391 -400q-29 -27 0 -57l473 -500q18 -19 10.5 -35t-33.5 -16h-116q-29 0 -52 23l-444 473q-19 20 -35 13.5t-16 -34.5v-434
q0 -41 -41 -41h-78zM344 -567l-18 8q-39 15 -23 53l133 311q13 31 50 31h75q25 0 33 -14.5t-4 -34.5l-192 -336q-20 -30 -54 -18z" />
    <glyph glyph-name="Lacute" unicode="&#x139;" horiz-adv-x="1024" 
d="M315 1696h-35q-26 0 -33.5 13.5t9.5 35.5l194 241q26 33 60 7l33 -27q31 -27 4 -57l-181 -191q-22 -22 -51 -22zM260 0q-41 0 -41 41v1454q0 41 41 41h92q41 0 41 -41v-1290q0 -41 41 -41h486q41 0 41 -41v-82q0 -41 -41 -41h-660z" />
    <glyph glyph-name="lacute" unicode="&#x13a;" horiz-adv-x="508" 
d="M264 1696h-35q-26 0 -33.5 13.5t9.5 35.5l194 241q26 33 60 7l33 -27q31 -27 4 -57l-181 -191q-22 -22 -51 -22zM215 0q-41 0 -41 41v1454q0 41 41 41h78q41 0 41 -41v-1454q0 -41 -41 -41h-78z" />
    <glyph glyph-name="uni013B" unicode="&#x13b;" horiz-adv-x="1024" 
d="M260 0q-41 0 -41 41v1454q0 41 41 41h92q41 0 41 -41v-1290q0 -41 41 -41h486q41 0 41 -41v-82q0 -41 -41 -41h-660zM399 -567l-18 8q-39 15 -23 53l133 311q13 31 50 31h75q25 0 33 -14.5t-4 -34.5l-192 -336q-19 -30 -54 -18z" />
    <glyph glyph-name="uni013C" unicode="&#x13c;" horiz-adv-x="508" 
d="M215 0q-41 0 -41 41v1454q0 41 41 41h78q41 0 41 -41v-1454q0 -41 -41 -41h-78zM63 -567l-18 8q-39 15 -23 53l133 311q13 31 50 31h75q25 0 33 -14.5t-4 -34.5l-192 -336q-19 -30 -54 -18z" />
    <glyph glyph-name="Lcaron" unicode="&#x13d;" horiz-adv-x="1057" 
d="M686 910q-20 0 -31 12.5t-8 32.5l88 545q5 37 45 37h106q22 0 31.5 -12.5t3.5 -32.5l-145 -547q-9 -35 -47 -35h-43zM260 0q-41 0 -41 41v1454q0 41 41 41h92q41 0 41 -41v-1290q0 -41 41 -41h486q41 0 41 -41v-82q0 -41 -41 -41h-660z" />
    <glyph glyph-name="lcaron" unicode="&#x13e;" horiz-adv-x="643" 
d="M496 910q-20 0 -31 12.5t-8 32.5l88 545q5 37 45 37h106q22 0 31.5 -12.5t3.5 -32.5l-145 -547q-9 -35 -47 -35h-43zM215 0q-41 0 -41 41v1454q0 41 41 41h78q41 0 41 -41v-1454q0 -41 -41 -41h-78z" />
    <glyph glyph-name="Lslash" unicode="&#x141;" horiz-adv-x="1024" 
d="M920 164q41 0 41 -41v-82q0 -41 -41 -41h-660q-41 0 -41 41v537l-89 -66q-20 -15 -34.5 -7.5t-14.5 32.5v61q0 30 24 49l114 85v763q0 41 41 41h92q41 0 41 -41v-633l218 162q20 15 34.5 7.5t14.5 -31.5v-62q0 -30 -24 -49l-243 -181v-503q0 -41 41 -41h486z" />
    <glyph glyph-name="lslash" unicode="&#x142;" horiz-adv-x="643" 
d="M287 0q-41 0 -41 41v528q0 25 -15 32.5t-34 -7.5l-113 -84q-20 -15 -34.5 -7.5t-14.5 32.5v61q0 30 24 49l162 121q25 18 25 49v680q0 41 41 41h78q41 0 41 -41v-530q0 -25 14.5 -32.5t34.5 7.5l110 82q20 15 34.5 7.5t14.5 -32.5v-61q0 -30 -24 -49l-160 -119
q-24 -19 -24 -49v-678q0 -41 -41 -41h-78z" />
    <glyph glyph-name="Nacute" unicode="&#x143;" horiz-adv-x="1767" 
d="M893 1696h-35q-26 0 -33.5 13.5t9.5 35.5l194 241q26 33 60 7l33 -27q31 -27 4 -57l-181 -191q-22 -22 -51 -22zM260 0q-41 0 -41 41v1454q0 41 41 41h45q32 0 51 -23l977 -1151q19 -21 35 -15t16 34v1114q0 41 41 41h82q41 0 41 -41v-1454q0 -41 -41 -41h-45
q-32 0 -51 23l-977 1151q-18 21 -34.5 15t-16.5 -34v-1114q0 -41 -41 -41h-82z" />
    <glyph glyph-name="nacute" unicode="&#x144;" horiz-adv-x="1219" 
d="M622 1219h-35q-26 0 -33.5 13.5t9.5 35.5l194 241q26 33 60 7l33 -27q31 -27 4 -57l-181 -191q-22 -22 -51 -22zM215 0q-41 0 -41 41v977q0 41 41 41h78q41 0 41 -41v-37q0 -27 12 -31t31 17q103 112 272 112q186 0 305 -119.5t119 -345.5v-573q0 -41 -41 -41h-78
q-41 0 -41 41v561q0 171 -76.5 250.5t-207.5 79.5q-129 0 -211.5 -83t-83.5 -237v-571q0 -41 -41 -41h-78z" />
    <glyph glyph-name="uni0145" unicode="&#x145;" horiz-adv-x="1767" 
d="M260 0q-41 0 -41 41v1454q0 41 41 41h45q32 0 51 -23l977 -1151q19 -21 35 -15t16 34v1114q0 41 41 41h82q41 0 41 -41v-1454q0 -41 -41 -41h-45q-32 0 -51 23l-977 1151q-18 21 -34.5 15t-16.5 -34v-1114q0 -41 -41 -41h-82zM696 -567l-18 8q-39 15 -23 53l133 311
q13 31 50 31h75q25 0 33 -14.5t-4 -34.5l-192 -336q-20 -30 -54 -18z" />
    <glyph glyph-name="uni0146" unicode="&#x146;" horiz-adv-x="1219" 
d="M215 0q-41 0 -41 41v977q0 41 41 41h78q41 0 41 -41v-37q0 -27 12 -31t31 17q103 112 272 112q186 0 305 -119.5t119 -345.5v-573q0 -41 -41 -41h-78q-41 0 -41 41v561q0 171 -76.5 250.5t-207.5 79.5q-129 0 -211.5 -83t-83.5 -237v-571q0 -41 -41 -41h-78zM421 -567
l-18 8q-39 15 -23 53l133 311q13 31 50 31h75q25 0 33 -14.5t-4 -34.5l-192 -336q-19 -30 -54 -18z" />
    <glyph glyph-name="Ncaron" unicode="&#x147;" horiz-adv-x="1767" 
d="M825 1716q-32 0 -49 27l-149 221q-14 20 -6.5 34.5t32.5 14.5h31q33 0 49 -25l121 -163q12 -18 28.5 -18t28.5 18l117 163q18 25 49 25h33q25 0 32 -13.5t-7 -35.5l-150 -221q-17 -27 -49 -27h-111zM260 0q-41 0 -41 41v1454q0 41 41 41h45q32 0 51 -23l977 -1151
q19 -21 35 -15t16 34v1114q0 41 41 41h82q41 0 41 -41v-1454q0 -41 -41 -41h-45q-32 0 -51 23l-977 1151q-18 21 -34.5 15t-16.5 -34v-1114q0 -41 -41 -41h-82z" />
    <glyph glyph-name="ncaron" unicode="&#x148;" horiz-adv-x="1219" 
d="M554 1239q-32 0 -49 27l-149 221q-14 19 -6.5 34t32.5 15h31q33 0 49 -25l121 -163q12 -18 28.5 -18t28.5 18l117 163q18 25 49 25h33q25 0 32 -13.5t-7 -35.5l-150 -221q-17 -27 -49 -27h-111zM215 0q-41 0 -41 41v977q0 41 41 41h78q41 0 41 -41v-37q0 -27 12 -31
t31 17q103 112 272 112q186 0 305 -119.5t119 -345.5v-573q0 -41 -41 -41h-78q-41 0 -41 41v561q0 171 -76.5 250.5t-207.5 79.5q-129 0 -211.5 -83t-83.5 -237v-571q0 -41 -41 -41h-78z" />
    <glyph glyph-name="Eng" unicode="&#x14a;" horiz-adv-x="1767" 
d="M1507 1536q41 0 41 -41v-1491q0 -135 -53.5 -244t-163 -178.5t-260.5 -77.5q-43 -3 -43 39v74q0 40 41 43q157 10 238 104t81 240v46l-954 1124q-18 21 -34.5 15t-16.5 -34v-1114q0 -41 -41 -41h-82q-41 0 -41 41v1454q0 41 41 41h45q32 0 51 -23l977 -1151
q19 -21 35 -15t16 34v1114q0 41 41 41h82z" />
    <glyph glyph-name="eng" unicode="&#x14b;" horiz-adv-x="1219" 
d="M674 -498q-41 0 -41 41v47q0 41 41 41h80q71 0 115 50t44 131v790q0 171 -76.5 250.5t-207.5 79.5q-129 0 -211.5 -83t-83.5 -237v-571q0 -41 -41 -41h-78q-41 0 -41 41v977q0 41 41 41h78q41 0 41 -41v-8q0 -26 12.5 -32.5t32.5 9.5q110 92 270 92q186 0 305 -119.5
t119 -345.5v-800q0 -143 -82 -227.5t-219 -84.5h-98z" />
    <glyph glyph-name="Omacron" unicode="&#x14c;" horiz-adv-x="1802" 
d="M625 1724q-41 0 -41 41v33q0 41 41 41h553q41 0 41 -41v-33q0 -41 -41 -41h-553zM901 -20q-214 0 -395.5 105.5t-287 287t-105.5 395.5t105.5 395.5t287 287t395.5 105.5q161 0 307 -62.5t251.5 -167.5t168 -251t62.5 -307t-62.5 -307t-168 -251t-251.5 -167.5
t-307 -62.5zM901 154q168 0 309.5 81.5t223.5 223t82 309.5t-82 309.5t-223.5 223t-309.5 81.5q-167 0 -308.5 -81.5t-223.5 -223t-82 -309.5t82 -309.5t223.5 -223t308.5 -81.5z" />
    <glyph glyph-name="omacron" unicode="&#x14d;" horiz-adv-x="1274" 
d="M361 1247q-41 0 -41 41v33q0 41 41 41h553q41 0 41 -41v-33q0 -41 -41 -41h-553zM637 -20q-151 0 -278.5 73.5t-201 200t-73.5 276.5t73.5 276t201 199.5t278.5 73.5t278.5 -73.5t201 -199.5t73.5 -276t-73.5 -276.5t-201 -200t-278.5 -73.5zM637 135q163 0 278 115.5
t115 279.5q0 163 -115 278.5t-278 115.5q-164 0 -278.5 -115t-114.5 -279t114.5 -279.5t278.5 -115.5z" />
    <glyph glyph-name="Ohungarumlaut" unicode="&#x150;" horiz-adv-x="1802" 
d="M727 1696q-27 0 -34 13.5t9 35.5l197 241q25 33 57 7l35 -27q33 -27 4 -57l-182 -191q-19 -22 -51 -22h-35zM1075 1696q-27 0 -34 13.5t9 35.5l197 241q25 33 57 7l35 -27q33 -27 4 -57l-182 -191q-19 -22 -51 -22h-35zM901 -20q-214 0 -395.5 105.5t-287 287
t-105.5 395.5t105.5 395.5t287 287t395.5 105.5q161 0 307 -62.5t251.5 -167.5t168 -251t62.5 -307t-62.5 -307t-168 -251t-251.5 -167.5t-307 -62.5zM901 154q168 0 309.5 81.5t223.5 223t82 309.5t-82 309.5t-223.5 223t-309.5 81.5q-167 0 -308.5 -81.5t-223.5 -223
t-82 -309.5t82 -309.5t223.5 -223t308.5 -81.5z" />
    <glyph glyph-name="ohungarumlaut" unicode="&#x151;" horiz-adv-x="1274" 
d="M463 1219q-27 0 -34 13.5t9 35.5l197 241q25 33 57 7l35 -27q33 -27 4 -57l-182 -191q-19 -22 -51 -22h-35zM811 1219q-27 0 -34 13.5t9 35.5l197 241q25 33 57 7l35 -27q33 -27 4 -57l-182 -191q-19 -22 -51 -22h-35zM637 -20q-151 0 -278.5 73.5t-201 200t-73.5 276.5
t73.5 276t201 199.5t278.5 73.5t278.5 -73.5t201 -199.5t73.5 -276t-73.5 -276.5t-201 -200t-278.5 -73.5zM637 135q163 0 278 115.5t115 279.5q0 163 -115 278.5t-278 115.5q-164 0 -278.5 -115t-114.5 -279t114.5 -279.5t278.5 -115.5z" />
    <glyph glyph-name="OE" unicode="&#x152;" horiz-adv-x="2132" 
d="M881 0q-240 0 -414 95t-264 268t-90 405t90 405t264 268t414 95h1095q41 0 41 -41v-82q0 -41 -41 -41h-587q-41 0 -41 -41v-442q0 -41 41 -41h501q41 0 41 -41v-82q0 -41 -41 -41h-501q-41 0 -41 -41v-438q0 -41 41 -41h587q41 0 41 -41v-82q0 -41 -41 -41h-1095z
M883 164h250q41 0 41 41v1126q0 41 -41 41h-250q-294 0 -445 -156.5t-151 -447.5t151 -447.5t445 -156.5z" />
    <glyph glyph-name="oe" unicode="&#x153;" horiz-adv-x="2210" 
d="M637 -20q-151 0 -278.5 73.5t-201 200t-73.5 276.5t73.5 276t201 199.5t278.5 73.5t278.5 -74.5t200.5 -199.5q72 125 199 199.5t278 74.5q149 0 274 -70t198.5 -189.5t78.5 -262.5v-4q0 -19 -12 -30t-31 -11h-866q-21 0 -31.5 -11.5t-7.5 -31.5q23 -148 135.5 -246
t261.5 -98q94 0 176 39t138 110q24 32 57 17l59 -25q20 -7 25 -23t-6 -32q-70 -110 -188.5 -170.5t-258.5 -60.5q-154 0 -280.5 74t-198.5 200q-73 -125 -200.5 -199.5t-278.5 -74.5zM1249 641h670q22 0 32 13t1 34q-46 111 -144.5 178.5t-222.5 67.5q-125 0 -224 -67
t-144 -179q-9 -21 0.5 -34t31.5 -13zM637 135q163 0 278 115.5t115 279.5q0 163 -115 278.5t-278 115.5q-164 0 -278.5 -115t-114.5 -279t114.5 -279.5t278.5 -115.5z" />
    <glyph glyph-name="Racute" unicode="&#x154;" horiz-adv-x="1395" 
d="M723 1696h-35q-26 0 -33.5 13.5t9.5 35.5l194 241q26 33 60 7l33 -27q31 -27 4 -57l-181 -191q-22 -22 -51 -22zM260 0q-41 0 -41 41v1454q0 41 41 41h535q179 0 304.5 -126t125.5 -304q0 -135 -73.5 -241t-193.5 -152q-41 -17 -20 -54l356 -610q13 -19 4.5 -34
t-32.5 -15h-99q-35 0 -49 29l-354 624q-14 29 -49 29h-281q-41 0 -41 -41v-600q0 -41 -41 -41h-92zM393 887q0 -41 41 -41h344q118 0 195.5 68.5t77.5 189.5q0 118 -78.5 193t-194.5 75h-344q-41 0 -41 -41v-444z" />
    <glyph glyph-name="racute" unicode="&#x155;" horiz-adv-x="733" 
d="M377 1219h-35q-26 0 -33.5 13.5t9.5 35.5l194 241q26 33 60 7l33 -27q31 -27 4 -57l-181 -191q-22 -22 -51 -22zM215 0q-41 0 -41 41v977q0 41 41 41h78q41 0 41 -41v-57q0 -28 12.5 -32.5t32.5 15.5q100 111 283 123q43 3 43 -39v-72q0 -18 -11 -30t-30 -13
q-330 -14 -330 -333v-539q0 -41 -41 -41h-78z" />
    <glyph glyph-name="uni0156" unicode="&#x156;" horiz-adv-x="1395" 
d="M260 0q-41 0 -41 41v1454q0 41 41 41h535q179 0 304.5 -126t125.5 -304q0 -135 -73.5 -241t-193.5 -152q-41 -17 -20 -54l356 -610q13 -19 4.5 -34t-32.5 -15h-99q-35 0 -49 29l-354 624q-14 29 -49 29h-281q-41 0 -41 -41v-600q0 -41 -41 -41h-92zM393 887q0 -41 41 -41
h344q118 0 195.5 68.5t77.5 189.5q0 118 -78.5 193t-194.5 75h-344q-41 0 -41 -41v-444zM522 -567l-18 8q-39 15 -23 53l133 311q13 31 50 31h75q25 0 33 -14.5t-4 -34.5l-192 -336q-20 -30 -54 -18z" />
    <glyph glyph-name="uni0157" unicode="&#x157;" horiz-adv-x="733" 
d="M215 0q-41 0 -41 41v977q0 41 41 41h78q41 0 41 -41v-57q0 -28 12.5 -32.5t32.5 15.5q100 111 283 123q43 3 43 -39v-72q0 -18 -11 -30t-30 -13q-330 -14 -330 -333v-539q0 -41 -41 -41h-78zM71 -567l-18 8q-39 15 -23 53l133 311q13 31 50 31h75q25 0 33 -14.5t-4 -34.5
l-192 -336q-19 -30 -54 -18z" />
    <glyph glyph-name="Rcaron" unicode="&#x158;" horiz-adv-x="1395" 
d="M655 1716q-32 0 -49 27l-149 221q-14 20 -6.5 34.5t32.5 14.5h31q33 0 49 -25l121 -163q12 -18 28.5 -18t28.5 18l117 163q18 25 49 25h33q25 0 32 -13.5t-7 -35.5l-150 -221q-17 -27 -49 -27h-111zM260 0q-41 0 -41 41v1454q0 41 41 41h535q179 0 304.5 -126t125.5 -304
q0 -135 -73.5 -241t-193.5 -152q-41 -17 -20 -54l356 -610q13 -19 4.5 -34t-32.5 -15h-99q-35 0 -49 29l-354 624q-14 29 -49 29h-281q-41 0 -41 -41v-600q0 -41 -41 -41h-92zM393 887q0 -41 41 -41h344q118 0 195.5 68.5t77.5 189.5q0 118 -78.5 193t-194.5 75h-344
q-41 0 -41 -41v-444z" />
    <glyph glyph-name="rcaron" unicode="&#x159;" horiz-adv-x="733" 
d="M309 1239q-32 0 -49 27l-149 221q-14 19 -6.5 34t32.5 15h31q33 0 49 -25l121 -163q12 -18 28.5 -18t28.5 18l117 163q18 25 49 25h33q25 0 32 -13.5t-7 -35.5l-150 -221q-17 -27 -49 -27h-111zM215 0q-41 0 -41 41v977q0 41 41 41h78q41 0 41 -41v-57q0 -28 12.5 -32.5
t32.5 15.5q100 111 283 123q43 3 43 -39v-72q0 -18 -11 -30t-30 -13q-330 -14 -330 -333v-539q0 -41 -41 -41h-78z" />
    <glyph glyph-name="Sacute" unicode="&#x15a;" horiz-adv-x="1171" 
d="M600 1696h-35q-26 0 -33.5 13.5t9.5 35.5l194 241q26 33 60 7l33 -27q31 -27 4 -57l-181 -191q-22 -22 -51 -22zM600 -20q-145 0 -275 59t-219 154q-24 28 5 57l65 65q30 30 57 -4q149 -174 355 -174q136 0 224.5 72t88.5 190q0 37 -10.5 69.5t-25 57.5t-42.5 49.5
t-51.5 41t-64 37t-67 32t-73.5 31.5q-57 24 -90 38.5t-82.5 40.5t-78.5 48t-63.5 55.5t-53 69t-31 83t-12.5 101.5q0 182 121 292.5t305 110.5q246 0 417 -180q30 -28 0 -57l-51 -53q-27 -32 -59 2q-77 73 -147.5 102t-155.5 29q-112 0 -188 -62t-76 -172q0 -49 20 -91
t44 -68.5t77.5 -57t85.5 -44.5t103 -43q8 -3 12 -5q52 -21 84.5 -35.5t79.5 -40t77 -48.5t64 -58t53 -72.5t32 -87.5t13 -108q0 -102 -37 -184t-101.5 -134t-148.5 -80t-180 -28z" />
    <glyph glyph-name="sacute" unicode="&#x15b;" horiz-adv-x="936" 
d="M483 1219h-35q-26 0 -33.5 13.5t9.5 35.5l194 241q26 33 60 7l33 -27q31 -27 4 -57l-181 -191q-22 -22 -51 -22zM467 -20q-200 0 -369 116q-32 25 -10 58l45 67q22 35 57 8q132 -98 283 -98q98 0 156.5 43t58.5 121q0 23 -7 43t-17 34.5t-30 28.5t-35.5 22.5t-45.5 19.5
t-48 16.5t-54 15.5q-49 15 -69.5 21t-64.5 23t-65 30t-52 37t-45.5 49.5t-26 61.5t-11.5 79q0 96 52.5 166t135.5 103.5t184 33.5q164 0 302 -84q35 -22 10 -55l-47 -61q-23 -32 -58 -11q-103 66 -221 66q-90 0 -145.5 -38t-55.5 -105q0 -48 40.5 -83.5t78 -49.5t125.5 -39
q15 -5 23 -7q54 -16 90.5 -29t82 -38.5t73 -55.5t46.5 -77.5t19 -106.5q0 -153 -105.5 -239t-279.5 -86z" />
    <glyph glyph-name="Scedilla" unicode="&#x15e;" horiz-adv-x="1171" 
d="M611 -20l-30 -62q-18 -37 -5 -47q3 -3 7 -2q8 2 27 2q86 0 142 -53t56 -137q0 -89 -61 -151t-150 -62q-57 0 -115 27t-96 71q-14 15 -9 30t26 23l16 6q28 12 58 -10q52 -47 120 -47q47 0 79 32.5t32 80.5q0 49 -31.5 77.5t-83.5 28.5q-27 0 -55 -8q-32 -10 -55 6l-21 14
q-30 23 -16 56l67 131q-121 16 -226.5 71.5t-180.5 135.5q-24 28 5 57l65 65q30 30 57 -4q149 -174 355 -174q136 0 224.5 72t88.5 190q0 37 -10.5 69.5t-25 57.5t-42.5 49.5t-51.5 41t-64 37t-67 32t-73.5 31.5q-57 24 -90 38.5t-82.5 40.5t-78.5 48t-63.5 55.5t-53 69
t-31 83t-12.5 101.5q0 182 121 292.5t305 110.5q246 0 417 -180q30 -28 0 -57l-51 -53q-27 -32 -59 2q-77 73 -147.5 102t-155.5 29q-112 0 -188 -62t-76 -172q0 -49 20 -91t44 -68.5t77.5 -57t85.5 -44.5t103 -43q8 -3 12 -5q52 -21 84.5 -35.5t79.5 -40t77 -48.5t64 -58
t53 -72.5t32 -87.5t13 -108q0 -100 -36 -181.5t-98.5 -133.5t-145 -80.5t-176.5 -30.5z" />
    <glyph glyph-name="scedilla" unicode="&#x15f;" horiz-adv-x="936" 
d="M520 -18l-31 -64q-18 -37 -5 -47q3 -3 7 -2q8 2 27 2q86 0 142 -53t56 -137q0 -89 -61 -151t-150 -62q-57 0 -115 27t-96 71q-14 15 -9 30t26 23l16 6q28 12 58 -10q52 -47 120 -47q47 0 79 32.5t32 80.5q0 49 -31.5 77.5t-83.5 28.5q-27 0 -55 -8q-32 -10 -55 6l-21 14
q-30 23 -16 56l65 127q-174 13 -321 114q-32 25 -10 58l45 67q22 35 57 8q132 -98 283 -98q98 0 156.5 43t58.5 121q0 23 -7 43t-17 34.5t-30 28.5t-35.5 22.5t-45.5 19.5t-48 16.5t-54 15.5q-49 15 -69.5 21t-64.5 23t-65 30t-52 37t-45.5 49.5t-26 61.5t-11.5 79
q0 96 52.5 166t135.5 103.5t184 33.5q164 0 302 -84q35 -22 10 -55l-47 -61q-23 -32 -58 -11q-103 66 -221 66q-90 0 -145.5 -38t-55.5 -105q0 -48 40.5 -83.5t78 -49.5t125.5 -39q15 -5 23 -7q54 -16 90.5 -29t82 -38.5t73 -55.5t46.5 -77.5t19 -106.5q0 -141 -90 -225.5
t-242 -97.5z" />
    <glyph glyph-name="Scaron" unicode="&#x160;" horiz-adv-x="1171" 
d="M532 1716q-32 0 -49 27l-149 221q-14 20 -6.5 34.5t32.5 14.5h31q33 0 49 -25l121 -163q12 -18 28.5 -18t28.5 18l117 163q18 25 49 25h33q25 0 32 -13.5t-7 -35.5l-150 -221q-17 -27 -49 -27h-111zM600 -20q-145 0 -275 59t-219 154q-24 28 5 57l65 65q30 30 57 -4
q149 -174 355 -174q136 0 224.5 72t88.5 190q0 37 -10.5 69.5t-25 57.5t-42.5 49.5t-51.5 41t-64 37t-67 32t-73.5 31.5q-57 24 -90 38.5t-82.5 40.5t-78.5 48t-63.5 55.5t-53 69t-31 83t-12.5 101.5q0 182 121 292.5t305 110.5q246 0 417 -180q30 -28 0 -57l-51 -53
q-27 -32 -59 2q-77 73 -147.5 102t-155.5 29q-112 0 -188 -62t-76 -172q0 -49 20 -91t44 -68.5t77.5 -57t85.5 -44.5t103 -43q8 -3 12 -5q52 -21 84.5 -35.5t79.5 -40t77 -48.5t64 -58t53 -72.5t32 -87.5t13 -108q0 -102 -37 -184t-101.5 -134t-148.5 -80t-180 -28z" />
    <glyph glyph-name="scaron" unicode="&#x161;" horiz-adv-x="936" 
d="M415 1239q-32 0 -49 27l-149 221q-14 19 -6.5 34t32.5 15h31q33 0 49 -25l121 -163q12 -18 28.5 -18t28.5 18l117 163q18 25 49 25h33q25 0 32 -13.5t-7 -35.5l-150 -221q-17 -27 -49 -27h-111zM467 -20q-200 0 -369 116q-32 25 -10 58l45 67q22 35 57 8q132 -98 283 -98
q98 0 156.5 43t58.5 121q0 23 -7 43t-17 34.5t-30 28.5t-35.5 22.5t-45.5 19.5t-48 16.5t-54 15.5q-49 15 -69.5 21t-64.5 23t-65 30t-52 37t-45.5 49.5t-26 61.5t-11.5 79q0 96 52.5 166t135.5 103.5t184 33.5q164 0 302 -84q35 -22 10 -55l-47 -61q-23 -32 -58 -11
q-103 66 -221 66q-90 0 -145.5 -38t-55.5 -105q0 -48 40.5 -83.5t78 -49.5t125.5 -39q15 -5 23 -7q54 -16 90.5 -29t82 -38.5t73 -55.5t46.5 -77.5t19 -106.5q0 -153 -105.5 -239t-279.5 -86z" />
    <glyph glyph-name="uni0162" unicode="&#x162;" horiz-adv-x="1145" 
d="M1040 1536q41 0 41 -41v-82q0 -41 -41 -41h-340q-41 0 -41 -41v-1290q0 -39 -39 -41l-39 -82q-18 -37 -5 -47q3 -3 7 -2q8 2 27 2q86 0 142 -53t56 -137q0 -89 -61 -151t-150 -62q-57 0 -115 27t-96 71q-14 15 -9 30t26 23l16 6q28 12 58 -10q52 -47 120 -47
q47 0 79 32.5t32 80.5q0 49 -31.5 77.5t-83.5 28.5q-27 0 -55 -8q-32 -10 -55 6l-21 14q-30 23 -16 56l74 145q-35 3 -35 41v1290q0 41 -41 41h-340q-41 0 -41 41v82q0 41 41 41h936z" />
    <glyph glyph-name="uni0163" unicode="&#x163;" horiz-adv-x="727" 
d="M571 -129q86 0 142 -53t56 -137q0 -89 -61 -151t-150 -62q-57 0 -115 27t-96 71q-14 15 -9 30t26 23l16 6q28 12 58 -10q52 -47 120 -47q47 0 79 32.5t32 80.5q0 49 -31.5 77.5t-83.5 28.5q-27 0 -55 -8q-32 -10 -55 6l-21 14q-30 23 -16 56l75 146q-123 9 -196 84
t-73 206v583q0 41 -41 41h-96q-41 0 -41 41v62q0 41 41 41h96q41 0 41 41v211q0 41 41 41h78q41 0 41 -41v-211q0 -41 41 -41h198q41 0 41 -41v-62q0 -41 -41 -41h-198q-41 0 -41 -41v-565q0 -80 43.5 -125t115.5 -45h80q41 0 41 -41v-57q0 -41 -41 -41h-31l-39 -82
q-18 -37 -5 -47q3 -3 7 -2q8 2 27 2z" />
    <glyph glyph-name="Tcaron" unicode="&#x164;" horiz-adv-x="1145" 
d="M513 1716q-32 0 -49 27l-149 221q-14 20 -6.5 34.5t32.5 14.5h31q33 0 49 -25l121 -163q12 -18 28.5 -18t28.5 18l117 163q18 25 49 25h33q25 0 32 -13.5t-7 -35.5l-150 -221q-17 -27 -49 -27h-111zM526 0q-41 0 -41 41v1290q0 41 -41 41h-340q-41 0 -41 41v82
q0 41 41 41h936q41 0 41 -41v-82q0 -41 -41 -41h-340q-41 0 -41 -41v-1290q0 -41 -41 -41h-92z" />
    <glyph glyph-name="tcaron" unicode="&#x165;" horiz-adv-x="729" 
d="M573 1214q-20 0 -31 13t-7 33l88 544q5 37 45 37h106q22 0 31.5 -12.5t3.5 -32.5l-145 -547q-11 -35 -48 -35h-43zM514 0q-136 0 -218.5 75.5t-82.5 215.5v583q0 41 -41 41h-96q-41 0 -41 41v62q0 41 41 41h96q41 0 41 41v211q0 41 41 41h78q41 0 41 -41v-211
q0 -41 41 -41h198q41 0 41 -41v-62q0 -41 -41 -41h-198q-41 0 -41 -41v-565q0 -80 43.5 -125t115.5 -45h80q41 0 41 -41v-57q0 -41 -41 -41h-98z" />
    <glyph glyph-name="Tbar" unicode="&#x166;" horiz-adv-x="1145" 
d="M526 0q-41 0 -41 41v627q0 41 -41 41h-133q-41 0 -41 41v36q0 41 41 41h133q41 0 41 41v463q0 41 -41 41h-340q-41 0 -41 41v82q0 41 41 41h936q41 0 41 -41v-82q0 -41 -41 -41h-340q-41 0 -41 -41v-463q0 -41 41 -41h131q41 0 41 -41v-36q0 -41 -41 -41h-131
q-41 0 -41 -41v-627q0 -41 -41 -41h-92z" />
    <glyph glyph-name="tbar" unicode="&#x167;" horiz-adv-x="817" 
d="M561 0q-136 0 -218.5 75.5t-82.5 215.5v139q0 41 -41 41h-96q-41 0 -41 41v37q0 41 41 41h96q41 0 41 41v243q0 41 -41 41h-96q-41 0 -41 41v62q0 41 41 41h96q41 0 41 41v211q0 41 41 41h78q41 0 41 -41v-211q0 -41 41 -41h198q41 0 41 -41v-62q0 -41 -41 -41h-198
q-41 0 -41 -41v-243q0 -41 41 -41h182q41 0 41 -41v-37q0 -41 -41 -41h-182q-41 0 -41 -41v-121q0 -80 44 -125t116 -45h79q41 0 41 -41v-57q0 -41 -41 -41h-98z" />
    <glyph glyph-name="Utilde" unicode="&#x168;" horiz-adv-x="1538" 
d="M910 1753q-114 0 -183 108q-40 66 -102 66q-45 0 -73.5 -33t-37.5 -88q-3 -41 -41 -41h-10q-44 0 -41 43q11 94 64.5 151.5t136.5 57.5q110 0 180 -108q42 -66 107 -66q45 0 74 31.5t36 89.5q3 41 41 41h8q20 0 31 -12.5t10 -34.5q-12 -92 -64.5 -148.5t-135.5 -56.5z
M768 -20q-252 0 -416 148.5t-164 375.5v991q0 41 41 41h93q40 0 40 -41v-952q0 -202 110 -301t296 -99q187 0 297.5 99t110.5 301v952q0 41 41 41h92q41 0 41 -41v-991q0 -227 -164.5 -375.5t-417.5 -148.5z" />
    <glyph glyph-name="utilde" unicode="&#x169;" horiz-adv-x="1143" 
d="M713 1276q-114 0 -183 108q-40 66 -102 66q-45 0 -73.5 -33t-37.5 -88q-3 -41 -41 -41h-10q-44 0 -41 43q11 94 64.5 151.5t136.5 57.5q110 0 180 -108q42 -66 107 -66q45 0 74 31.5t36 89.5q3 41 41 41h8q20 0 31 -12.5t10 -34.5q-12 -92 -64.5 -148.5t-135.5 -56.5z
M571 -20q-190 0 -305.5 101t-115.5 279v658q0 41 40 41h74q41 0 41 -41v-653q0 -114 73.5 -172t192.5 -58q121 0 194 58t73 172v653q0 41 41 41h73q41 0 41 -41v-658q0 -178 -115.5 -279t-306.5 -101z" />
    <glyph glyph-name="Umacron" unicode="&#x16a;" horiz-adv-x="1538" 
d="M492 1724q-41 0 -41 41v33q0 41 41 41h553q41 0 41 -41v-33q0 -41 -41 -41h-553zM768 -20q-252 0 -416 148.5t-164 375.5v991q0 41 41 41h93q40 0 40 -41v-952q0 -202 110 -301t296 -99q187 0 297.5 99t110.5 301v952q0 41 41 41h92q41 0 41 -41v-991
q0 -227 -164.5 -375.5t-417.5 -148.5z" />
    <glyph glyph-name="umacron" unicode="&#x16b;" horiz-adv-x="1143" 
d="M295 1247q-41 0 -41 41v33q0 41 41 41h553q41 0 41 -41v-33q0 -41 -41 -41h-553zM571 -20q-190 0 -305.5 101t-115.5 279v658q0 41 40 41h74q41 0 41 -41v-653q0 -114 73.5 -172t192.5 -58q121 0 194 58t73 172v653q0 41 41 41h73q41 0 41 -41v-658q0 -178 -115.5 -279
t-306.5 -101z" />
    <glyph glyph-name="Uring" unicode="&#x16e;" horiz-adv-x="1538" 
d="M768 1673q-89 0 -153 64t-64 151q0 89 64 152t153 63q88 0 150.5 -63t62.5 -152q0 -87 -63 -151t-150 -64zM768 1763q51 0 87 36t36 89q0 51 -36.5 89t-86.5 38q-52 0 -87.5 -37.5t-35.5 -89.5q0 -53 35.5 -89t87.5 -36zM768 -20q-252 0 -416 148.5t-164 375.5v991
q0 41 41 41h93q40 0 40 -41v-952q0 -202 110 -301t296 -99q187 0 297.5 99t110.5 301v952q0 41 41 41h92q41 0 41 -41v-991q0 -227 -164.5 -375.5t-417.5 -148.5z" />
    <glyph glyph-name="uring" unicode="&#x16f;" horiz-adv-x="1143" 
d="M571 1196q-89 0 -153 64t-64 151q0 89 64 152t153 63q88 0 150.5 -63t62.5 -152q0 -87 -63 -151t-150 -64zM571 1286q51 0 87 36t36 89q0 51 -36.5 89t-86.5 38q-52 0 -87.5 -37.5t-35.5 -89.5q0 -53 35.5 -89t87.5 -36zM571 -20q-190 0 -305.5 101t-115.5 279v658
q0 41 40 41h74q41 0 41 -41v-653q0 -114 73.5 -172t192.5 -58q121 0 194 58t73 172v653q0 41 41 41h73q41 0 41 -41v-658q0 -178 -115.5 -279t-306.5 -101z" />
    <glyph glyph-name="Uhungarumlaut" unicode="&#x170;" horiz-adv-x="1538" 
d="M594 1696q-27 0 -34 13.5t9 35.5l197 241q25 33 57 7l35 -27q33 -27 4 -57l-182 -191q-19 -22 -51 -22h-35zM942 1696q-27 0 -34 13.5t9 35.5l197 241q25 33 57 7l35 -27q33 -27 4 -57l-182 -191q-19 -22 -51 -22h-35zM768 -20q-252 0 -416 148.5t-164 375.5v991
q0 41 41 41h93q40 0 40 -41v-952q0 -202 110 -301t296 -99q187 0 297.5 99t110.5 301v952q0 41 41 41h92q41 0 41 -41v-991q0 -227 -164.5 -375.5t-417.5 -148.5z" />
    <glyph glyph-name="uhungarumlaut" unicode="&#x171;" horiz-adv-x="1143" 
d="M397 1219q-27 0 -34 13.5t9 35.5l197 241q25 33 57 7l35 -27q33 -27 4 -57l-182 -191q-19 -22 -51 -22h-35zM745 1219q-27 0 -34 13.5t9 35.5l197 241q25 33 57 7l35 -27q33 -27 4 -57l-182 -191q-19 -22 -51 -22h-35zM571 -20q-190 0 -305.5 101t-115.5 279v658
q0 41 40 41h74q41 0 41 -41v-653q0 -114 73.5 -172t192.5 -58q121 0 194 58t73 172v653q0 41 41 41h73q41 0 41 -41v-658q0 -178 -115.5 -279t-306.5 -101z" />
    <glyph glyph-name="Uogonek" unicode="&#x172;" horiz-adv-x="1538" 
d="M1309 1536q41 0 41 -41v-991q0 -192 -120 -330.5t-317 -179.5q-99 -48 -162 -117t-63 -146q0 -55 33 -82.5t86 -27.5q43 0 98 20q22 10 34.5 2.5t12.5 -30.5v-72q0 -35 -32 -47q-59 -15 -121 -12q-105 5 -167.5 60t-62.5 151q0 167 193 287q-123 1 -230 41t-182.5 109
t-118.5 166t-43 208v991q0 41 41 41h93q40 0 40 -41v-952q0 -202 110 -301t296 -99q187 0 297.5 99t110.5 301v952q0 41 41 41h92z" />
    <glyph glyph-name="uogonek" unicode="&#x173;" horiz-adv-x="1143" 
d="M952 1059q41 0 41 -41v-658q0 -158 -91.5 -256t-248.5 -119q-102 -48 -166.5 -118t-64.5 -148q0 -55 33 -82.5t86 -27.5q43 0 98 20q22 10 34.5 2.5t12.5 -30.5v-72q0 -35 -32 -47q-59 -15 -121 -12q-105 5 -167.5 60t-62.5 151q0 178 217 301q-169 14 -269.5 113.5
t-100.5 264.5v658q0 41 40 41h74q41 0 41 -41v-653q0 -114 73.5 -172t192.5 -58q121 0 194 58t73 172v653q0 41 41 41h73z" />
    <glyph glyph-name="Wcircumflex" unicode="&#x174;" horiz-adv-x="2193" 
d="M940 1741q-16 -25 -49 -25h-31q-25 0 -32.5 15t6.5 34l149 221q17 27 49 27h111q32 0 49 -27l150 -221q14 -21 7 -35t-32 -14h-33q-33 0 -49 25l-117 163q-12 18 -28.5 18t-28.5 -18zM588 0q-36 0 -45 35l-461 1454q-6 22 3.5 34.5t31.5 12.5h94q36 0 45 -35l342 -1089
q6 -19 16 -26t20.5 0t16.5 26l350 1091q10 33 46 33h100q36 0 45 -33l350 -1091q6 -19 16 -26t20.5 0t16.5 26l342 1089q11 35 45 35h95q21 0 31 -13t3 -34l-460 -1454q-9 -35 -45 -35h-62q-36 0 -45 33l-375 1159q-6 19 -16 26t-20.5 0t-16.5 -26l-377 -1159
q-11 -33 -45 -33h-61z" />
    <glyph glyph-name="wcircumflex" unicode="&#x175;" horiz-adv-x="1749" 
d="M724 1264q-16 -25 -49 -25h-31q-25 0 -32.5 14.5t6.5 34.5l149 221q17 27 49 27h111q32 0 49 -27l150 -221q14 -21 7 -35t-32 -14h-33q-33 0 -49 25l-117 163q-12 18 -28.5 18t-28.5 -18zM471 0q-34 0 -47 33l-373 979q-8 21 1 34t32 13h88q36 0 47 -33l254 -696
q6 -18 16 -24.5t20 0t17 22.5l295 700q11 31 47 31h13q36 0 47 -31l295 -700q7 -16 17 -22.5t20 0t16 24.5l254 696q11 33 47 33h88q23 0 32 -13t1 -34l-373 -979q-13 -33 -47 -33h-31q-38 0 -49 31l-297 696q-11 26 -27 26t-26 -26l-297 -696q-11 -31 -49 -31h-31z" />
    <glyph glyph-name="Ycircumflex" unicode="&#x176;" horiz-adv-x="1343" 
d="M524 1741q-16 -25 -49 -25h-31q-25 0 -32.5 15t6.5 34l149 221q17 27 49 27h111q32 0 49 -27l150 -221q14 -21 7 -35t-32 -14h-33q-33 0 -49 25l-117 163q-12 18 -28.5 18t-28.5 -18zM627 0q-41 0 -41 41v655q0 29 -15 52l-489 739q-14 19 -6 34t33 15h124q33 0 50 -27
l362 -575q13 -20 29 -20t28 20l363 575q15 27 49 27h121q25 0 33 -15t-6 -34l-488 -737q-14 -24 -14 -52v-657q0 -41 -41 -41h-92z" />
    <glyph glyph-name="ycircumflex" unicode="&#x177;" horiz-adv-x="1067" 
d="M385 1264q-16 -25 -49 -25h-31q-25 0 -32.5 14.5t6.5 34.5l149 221q17 27 49 27h111q32 0 49 -27l150 -221q14 -21 7 -35t-32 -14h-33q-33 0 -49 25l-117 163q-12 18 -28.5 18t-28.5 -18zM293 -498q-23 0 -32 13t-1 34l178 453q11 25 0 53l-389 957q-9 21 0.5 34t32.5 13
h92q34 0 47 -33l293 -745q11 -27 27.5 -26t25.5 28l277 743q13 33 47 33h94q23 0 32 -13t1 -34l-594 -1477q-13 -33 -47 -33h-84z" />
    <glyph glyph-name="Ydieresis" unicode="&#x178;" horiz-adv-x="1343" 
d="M486 1806q-46 0 -80.5 33.5t-34.5 79.5q0 48 34 81t81 33t81 -33t34 -81q0 -46 -34.5 -79.5t-80.5 -33.5zM863 1806q-47 0 -81 33.5t-34 79.5q0 48 34 81t81 33q48 0 81 -33t33 -81q0 -47 -33.5 -80t-80.5 -33zM627 0q-41 0 -41 41v655q0 29 -15 52l-489 739
q-14 19 -6 34t33 15h124q33 0 50 -27l362 -575q13 -20 29 -20t28 20l363 575q15 27 49 27h121q25 0 33 -15t-6 -34l-488 -737q-14 -24 -14 -52v-657q0 -41 -41 -41h-92z" />
    <glyph glyph-name="Zacute" unicode="&#x179;" horiz-adv-x="1257" 
d="M663 1696h-35q-26 0 -33.5 13.5t9.5 35.5l194 241q26 33 60 7l33 -27q31 -27 4 -57l-181 -191q-22 -22 -51 -22zM141 0q-41 0 -41 41v78q0 26 17 51l784 1153q14 22 7 35.5t-31 13.5h-736q-41 0 -41 41v82q0 41 41 41h975q41 0 41 -41v-82q0 -25 -16 -51l-783 -1149
q-14 -20 -6 -34.5t33 -14.5h731q41 0 41 -41v-82q0 -41 -41 -41h-975z" />
    <glyph glyph-name="zacute" unicode="&#x17a;" horiz-adv-x="1020" 
d="M536 1219h-35q-26 0 -33.5 13.5t9.5 35.5l194 241q26 33 60 7l33 -27q31 -27 4 -57l-181 -191q-22 -22 -51 -22zM106 0q-24 0 -31 15t7 34l553 813q14 20 6 34.5t-33 14.5h-481q-41 0 -41 41v66q0 41 41 41h774q24 0 31.5 -14.5t-6.5 -34.5l-553 -813q-14 -20 -6 -35
t32 -15h521q41 0 41 -41v-65q0 -41 -41 -41h-814z" />
    <glyph glyph-name="Zdotaccent" unicode="&#x17b;" horiz-adv-x="1257" 
d="M653 1806q-46 0 -80.5 33.5t-34.5 79.5q0 48 34 81t81 33t81 -33t34 -81q0 -46 -34.5 -79.5t-80.5 -33.5zM141 0q-41 0 -41 41v78q0 26 17 51l784 1153q14 22 7 35.5t-31 13.5h-736q-41 0 -41 41v82q0 41 41 41h975q41 0 41 -41v-82q0 -25 -16 -51l-783 -1149
q-14 -20 -6 -34.5t33 -14.5h731q41 0 41 -41v-82q0 -41 -41 -41h-975z" />
    <glyph glyph-name="zdotaccent" unicode="&#x17c;" horiz-adv-x="1020" 
d="M526 1329q-46 0 -80.5 33.5t-34.5 79.5q0 48 34 81t81 33t81 -33t34 -81q0 -46 -34.5 -79.5t-80.5 -33.5zM106 0q-24 0 -31 15t7 34l553 813q14 20 6 34.5t-33 14.5h-481q-41 0 -41 41v66q0 41 41 41h774q24 0 31.5 -14.5t-6.5 -34.5l-553 -813q-14 -20 -6 -35t32 -15
h521q41 0 41 -41v-65q0 -41 -41 -41h-814z" />
    <glyph glyph-name="Zcaron" unicode="&#x17d;" horiz-adv-x="1257" 
d="M595 1716q-32 0 -49 27l-149 221q-14 20 -6.5 34.5t32.5 14.5h31q33 0 49 -25l121 -163q12 -18 28.5 -18t28.5 18l117 163q18 25 49 25h33q25 0 32 -13.5t-7 -35.5l-150 -221q-17 -27 -49 -27h-111zM141 0q-41 0 -41 41v78q0 26 17 51l784 1153q14 22 7 35.5t-31 13.5
h-736q-41 0 -41 41v82q0 41 41 41h975q41 0 41 -41v-82q0 -25 -16 -51l-783 -1149q-14 -20 -6 -34.5t33 -14.5h731q41 0 41 -41v-82q0 -41 -41 -41h-975z" />
    <glyph glyph-name="zcaron" unicode="&#x17e;" horiz-adv-x="1020" 
d="M468 1239q-32 0 -49 27l-149 221q-14 19 -6.5 34t32.5 15h31q33 0 49 -25l121 -163q12 -18 28.5 -18t28.5 18l117 163q18 25 49 25h33q25 0 32 -13.5t-7 -35.5l-150 -221q-17 -27 -49 -27h-111zM106 0q-24 0 -31 15t7 34l553 813q14 20 6 34.5t-33 14.5h-481
q-41 0 -41 41v66q0 41 41 41h774q24 0 31.5 -14.5t-6.5 -34.5l-553 -813q-14 -20 -6 -35t32 -15h521q41 0 41 -41v-65q0 -41 -41 -41h-814z" />
    <glyph glyph-name="florin" unicode="&#x192;" horiz-adv-x="1077" 
d="M209 -512q-21 0 -31.5 11.5t-7.5 31.5l205 1290q3 20 -8 31.5t-31 11.5h-82q-20 0 -31 12t-8 31l12 80q5 37 45 37h95q40 0 45 37l28 182q22 132 129.5 222.5t239.5 90.5q59 0 111 -18q29 -13 26 -51l-8 -70q-5 -41 -47 -24q-35 10 -62 10q-78 0 -133 -51.5t-69 -134.5
l-25 -148q-3 -20 8 -32.5t31 -12.5h193q20 0 31 -11.5t7 -31.5l-10 -78q-6 -39 -45 -39h-209q-40 0 -45 -37l-207 -1302q-5 -37 -45 -37h-102z" />
    <glyph glyph-name="Ohorn" unicode="&#x1a0;" horiz-adv-x="1802" 
d="M1747 1504q41 0 41 -41v-84q0 -124 -53 -185t-132 -65q87 -171 87 -361q0 -161 -62.5 -307t-168 -251t-251.5 -167.5t-307 -62.5q-214 0 -395.5 105.5t-287 287t-105.5 395.5t105.5 395.5t287 287t395.5 105.5q202 0 374.5 -94t280.5 -255q47 4 69 45.5t22 87.5v123
q0 41 41 41h59zM901 154q168 0 309.5 81.5t223.5 223t82 309.5t-82 309.5t-223.5 223t-309.5 81.5q-167 0 -308.5 -81.5t-223.5 -223t-82 -309.5t82 -309.5t223.5 -223t308.5 -81.5z" />
    <glyph glyph-name="ohorn" unicode="&#x1a1;" horiz-adv-x="1274" 
d="M1241 1250q41 0 41 -41v-84q0 -128 -57 -189t-140 -61q-12 0 -18 1q123 -152 123 -346q0 -150 -73.5 -276.5t-201 -200t-278.5 -73.5t-278.5 73.5t-201 200t-73.5 276.5t73.5 276t201 199.5t278.5 73.5q184 0 330 -108q40 -18 75 -18q51 0 75 42t24 91v123q0 41 41 41h59
zM637 135q163 0 278 115.5t115 279.5q0 163 -115 278.5t-278 115.5q-164 0 -278.5 -115t-114.5 -279t114.5 -279.5t278.5 -115.5z" />
    <glyph glyph-name="Uhorn" unicode="&#x1af;" horiz-adv-x="1538" 
d="M1620 1645q41 0 41 -41v-84q0 -128 -57 -189t-140 -61q-52 0 -114 21v-787q0 -227 -164.5 -375.5t-417.5 -148.5q-252 0 -416 148.5t-164 375.5v991q0 41 41 41h93q40 0 40 -41v-952q0 -202 110 -301t296 -99q187 0 297.5 99t110.5 301v952q0 41 41 41h92q41 0 41 -41
v-130q39 -17 71 -17q51 0 75 42t24 91v123q0 41 41 41h59z" />
    <glyph glyph-name="uhorn" unicode="&#x1b0;" horiz-adv-x="1143" 
d="M1249 1168q41 0 41 -41v-84q0 -128 -57 -189t-140 -61q-44 0 -100 17v-450q0 -178 -115.5 -279t-306.5 -101q-190 0 -305.5 101t-115.5 279v658q0 41 40 41h74q41 0 41 -41v-653q0 -114 73.5 -172t192.5 -58q121 0 194 58t73 172v653q0 41 41 41h73q41 0 41 -41v-136
q32 -11 57 -11q51 0 75 42t24 91v123q0 41 41 41h59z" />
    <glyph glyph-name="uni01CD" unicode="&#x1cd;" horiz-adv-x="1544" 
d="M714 1716q-32 0 -49 27l-149 221q-14 20 -6.5 34.5t32.5 14.5h31q33 0 49 -25l121 -163q12 -18 28.5 -18t28.5 18l117 163q18 25 49 25h33q25 0 32 -13.5t-7 -35.5l-150 -221q-17 -27 -49 -27h-111zM111 0q-23 0 -31.5 12.5t0.5 34.5l600 1458q11 31 47 31h90
q36 0 47 -31l600 -1458q9 -22 1 -34.5t-31 -12.5h-93q-33 0 -47 33l-114 282q-14 33 -47 33h-719q-34 0 -47 -33l-117 -282q-13 -33 -47 -33h-92zM496 512h553q23 0 31.5 12.5t0.5 34.5l-282 701q-11 24 -27 24t-27 -24l-282 -701q-8 -22 1 -34.5t32 -12.5z" />
    <glyph glyph-name="uni01CE" unicode="&#x1ce;" horiz-adv-x="1364" 
d="M624 1239q-32 0 -49 27l-149 221q-14 19 -6.5 34t32.5 15h31q33 0 49 -25l121 -163q12 -18 28.5 -18t28.5 18l117 163q18 25 49 25h33q25 0 32 -13.5t-7 -35.5l-150 -221q-17 -27 -49 -27h-111zM616 -20q-106 0 -203.5 43.5t-170 117t-115.5 175.5t-43 214t43 214
t115.5 175t170 116.5t203.5 43.5q220 0 367 -141q20 -20 33.5 -14.5t13.5 32.5v62q0 41 41 41h78q41 0 41 -41v-977q0 -41 -41 -41h-78q-41 0 -41 41v61q0 28 -12 35t-29 -10q-147 -147 -373 -147zM637 135q164 0 278.5 115.5t114.5 279.5t-114.5 279t-278.5 115
q-163 0 -278 -115.5t-115 -278.5q0 -164 115 -279.5t278 -115.5z" />
    <glyph glyph-name="uni01CF" unicode="&#x1cf;" horiz-adv-x="612" 
d="M247 1716q-32 0 -49 27l-149 221q-14 20 -6.5 34.5t32.5 14.5h31q33 0 49 -25l121 -163q12 -18 28.5 -18t28.5 18l117 163q18 25 49 25h33q25 0 32 -13.5t-7 -35.5l-150 -221q-17 -27 -49 -27h-111zM260 0q-41 0 -41 41v1454q0 41 41 41h92q41 0 41 -41v-1454
q0 -41 -41 -41h-92z" />
    <glyph glyph-name="uni01D0" unicode="&#x1d0;" horiz-adv-x="508" 
d="M196 1239q-32 0 -49 27l-149 221q-14 19 -6.5 34t32.5 15h31q33 0 49 -25l121 -163q12 -18 28.5 -18t28.5 18l117 163q18 25 49 25h33q25 0 32 -13.5t-7 -35.5l-150 -221q-17 -27 -49 -27h-111zM215 0q-41 0 -41 41v977q0 41 41 41h78q41 0 41 -41v-977q0 -41 -41 -41
h-78z" />
    <glyph glyph-name="uni01D1" unicode="&#x1d1;" horiz-adv-x="1802" 
d="M843 1716q-32 0 -49 27l-149 221q-14 20 -6.5 34.5t32.5 14.5h31q33 0 49 -25l121 -163q12 -18 28.5 -18t28.5 18l117 163q18 25 49 25h33q25 0 32 -13.5t-7 -35.5l-150 -221q-17 -27 -49 -27h-111zM901 -20q-214 0 -395.5 105.5t-287 287t-105.5 395.5t105.5 395.5
t287 287t395.5 105.5q161 0 307 -62.5t251.5 -167.5t168 -251t62.5 -307t-62.5 -307t-168 -251t-251.5 -167.5t-307 -62.5zM901 154q168 0 309.5 81.5t223.5 223t82 309.5t-82 309.5t-223.5 223t-309.5 81.5q-167 0 -308.5 -81.5t-223.5 -223t-82 -309.5t82 -309.5
t223.5 -223t308.5 -81.5z" />
    <glyph glyph-name="uni01D2" unicode="&#x1d2;" horiz-adv-x="1274" 
d="M579 1239q-32 0 -49 27l-149 221q-14 19 -6.5 34t32.5 15h31q33 0 49 -25l121 -163q12 -18 28.5 -18t28.5 18l117 163q18 25 49 25h33q25 0 32 -13.5t-7 -35.5l-150 -221q-17 -27 -49 -27h-111zM637 -20q-151 0 -278.5 73.5t-201 200t-73.5 276.5t73.5 276t201 199.5
t278.5 73.5t278.5 -73.5t201 -199.5t73.5 -276t-73.5 -276.5t-201 -200t-278.5 -73.5zM637 135q163 0 278 115.5t115 279.5q0 163 -115 278.5t-278 115.5q-164 0 -278.5 -115t-114.5 -279t114.5 -279.5t278.5 -115.5z" />
    <glyph glyph-name="uni01D3" unicode="&#x1d3;" horiz-adv-x="1538" 
d="M710 1716q-32 0 -49 27l-149 221q-14 20 -6.5 34.5t32.5 14.5h31q33 0 49 -25l121 -163q12 -18 28.5 -18t28.5 18l117 163q18 25 49 25h33q25 0 32 -13.5t-7 -35.5l-150 -221q-17 -27 -49 -27h-111zM768 -20q-252 0 -416 148.5t-164 375.5v991q0 41 41 41h93q40 0 40 -41
v-952q0 -202 110 -301t296 -99q187 0 297.5 99t110.5 301v952q0 41 41 41h92q41 0 41 -41v-991q0 -227 -164.5 -375.5t-417.5 -148.5z" />
    <glyph glyph-name="uni01D4" unicode="&#x1d4;" horiz-adv-x="1143" 
d="M513 1239q-32 0 -49 27l-149 221q-14 19 -6.5 34t32.5 15h31q33 0 49 -25l121 -163q12 -18 28.5 -18t28.5 18l117 163q18 25 49 25h33q25 0 32 -13.5t-7 -35.5l-150 -221q-17 -27 -49 -27h-111zM571 -20q-190 0 -305.5 101t-115.5 279v658q0 41 40 41h74q41 0 41 -41
v-653q0 -114 73.5 -172t192.5 -58q121 0 194 58t73 172v653q0 41 41 41h73q41 0 41 -41v-658q0 -178 -115.5 -279t-306.5 -101z" />
    <glyph glyph-name="uni01D5" unicode="&#x1d5;" horiz-adv-x="1538" 
d="M492 2221q-41 0 -41 41v33q0 41 41 41h553q41 0 41 -41v-33q0 -41 -41 -41h-553zM580 1806q-46 0 -80.5 33.5t-34.5 79.5q0 48 34 81t81 33t81 -33t34 -81q0 -46 -34.5 -79.5t-80.5 -33.5zM957 1806q-47 0 -81 33.5t-34 79.5q0 48 34 81t81 33q48 0 81 -33t33 -81
q0 -47 -33.5 -80t-80.5 -33zM768 -20q-252 0 -416 148.5t-164 375.5v991q0 41 41 41h93q40 0 40 -41v-952q0 -202 110 -301t296 -99q187 0 297.5 99t110.5 301v952q0 41 41 41h92q41 0 41 -41v-991q0 -227 -164.5 -375.5t-417.5 -148.5z" />
    <glyph glyph-name="uni01D6" unicode="&#x1d6;" horiz-adv-x="1143" 
d="M295 1744q-41 0 -41 41v33q0 41 41 41h553q41 0 41 -41v-33q0 -41 -41 -41h-553zM383 1329q-46 0 -80.5 33.5t-34.5 79.5q0 48 34 81t81 33t81 -33t34 -81q0 -46 -34.5 -79.5t-80.5 -33.5zM760 1329q-47 0 -81 33.5t-34 79.5q0 48 34 81t81 33q48 0 81 -33t33 -81
q0 -47 -33.5 -80t-80.5 -33zM571 -20q-190 0 -305.5 101t-115.5 279v658q0 41 40 41h74q41 0 41 -41v-653q0 -114 73.5 -172t192.5 -58q121 0 194 58t73 172v653q0 41 41 41h73q41 0 41 -41v-658q0 -178 -115.5 -279t-306.5 -101z" />
    <glyph glyph-name="uni01D7" unicode="&#x1d7;" horiz-adv-x="1538" 
d="M778 2193h-35q-26 0 -33.5 13.5t9.5 35.5l194 241q26 33 60 7l33 -27q31 -27 4 -57l-181 -191q-22 -22 -51 -22zM580 1806q-46 0 -80.5 33.5t-34.5 79.5q0 48 34 81t81 33t81 -33t34 -81q0 -46 -34.5 -79.5t-80.5 -33.5zM957 1806q-47 0 -81 33.5t-34 79.5q0 48 34 81
t81 33q48 0 81 -33t33 -81q0 -47 -33.5 -80t-80.5 -33zM768 -20q-252 0 -416 148.5t-164 375.5v991q0 41 41 41h93q40 0 40 -41v-952q0 -202 110 -301t296 -99q187 0 297.5 99t110.5 301v952q0 41 41 41h92q41 0 41 -41v-991q0 -227 -164.5 -375.5t-417.5 -148.5z" />
    <glyph glyph-name="uni01D8" unicode="&#x1d8;" horiz-adv-x="1143" 
d="M581 1716h-35q-26 0 -33.5 13.5t9.5 35.5l194 241q26 33 60 7l33 -27q31 -27 4 -57l-181 -191q-22 -22 -51 -22zM383 1329q-46 0 -80.5 33.5t-34.5 79.5q0 48 34 81t81 33t81 -33t34 -81q0 -46 -34.5 -79.5t-80.5 -33.5zM760 1329q-47 0 -81 33.5t-34 79.5q0 48 34 81
t81 33q48 0 81 -33t33 -81q0 -47 -33.5 -80t-80.5 -33zM571 -20q-190 0 -305.5 101t-115.5 279v658q0 41 40 41h74q41 0 41 -41v-653q0 -114 73.5 -172t192.5 -58q121 0 194 58t73 172v653q0 41 41 41h73q41 0 41 -41v-658q0 -178 -115.5 -279t-306.5 -101z" />
    <glyph glyph-name="uni01D9" unicode="&#x1d9;" horiz-adv-x="1538" 
d="M710 2213q-32 0 -49 27l-149 221q-14 19 -6.5 34t32.5 15h31q33 0 49 -25l121 -163q12 -18 28.5 -18t28.5 18l117 163q18 25 49 25h33q25 0 32 -13.5t-7 -35.5l-150 -221q-17 -27 -49 -27h-111zM580 1806q-46 0 -80.5 33.5t-34.5 79.5q0 48 34 81t81 33t81 -33t34 -81
q0 -46 -34.5 -79.5t-80.5 -33.5zM957 1806q-47 0 -81 33.5t-34 79.5q0 48 34 81t81 33q48 0 81 -33t33 -81q0 -47 -33.5 -80t-80.5 -33zM768 -20q-252 0 -416 148.5t-164 375.5v991q0 41 41 41h93q40 0 40 -41v-952q0 -202 110 -301t296 -99q187 0 297.5 99t110.5 301v952
q0 41 41 41h92q41 0 41 -41v-991q0 -227 -164.5 -375.5t-417.5 -148.5z" />
    <glyph glyph-name="uni01DA" unicode="&#x1da;" horiz-adv-x="1143" 
d="M513 1736q-32 0 -49 27l-149 221q-14 20 -6.5 34.5t32.5 14.5h31q33 0 49 -25l121 -163q12 -18 28.5 -18t28.5 18l117 163q18 25 49 25h33q25 0 32 -13.5t-7 -35.5l-150 -221q-17 -27 -49 -27h-111zM383 1329q-46 0 -80.5 33.5t-34.5 79.5q0 48 34 81t81 33t81 -33
t34 -81q0 -46 -34.5 -79.5t-80.5 -33.5zM760 1329q-47 0 -81 33.5t-34 79.5q0 48 34 81t81 33q48 0 81 -33t33 -81q0 -47 -33.5 -80t-80.5 -33zM571 -20q-190 0 -305.5 101t-115.5 279v658q0 41 40 41h74q41 0 41 -41v-653q0 -114 73.5 -172t192.5 -58q121 0 194 58t73 172
v653q0 41 41 41h73q41 0 41 -41v-658q0 -178 -115.5 -279t-306.5 -101z" />
    <glyph glyph-name="uni01DB" unicode="&#x1db;" horiz-adv-x="1538" 
d="M733 2193q-29 0 -51 22l-181 191q-27 30 4 57l33 27q34 26 60 -7l194 -241q17 -22 9.5 -35.5t-33.5 -13.5h-35zM580 1806q-46 0 -80.5 33.5t-34.5 79.5q0 48 34 81t81 33t81 -33t34 -81q0 -46 -34.5 -79.5t-80.5 -33.5zM957 1806q-47 0 -81 33.5t-34 79.5q0 48 34 81
t81 33q48 0 81 -33t33 -81q0 -47 -33.5 -80t-80.5 -33zM768 -20q-252 0 -416 148.5t-164 375.5v991q0 41 41 41h93q40 0 40 -41v-952q0 -202 110 -301t296 -99q187 0 297.5 99t110.5 301v952q0 41 41 41h92q41 0 41 -41v-991q0 -227 -164.5 -375.5t-417.5 -148.5z" />
    <glyph glyph-name="uni01DC" unicode="&#x1dc;" horiz-adv-x="1143" 
d="M536 1716q-29 0 -51 22l-181 191q-27 30 4 57l33 27q34 26 60 -7l194 -241q17 -22 9.5 -35.5t-33.5 -13.5h-35zM383 1329q-46 0 -80.5 33.5t-34.5 79.5q0 48 34 81t81 33t81 -33t34 -81q0 -46 -34.5 -79.5t-80.5 -33.5zM760 1329q-47 0 -81 33.5t-34 79.5q0 48 34 81
t81 33q48 0 81 -33t33 -81q0 -47 -33.5 -80t-80.5 -33zM571 -20q-190 0 -305.5 101t-115.5 279v658q0 41 40 41h74q41 0 41 -41v-653q0 -114 73.5 -172t192.5 -58q121 0 194 58t73 172v653q0 41 41 41h73q41 0 41 -41v-658q0 -178 -115.5 -279t-306.5 -101z" />
    <glyph glyph-name="uni0218" unicode="&#x218;" horiz-adv-x="1171" 
d="M600 -20q-145 0 -275 59t-219 154q-24 28 5 57l65 65q30 30 57 -4q149 -174 355 -174q136 0 224.5 72t88.5 190q0 37 -10.5 69.5t-25 57.5t-42.5 49.5t-51.5 41t-64 37t-67 32t-73.5 31.5q-57 24 -90 38.5t-82.5 40.5t-78.5 48t-63.5 55.5t-53 69t-31 83t-12.5 101.5
q0 182 121 292.5t305 110.5q246 0 417 -180q30 -28 0 -57l-51 -53q-27 -32 -59 2q-77 73 -147.5 102t-155.5 29q-112 0 -188 -62t-76 -172q0 -49 20 -91t44 -68.5t77.5 -57t85.5 -44.5t103 -43q8 -3 12 -5q52 -21 84.5 -35.5t79.5 -40t77 -48.5t64 -58t53 -72.5t32 -87.5
t13 -108q0 -102 -37 -184t-101.5 -134t-148.5 -80t-180 -28zM380 -567l-18 8q-39 15 -23 53l133 311q13 31 50 31h75q25 0 33 -14.5t-4 -34.5l-192 -336q-20 -30 -54 -18z" />
    <glyph glyph-name="uni0219" unicode="&#x219;" horiz-adv-x="936" 
d="M467 -20q-200 0 -369 116q-32 25 -10 58l45 67q22 35 57 8q132 -98 283 -98q98 0 156.5 43t58.5 121q0 23 -7 43t-17 34.5t-30 28.5t-35.5 22.5t-45.5 19.5t-48 16.5t-54 15.5q-49 15 -69.5 21t-64.5 23t-65 30t-52 37t-45.5 49.5t-26 61.5t-11.5 79q0 96 52.5 166
t135.5 103.5t184 33.5q164 0 302 -84q35 -22 10 -55l-47 -61q-23 -32 -58 -11q-103 66 -221 66q-90 0 -145.5 -38t-55.5 -105q0 -48 40.5 -83.5t78 -49.5t125.5 -39q15 -5 23 -7q54 -16 90.5 -29t82 -38.5t73 -55.5t46.5 -77.5t19 -106.5q0 -153 -105.5 -239t-279.5 -86z
M288 -567l-18 8q-39 15 -23 53l133 311q13 31 50 31h75q25 0 33 -14.5t-4 -34.5l-192 -336q-20 -30 -54 -18z" />
    <glyph glyph-name="uni021A" unicode="&#x21a;" horiz-adv-x="1145" 
d="M526 0q-41 0 -41 41v1290q0 41 -41 41h-340q-41 0 -41 41v82q0 41 41 41h936q41 0 41 -41v-82q0 -41 -41 -41h-340q-41 0 -41 -41v-1290q0 -41 -41 -41h-92zM380 -567l-18 8q-39 15 -23 53l133 311q13 31 50 31h75q25 0 33 -14.5t-4 -34.5l-192 -336q-20 -30 -54 -18z
" />
    <glyph glyph-name="uni021B" unicode="&#x21b;" horiz-adv-x="727" 
d="M514 0q-136 0 -218.5 75.5t-82.5 215.5v583q0 41 -41 41h-96q-41 0 -41 41v62q0 41 41 41h96q41 0 41 41v211q0 41 41 41h78q41 0 41 -41v-211q0 -41 41 -41h198q41 0 41 -41v-62q0 -41 -41 -41h-198q-41 0 -41 -41v-565q0 -80 43.5 -125t115.5 -45h80q41 0 41 -41v-57
q0 -41 -41 -41h-98zM341 -567l-18 8q-39 15 -23 53l133 311q13 31 50 31h75q25 0 33 -14.5t-4 -34.5l-192 -336q-19 -30 -54 -18z" />
    <glyph glyph-name="uni0237" unicode="&#x237;" horiz-adv-x="508" 
d="M-143 -496q-43 -3 -43 39v74q0 40 41 43q157 10 238 104t81 240v1014q0 41 41 41h78q41 0 41 -41v-1014q0 -135 -53.5 -244t-163 -178.5t-260.5 -77.5z" />
    <glyph glyph-name="circumflex" unicode="&#x2c6;" horiz-adv-x="735" 
d="M219 1264q-16 -25 -49 -25h-31q-25 0 -32.5 14.5t6.5 34.5l149 221q17 27 49 27h111q32 0 49 -27l150 -221q14 -21 7 -35t-32 -14h-33q-33 0 -49 25l-117 163q-12 18 -28.5 18t-28.5 -18z" />
    <glyph glyph-name="caron" unicode="&#x2c7;" horiz-adv-x="735" 
d="M311 1239q-32 0 -49 27l-149 221q-14 19 -6.5 34t32.5 15h31q33 0 49 -25l121 -163q12 -18 28.5 -18t28.5 18l117 163q18 25 49 25h33q25 0 32 -13.5t-7 -35.5l-150 -221q-17 -27 -49 -27h-111z" />
    <glyph glyph-name="breve" unicode="&#x2d8;" horiz-adv-x="897" 
d="M446 1221q-136 0 -228 73.5t-107 198.5q-3 43 41 43h22q38 0 41 -39q13 -86 77 -138t154 -52q92 0 156.5 52t77.5 138q3 39 41 39h22q44 0 41 -41q-13 -126 -106 -200t-232 -74z" />
    <glyph glyph-name="dotaccent" unicode="&#x2d9;" horiz-adv-x="510" 
d="M254 1329q-46 0 -80.5 33.5t-34.5 79.5q0 48 34 81t81 33t81 -33t34 -81q0 -46 -34.5 -79.5t-80.5 -33.5z" />
    <glyph glyph-name="ring" unicode="&#x2da;" horiz-adv-x="670" 
d="M336 1161q-89 0 -153 64t-64 151q0 89 64 152t153 63q88 0 150.5 -63t62.5 -152q0 -87 -63 -151t-150 -64zM336 1251q51 0 87 36t36 89q0 51 -36.5 89t-86.5 38q-52 0 -87.5 -37.5t-35.5 -89.5q0 -53 35.5 -89t87.5 -36z" />
    <glyph glyph-name="ogonek" unicode="&#x2db;" horiz-adv-x="600" 
d="M328 -530q-105 5 -167.5 60t-62.5 151q0 111 85.5 200.5t238.5 151.5l59 -33q-114 -48 -189 -122.5t-75 -158.5q0 -55 33 -82.5t86 -27.5q43 0 98 20q22 10 34.5 2.5t12.5 -30.5v-72q0 -35 -32 -47q-59 -15 -121 -12z" />
    <glyph glyph-name="tilde" unicode="&#x2dc;" horiz-adv-x="952" 
d="M621 1276q-114 0 -183 108q-40 66 -102 66q-45 0 -73.5 -33t-37.5 -88q-3 -41 -41 -41h-10q-44 0 -41 43q11 94 64.5 151.5t136.5 57.5q110 0 180 -108q42 -66 107 -66q45 0 74 31.5t36 89.5q3 41 41 41h8q20 0 31 -12.5t10 -34.5q-12 -92 -64.5 -148.5t-135.5 -56.5z
" />
    <glyph glyph-name="hungarumlaut" unicode="&#x2dd;" horiz-adv-x="899" 
d="M123 1219q-27 0 -34 13.5t9 35.5l197 241q25 33 57 7l35 -27q33 -27 4 -57l-182 -191q-19 -22 -51 -22h-35zM471 1219q-27 0 -34 13.5t9 35.5l197 241q25 33 57 7l35 -27q33 -27 4 -57l-182 -191q-19 -22 -51 -22h-35z" />
    <glyph glyph-name="gravecomb" unicode="&#x300;" 
d="M-160 1219q-29 0 -51 22l-181 191q-27 30 4 57l33 27q34 26 60 -7l194 -241q17 -22 9.5 -35.5t-33.5 -13.5h-35z" />
    <glyph glyph-name="acutecomb" unicode="&#x301;" 
d="M-332 1219h-35q-26 0 -33.5 13.5t9.5 35.5l194 241q26 33 60 7l33 -27q31 -27 4 -57l-181 -191q-22 -22 -51 -22z" />
    <glyph glyph-name="uni0302" unicode="&#x302;" 
d="M-516 1264q-16 -25 -49 -25h-31q-25 0 -32.5 14.5t6.5 34.5l149 221q17 27 49 27h111q32 0 49 -27l150 -221q14 -21 7 -35t-32 -14h-33q-33 0 -49 25l-117 163q-12 18 -28.5 18t-28.5 -18z" />
    <glyph glyph-name="tildecomb" unicode="&#x303;" 
d="M-331 1276q-114 0 -183 108q-40 66 -102 66q-45 0 -73.5 -33t-37.5 -88q-3 -41 -41 -41h-10q-44 0 -41 43q11 94 64.5 151.5t136.5 57.5q110 0 180 -108q42 -66 107 -66q45 0 74 31.5t36 89.5q3 41 41 41h8q20 0 31 -12.5t10 -34.5q-12 -92 -64.5 -148.5t-135.5 -56.5z
" />
    <glyph glyph-name="uni0304" unicode="&#x304;" 
d="M-764 1247q-41 0 -41 41v33q0 41 41 41h553q41 0 41 -41v-33q0 -41 -41 -41h-553z" />
    <glyph glyph-name="uni0306" unicode="&#x306;" 
d="M-451 1221q-136 0 -228 73.5t-107 198.5q-3 43 41 43h22q38 0 41 -39q13 -86 77 -138t154 -52q92 0 156.5 52t77.5 138q3 39 41 39h22q44 0 41 -41q-13 -126 -106 -200t-232 -74z" />
    <glyph glyph-name="uni0307" unicode="&#x307;" 
d="M-256 1329q-46 0 -80.5 33.5t-34.5 79.5q0 48 34 81t81 33t81 -33t34 -81q0 -46 -34.5 -79.5t-80.5 -33.5z" />
    <glyph glyph-name="uni0308" unicode="&#x308;" 
d="M-633 1329q-46 0 -80.5 33.5t-34.5 79.5q0 48 34 81t81 33t81 -33t34 -81q0 -46 -34.5 -79.5t-80.5 -33.5zM-256 1329q-47 0 -81 33.5t-34 79.5q0 48 34 81t81 33q48 0 81 -33t33 -81q0 -47 -33.5 -80t-80.5 -33z" />
    <glyph glyph-name="hookabovecomb" unicode="&#x309;" 
d="M-319 1137q-41 0 -41 41v51q0 35 35 47q88 29 88 100q0 34 -24 57t-62 23q-33 0 -57 -12q-38 -15 -58 12l-10 14q-23 37 12 56q50 30 109 30q81 0 136.5 -51t55.5 -129q0 -48 -25.5 -88.5t-74.5 -62.5q-33 -16 -33 -47q0 -41 -41 -41h-10z" />
    <glyph glyph-name="uni030A" unicode="&#x30a;" 
d="M-334 1161q-89 0 -153 64t-64 151q0 89 64 152t153 63q88 0 150.5 -63t62.5 -152q0 -87 -63 -151t-150 -64zM-334 1251q51 0 87 36t36 89q0 51 -36.5 89t-86.5 38q-52 0 -87.5 -37.5t-35.5 -89.5q0 -53 35.5 -89t87.5 -36z" />
    <glyph glyph-name="uni030B" unicode="&#x30b;" 
d="M-721 1219q-27 0 -34 13.5t9 35.5l197 241q25 33 57 7l35 -27q33 -27 4 -57l-182 -191q-19 -22 -51 -22h-35zM-373 1219q-27 0 -34 13.5t9 35.5l197 241q25 33 57 7l35 -27q33 -27 4 -57l-182 -191q-19 -22 -51 -22h-35z" />
    <glyph glyph-name="uni030C" unicode="&#x30c;" 
d="M-424 1239q-32 0 -49 27l-149 221q-14 19 -6.5 34t32.5 15h31q33 0 49 -25l121 -163q12 -18 28.5 -18t28.5 18l117 163q18 25 49 25h33q25 0 32 -13.5t-7 -35.5l-150 -221q-17 -27 -49 -27h-111z" />
    <glyph glyph-name="uni0312" unicode="&#x312;" 
d="M-170 1538q20 0 31 -6t8 -16l-88 -266q-6 -18 -45 -18h-106q-22 0 -31.5 6t-3.5 16l145 267q9 17 47 17h43z" />
    <glyph glyph-name="uni031B" unicode="&#x31b;" 
d="M-342 772q-104 0 -213 68l74 39q52 -29 96 -29q51 0 75 42t24 91v123q0 41 41 41h59q41 0 41 -41v-84q0 -128 -57 -189t-140 -61z" />
    <glyph glyph-name="dotbelowcomb" unicode="&#x323;" 
d="M-254 -512q-46 0 -80.5 34t-34.5 81q0 46 34.5 80t80.5 34t80.5 -34t34.5 -80q0 -47 -34.5 -81t-80.5 -34z" />
    <glyph glyph-name="uni0326" unicode="&#x326;" 
d="M-346 -567l-18 8q-39 15 -23 53l133 311q13 31 50 31h75q25 0 33 -14.5t-4 -34.5l-192 -336q-20 -30 -54 -18z" />
    <glyph glyph-name="uni0327" unicode="&#x327;" 
d="M-308 -532q-57 0 -115 27t-96 71q-14 15 -9 30t26 23l16 6q28 12 58 -10q52 -47 120 -47q47 0 79 32.5t32 80.5q0 49 -31.5 77.5t-83.5 28.5q-27 0 -55 -8q-32 -10 -55 6l-21 14q-30 23 -16 56l76 149h100l-41 -86q-18 -37 -5 -47q3 -3 7 -2q8 2 27 2q86 0 142 -53
t56 -137q0 -89 -61 -151t-150 -62z" />
    <glyph glyph-name="uni0328" unicode="&#x328;" 
d="M-272 -530q-105 5 -167.5 60t-62.5 151q0 111 85.5 200.5t238.5 151.5l59 -33q-114 -48 -189 -122.5t-75 -158.5q0 -55 33 -82.5t86 -27.5q43 0 98 20q22 10 34.5 2.5t12.5 -30.5v-72q0 -35 -32 -47q-59 -15 -121 -12z" />
    <glyph glyph-name="uni0335" unicode="&#x335;" 
d="M-731 465q-41 0 -41 41v37q0 41 41 41h520q41 0 41 -41v-37q0 -41 -41 -41h-520z" />
    <glyph glyph-name="uni0336" unicode="&#x336;" 
d="M-1593 473q-41 0 -41 41v37q0 41 41 41h1382q41 0 41 -41v-37q0 -41 -41 -41h-1382z" />
    <glyph glyph-name="uni0337" unicode="&#x337;" 
d="M-596 264q-20 -15 -34.5 -7.5t-14.5 32.5v61q0 30 24 49l506 377q20 15 34.5 7.5t14.5 -31.5v-62q0 -30 -24 -49z" />
    <glyph glyph-name="uni0338" unicode="&#x338;" 
d="M-836 199l-39 24q-33 23 -12 58l737 1054q25 35 58 13l39 -25q16 -10 18.5 -26t-8.5 -31l-735 -1055q-23 -32 -58 -12z" />
    <glyph glyph-name="uni0394" unicode="&#x394;" horiz-adv-x="1546" 
d="M111 0q-23 0 -32 12.5t-1 34.5l586 1456q13 33 47 33h125q33 0 47 -33l585 -1456q8 -22 -0.5 -34.5t-31.5 -12.5h-1325zM360 154h826q23 0 32 12.5t1 34.5l-418 1067q-7 17 -17 23t-19.5 0t-16.5 -23l-420 -1067q-8 -22 0.5 -34.5t31.5 -12.5z" />
    <glyph glyph-name="uni03A9" unicode="&#x3a9;" horiz-adv-x="1817" 
d="M164 0q-41 0 -41 41v61q0 41 41 41h221q28 0 33 15t-15 35q-107 107 -176 269.5t-69 344.5q0 153 56.5 288.5t155.5 232.5t240 153.5t303 56.5q167 0 309.5 -60.5t236.5 -161t147 -232t53 -273.5q0 -180 -71 -346.5t-177 -274.5q-20 -18 -14.5 -32.5t33.5 -14.5h223
q41 0 41 -41v-61q0 -41 -41 -41h-525q-41 0 -41 41v33q0 32 29 49q150 88 251 260.5t101 396.5q0 115 -37 223.5t-105 196t-175 140.5t-236 53q-166 0 -296.5 -82.5t-200.5 -222.5t-70 -312q0 -217 103 -392.5t249 -260.5q29 -17 29 -49v-33q0 -41 -41 -41h-524z" />
    <glyph glyph-name="uni03BC" unicode="&#x3bc;" horiz-adv-x="1184" 
d="M209 -481q-41 0 -41 41v1362q0 41 41 41h86q41 0 41 -41v-541q0 -104 74 -178t180 -74q107 0 183.5 74t76.5 178v541q0 41 41 41h84q41 0 41 -41v-881q0 -41 -41 -41h-84q-41 0 -41 41v27q0 26 -14 31.5t-33 -13.5q-107 -104 -260 -104q-110 0 -201 57q-20 14 -33.5 7
t-13.5 -32v-454q0 -41 -41 -41h-45z" />
    <glyph glyph-name="pi" unicode="&#x3c0;" horiz-adv-x="1268" 
d="M211 0q-22 0 -31 12.5t-2 34.5q48 139 85.5 340.5t49.5 382.5q3 43 -43 43q-99 -3 -157 -25q-44 -18 -52 27l-10 59q-6 37 25 50q93 39 276 39h834q42 0 39 -43l-6 -68q-3 -39 -43 -39h-99q-41 0 -41 -41v-485q0 -162 19 -242q6 -45 -37 -45h-74q-39 0 -47 31
q-18 74 -18 239v502q0 41 -41 41l-326 2q-38 0 -41 -39q-13 -185 -53 -403.5t-90 -341.5q-13 -31 -47 -31h-70z" />
    <glyph glyph-name="Wgrave" unicode="&#x1e80;" horiz-adv-x="2193" 
d="M1055 1696q-29 0 -51 22l-181 191q-27 30 4 57l33 27q34 26 60 -7l194 -241q17 -22 9.5 -35.5t-33.5 -13.5h-35zM588 0q-36 0 -45 35l-461 1454q-6 22 3.5 34.5t31.5 12.5h94q36 0 45 -35l342 -1089q6 -19 16 -26t20.5 0t16.5 26l350 1091q10 33 46 33h100q36 0 45 -33
l350 -1091q6 -19 16 -26t20.5 0t16.5 26l342 1089q11 35 45 35h95q21 0 31 -13t3 -34l-460 -1454q-9 -35 -45 -35h-62q-36 0 -45 33l-375 1159q-6 19 -16 26t-20.5 0t-16.5 -26l-377 -1159q-11 -33 -45 -33h-61z" />
    <glyph glyph-name="wgrave" unicode="&#x1e81;" horiz-adv-x="1749" 
d="M839 1219q-29 0 -51 22l-181 191q-27 30 4 57l33 27q34 26 60 -7l194 -241q17 -22 9.5 -35.5t-33.5 -13.5h-35zM471 0q-34 0 -47 33l-373 979q-8 21 1 34t32 13h88q36 0 47 -33l254 -696q6 -18 16 -24.5t20 0t17 22.5l295 700q11 31 47 31h13q36 0 47 -31l295 -700
q7 -16 17 -22.5t20 0t16 24.5l254 696q11 33 47 33h88q23 0 32 -13t1 -34l-373 -979q-13 -33 -47 -33h-31q-38 0 -49 31l-297 696q-11 26 -27 26t-26 -26l-297 -696q-11 -31 -49 -31h-31z" />
    <glyph glyph-name="Wacute" unicode="&#x1e82;" horiz-adv-x="2193" 
d="M1100 1696h-35q-26 0 -33.5 13.5t9.5 35.5l194 241q26 33 60 7l33 -27q31 -27 4 -57l-181 -191q-22 -22 -51 -22zM588 0q-36 0 -45 35l-461 1454q-6 22 3.5 34.5t31.5 12.5h94q36 0 45 -35l342 -1089q6 -19 16 -26t20.5 0t16.5 26l350 1091q10 33 46 33h100q36 0 45 -33
l350 -1091q6 -19 16 -26t20.5 0t16.5 26l342 1089q11 35 45 35h95q21 0 31 -13t3 -34l-460 -1454q-9 -35 -45 -35h-62q-36 0 -45 33l-375 1159q-6 19 -16 26t-20.5 0t-16.5 -26l-377 -1159q-11 -33 -45 -33h-61z" />
    <glyph glyph-name="wacute" unicode="&#x1e83;" horiz-adv-x="1749" 
d="M884 1219h-35q-26 0 -33.5 13.5t9.5 35.5l194 241q26 33 60 7l33 -27q31 -27 4 -57l-181 -191q-22 -22 -51 -22zM471 0q-34 0 -47 33l-373 979q-8 21 1 34t32 13h88q36 0 47 -33l254 -696q6 -18 16 -24.5t20 0t17 22.5l295 700q11 31 47 31h13q36 0 47 -31l295 -700
q7 -16 17 -22.5t20 0t16 24.5l254 696q11 33 47 33h88q23 0 32 -13t1 -34l-373 -979q-13 -33 -47 -33h-31q-38 0 -49 31l-297 696q-11 26 -27 26t-26 -26l-297 -696q-11 -31 -49 -31h-31z" />
    <glyph glyph-name="Wdieresis" unicode="&#x1e84;" horiz-adv-x="2193" 
d="M902 1806q-46 0 -80.5 33.5t-34.5 79.5q0 48 34 81t81 33t81 -33t34 -81q0 -46 -34.5 -79.5t-80.5 -33.5zM1279 1806q-47 0 -81 33.5t-34 79.5q0 48 34 81t81 33q48 0 81 -33t33 -81q0 -47 -33.5 -80t-80.5 -33zM588 0q-36 0 -45 35l-461 1454q-6 22 3.5 34.5t31.5 12.5
h94q36 0 45 -35l342 -1089q6 -19 16 -26t20.5 0t16.5 26l350 1091q10 33 46 33h100q36 0 45 -33l350 -1091q6 -19 16 -26t20.5 0t16.5 26l342 1089q11 35 45 35h95q21 0 31 -13t3 -34l-460 -1454q-9 -35 -45 -35h-62q-36 0 -45 33l-375 1159q-6 19 -16 26t-20.5 0t-16.5 -26
l-377 -1159q-11 -33 -45 -33h-61z" />
    <glyph glyph-name="wdieresis" unicode="&#x1e85;" horiz-adv-x="1749" 
d="M686 1329q-46 0 -80.5 33.5t-34.5 79.5q0 48 34 81t81 33t81 -33t34 -81q0 -46 -34.5 -79.5t-80.5 -33.5zM1063 1329q-47 0 -81 33.5t-34 79.5q0 48 34 81t81 33q48 0 81 -33t33 -81q0 -47 -33.5 -80t-80.5 -33zM471 0q-34 0 -47 33l-373 979q-8 21 1 34t32 13h88
q36 0 47 -33l254 -696q6 -18 16 -24.5t20 0t17 22.5l295 700q11 31 47 31h13q36 0 47 -31l295 -700q7 -16 17 -22.5t20 0t16 24.5l254 696q11 33 47 33h88q23 0 32 -13t1 -34l-373 -979q-13 -33 -47 -33h-31q-38 0 -49 31l-297 696q-11 26 -27 26t-26 -26l-297 -696
q-11 -31 -49 -31h-31z" />
    <glyph glyph-name="uni1EA0" unicode="&#x1ea0;" horiz-adv-x="1544" 
d="M111 0q-23 0 -31.5 12.5t0.5 34.5l600 1458q11 31 47 31h90q36 0 47 -31l600 -1458q9 -22 1 -34.5t-31 -12.5h-93q-33 0 -47 33l-114 282q-14 33 -47 33h-719q-34 0 -47 -33l-117 -282q-13 -33 -47 -33h-92zM496 512h553q23 0 31.5 12.5t0.5 34.5l-282 701q-11 24 -27 24
t-27 -24l-282 -701q-8 -22 1 -34.5t32 -12.5zM772 -512q-46 0 -80.5 34t-34.5 81q0 46 34.5 80t80.5 34t80.5 -34t34.5 -80q0 -47 -34.5 -81t-80.5 -34z" />
    <glyph glyph-name="uni1EA1" unicode="&#x1ea1;" horiz-adv-x="1364" 
d="M616 -20q-106 0 -203.5 43.5t-170 117t-115.5 175.5t-43 214t43 214t115.5 175t170 116.5t203.5 43.5q220 0 367 -141q20 -20 33.5 -14.5t13.5 32.5v62q0 41 41 41h78q41 0 41 -41v-977q0 -41 -41 -41h-78q-41 0 -41 41v61q0 28 -12 35t-29 -10q-147 -147 -373 -147z
M637 135q164 0 278.5 115.5t114.5 279.5t-114.5 279t-278.5 115q-163 0 -278 -115.5t-115 -278.5q0 -164 115 -279.5t278 -115.5zM682 -512q-46 0 -80.5 34t-34.5 81q0 46 34.5 80t80.5 34t80.5 -34t34.5 -80q0 -47 -34.5 -81t-80.5 -34z" />
    <glyph glyph-name="uni1EA2" unicode="&#x1ea2;" horiz-adv-x="1544" 
d="M768 1614q-41 0 -41 41v51q0 35 35 47q88 29 88 100q0 34 -24 57t-62 23q-33 0 -57 -12q-38 -15 -58 12l-10 14q-23 37 12 56q49 30 109 30q81 0 136.5 -51t55.5 -129q0 -48 -25.5 -88.5t-74.5 -62.5q-33 -16 -33 -47q0 -41 -41 -41h-10zM111 0q-23 0 -31.5 12.5
t0.5 34.5l600 1458q11 31 47 31h90q36 0 47 -31l600 -1458q9 -22 1 -34.5t-31 -12.5h-93q-33 0 -47 33l-114 282q-14 33 -47 33h-719q-34 0 -47 -33l-117 -282q-13 -33 -47 -33h-92zM496 512h553q23 0 31.5 12.5t0.5 34.5l-282 701q-11 24 -27 24t-27 -24l-282 -701
q-8 -22 1 -34.5t32 -12.5z" />
    <glyph glyph-name="uni1EA3" unicode="&#x1ea3;" horiz-adv-x="1364" 
d="M678 1137q-41 0 -41 41v51q0 35 35 47q88 29 88 100q0 34 -24 57t-62 23q-33 0 -57 -12q-38 -15 -58 12l-10 14q-23 37 12 56q49 30 109 30q81 0 136.5 -51t55.5 -129q0 -48 -25.5 -88.5t-74.5 -62.5q-33 -16 -33 -47q0 -41 -41 -41h-10zM616 -20q-106 0 -203.5 43.5
t-170 117t-115.5 175.5t-43 214t43 214t115.5 175t170 116.5t203.5 43.5q220 0 367 -141q20 -20 33.5 -14.5t13.5 32.5v62q0 41 41 41h78q41 0 41 -41v-977q0 -41 -41 -41h-78q-41 0 -41 41v61q0 28 -12 35t-29 -10q-147 -147 -373 -147zM637 135q164 0 278.5 115.5
t114.5 279.5t-114.5 279t-278.5 115q-163 0 -278 -115.5t-115 -278.5q0 -164 115 -279.5t278 -115.5z" />
    <glyph glyph-name="uni1EA4" unicode="&#x1ea4;" horiz-adv-x="1544" 
d="M780 2173h-35q-26 0 -33.5 13.5t9.5 35.5l194 241q26 33 60 7l33 -27q31 -27 4 -57l-181 -191q-22 -22 -51 -22zM622 1741q-16 -25 -49 -25h-31q-25 0 -32.5 15t6.5 34l149 221q17 27 49 27h111q32 0 49 -27l150 -221q14 -21 7 -35t-32 -14h-33q-33 0 -49 25l-117 163
q-12 18 -28.5 18t-28.5 -18zM111 0q-23 0 -31.5 12.5t0.5 34.5l600 1458q11 31 47 31h90q36 0 47 -31l600 -1458q9 -22 1 -34.5t-31 -12.5h-93q-33 0 -47 33l-114 282q-14 33 -47 33h-719q-34 0 -47 -33l-117 -282q-13 -33 -47 -33h-92zM496 512h553q23 0 31.5 12.5
t0.5 34.5l-282 701q-11 24 -27 24t-27 -24l-282 -701q-8 -22 1 -34.5t32 -12.5z" />
    <glyph glyph-name="uni1EA5" unicode="&#x1ea5;" horiz-adv-x="1364" 
d="M690 1696h-35q-26 0 -33.5 13.5t9.5 35.5l194 241q26 33 60 7l33 -27q31 -27 4 -57l-181 -191q-22 -22 -51 -22zM532 1264q-16 -25 -49 -25h-31q-25 0 -32.5 14.5t6.5 34.5l149 221q17 27 49 27h111q32 0 49 -27l150 -221q14 -21 7 -35t-32 -14h-33q-33 0 -49 25
l-117 163q-12 18 -28.5 18t-28.5 -18zM616 -20q-106 0 -203.5 43.5t-170 117t-115.5 175.5t-43 214t43 214t115.5 175t170 116.5t203.5 43.5q220 0 367 -141q20 -20 33.5 -14.5t13.5 32.5v62q0 41 41 41h78q41 0 41 -41v-977q0 -41 -41 -41h-78q-41 0 -41 41v61q0 28 -12 35
t-29 -10q-147 -147 -373 -147zM637 135q164 0 278.5 115.5t114.5 279.5t-114.5 279t-278.5 115q-163 0 -278 -115.5t-115 -278.5q0 -164 115 -279.5t278 -115.5z" />
    <glyph glyph-name="uni1EA6" unicode="&#x1ea6;" horiz-adv-x="1544" 
d="M735 2173q-29 0 -51 22l-181 191q-27 30 4 57l33 27q34 26 60 -7l194 -241q17 -22 9.5 -35.5t-33.5 -13.5h-35zM622 1741q-16 -25 -49 -25h-31q-25 0 -32.5 15t6.5 34l149 221q17 27 49 27h111q32 0 49 -27l150 -221q14 -21 7 -35t-32 -14h-33q-33 0 -49 25l-117 163
q-12 18 -28.5 18t-28.5 -18zM111 0q-23 0 -31.5 12.5t0.5 34.5l600 1458q11 31 47 31h90q36 0 47 -31l600 -1458q9 -22 1 -34.5t-31 -12.5h-93q-33 0 -47 33l-114 282q-14 33 -47 33h-719q-34 0 -47 -33l-117 -282q-13 -33 -47 -33h-92zM496 512h553q23 0 31.5 12.5
t0.5 34.5l-282 701q-11 24 -27 24t-27 -24l-282 -701q-8 -22 1 -34.5t32 -12.5z" />
    <glyph glyph-name="uni1EA7" unicode="&#x1ea7;" horiz-adv-x="1364" 
d="M645 1696q-29 0 -51 22l-181 191q-27 30 4 57l33 27q34 26 60 -7l194 -241q17 -22 9.5 -35.5t-33.5 -13.5h-35zM532 1264q-16 -25 -49 -25h-31q-25 0 -32.5 14.5t6.5 34.5l149 221q17 27 49 27h111q32 0 49 -27l150 -221q14 -21 7 -35t-32 -14h-33q-33 0 -49 25l-117 163
q-12 18 -28.5 18t-28.5 -18zM616 -20q-106 0 -203.5 43.5t-170 117t-115.5 175.5t-43 214t43 214t115.5 175t170 116.5t203.5 43.5q220 0 367 -141q20 -20 33.5 -14.5t13.5 32.5v62q0 41 41 41h78q41 0 41 -41v-977q0 -41 -41 -41h-78q-41 0 -41 41v61q0 28 -12 35t-29 -10
q-147 -147 -373 -147zM637 135q164 0 278.5 115.5t114.5 279.5t-114.5 279t-278.5 115q-163 0 -278 -115.5t-115 -278.5q0 -164 115 -279.5t278 -115.5z" />
    <glyph glyph-name="uni1EA8" unicode="&#x1ea8;" horiz-adv-x="1544" 
d="M766 2091q-41 0 -41 41v51q0 35 35 47q88 29 88 100q0 34 -24 57t-62 23q-33 0 -57 -12q-38 -15 -58 12l-10 14q-23 37 12 56q49 30 109 30q81 0 136.5 -51t55.5 -129q0 -48 -25.5 -88.5t-74.5 -62.5q-33 -16 -33 -47q0 -41 -41 -41h-10zM622 1741q-16 -25 -49 -25h-31
q-25 0 -32.5 15t6.5 34l149 221q17 27 49 27h111q32 0 49 -27l150 -221q14 -21 7 -35t-32 -14h-33q-33 0 -49 25l-117 163q-12 18 -28.5 18t-28.5 -18zM111 0q-23 0 -31.5 12.5t0.5 34.5l600 1458q11 31 47 31h90q36 0 47 -31l600 -1458q9 -22 1 -34.5t-31 -12.5h-93
q-33 0 -47 33l-114 282q-14 33 -47 33h-719q-34 0 -47 -33l-117 -282q-13 -33 -47 -33h-92zM496 512h553q23 0 31.5 12.5t0.5 34.5l-282 701q-11 24 -27 24t-27 -24l-282 -701q-8 -22 1 -34.5t32 -12.5z" />
    <glyph glyph-name="uni1EA9" unicode="&#x1ea9;" horiz-adv-x="1364" 
d="M676 1614q-41 0 -41 41v51q0 35 35 47q88 29 88 100q0 34 -24 57t-62 23q-33 0 -57 -12q-38 -15 -58 12l-10 14q-23 37 12 56q49 30 109 30q81 0 136.5 -51t55.5 -129q0 -48 -25.5 -88.5t-74.5 -62.5q-33 -16 -33 -47q0 -41 -41 -41h-10zM532 1264q-16 -25 -49 -25h-31
q-25 0 -32.5 14.5t6.5 34.5l149 221q17 27 49 27h111q32 0 49 -27l150 -221q14 -21 7 -35t-32 -14h-33q-33 0 -49 25l-117 163q-12 18 -28.5 18t-28.5 -18zM616 -20q-106 0 -203.5 43.5t-170 117t-115.5 175.5t-43 214t43 214t115.5 175t170 116.5t203.5 43.5
q220 0 367 -141q20 -20 33.5 -14.5t13.5 32.5v62q0 41 41 41h78q41 0 41 -41v-977q0 -41 -41 -41h-78q-41 0 -41 41v61q0 28 -12 35t-29 -10q-147 -147 -373 -147zM637 135q164 0 278.5 115.5t114.5 279.5t-114.5 279t-278.5 115q-163 0 -278 -115.5t-115 -278.5
q0 -164 115 -279.5t278 -115.5z" />
    <glyph glyph-name="uni1EAA" unicode="&#x1eaa;" horiz-adv-x="1544" 
d="M912 2230q-114 0 -183 108q-40 66 -102 66q-45 0 -73.5 -33t-37.5 -88q-3 -41 -41 -41h-10q-44 0 -41 43q11 94 64.5 151.5t136.5 57.5q110 0 180 -108q42 -66 107 -66q45 0 74 31.5t36 89.5q3 41 41 41h8q20 0 31 -12.5t10 -34.5q-12 -92 -64.5 -148.5t-135.5 -56.5z
M622 1741q-16 -25 -49 -25h-31q-25 0 -32.5 15t6.5 34l149 221q17 27 49 27h111q32 0 49 -27l150 -221q14 -21 7 -35t-32 -14h-33q-33 0 -49 25l-117 163q-12 18 -28.5 18t-28.5 -18zM111 0q-23 0 -31.5 12.5t0.5 34.5l600 1458q11 31 47 31h90q36 0 47 -31l600 -1458
q9 -22 1 -34.5t-31 -12.5h-93q-33 0 -47 33l-114 282q-14 33 -47 33h-719q-34 0 -47 -33l-117 -282q-13 -33 -47 -33h-92zM496 512h553q23 0 31.5 12.5t0.5 34.5l-282 701q-11 24 -27 24t-27 -24l-282 -701q-8 -22 1 -34.5t32 -12.5z" />
    <glyph glyph-name="uni1EAB" unicode="&#x1eab;" horiz-adv-x="1364" 
d="M822 1753q-114 0 -183 108q-40 66 -102 66q-45 0 -73.5 -33t-37.5 -88q-3 -41 -41 -41h-10q-44 0 -41 43q11 94 64.5 151.5t136.5 57.5q110 0 180 -108q42 -66 107 -66q45 0 74 31.5t36 89.5q3 41 41 41h8q20 0 31 -12.5t10 -34.5q-12 -92 -64.5 -148.5t-135.5 -56.5z
M532 1264q-16 -25 -49 -25h-31q-25 0 -32.5 14.5t6.5 34.5l149 221q17 27 49 27h111q32 0 49 -27l150 -221q14 -21 7 -35t-32 -14h-33q-33 0 -49 25l-117 163q-12 18 -28.5 18t-28.5 -18zM616 -20q-106 0 -203.5 43.5t-170 117t-115.5 175.5t-43 214t43 214t115.5 175
t170 116.5t203.5 43.5q220 0 367 -141q20 -20 33.5 -14.5t13.5 32.5v62q0 41 41 41h78q41 0 41 -41v-977q0 -41 -41 -41h-78q-41 0 -41 41v61q0 28 -12 35t-29 -10q-147 -147 -373 -147zM637 135q164 0 278.5 115.5t114.5 279.5t-114.5 279t-278.5 115q-163 0 -278 -115.5
t-115 -278.5q0 -164 115 -279.5t278 -115.5z" />
    <glyph glyph-name="uni1EAC" unicode="&#x1eac;" horiz-adv-x="1544" 
d="M622 1741q-16 -25 -49 -25h-31q-25 0 -32.5 15t6.5 34l149 221q17 27 49 27h111q32 0 49 -27l150 -221q14 -21 7 -35t-32 -14h-33q-33 0 -49 25l-117 163q-12 18 -28.5 18t-28.5 -18zM111 0q-23 0 -31.5 12.5t0.5 34.5l600 1458q11 31 47 31h90q36 0 47 -31l600 -1458
q9 -22 1 -34.5t-31 -12.5h-93q-33 0 -47 33l-114 282q-14 33 -47 33h-719q-34 0 -47 -33l-117 -282q-13 -33 -47 -33h-92zM496 512h553q23 0 31.5 12.5t0.5 34.5l-282 701q-11 24 -27 24t-27 -24l-282 -701q-8 -22 1 -34.5t32 -12.5zM772 -512q-46 0 -80.5 34t-34.5 81
q0 46 34.5 80t80.5 34t80.5 -34t34.5 -80q0 -47 -34.5 -81t-80.5 -34z" />
    <glyph glyph-name="uni1EAD" unicode="&#x1ead;" horiz-adv-x="1364" 
d="M532 1264q-16 -25 -49 -25h-31q-25 0 -32.5 14.5t6.5 34.5l149 221q17 27 49 27h111q32 0 49 -27l150 -221q14 -21 7 -35t-32 -14h-33q-33 0 -49 25l-117 163q-12 18 -28.5 18t-28.5 -18zM616 -20q-106 0 -203.5 43.5t-170 117t-115.5 175.5t-43 214t43 214t115.5 175
t170 116.5t203.5 43.5q220 0 367 -141q20 -20 33.5 -14.5t13.5 32.5v62q0 41 41 41h78q41 0 41 -41v-977q0 -41 -41 -41h-78q-41 0 -41 41v61q0 28 -12 35t-29 -10q-147 -147 -373 -147zM637 135q164 0 278.5 115.5t114.5 279.5t-114.5 279t-278.5 115q-163 0 -278 -115.5
t-115 -278.5q0 -164 115 -279.5t278 -115.5zM682 -512q-46 0 -80.5 34t-34.5 81q0 46 34.5 80t80.5 34t80.5 -34t34.5 -80q0 -47 -34.5 -81t-80.5 -34z" />
    <glyph glyph-name="uni1EAE" unicode="&#x1eae;" horiz-adv-x="1544" 
d="M782 2173h-35q-26 0 -33.5 13.5t9.5 35.5l194 241q26 33 60 7l33 -27q31 -27 4 -57l-181 -191q-22 -22 -51 -22zM769 1698q-136 0 -228 73.5t-107 198.5q-3 43 41 43h22q38 0 41 -39q13 -86 77 -138t154 -52q92 0 156.5 52t77.5 138q3 39 41 39h22q44 0 41 -41
q-13 -126 -106 -200t-232 -74zM111 0q-23 0 -31.5 12.5t0.5 34.5l600 1458q11 31 47 31h90q36 0 47 -31l600 -1458q9 -22 1 -34.5t-31 -12.5h-93q-33 0 -47 33l-114 282q-14 33 -47 33h-719q-34 0 -47 -33l-117 -282q-13 -33 -47 -33h-92zM496 512h553q23 0 31.5 12.5
t0.5 34.5l-282 701q-11 24 -27 24t-27 -24l-282 -701q-8 -22 1 -34.5t32 -12.5z" />
    <glyph glyph-name="uni1EAF" unicode="&#x1eaf;" horiz-adv-x="1364" 
d="M692 1696h-35q-26 0 -33.5 13.5t9.5 35.5l194 241q26 33 60 7l33 -27q31 -27 4 -57l-181 -191q-22 -22 -51 -22zM679 1221q-136 0 -228 73.5t-107 198.5q-3 43 41 43h22q38 0 41 -39q13 -86 77 -138t154 -52q92 0 156.5 52t77.5 138q3 39 41 39h22q44 0 41 -41
q-13 -126 -106 -200t-232 -74zM616 -20q-106 0 -203.5 43.5t-170 117t-115.5 175.5t-43 214t43 214t115.5 175t170 116.5t203.5 43.5q220 0 367 -141q20 -20 33.5 -14.5t13.5 32.5v62q0 41 41 41h78q41 0 41 -41v-977q0 -41 -41 -41h-78q-41 0 -41 41v61q0 28 -12 35
t-29 -10q-147 -147 -373 -147zM637 135q164 0 278.5 115.5t114.5 279.5t-114.5 279t-278.5 115q-163 0 -278 -115.5t-115 -278.5q0 -164 115 -279.5t278 -115.5z" />
    <glyph glyph-name="uni1EB0" unicode="&#x1eb0;" horiz-adv-x="1544" 
d="M737 2173q-29 0 -51 22l-181 191q-27 30 4 57l33 27q34 26 60 -7l194 -241q17 -22 9.5 -35.5t-33.5 -13.5h-35zM769 1698q-136 0 -228 73.5t-107 198.5q-3 43 41 43h22q38 0 41 -39q13 -86 77 -138t154 -52q92 0 156.5 52t77.5 138q3 39 41 39h22q44 0 41 -41
q-13 -126 -106 -200t-232 -74zM111 0q-23 0 -31.5 12.5t0.5 34.5l600 1458q11 31 47 31h90q36 0 47 -31l600 -1458q9 -22 1 -34.5t-31 -12.5h-93q-33 0 -47 33l-114 282q-14 33 -47 33h-719q-34 0 -47 -33l-117 -282q-13 -33 -47 -33h-92zM496 512h553q23 0 31.5 12.5
t0.5 34.5l-282 701q-11 24 -27 24t-27 -24l-282 -701q-8 -22 1 -34.5t32 -12.5z" />
    <glyph glyph-name="uni1EB1" unicode="&#x1eb1;" horiz-adv-x="1364" 
d="M647 1696q-29 0 -51 22l-181 191q-27 30 4 57l33 27q34 26 60 -7l194 -241q17 -22 9.5 -35.5t-33.5 -13.5h-35zM679 1221q-136 0 -228 73.5t-107 198.5q-3 43 41 43h22q38 0 41 -39q13 -86 77 -138t154 -52q92 0 156.5 52t77.5 138q3 39 41 39h22q44 0 41 -41
q-13 -126 -106 -200t-232 -74zM616 -20q-106 0 -203.5 43.5t-170 117t-115.5 175.5t-43 214t43 214t115.5 175t170 116.5t203.5 43.5q220 0 367 -141q20 -20 33.5 -14.5t13.5 32.5v62q0 41 41 41h78q41 0 41 -41v-977q0 -41 -41 -41h-78q-41 0 -41 41v61q0 28 -12 35
t-29 -10q-147 -147 -373 -147zM637 135q164 0 278.5 115.5t114.5 279.5t-114.5 279t-278.5 115q-163 0 -278 -115.5t-115 -278.5q0 -164 115 -279.5t278 -115.5z" />
    <glyph glyph-name="uni1EB2" unicode="&#x1eb2;" horiz-adv-x="1544" 
d="M768 2091q-41 0 -41 41v51q0 35 35 47q88 29 88 100q0 34 -24 57t-62 23q-33 0 -57 -12q-38 -15 -58 12l-10 14q-23 37 12 56q49 30 109 30q81 0 136.5 -51t55.5 -129q0 -48 -25.5 -88.5t-74.5 -62.5q-33 -16 -33 -47q0 -41 -41 -41h-10zM769 1698q-136 0 -228 73.5
t-107 198.5q-3 43 41 43h22q38 0 41 -39q13 -86 77 -138t154 -52q92 0 156.5 52t77.5 138q3 39 41 39h22q44 0 41 -41q-13 -126 -106 -200t-232 -74zM111 0q-23 0 -31.5 12.5t0.5 34.5l600 1458q11 31 47 31h90q36 0 47 -31l600 -1458q9 -22 1 -34.5t-31 -12.5h-93
q-33 0 -47 33l-114 282q-14 33 -47 33h-719q-34 0 -47 -33l-117 -282q-13 -33 -47 -33h-92zM496 512h553q23 0 31.5 12.5t0.5 34.5l-282 701q-11 24 -27 24t-27 -24l-282 -701q-8 -22 1 -34.5t32 -12.5z" />
    <glyph glyph-name="uni1EB3" unicode="&#x1eb3;" horiz-adv-x="1364" 
d="M678 1614q-41 0 -41 41v51q0 35 35 47q88 29 88 100q0 34 -24 57t-62 23q-33 0 -57 -12q-38 -15 -58 12l-10 14q-23 37 12 56q49 30 109 30q81 0 136.5 -51t55.5 -129q0 -48 -25.5 -88.5t-74.5 -62.5q-33 -16 -33 -47q0 -41 -41 -41h-10zM679 1221q-136 0 -228 73.5
t-107 198.5q-3 43 41 43h22q38 0 41 -39q13 -86 77 -138t154 -52q92 0 156.5 52t77.5 138q3 39 41 39h22q44 0 41 -41q-13 -126 -106 -200t-232 -74zM616 -20q-106 0 -203.5 43.5t-170 117t-115.5 175.5t-43 214t43 214t115.5 175t170 116.5t203.5 43.5q220 0 367 -141
q20 -20 33.5 -14.5t13.5 32.5v62q0 41 41 41h78q41 0 41 -41v-977q0 -41 -41 -41h-78q-41 0 -41 41v61q0 28 -12 35t-29 -10q-147 -147 -373 -147zM637 135q164 0 278.5 115.5t114.5 279.5t-114.5 279t-278.5 115q-163 0 -278 -115.5t-115 -278.5q0 -164 115 -279.5
t278 -115.5z" />
    <glyph glyph-name="uni1EB4" unicode="&#x1eb4;" horiz-adv-x="1544" 
d="M914 2230q-114 0 -183 108q-40 66 -102 66q-45 0 -73.5 -33t-37.5 -88q-3 -41 -41 -41h-10q-44 0 -41 43q11 94 64.5 151.5t136.5 57.5q110 0 180 -108q42 -66 107 -66q45 0 74 31.5t36 89.5q3 41 41 41h8q20 0 31 -12.5t10 -34.5q-12 -92 -64.5 -148.5t-135.5 -56.5z
M769 1698q-136 0 -228 73.5t-107 198.5q-3 43 41 43h22q38 0 41 -39q13 -86 77 -138t154 -52q92 0 156.5 52t77.5 138q3 39 41 39h22q44 0 41 -41q-13 -126 -106 -200t-232 -74zM111 0q-23 0 -31.5 12.5t0.5 34.5l600 1458q11 31 47 31h90q36 0 47 -31l600 -1458
q9 -22 1 -34.5t-31 -12.5h-93q-33 0 -47 33l-114 282q-14 33 -47 33h-719q-34 0 -47 -33l-117 -282q-13 -33 -47 -33h-92zM496 512h553q23 0 31.5 12.5t0.5 34.5l-282 701q-11 24 -27 24t-27 -24l-282 -701q-8 -22 1 -34.5t32 -12.5z" />
    <glyph glyph-name="uni1EB5" unicode="&#x1eb5;" horiz-adv-x="1364" 
d="M824 1753q-114 0 -183 108q-40 66 -102 66q-45 0 -73.5 -33t-37.5 -88q-3 -41 -41 -41h-10q-44 0 -41 43q11 94 64.5 151.5t136.5 57.5q110 0 180 -108q42 -66 107 -66q45 0 74 31.5t36 89.5q3 41 41 41h8q20 0 31 -12.5t10 -34.5q-12 -92 -64.5 -148.5t-135.5 -56.5z
M679 1221q-136 0 -228 73.5t-107 198.5q-3 43 41 43h22q38 0 41 -39q13 -86 77 -138t154 -52q92 0 156.5 52t77.5 138q3 39 41 39h22q44 0 41 -41q-13 -126 -106 -200t-232 -74zM616 -20q-106 0 -203.5 43.5t-170 117t-115.5 175.5t-43 214t43 214t115.5 175t170 116.5
t203.5 43.5q220 0 367 -141q20 -20 33.5 -14.5t13.5 32.5v62q0 41 41 41h78q41 0 41 -41v-977q0 -41 -41 -41h-78q-41 0 -41 41v61q0 28 -12 35t-29 -10q-147 -147 -373 -147zM637 135q164 0 278.5 115.5t114.5 279.5t-114.5 279t-278.5 115q-163 0 -278 -115.5t-115 -278.5
q0 -164 115 -279.5t278 -115.5z" />
    <glyph glyph-name="uni1EB6" unicode="&#x1eb6;" horiz-adv-x="1544" 
d="M769 1698q-136 0 -228 73.5t-107 198.5q-3 43 41 43h22q38 0 41 -39q13 -86 77 -138t154 -52q92 0 156.5 52t77.5 138q3 39 41 39h22q44 0 41 -41q-13 -126 -106 -200t-232 -74zM111 0q-23 0 -31.5 12.5t0.5 34.5l600 1458q11 31 47 31h90q36 0 47 -31l600 -1458
q9 -22 1 -34.5t-31 -12.5h-93q-33 0 -47 33l-114 282q-14 33 -47 33h-719q-34 0 -47 -33l-117 -282q-13 -33 -47 -33h-92zM496 512h553q23 0 31.5 12.5t0.5 34.5l-282 701q-11 24 -27 24t-27 -24l-282 -701q-8 -22 1 -34.5t32 -12.5zM772 -512q-46 0 -80.5 34t-34.5 81
q0 46 34.5 80t80.5 34t80.5 -34t34.5 -80q0 -47 -34.5 -81t-80.5 -34z" />
    <glyph glyph-name="uni1EB7" unicode="&#x1eb7;" horiz-adv-x="1364" 
d="M679 1221q-136 0 -228 73.5t-107 198.5q-3 43 41 43h22q38 0 41 -39q13 -86 77 -138t154 -52q92 0 156.5 52t77.5 138q3 39 41 39h22q44 0 41 -41q-13 -126 -106 -200t-232 -74zM616 -20q-106 0 -203.5 43.5t-170 117t-115.5 175.5t-43 214t43 214t115.5 175t170 116.5
t203.5 43.5q220 0 367 -141q20 -20 33.5 -14.5t13.5 32.5v62q0 41 41 41h78q41 0 41 -41v-977q0 -41 -41 -41h-78q-41 0 -41 41v61q0 28 -12 35t-29 -10q-147 -147 -373 -147zM637 135q164 0 278.5 115.5t114.5 279.5t-114.5 279t-278.5 115q-163 0 -278 -115.5t-115 -278.5
q0 -164 115 -279.5t278 -115.5zM682 -512q-46 0 -80.5 34t-34.5 81q0 46 34.5 80t80.5 34t80.5 -34t34.5 -80q0 -47 -34.5 -81t-80.5 -34z" />
    <glyph glyph-name="uni1EB8" unicode="&#x1eb8;" horiz-adv-x="1178" 
d="M260 0q-41 0 -41 41v1454q0 41 41 41h762q41 0 41 -41v-82q0 -41 -41 -41h-588q-41 0 -41 -41v-442q0 -41 41 -41h502q41 0 41 -41v-82q0 -41 -41 -41h-502q-41 0 -41 -41v-438q0 -41 41 -41h588q41 0 41 -41v-82q0 -41 -41 -41h-762zM641 -512q-46 0 -80.5 34t-34.5 81
q0 46 34.5 80t80.5 34t80.5 -34t34.5 -80q0 -47 -34.5 -81t-80.5 -34z" />
    <glyph glyph-name="uni1EB9" unicode="&#x1eb9;" horiz-adv-x="1251" 
d="M637 -20q-153 0 -280 73.5t-200 200t-73 276.5t73 276t200 199.5t278 73.5q149 0 274 -70t198.5 -189.5t78.5 -262.5v-4q-1 -19 -13 -30t-30 -11h-867q-20 0 -31 -11.5t-7 -31.5q19 -148 132.5 -246t264.5 -98q93 0 175 39t138 110q25 31 58 17l59 -25q43 -19 18 -55
q-76 -108 -192.5 -169.5t-253.5 -61.5zM299 641h670q22 0 31.5 13t0.5 34q-45 111 -143.5 178.5t-222.5 67.5q-125 0 -224.5 -67t-144.5 -179q-9 -21 1 -34t32 -13zM645 -512q-46 0 -80.5 34t-34.5 81q0 46 34.5 80t80.5 34t80.5 -34t34.5 -80q0 -47 -34.5 -81t-80.5 -34z
" />
    <glyph glyph-name="uni1EBA" unicode="&#x1eba;" horiz-adv-x="1178" 
d="M637 1614q-41 0 -41 41v51q0 35 35 47q88 29 88 100q0 34 -24 57t-62 23q-33 0 -57 -12q-38 -15 -58 12l-10 14q-23 37 12 56q49 30 109 30q81 0 136.5 -51t55.5 -129q0 -48 -25.5 -88.5t-74.5 -62.5q-33 -16 -33 -47q0 -41 -41 -41h-10zM260 0q-41 0 -41 41v1454
q0 41 41 41h762q41 0 41 -41v-82q0 -41 -41 -41h-588q-41 0 -41 -41v-442q0 -41 41 -41h502q41 0 41 -41v-82q0 -41 -41 -41h-502q-41 0 -41 -41v-438q0 -41 41 -41h588q41 0 41 -41v-82q0 -41 -41 -41h-762z" />
    <glyph glyph-name="uni1EBB" unicode="&#x1ebb;" horiz-adv-x="1251" 
d="M641 1149q-41 0 -41 41v51q0 35 35 47q88 29 88 100q0 34 -24 57t-62 23q-33 0 -57 -12q-38 -15 -58 12l-10 14q-23 37 12 56q50 30 109 30q81 0 136.5 -51t55.5 -129q0 -48 -25.5 -88.5t-74.5 -62.5q-33 -16 -33 -47q0 -41 -41 -41h-10zM637 -20q-153 0 -280 73.5
t-200 200t-73 276.5t73 276t200 199.5t278 73.5q149 0 274 -70t198.5 -189.5t78.5 -262.5v-4q-1 -19 -13 -30t-30 -11h-867q-20 0 -31 -11.5t-7 -31.5q19 -148 132.5 -246t264.5 -98q93 0 175 39t138 110q25 31 58 17l59 -25q43 -19 18 -55q-76 -108 -192.5 -169.5
t-253.5 -61.5zM299 641h670q22 0 31.5 13t0.5 34q-45 111 -143.5 178.5t-222.5 67.5q-125 0 -224.5 -67t-144.5 -179q-9 -21 1 -34t32 -13z" />
    <glyph glyph-name="uni1EBC" unicode="&#x1ebc;" horiz-adv-x="1178" 
d="M783 1753q-114 0 -183 108q-40 66 -102 66q-45 0 -73.5 -33t-37.5 -88q-3 -41 -41 -41h-10q-44 0 -41 43q11 94 64.5 151.5t136.5 57.5q110 0 180 -108q42 -66 107 -66q45 0 74 31.5t36 89.5q3 41 41 41h8q20 0 31 -12.5t10 -34.5q-12 -92 -64.5 -148.5t-135.5 -56.5z
M260 0q-41 0 -41 41v1454q0 41 41 41h762q41 0 41 -41v-82q0 -41 -41 -41h-588q-41 0 -41 -41v-442q0 -41 41 -41h502q41 0 41 -41v-82q0 -41 -41 -41h-502q-41 0 -41 -41v-438q0 -41 41 -41h588q41 0 41 -41v-82q0 -41 -41 -41h-762z" />
    <glyph glyph-name="uni1EBD" unicode="&#x1ebd;" horiz-adv-x="1251" 
d="M787 1288q-114 0 -183 108q-40 66 -102 66q-45 0 -73.5 -33t-37.5 -88q-3 -41 -41 -41h-10q-44 0 -41 43q11 94 64.5 151.5t136.5 57.5q110 0 180 -108q42 -66 107 -66q45 0 74 31.5t36 89.5q3 41 41 41h8q20 0 31 -12.5t10 -34.5q-12 -92 -64.5 -148.5t-135.5 -56.5z
M637 -20q-153 0 -280 73.5t-200 200t-73 276.5t73 276t200 199.5t278 73.5q149 0 274 -70t198.5 -189.5t78.5 -262.5v-4q-1 -19 -13 -30t-30 -11h-867q-20 0 -31 -11.5t-7 -31.5q19 -148 132.5 -246t264.5 -98q93 0 175 39t138 110q25 31 58 17l59 -25q43 -19 18 -55
q-76 -108 -192.5 -169.5t-253.5 -61.5zM299 641h670q22 0 31.5 13t0.5 34q-45 111 -143.5 178.5t-222.5 67.5q-125 0 -224.5 -67t-144.5 -179q-9 -21 1 -34t32 -13z" />
    <glyph glyph-name="uni1EBE" unicode="&#x1ebe;" horiz-adv-x="1178" 
d="M649 2173h-35q-26 0 -33.5 13.5t9.5 35.5l194 241q26 33 60 7l33 -27q31 -27 4 -57l-181 -191q-22 -22 -51 -22zM491 1741q-16 -25 -49 -25h-31q-25 0 -32.5 15t6.5 34l149 221q17 27 49 27h111q32 0 49 -27l150 -221q14 -21 7 -35t-32 -14h-33q-33 0 -49 25l-117 163
q-12 18 -28.5 18t-28.5 -18zM260 0q-41 0 -41 41v1454q0 41 41 41h762q41 0 41 -41v-82q0 -41 -41 -41h-588q-41 0 -41 -41v-442q0 -41 41 -41h502q41 0 41 -41v-82q0 -41 -41 -41h-502q-41 0 -41 -41v-438q0 -41 41 -41h588q41 0 41 -41v-82q0 -41 -41 -41h-762z" />
    <glyph glyph-name="uni1EBF" unicode="&#x1ebf;" horiz-adv-x="1251" 
d="M653 1708h-35q-26 0 -33.5 13.5t9.5 35.5l194 241q26 33 60 7l33 -27q31 -27 4 -57l-181 -191q-22 -22 -51 -22zM495 1276q-16 -25 -49 -25h-31q-25 0 -32.5 14.5t6.5 34.5l149 221q17 27 49 27h111q32 0 49 -27l150 -221q14 -21 7 -35t-32 -14h-33q-33 0 -49 25
l-117 163q-12 18 -28.5 18t-28.5 -18zM637 -20q-153 0 -280 73.5t-200 200t-73 276.5t73 276t200 199.5t278 73.5q149 0 274 -70t198.5 -189.5t78.5 -262.5v-4q-1 -19 -13 -30t-30 -11h-867q-20 0 -31 -11.5t-7 -31.5q19 -148 132.5 -246t264.5 -98q93 0 175 39t138 110
q25 31 58 17l59 -25q43 -19 18 -55q-76 -108 -192.5 -169.5t-253.5 -61.5zM299 641h670q22 0 31.5 13t0.5 34q-45 111 -143.5 178.5t-222.5 67.5q-125 0 -224.5 -67t-144.5 -179q-9 -21 1 -34t32 -13z" />
    <glyph glyph-name="uni1EC0" unicode="&#x1ec0;" horiz-adv-x="1178" 
d="M604 2173q-29 0 -51 22l-181 191q-27 30 4 57l33 27q34 26 60 -7l194 -241q17 -22 9.5 -35.5t-33.5 -13.5h-35zM491 1741q-16 -25 -49 -25h-31q-25 0 -32.5 15t6.5 34l149 221q17 27 49 27h111q32 0 49 -27l150 -221q14 -21 7 -35t-32 -14h-33q-33 0 -49 25l-117 163
q-12 18 -28.5 18t-28.5 -18zM260 0q-41 0 -41 41v1454q0 41 41 41h762q41 0 41 -41v-82q0 -41 -41 -41h-588q-41 0 -41 -41v-442q0 -41 41 -41h502q41 0 41 -41v-82q0 -41 -41 -41h-502q-41 0 -41 -41v-438q0 -41 41 -41h588q41 0 41 -41v-82q0 -41 -41 -41h-762z" />
    <glyph glyph-name="uni1EC1" unicode="&#x1ec1;" horiz-adv-x="1251" 
d="M608 1708q-29 0 -51 22l-181 191q-27 30 4 57l33 27q34 26 60 -7l194 -241q17 -22 9.5 -35.5t-33.5 -13.5h-35zM495 1276q-16 -25 -49 -25h-31q-25 0 -32.5 14.5t6.5 34.5l149 221q17 27 49 27h111q32 0 49 -27l150 -221q14 -21 7 -35t-32 -14h-33q-33 0 -49 25l-117 163
q-12 18 -28.5 18t-28.5 -18zM637 -20q-153 0 -280 73.5t-200 200t-73 276.5t73 276t200 199.5t278 73.5q149 0 274 -70t198.5 -189.5t78.5 -262.5v-4q-1 -19 -13 -30t-30 -11h-867q-20 0 -31 -11.5t-7 -31.5q19 -148 132.5 -246t264.5 -98q93 0 175 39t138 110q25 31 58 17
l59 -25q43 -19 18 -55q-76 -108 -192.5 -169.5t-253.5 -61.5zM299 641h670q22 0 31.5 13t0.5 34q-45 111 -143.5 178.5t-222.5 67.5q-125 0 -224.5 -67t-144.5 -179q-9 -21 1 -34t32 -13z" />
    <glyph glyph-name="uni1EC2" unicode="&#x1ec2;" horiz-adv-x="1178" 
d="M635 2091q-41 0 -41 41v51q0 35 35 47q88 29 88 100q0 34 -24 57t-62 23q-33 0 -57 -12q-38 -15 -58 12l-10 14q-23 37 12 56q50 30 109 30q81 0 136.5 -51t55.5 -129q0 -48 -25.5 -88.5t-74.5 -62.5q-33 -16 -33 -47q0 -41 -41 -41h-10zM491 1741q-16 -25 -49 -25h-31
q-25 0 -32.5 15t6.5 34l149 221q17 27 49 27h111q32 0 49 -27l150 -221q14 -21 7 -35t-32 -14h-33q-33 0 -49 25l-117 163q-12 18 -28.5 18t-28.5 -18zM260 0q-41 0 -41 41v1454q0 41 41 41h762q41 0 41 -41v-82q0 -41 -41 -41h-588q-41 0 -41 -41v-442q0 -41 41 -41h502
q41 0 41 -41v-82q0 -41 -41 -41h-502q-41 0 -41 -41v-438q0 -41 41 -41h588q41 0 41 -41v-82q0 -41 -41 -41h-762z" />
    <glyph glyph-name="uni1EC3" unicode="&#x1ec3;" horiz-adv-x="1251" 
d="M639 1626q-41 0 -41 41v51q0 35 35 47q88 29 88 100q0 34 -24 57t-62 23q-33 0 -57 -12q-38 -15 -58 12l-10 14q-23 37 12 56q50 30 109 30q81 0 136.5 -51t55.5 -129q0 -48 -25.5 -88.5t-74.5 -62.5q-33 -16 -33 -47q0 -41 -41 -41h-10zM495 1276q-16 -25 -49 -25h-31
q-25 0 -32.5 14.5t6.5 34.5l149 221q17 27 49 27h111q32 0 49 -27l150 -221q14 -21 7 -35t-32 -14h-33q-33 0 -49 25l-117 163q-12 18 -28.5 18t-28.5 -18zM637 -20q-153 0 -280 73.5t-200 200t-73 276.5t73 276t200 199.5t278 73.5q149 0 274 -70t198.5 -189.5t78.5 -262.5
v-4q-1 -19 -13 -30t-30 -11h-867q-20 0 -31 -11.5t-7 -31.5q19 -148 132.5 -246t264.5 -98q93 0 175 39t138 110q25 31 58 17l59 -25q43 -19 18 -55q-76 -108 -192.5 -169.5t-253.5 -61.5zM299 641h670q22 0 31.5 13t0.5 34q-45 111 -143.5 178.5t-222.5 67.5
q-125 0 -224.5 -67t-144.5 -179q-9 -21 1 -34t32 -13z" />
    <glyph glyph-name="uni1EC4" unicode="&#x1ec4;" horiz-adv-x="1178" 
d="M781 2230q-114 0 -183 108q-40 66 -102 66q-45 0 -73.5 -33t-37.5 -88q-3 -41 -41 -41h-10q-44 0 -41 43q11 94 64.5 151.5t136.5 57.5q110 0 180 -108q42 -66 107 -66q45 0 74 31.5t36 89.5q3 41 41 41h8q20 0 31 -12.5t10 -34.5q-12 -92 -64.5 -148.5t-135.5 -56.5z
M491 1741q-16 -25 -49 -25h-31q-25 0 -32.5 15t6.5 34l149 221q17 27 49 27h111q32 0 49 -27l150 -221q14 -21 7 -35t-32 -14h-33q-33 0 -49 25l-117 163q-12 18 -28.5 18t-28.5 -18zM260 0q-41 0 -41 41v1454q0 41 41 41h762q41 0 41 -41v-82q0 -41 -41 -41h-588
q-41 0 -41 -41v-442q0 -41 41 -41h502q41 0 41 -41v-82q0 -41 -41 -41h-502q-41 0 -41 -41v-438q0 -41 41 -41h588q41 0 41 -41v-82q0 -41 -41 -41h-762z" />
    <glyph glyph-name="uni1EC5" unicode="&#x1ec5;" horiz-adv-x="1251" 
d="M785 1765q-114 0 -183 108q-40 66 -102 66q-45 0 -73.5 -33t-37.5 -88q-3 -41 -41 -41h-10q-44 0 -41 43q11 94 64.5 151.5t136.5 57.5q110 0 180 -108q42 -66 107 -66q45 0 74 31.5t36 89.5q3 41 41 41h8q20 0 31 -12.5t10 -34.5q-12 -92 -64.5 -148.5t-135.5 -56.5z
M495 1276q-16 -25 -49 -25h-31q-25 0 -32.5 14.5t6.5 34.5l149 221q17 27 49 27h111q32 0 49 -27l150 -221q14 -21 7 -35t-32 -14h-33q-33 0 -49 25l-117 163q-12 18 -28.5 18t-28.5 -18zM637 -20q-153 0 -280 73.5t-200 200t-73 276.5t73 276t200 199.5t278 73.5
q149 0 274 -70t198.5 -189.5t78.5 -262.5v-4q-1 -19 -13 -30t-30 -11h-867q-20 0 -31 -11.5t-7 -31.5q19 -148 132.5 -246t264.5 -98q93 0 175 39t138 110q25 31 58 17l59 -25q43 -19 18 -55q-76 -108 -192.5 -169.5t-253.5 -61.5zM299 641h670q22 0 31.5 13t0.5 34
q-45 111 -143.5 178.5t-222.5 67.5q-125 0 -224.5 -67t-144.5 -179q-9 -21 1 -34t32 -13z" />
    <glyph glyph-name="uni1EC6" unicode="&#x1ec6;" horiz-adv-x="1178" 
d="M491 1741q-16 -25 -49 -25h-31q-25 0 -32.5 15t6.5 34l149 221q17 27 49 27h111q32 0 49 -27l150 -221q14 -21 7 -35t-32 -14h-33q-33 0 -49 25l-117 163q-12 18 -28.5 18t-28.5 -18zM260 0q-41 0 -41 41v1454q0 41 41 41h762q41 0 41 -41v-82q0 -41 -41 -41h-588
q-41 0 -41 -41v-442q0 -41 41 -41h502q41 0 41 -41v-82q0 -41 -41 -41h-502q-41 0 -41 -41v-438q0 -41 41 -41h588q41 0 41 -41v-82q0 -41 -41 -41h-762zM641 -512q-46 0 -80.5 34t-34.5 81q0 46 34.5 80t80.5 34t80.5 -34t34.5 -80q0 -47 -34.5 -81t-80.5 -34z" />
    <glyph glyph-name="uni1EC7" unicode="&#x1ec7;" horiz-adv-x="1251" 
d="M495 1276q-16 -25 -49 -25h-31q-25 0 -32.5 14.5t6.5 34.5l149 221q17 27 49 27h111q32 0 49 -27l150 -221q14 -21 7 -35t-32 -14h-33q-33 0 -49 25l-117 163q-12 18 -28.5 18t-28.5 -18zM637 -20q-153 0 -280 73.5t-200 200t-73 276.5t73 276t200 199.5t278 73.5
q149 0 274 -70t198.5 -189.5t78.5 -262.5v-4q-1 -19 -13 -30t-30 -11h-867q-20 0 -31 -11.5t-7 -31.5q19 -148 132.5 -246t264.5 -98q93 0 175 39t138 110q25 31 58 17l59 -25q43 -19 18 -55q-76 -108 -192.5 -169.5t-253.5 -61.5zM299 641h670q22 0 31.5 13t0.5 34
q-45 111 -143.5 178.5t-222.5 67.5q-125 0 -224.5 -67t-144.5 -179q-9 -21 1 -34t32 -13zM645 -512q-46 0 -80.5 34t-34.5 81q0 46 34.5 80t80.5 34t80.5 -34t34.5 -80q0 -47 -34.5 -81t-80.5 -34z" />
    <glyph glyph-name="uni1EC8" unicode="&#x1ec8;" horiz-adv-x="612" 
d="M301 1614q-41 0 -41 41v51q0 35 35 47q88 29 88 100q0 34 -24 57t-62 23q-33 0 -57 -12q-38 -15 -58 12l-10 14q-23 37 12 56q49 30 109 30q81 0 136.5 -51t55.5 -129q0 -48 -25.5 -88.5t-74.5 -62.5q-33 -16 -33 -47q0 -41 -41 -41h-10zM260 0q-41 0 -41 41v1454
q0 41 41 41h92q41 0 41 -41v-1454q0 -41 -41 -41h-92z" />
    <glyph glyph-name="uni1EC9" unicode="&#x1ec9;" horiz-adv-x="508" 
d="M250 1137q-41 0 -41 41v51q0 35 35 47q88 29 88 100q0 34 -24 57t-62 23q-33 0 -57 -12q-38 -15 -58 12l-10 14q-23 37 12 56q50 30 109 30q81 0 136.5 -51t55.5 -129q0 -48 -25.5 -88.5t-74.5 -62.5q-33 -16 -33 -47q0 -41 -41 -41h-10zM215 0q-41 0 -41 41v977
q0 41 41 41h78q41 0 41 -41v-977q0 -41 -41 -41h-78z" />
    <glyph glyph-name="uni1ECA" unicode="&#x1eca;" horiz-adv-x="612" 
d="M260 0q-41 0 -41 41v1454q0 41 41 41h92q41 0 41 -41v-1454q0 -41 -41 -41h-92zM305 -512q-46 0 -80.5 34t-34.5 81q0 46 34.5 80t80.5 34t80.5 -34t34.5 -80q0 -47 -34.5 -81t-80.5 -34z" />
    <glyph glyph-name="uni1ECB" unicode="&#x1ecb;" horiz-adv-x="508" 
d="M254 1329q-46 0 -80.5 33.5t-34.5 79.5q0 48 34 81t81 33t81 -33t34 -81q0 -46 -34.5 -79.5t-80.5 -33.5zM215 0q-41 0 -41 41v977q0 41 41 41h78q41 0 41 -41v-977q0 -41 -41 -41h-78zM254 -512q-46 0 -80.5 34t-34.5 81q0 46 34.5 80t80.5 34t80.5 -34t34.5 -80
q0 -47 -34.5 -81t-80.5 -34z" />
    <glyph glyph-name="uni1ECC" unicode="&#x1ecc;" horiz-adv-x="1802" 
d="M901 -20q-214 0 -395.5 105.5t-287 287t-105.5 395.5t105.5 395.5t287 287t395.5 105.5q161 0 307 -62.5t251.5 -167.5t168 -251t62.5 -307t-62.5 -307t-168 -251t-251.5 -167.5t-307 -62.5zM901 154q168 0 309.5 81.5t223.5 223t82 309.5t-82 309.5t-223.5 223
t-309.5 81.5q-167 0 -308.5 -81.5t-223.5 -223t-82 -309.5t82 -309.5t223.5 -223t308.5 -81.5zM901 -512q-46 0 -80.5 34t-34.5 81q0 46 34.5 80t80.5 34t80.5 -34t34.5 -80q0 -47 -34.5 -81t-80.5 -34z" />
    <glyph glyph-name="uni1ECD" unicode="&#x1ecd;" horiz-adv-x="1274" 
d="M637 -20q-151 0 -278.5 73.5t-201 200t-73.5 276.5t73.5 276t201 199.5t278.5 73.5t278.5 -73.5t201 -199.5t73.5 -276t-73.5 -276.5t-201 -200t-278.5 -73.5zM637 135q163 0 278 115.5t115 279.5q0 163 -115 278.5t-278 115.5q-164 0 -278.5 -115t-114.5 -279
t114.5 -279.5t278.5 -115.5zM637 -512q-46 0 -80.5 34t-34.5 81q0 46 34.5 80t80.5 34t80.5 -34t34.5 -80q0 -47 -34.5 -81t-80.5 -34z" />
    <glyph glyph-name="uni1ECE" unicode="&#x1ece;" horiz-adv-x="1802" 
d="M897 1614q-41 0 -41 41v51q0 35 35 47q88 29 88 100q0 34 -24 57t-62 23q-33 0 -57 -12q-38 -15 -58 12l-10 14q-23 37 12 56q50 30 109 30q81 0 136.5 -51t55.5 -129q0 -48 -25.5 -88.5t-74.5 -62.5q-33 -16 -33 -47q0 -41 -41 -41h-10zM901 -20q-214 0 -395.5 105.5
t-287 287t-105.5 395.5t105.5 395.5t287 287t395.5 105.5q161 0 307 -62.5t251.5 -167.5t168 -251t62.5 -307t-62.5 -307t-168 -251t-251.5 -167.5t-307 -62.5zM901 154q168 0 309.5 81.5t223.5 223t82 309.5t-82 309.5t-223.5 223t-309.5 81.5q-167 0 -308.5 -81.5
t-223.5 -223t-82 -309.5t82 -309.5t223.5 -223t308.5 -81.5z" />
    <glyph glyph-name="uni1ECF" unicode="&#x1ecf;" horiz-adv-x="1274" 
d="M633 1137q-41 0 -41 41v51q0 35 35 47q88 29 88 100q0 34 -24 57t-62 23q-33 0 -57 -12q-38 -15 -58 12l-10 14q-23 37 12 56q50 30 109 30q81 0 136.5 -51t55.5 -129q0 -48 -25.5 -88.5t-74.5 -62.5q-33 -16 -33 -47q0 -41 -41 -41h-10zM637 -20q-151 0 -278.5 73.5
t-201 200t-73.5 276.5t73.5 276t201 199.5t278.5 73.5t278.5 -73.5t201 -199.5t73.5 -276t-73.5 -276.5t-201 -200t-278.5 -73.5zM637 135q163 0 278 115.5t115 279.5q0 163 -115 278.5t-278 115.5q-164 0 -278.5 -115t-114.5 -279t114.5 -279.5t278.5 -115.5z" />
    <glyph glyph-name="uni1ED0" unicode="&#x1ed0;" horiz-adv-x="1802" 
d="M909 2173h-35q-26 0 -33.5 13.5t9.5 35.5l194 241q26 33 60 7l33 -27q31 -27 4 -57l-181 -191q-22 -22 -51 -22zM751 1741q-16 -25 -49 -25h-31q-25 0 -32.5 15t6.5 34l149 221q17 27 49 27h111q32 0 49 -27l150 -221q14 -21 7 -35t-32 -14h-33q-33 0 -49 25l-117 163
q-12 18 -28.5 18t-28.5 -18zM901 -20q-214 0 -395.5 105.5t-287 287t-105.5 395.5t105.5 395.5t287 287t395.5 105.5q161 0 307 -62.5t251.5 -167.5t168 -251t62.5 -307t-62.5 -307t-168 -251t-251.5 -167.5t-307 -62.5zM901 154q168 0 309.5 81.5t223.5 223t82 309.5
t-82 309.5t-223.5 223t-309.5 81.5q-167 0 -308.5 -81.5t-223.5 -223t-82 -309.5t82 -309.5t223.5 -223t308.5 -81.5z" />
    <glyph glyph-name="uni1ED1" unicode="&#x1ed1;" horiz-adv-x="1274" 
d="M645 1696h-35q-26 0 -33.5 13.5t9.5 35.5l194 241q26 33 60 7l33 -27q31 -27 4 -57l-181 -191q-22 -22 -51 -22zM487 1264q-16 -25 -49 -25h-31q-25 0 -32.5 14.5t6.5 34.5l149 221q17 27 49 27h111q32 0 49 -27l150 -221q14 -21 7 -35t-32 -14h-33q-33 0 -49 25
l-117 163q-12 18 -28.5 18t-28.5 -18zM637 -20q-151 0 -278.5 73.5t-201 200t-73.5 276.5t73.5 276t201 199.5t278.5 73.5t278.5 -73.5t201 -199.5t73.5 -276t-73.5 -276.5t-201 -200t-278.5 -73.5zM637 135q163 0 278 115.5t115 279.5q0 163 -115 278.5t-278 115.5
q-164 0 -278.5 -115t-114.5 -279t114.5 -279.5t278.5 -115.5z" />
    <glyph glyph-name="uni1ED2" unicode="&#x1ed2;" horiz-adv-x="1802" 
d="M864 2173q-29 0 -51 22l-181 191q-27 30 4 57l33 27q34 26 60 -7l194 -241q17 -22 9.5 -35.5t-33.5 -13.5h-35zM751 1741q-16 -25 -49 -25h-31q-25 0 -32.5 15t6.5 34l149 221q17 27 49 27h111q32 0 49 -27l150 -221q14 -21 7 -35t-32 -14h-33q-33 0 -49 25l-117 163
q-12 18 -28.5 18t-28.5 -18zM901 -20q-214 0 -395.5 105.5t-287 287t-105.5 395.5t105.5 395.5t287 287t395.5 105.5q161 0 307 -62.5t251.5 -167.5t168 -251t62.5 -307t-62.5 -307t-168 -251t-251.5 -167.5t-307 -62.5zM901 154q168 0 309.5 81.5t223.5 223t82 309.5
t-82 309.5t-223.5 223t-309.5 81.5q-167 0 -308.5 -81.5t-223.5 -223t-82 -309.5t82 -309.5t223.5 -223t308.5 -81.5z" />
    <glyph glyph-name="uni1ED3" unicode="&#x1ed3;" horiz-adv-x="1274" 
d="M600 1696q-29 0 -51 22l-181 191q-27 30 4 57l33 27q34 26 60 -7l194 -241q17 -22 9.5 -35.5t-33.5 -13.5h-35zM487 1264q-16 -25 -49 -25h-31q-25 0 -32.5 14.5t6.5 34.5l149 221q17 27 49 27h111q32 0 49 -27l150 -221q14 -21 7 -35t-32 -14h-33q-33 0 -49 25l-117 163
q-12 18 -28.5 18t-28.5 -18zM637 -20q-151 0 -278.5 73.5t-201 200t-73.5 276.5t73.5 276t201 199.5t278.5 73.5t278.5 -73.5t201 -199.5t73.5 -276t-73.5 -276.5t-201 -200t-278.5 -73.5zM637 135q163 0 278 115.5t115 279.5q0 163 -115 278.5t-278 115.5
q-164 0 -278.5 -115t-114.5 -279t114.5 -279.5t278.5 -115.5z" />
    <glyph glyph-name="uni1ED4" unicode="&#x1ed4;" horiz-adv-x="1802" 
d="M895 2091q-41 0 -41 41v51q0 35 35 47q88 29 88 100q0 34 -24 57t-62 23q-33 0 -57 -12q-38 -15 -58 12l-10 14q-23 37 12 56q49 30 109 30q81 0 136.5 -51t55.5 -129q0 -48 -25.5 -88.5t-74.5 -62.5q-33 -16 -33 -47q0 -41 -41 -41h-10zM751 1741q-16 -25 -49 -25h-31
q-25 0 -32.5 15t6.5 34l149 221q17 27 49 27h111q32 0 49 -27l150 -221q14 -21 7 -35t-32 -14h-33q-33 0 -49 25l-117 163q-12 18 -28.5 18t-28.5 -18zM901 -20q-214 0 -395.5 105.5t-287 287t-105.5 395.5t105.5 395.5t287 287t395.5 105.5q161 0 307 -62.5t251.5 -167.5
t168 -251t62.5 -307t-62.5 -307t-168 -251t-251.5 -167.5t-307 -62.5zM901 154q168 0 309.5 81.5t223.5 223t82 309.5t-82 309.5t-223.5 223t-309.5 81.5q-167 0 -308.5 -81.5t-223.5 -223t-82 -309.5t82 -309.5t223.5 -223t308.5 -81.5z" />
    <glyph glyph-name="uni1ED5" unicode="&#x1ed5;" horiz-adv-x="1274" 
d="M631 1614q-41 0 -41 41v51q0 35 35 47q88 29 88 100q0 34 -24 57t-62 23q-33 0 -57 -12q-38 -15 -58 12l-10 14q-23 37 12 56q49 30 109 30q81 0 136.5 -51t55.5 -129q0 -48 -25.5 -88.5t-74.5 -62.5q-33 -16 -33 -47q0 -41 -41 -41h-10zM487 1264q-16 -25 -49 -25h-31
q-25 0 -32.5 14.5t6.5 34.5l149 221q17 27 49 27h111q32 0 49 -27l150 -221q14 -21 7 -35t-32 -14h-33q-33 0 -49 25l-117 163q-12 18 -28.5 18t-28.5 -18zM637 -20q-151 0 -278.5 73.5t-201 200t-73.5 276.5t73.5 276t201 199.5t278.5 73.5t278.5 -73.5t201 -199.5
t73.5 -276t-73.5 -276.5t-201 -200t-278.5 -73.5zM637 135q163 0 278 115.5t115 279.5q0 163 -115 278.5t-278 115.5q-164 0 -278.5 -115t-114.5 -279t114.5 -279.5t278.5 -115.5z" />
    <glyph glyph-name="uni1ED6" unicode="&#x1ed6;" horiz-adv-x="1802" 
d="M1041 2230q-114 0 -183 108q-40 66 -102 66q-45 0 -73.5 -33t-37.5 -88q-3 -41 -41 -41h-10q-44 0 -41 43q11 94 64.5 151.5t136.5 57.5q110 0 180 -108q42 -66 107 -66q45 0 74 31.5t36 89.5q3 41 41 41h8q20 0 31 -12.5t10 -34.5q-12 -92 -64.5 -148.5t-135.5 -56.5z
M751 1741q-16 -25 -49 -25h-31q-25 0 -32.5 15t6.5 34l149 221q17 27 49 27h111q32 0 49 -27l150 -221q14 -21 7 -35t-32 -14h-33q-33 0 -49 25l-117 163q-12 18 -28.5 18t-28.5 -18zM901 -20q-214 0 -395.5 105.5t-287 287t-105.5 395.5t105.5 395.5t287 287t395.5 105.5
q161 0 307 -62.5t251.5 -167.5t168 -251t62.5 -307t-62.5 -307t-168 -251t-251.5 -167.5t-307 -62.5zM901 154q168 0 309.5 81.5t223.5 223t82 309.5t-82 309.5t-223.5 223t-309.5 81.5q-167 0 -308.5 -81.5t-223.5 -223t-82 -309.5t82 -309.5t223.5 -223t308.5 -81.5z" />
    <glyph glyph-name="uni1ED7" unicode="&#x1ed7;" horiz-adv-x="1274" 
d="M777 1753q-114 0 -183 108q-40 66 -102 66q-45 0 -73.5 -33t-37.5 -88q-3 -41 -41 -41h-10q-44 0 -41 43q11 94 64.5 151.5t136.5 57.5q110 0 180 -108q42 -66 107 -66q45 0 74 31.5t36 89.5q3 41 41 41h8q20 0 31 -12.5t10 -34.5q-12 -92 -64.5 -148.5t-135.5 -56.5z
M487 1264q-16 -25 -49 -25h-31q-25 0 -32.5 14.5t6.5 34.5l149 221q17 27 49 27h111q32 0 49 -27l150 -221q14 -21 7 -35t-32 -14h-33q-33 0 -49 25l-117 163q-12 18 -28.5 18t-28.5 -18zM637 -20q-151 0 -278.5 73.5t-201 200t-73.5 276.5t73.5 276t201 199.5t278.5 73.5
t278.5 -73.5t201 -199.5t73.5 -276t-73.5 -276.5t-201 -200t-278.5 -73.5zM637 135q163 0 278 115.5t115 279.5q0 163 -115 278.5t-278 115.5q-164 0 -278.5 -115t-114.5 -279t114.5 -279.5t278.5 -115.5z" />
    <glyph glyph-name="uni1ED8" unicode="&#x1ed8;" horiz-adv-x="1802" 
d="M751 1741q-16 -25 -49 -25h-31q-25 0 -32.5 15t6.5 34l149 221q17 27 49 27h111q32 0 49 -27l150 -221q14 -21 7 -35t-32 -14h-33q-33 0 -49 25l-117 163q-12 18 -28.5 18t-28.5 -18zM901 -20q-214 0 -395.5 105.5t-287 287t-105.5 395.5t105.5 395.5t287 287
t395.5 105.5q161 0 307 -62.5t251.5 -167.5t168 -251t62.5 -307t-62.5 -307t-168 -251t-251.5 -167.5t-307 -62.5zM901 154q168 0 309.5 81.5t223.5 223t82 309.5t-82 309.5t-223.5 223t-309.5 81.5q-167 0 -308.5 -81.5t-223.5 -223t-82 -309.5t82 -309.5t223.5 -223
t308.5 -81.5zM901 -512q-46 0 -80.5 34t-34.5 81q0 46 34.5 80t80.5 34t80.5 -34t34.5 -80q0 -47 -34.5 -81t-80.5 -34z" />
    <glyph glyph-name="uni1ED9" unicode="&#x1ed9;" horiz-adv-x="1274" 
d="M487 1264q-16 -25 -49 -25h-31q-25 0 -32.5 14.5t6.5 34.5l149 221q17 27 49 27h111q32 0 49 -27l150 -221q14 -21 7 -35t-32 -14h-33q-33 0 -49 25l-117 163q-12 18 -28.5 18t-28.5 -18zM637 -20q-151 0 -278.5 73.5t-201 200t-73.5 276.5t73.5 276t201 199.5
t278.5 73.5t278.5 -73.5t201 -199.5t73.5 -276t-73.5 -276.5t-201 -200t-278.5 -73.5zM637 135q163 0 278 115.5t115 279.5q0 163 -115 278.5t-278 115.5q-164 0 -278.5 -115t-114.5 -279t114.5 -279.5t278.5 -115.5zM637 -512q-46 0 -80.5 34t-34.5 81q0 46 34.5 80
t80.5 34t80.5 -34t34.5 -80q0 -47 -34.5 -81t-80.5 -34z" />
    <glyph glyph-name="uni1EDA" unicode="&#x1eda;" horiz-adv-x="1802" 
d="M876 1696q-26 0 -33.5 13.5t9.5 35.5l194 241q26 33 60 7l33 -27q31 -27 4 -57l-181 -191q-22 -22 -51 -22h-35zM1747 1504q41 0 41 -41v-84q0 -124 -53 -185t-132 -65q87 -171 87 -361q0 -161 -62.5 -307t-168 -251t-251.5 -167.5t-307 -62.5q-214 0 -395.5 105.5
t-287 287t-105.5 395.5t105.5 395.5t287 287t395.5 105.5q202 0 374.5 -94t280.5 -255q47 4 69 45.5t22 87.5v123q0 41 41 41h59zM901 154q168 0 309.5 81.5t223.5 223t82 309.5t-82 309.5t-223.5 223t-309.5 81.5q-167 0 -308.5 -81.5t-223.5 -223t-82 -309.5t82 -309.5
t223.5 -223t308.5 -81.5z" />
    <glyph glyph-name="uni1EDB" unicode="&#x1edb;" horiz-adv-x="1274" 
d="M612 1219q-26 0 -33.5 13.5t9.5 35.5l194 241q26 33 60 7l33 -27q31 -27 4 -57l-181 -191q-22 -22 -51 -22h-35zM1241 1250q41 0 41 -41v-84q0 -128 -57 -189t-140 -61q-12 0 -18 1q123 -152 123 -346q0 -150 -73.5 -276.5t-201 -200t-278.5 -73.5t-278.5 73.5t-201 200
t-73.5 276.5t73.5 276t201 199.5t278.5 73.5q184 0 330 -108q40 -18 75 -18q51 0 75 42t24 91v123q0 41 41 41h59zM637 135q163 0 278 115.5t115 279.5q0 163 -115 278.5t-278 115.5q-164 0 -278.5 -115t-114.5 -279t114.5 -279.5t278.5 -115.5z" />
    <glyph glyph-name="uni1EDC" unicode="&#x1edc;" horiz-adv-x="1802" 
d="M815 1718l-181 191q-27 30 4 57l33 27q34 26 60 -7l194 -241q17 -22 9.5 -35.5t-33.5 -13.5h-35q-29 0 -51 22zM1747 1504q41 0 41 -41v-84q0 -124 -53 -185t-132 -65q87 -171 87 -361q0 -161 -62.5 -307t-168 -251t-251.5 -167.5t-307 -62.5q-214 0 -395.5 105.5
t-287 287t-105.5 395.5t105.5 395.5t287 287t395.5 105.5q202 0 374.5 -94t280.5 -255q47 4 69 45.5t22 87.5v123q0 41 41 41h59zM901 154q168 0 309.5 81.5t223.5 223t82 309.5t-82 309.5t-223.5 223t-309.5 81.5q-167 0 -308.5 -81.5t-223.5 -223t-82 -309.5t82 -309.5
t223.5 -223t308.5 -81.5z" />
    <glyph glyph-name="uni1EDD" unicode="&#x1edd;" horiz-adv-x="1274" 
d="M551 1241l-181 191q-27 30 4 57l33 27q34 26 60 -7l194 -241q17 -22 9.5 -35.5t-33.5 -13.5h-35q-29 0 -51 22zM1241 1250q41 0 41 -41v-84q0 -128 -57 -189t-140 -61q-12 0 -18 1q123 -152 123 -346q0 -150 -73.5 -276.5t-201 -200t-278.5 -73.5t-278.5 73.5t-201 200
t-73.5 276.5t73.5 276t201 199.5t278.5 73.5q184 0 330 -108q40 -18 75 -18q51 0 75 42t24 91v123q0 41 41 41h59zM637 135q163 0 278 115.5t115 279.5q0 163 -115 278.5t-278 115.5q-164 0 -278.5 -115t-114.5 -279t114.5 -279.5t278.5 -115.5z" />
    <glyph glyph-name="uni1EDE" unicode="&#x1ede;" horiz-adv-x="1802" 
d="M778 1933l-10 14q-23 37 12 56q50 30 109 30q81 0 136.5 -51t55.5 -129q0 -48 -25.5 -88.5t-74.5 -62.5q-33 -16 -33 -47q0 -41 -41 -41h-10q-41 0 -41 41v51q0 35 35 47q88 29 88 100q0 34 -24 57t-62 23q-33 0 -57 -12q-38 -15 -58 12zM1747 1504q41 0 41 -41v-84
q0 -124 -53 -185t-132 -65q87 -171 87 -361q0 -161 -62.5 -307t-168 -251t-251.5 -167.5t-307 -62.5q-214 0 -395.5 105.5t-287 287t-105.5 395.5t105.5 395.5t287 287t395.5 105.5q202 0 374.5 -94t280.5 -255q47 4 69 45.5t22 87.5v123q0 41 41 41h59zM901 154
q168 0 309.5 81.5t223.5 223t82 309.5t-82 309.5t-223.5 223t-309.5 81.5q-167 0 -308.5 -81.5t-223.5 -223t-82 -309.5t82 -309.5t223.5 -223t308.5 -81.5z" />
    <glyph glyph-name="uni1EDF" unicode="&#x1edf;" horiz-adv-x="1274" 
d="M514 1456l-10 14q-23 37 12 56q50 30 109 30q81 0 136.5 -51t55.5 -129q0 -48 -25.5 -88.5t-74.5 -62.5q-33 -16 -33 -47q0 -41 -41 -41h-10q-41 0 -41 41v51q0 35 35 47q88 29 88 100q0 34 -24 57t-62 23q-33 0 -57 -12q-38 -15 -58 12zM1241 1250q41 0 41 -41v-84
q0 -128 -57 -189t-140 -61q-12 0 -18 1q123 -152 123 -346q0 -150 -73.5 -276.5t-201 -200t-278.5 -73.5t-278.5 73.5t-201 200t-73.5 276.5t73.5 276t201 199.5t278.5 73.5q184 0 330 -108q40 -18 75 -18q51 0 75 42t24 91v123q0 41 41 41h59zM637 135q163 0 278 115.5
t115 279.5q0 163 -115 278.5t-278 115.5q-164 0 -278.5 -115t-114.5 -279t114.5 -279.5t278.5 -115.5z" />
    <glyph glyph-name="uni1EE0" unicode="&#x1ee0;" horiz-adv-x="1802" 
d="M596 1765q-44 0 -41 43q11 94 64.5 151.5t136.5 57.5q110 0 180 -108q42 -66 107 -66q45 0 74 31.5t36 89.5q3 41 41 41h8q20 0 31 -12.5t10 -34.5q-12 -92 -64.5 -148.5t-135.5 -56.5q-114 0 -183 108q-40 66 -102 66q-45 0 -73.5 -33t-37.5 -88q-3 -41 -41 -41h-10z
M1747 1504q41 0 41 -41v-84q0 -124 -53 -185t-132 -65q87 -171 87 -361q0 -161 -62.5 -307t-168 -251t-251.5 -167.5t-307 -62.5q-214 0 -395.5 105.5t-287 287t-105.5 395.5t105.5 395.5t287 287t395.5 105.5q202 0 374.5 -94t280.5 -255q47 4 69 45.5t22 87.5v123
q0 41 41 41h59zM901 154q168 0 309.5 81.5t223.5 223t82 309.5t-82 309.5t-223.5 223t-309.5 81.5q-167 0 -308.5 -81.5t-223.5 -223t-82 -309.5t82 -309.5t223.5 -223t308.5 -81.5z" />
    <glyph glyph-name="uni1EE1" unicode="&#x1ee1;" horiz-adv-x="1274" 
d="M332 1288q-44 0 -41 43q11 94 64.5 151.5t136.5 57.5q110 0 180 -108q42 -66 107 -66q45 0 74 31.5t36 89.5q3 41 41 41h8q20 0 31 -12.5t10 -34.5q-12 -92 -64.5 -148.5t-135.5 -56.5q-114 0 -183 108q-40 66 -102 66q-45 0 -73.5 -33t-37.5 -88q-3 -41 -41 -41h-10z
M1241 1250q41 0 41 -41v-84q0 -128 -57 -189t-140 -61q-12 0 -18 1q123 -152 123 -346q0 -150 -73.5 -276.5t-201 -200t-278.5 -73.5t-278.5 73.5t-201 200t-73.5 276.5t73.5 276t201 199.5t278.5 73.5q184 0 330 -108q40 -18 75 -18q51 0 75 42t24 91v123q0 41 41 41h59z
M637 135q163 0 278 115.5t115 279.5q0 163 -115 278.5t-278 115.5q-164 0 -278.5 -115t-114.5 -279t114.5 -279.5t278.5 -115.5z" />
    <glyph glyph-name="uni1EE2" unicode="&#x1ee2;" horiz-adv-x="1802" 
d="M1747 1504q41 0 41 -41v-84q0 -124 -53 -185t-132 -65q87 -171 87 -361q0 -161 -62.5 -307t-168 -251t-251.5 -167.5t-307 -62.5q-214 0 -395.5 105.5t-287 287t-105.5 395.5t105.5 395.5t287 287t395.5 105.5q202 0 374.5 -94t280.5 -255q47 4 69 45.5t22 87.5v123
q0 41 41 41h59zM901 154q168 0 309.5 81.5t223.5 223t82 309.5t-82 309.5t-223.5 223t-309.5 81.5q-167 0 -308.5 -81.5t-223.5 -223t-82 -309.5t82 -309.5t223.5 -223t308.5 -81.5zM901 -283q46 0 80.5 -34t34.5 -80q0 -47 -34.5 -81t-80.5 -34t-80.5 34t-34.5 81
q0 46 34.5 80t80.5 34z" />
    <glyph glyph-name="uni1EE3" unicode="&#x1ee3;" horiz-adv-x="1274" 
d="M1241 1250q41 0 41 -41v-84q0 -128 -57 -189t-140 -61q-12 0 -18 1q123 -152 123 -346q0 -150 -73.5 -276.5t-201 -200t-278.5 -73.5t-278.5 73.5t-201 200t-73.5 276.5t73.5 276t201 199.5t278.5 73.5q184 0 330 -108q40 -18 75 -18q51 0 75 42t24 91v123q0 41 41 41h59
zM637 135q163 0 278 115.5t115 279.5q0 163 -115 278.5t-278 115.5q-164 0 -278.5 -115t-114.5 -279t114.5 -279.5t278.5 -115.5zM637 -283q46 0 80.5 -34t34.5 -80q0 -47 -34.5 -81t-80.5 -34t-80.5 34t-34.5 81q0 46 34.5 80t80.5 34z" />
    <glyph glyph-name="uni1EE4" unicode="&#x1ee4;" horiz-adv-x="1538" 
d="M768 -20q-252 0 -416 148.5t-164 375.5v991q0 41 41 41h93q40 0 40 -41v-952q0 -202 110 -301t296 -99q187 0 297.5 99t110.5 301v952q0 41 41 41h92q41 0 41 -41v-991q0 -227 -164.5 -375.5t-417.5 -148.5zM768 -512q-46 0 -80.5 34t-34.5 81q0 46 34.5 80t80.5 34
t80.5 -34t34.5 -80q0 -47 -34.5 -81t-80.5 -34z" />
    <glyph glyph-name="uni1EE5" unicode="&#x1ee5;" horiz-adv-x="1143" 
d="M571 -20q-190 0 -305.5 101t-115.5 279v658q0 41 40 41h74q41 0 41 -41v-653q0 -114 73.5 -172t192.5 -58q121 0 194 58t73 172v653q0 41 41 41h73q41 0 41 -41v-658q0 -178 -115.5 -279t-306.5 -101zM569 -512q-46 0 -80.5 34t-34.5 81q0 46 34.5 80t80.5 34t80.5 -34
t34.5 -80q0 -47 -34.5 -81t-80.5 -34z" />
    <glyph glyph-name="uni1EE6" unicode="&#x1ee6;" horiz-adv-x="1538" 
d="M764 1614q-41 0 -41 41v51q0 35 35 47q88 29 88 100q0 34 -24 57t-62 23q-33 0 -57 -12q-38 -15 -58 12l-10 14q-23 37 12 56q49 30 109 30q81 0 136.5 -51t55.5 -129q0 -48 -25.5 -88.5t-74.5 -62.5q-33 -16 -33 -47q0 -41 -41 -41h-10zM768 -20q-252 0 -416 148.5
t-164 375.5v991q0 41 41 41h93q40 0 40 -41v-952q0 -202 110 -301t296 -99q187 0 297.5 99t110.5 301v952q0 41 41 41h92q41 0 41 -41v-991q0 -227 -164.5 -375.5t-417.5 -148.5z" />
    <glyph glyph-name="uni1EE7" unicode="&#x1ee7;" horiz-adv-x="1143" 
d="M567 1137q-41 0 -41 41v51q0 35 35 47q88 29 88 100q0 34 -24 57t-62 23q-33 0 -57 -12q-38 -15 -58 12l-10 14q-23 37 12 56q50 30 109 30q81 0 136.5 -51t55.5 -129q0 -48 -25.5 -88.5t-74.5 -62.5q-33 -16 -33 -47q0 -41 -41 -41h-10zM571 -20q-190 0 -305.5 101
t-115.5 279v658q0 41 40 41h74q41 0 41 -41v-653q0 -114 73.5 -172t192.5 -58q121 0 194 58t73 172v653q0 41 41 41h73q41 0 41 -41v-658q0 -178 -115.5 -279t-306.5 -101z" />
    <glyph glyph-name="uni1EE8" unicode="&#x1ee8;" horiz-adv-x="1538" 
d="M743 1696q-26 0 -33.5 13.5t9.5 35.5l194 241q26 33 60 7l33 -27q31 -27 4 -57l-181 -191q-22 -22 -51 -22h-35zM1620 1645q41 0 41 -41v-84q0 -128 -57 -189t-140 -61q-52 0 -114 21v-787q0 -227 -164.5 -375.5t-417.5 -148.5q-252 0 -416 148.5t-164 375.5v991
q0 41 41 41h93q40 0 40 -41v-952q0 -202 110 -301t296 -99q187 0 297.5 99t110.5 301v952q0 41 41 41h92q41 0 41 -41v-130q39 -17 71 -17q51 0 75 42t24 91v123q0 41 41 41h59z" />
    <glyph glyph-name="uni1EE9" unicode="&#x1ee9;" horiz-adv-x="1143" 
d="M546 1219q-26 0 -33.5 13.5t9.5 35.5l194 241q26 33 60 7l33 -27q31 -27 4 -57l-181 -191q-22 -22 -51 -22h-35zM1249 1168q41 0 41 -41v-84q0 -128 -57 -189t-140 -61q-44 0 -100 17v-450q0 -178 -115.5 -279t-306.5 -101q-190 0 -305.5 101t-115.5 279v658q0 41 40 41
h74q41 0 41 -41v-653q0 -114 73.5 -172t192.5 -58q121 0 194 58t73 172v653q0 41 41 41h73q41 0 41 -41v-136q32 -11 57 -11q51 0 75 42t24 91v123q0 41 41 41h59z" />
    </font>
</defs>
</svg>
