<svg xmlns="http://www.w3.org/2000/svg" width="44" height="44" viewBox="0 0 44 44"><g id="cash" transform="translate(-1161 -730)"><g id="Rectangle_140" data-name="Rectangle 140" transform="translate(1161 730)" fill="none" stroke="currentColor" stroke-width="3"><rect width="44" height="44" rx="4" stroke="none"></rect><rect x="1.5" y="1.5" width="41" height="41" rx="2.5" fill="none"></rect></g><path id="pound-sterling-svgrepo-com_1_" data-name="pound-sterling-svgrepo-com (1)" d="M13.557,23.919A1.3,1.3,0,0,0,12.271,25.2v1.928H5.259V20.705H9.291a1.234,1.234,0,0,0,1.227-1.227,1.275,1.275,0,0,0-1.227-1.227H5.259V14.1a2.681,2.681,0,0,1,2.688-2.688,2.75,2.75,0,0,1,1.928.818,1.24,1.24,0,0,0,1.753-1.753A5.123,5.123,0,0,0,7.947,8.96a5.212,5.212,0,0,0-5.2,5.2v4.149H1.227A1.234,1.234,0,0,0,0,19.537a1.275,1.275,0,0,0,1.227,1.227H2.746v6.369H1.227A1.234,1.234,0,0,0,0,28.36a1.275,1.275,0,0,0,1.227,1.227H13.5a1.234,1.234,0,0,0,1.227-1.227V25.2a1.2,1.2,0,0,0-1.169-1.286Z" transform="translate(1175.635 732.727)" fill="currentColor" stroke="currentColor" stroke-width="0.5"></path></g></svg>