<svg xmlns="http://www.w3.org/2000/svg" width="46.6" height="46.6" viewBox="0 0 46.6 46.6"><path id="key" d="M43.6,14.988A15,15,0,0,1,25.817,29.714l-2.045,2.3a2.044,2.044,0,0,1-1.528.686h-3.17v3.406a2.044,2.044,0,0,1-2.044,2.044H13.625v3.406A2.044,2.044,0,0,1,11.581,43.6H2.044A2.044,2.044,0,0,1,0,41.556V34.909a2.044,2.044,0,0,1,.6-1.445L14.377,19.685a14.989,14.989,0,1,1,29.223-4.7ZM28.612,10.9A4.087,4.087,0,1,0,32.7,6.812,4.087,4.087,0,0,0,28.612,10.9Z" transform="translate(1.5 1.5)" fill="none" stroke="currentColor" stroke-width="3"></path></svg>