<svg xmlns="http://www.w3.org/2000/svg" width="542" height="188">
  <g fill="none" fill-rule="evenodd">
    <path fill="#CB2A3F" d="M229.93 107.41c-3.88 4.3-7.35 5.94-10 5.94-1.85 0-4.3-2.46-4.3-6.75 0-8.6 8.17-25.16 17.37-36 1.22-1.64 3.27-3.48 4.7-3.48 3.68 0 5.1 5.73 5.1 10.84 0 7.16-6.94 22.9-12.87 29.45zM67.95 99.44a34.67 34.67 0 0 1-10.63 8.18c-4.9 2.46-10.63 4.3-13.28 4.3-2.86 0-3.07-1.03-2.25-3.07 3.06-9.2 10.22-20.66 23.9-31.3 6.75-5.11 9.2-6.14 10.84-6.14 1.02 0 2.45 1.44 2.45 4.5 0 6.75-7.56 19.64-11.03 23.53zm180.99-40.1c-1.43-.6-1.64-1.22-1.64-2.45 0-2.87-.4-7.98-8.17-7.98-3.48 0-6.54 1.23-9.4 4.1-2.05 2.04-3.48 3.06-6.13 3.06-2.25 0-3.88 1.03-5.31 2.46-1.43 1.63-2.45 3.07-2.66 5.52-.2 3.68-1.84 5.52-3.47 7.77a100.7 100.7 0 0 0-9.45 15.1c-9 10.1-23.13 23.97-30.6 23.97-2.87 0-3.69-3.88-1.64-11.66 3.47-13.7 11.64-32.93 13.28-37.22 2.25-5.32-.41-8.39-5.1-8.39-7.57 0-13.5 4.09-20.44 9.2-6.95 5.12-18.8 16.16-22.48 20.87-1.43 1.84-2.04.82-1.43-1.43 1.84-7.78 13.08-46.44 28.81-67.1 3.07-3.68 2.04-6.34-.81-9.6-3.28-3.7-6.34-4.92-7.97-4.92-2.25 0-4.7 1.64-7.57 6.14-6.12 9.4-15.11 30.27-21.24 48.88a956.12 956.12 0 0 0-6.6 21.36c-11.9 8.09-25.84 16.17-27.89 17.1-1.43.61-1.63.41-1.02-.82a57.14 57.14 0 0 0 6.54-25.16c0-3.48-2.66-14.32-10.22-14.32-1.63 0-5.1.62-9.19 2.66-10.42 4.7-19.62 13.91-22.88 16.98-2.05 1.64-3.48 1.43-2.46-1.23 2.66-7.36 4.9-13.7 9-17.18 1.42-1.43 1.42-3.07-.21-4.7-1.43-1.64-4.5-3.07-7.56-3.07-3.47 0-8.58 2.86-11.24 5.73-2.04 2.04-3.47 5.72-4.9 11.24a686.42 686.42 0 0 1-6.54 25.78c-3.8 13.77-7.8 27.02-11.55 38.86a1715.1 1715.1 0 0 1-7.05 20.08c-5.62 15.87-7.56 21.42-9.5 26.58-3.11 8.04-.58 12.28 3.92 12.2 4.08-.08 7.12-1.57 9.94-3.67 2.82-1.9 4.61-4.18 4.57-6.43.11-4.92 2.07-9.66 3.41-13.78.91-2.51 8.02-24.63 13.21-39.43.3-.16.64-.15 1.02.16 1.02 1.22 2.86 2.86 4.29 2.86 1.22 0 2.24-.2 4.08-.61 5.32-1.03 15.53-5.53 20.03-8.18a48.63 48.63 0 0 1 10.83-5.32c8.66-3.05 24.86-12.04 37.17-21.9-2.85 10-4.96 17.91-5.34 20.06-1.44 8.8 1.83 15.54 6.12 15.54 4.7 0 10.02-2.05 10.63-7.98.2-2.04 1.43-5.31 4.29-9.81 2.86-4.71 14.5-22.1 26.97-31.7 2.86-2.26 4.3-2.46 3.07.8-2.25 6.35-3.68 12.08-5.72 23.33-3.89 21.06.81 26.8 7.76 26.8 9.07 0 22.86-9.84 34.06-21.3a35.1 35.1 0 0 0-.14 2.89c0 9.6 6.13 17.17 13.49 17.17 14.71 0 28-8.18 37.8-19.84 8.38-9.4 11.44-19.22 11.44-27.4 0-7.98-2.86-16.98-10.21-20.66zM448.2 38.9c3.88 1.43 6.74 1.23 6.74-2.86 0-4.91 0-10.02 1.23-16.98 1.02-5.11-4.5-7.98-10.42-7.98-4.5 0-6.94 2.25-7.35 8.6-.21 4.7.4 7.97 1.02 10.22 1.02 3.68 4.29 7.36 8.78 9M283.5 82.46c2.45-6.34 9.2-16.36 13.28-16.36 2.66 0 4.7 1.63 4.7 4.5 0 5.73-9.4 14.93-15.73 14.93-2.66 0-3.07-.62-2.25-3.07zm188.02 6.14c2.65-4.3 3.27-7.57 2.25-9.41-.82-1.43-2.86-1.64-5.32 1.02-11.44 12.89-31.67 31.3-38.2 31.3-3.88 0-4.3-2.86-2.26-9.21 4.91-15.75 10.02-27.2 16.35-38.25 2.04-3.89 0-8.39-2.65-10.43a5.55 5.55 0 0 0-3.48-1.23c-5.93 0-18.8 13.7-22.06 22.1-1.23 3.06-.82 4.9 0 6.74 1.01 1.84 1.01 3.07 0 5.93a94.51 94.51 0 0 0-2.75 7.67c-9.92 10.61-20.23 19.95-25.47 19.95-3.27 0-6.53-4.1-3.47-16.37a174.73 174.73 0 0 1 9.2-26.38c1.83-4.1 3.88-7.57 4.69-9.41 1.43-3.89 1.84-6.75-1.84-10.43a9.58 9.58 0 0 0-6.33-2.25c-2.05 0-3.48 1.22-4.7 3.07a11.11 11.11 0 0 1-3.27 3.88c-1.84 1.02-3.47 2.05-8.99 6.14-6.54 4.5-18.8 16.36-22.47 20.45-1.85 2.46-3.28 1.64-2.46-.61 1.23-3.48 3.07-10.84 5.72-15.34 1.84-3.28 3.68-5.32 5.52-5.32 1.23 0 2.45-1.23 2.45-2.66 0-4.3-4.08-10.84-9.8-10.84-3.68 0-8.38 2.05-11.86 9.61-2.52 5.22-6.57 17.17-10.56 32.52-17.57 15.15-33.16 20.25-43.8 20.25-5.93 0-9.2-3.06-9.2-7.56 0-2.87.61-4.7 1.63-6.75.62-1.43 1.23-1.64 2.66-1.03 1.84.82 4.09 1.64 6.33 1.64 11.04 0 18.2-5.32 22.48-9.61 4.09-4.5 7.77-10.43 7.77-17.8 0-7.77-4.91-12.27-11.86-12.68a4.66 4.66 0 0 1-3.06-1.84c-1.23-2.45-3.27-4.1-7.15-4.1-8.58 0-19.2 12.28-23.3 18-8.99 12.9-14.1 28.03-14.1 37.24 0 12.89 9.2 20.25 18.6 20.25 17.28 0 35.4-9.1 49.36-20.86l-.71 3.27c-1.02 4.09-.82 8.59.61 10.23 1.64 2.25 3.47 3.88 6.13 3.88 1.22 0 3.27-.62 5.52-4.1 9.2-13.9 19.4-27 31.26-38.65 3.07-2.86 4.09-3.68 4.7-2.86.41.6 0 2.04-.82 4.3-1.23 3.47-2.65 8.79-4.29 16.56-4.3 19.84 2.66 30.48 12.88 30.48 6.88 0 16.72-3.8 27.48-14.79a13 13 0 0 0 1.34 4.97c2.86 6.34 6.94 8.18 10.01 8.18 3.47 0 7.36-.82 12.47-2.86 11.85-4.7 30.85-23.12 38.82-36z"/>
    <path fill="#CB2A3F" d="M536.84 100.87c-2.66-1.84-4.09-.61-3.47 2.45.2 1.03.6 3.69.6 5.33 0 3.06-1.22 5.3-3.87 5.3-2.04 0-13.9-5.3-22.27-18.8-1.23-2.26-1.44-2.87.6-5.12 5.73-5.52 17.38-15.55 27.39-18.2 3.27-1.03 3.27-5.12 2.65-7.58-.6-2.86-3.26-7.56-6.74-7.56-2.24 0-5.3 1.02-9.6 3.68-5.72 3.68-18.6 15.34-20.64 17.59-1.22 1.02-1.84 1.02-2.45-.4-3.88-9-6.13-16.37-5.72-22.1.41-4.5-.61-6.55-6.54-6.55-5.51 0-11.85 3.28-13.28 6.96-1.23 2.66-1.02 5.73.61 9.82 3.27 7.97 9 19.43 10.83 22.7 1.23 2.05 1.43 3.28-.41 4.7-18.59 15.56-31.05 28.23-32.69 30.28-2.04 3.07-2.65 5.32-2.25 7.16a7.35 7.35 0 0 0 2.25 3.07c1.43 1.02 4.5 1.23 7.76-.62 4.1-2.66 7.36-4.7 10.22-6.34a8.86 8.86 0 0 1 4.29-1.22c4.7-.42 6.13-1.03 7.77-2.25 1.83-1.43 2.65-2.46 2.44-5.32-.4-5.32-.2-6.14 1.24-7.77 2.24-2.87 3.87-4.3 5.92-6.14 1.43-1.23 2.04-1.43 3.47.82 3.48 4.9 9 10.63 13.7 14.31 7.35 5.12 12.25 7.78 19 7.78 4.28 0 14.1-3.89 14.1-13.1 0-5.1-2.86-11.45-4.9-12.88"/>
    <path fill="#1D4678" d="M52.38 169.32c0 2.05 1.96 3.24 4.21 3.24 2.13 0 3.93-1.36 3.93-3.24 0-2.81-2.79-3.65-5.28-4.34-2-.56-3.72-1.04-5.23-2.37a6.78 6.78 0 0 1-2.37-4.93c0-4.21 4.09-7.3 8.9-7.3 4.67 0 8.88 3.26 8.84 7.3H59.6c-.08-1.6-1.63-2.68-3.39-2.68-1.83 0-3.02 1.18-2.98 2.71-.04 1.88 2 2.61 3.8 3.13 2.13.63 4.17 1.15 5.89 2.36a6.6 6.6 0 0 1 3.18 5.85c0 4.59-4.45 8.13-9.8 8.13-5.15 0-9.77-3.37-9.77-7.86h5.84m15.94 7.24h6.17l3.35-6.64h10.7l3.28 6.64h6.17l-12.71-25.7H80.9l-12.58 25.7zm11.56-11.27l3.23-7.79 3.23 7.8h-6.46zM101.87 150.86h15.36v4.63h-9.76v5.91h9.31v4.62h-9.31v10.54h-5.6v-25.7M122.3 150.86h16.22v4.63H127.9v5.91h10.17v4.62H127.9v5.91h10.62v4.63H122.3v-25.7M184.74 169.57c-2.28 4.66-8.17 7.61-14.01 7.61-8.67 0-15.65-6.15-15.65-13.5 0-7.25 7.07-13.3 15.48-13.3 6.05 0 12.02 2.98 14.34 7.82h-6.37a11.31 11.31 0 0 0-7.93-3.2c-5.51 0-9.93 4.07-9.93 8.86 0 4.56 4.58 8.7 9.97 8.7 2.99 0 5.56-1.15 7.6-2.99h6.5m18.76-19.2c-8.7 0-15.74 5.98-15.74 13.46 0 7.44 7.16 13.35 15.74 13.35s15.73-5.9 15.73-13.35c0-7.48-7.03-13.46-15.73-13.46zm0 4.63c5.64 0 10.13 3.9 10.13 8.73 0 4.76-4.61 8.83-10.13 8.83-5.52 0-10.14-4.07-10.14-8.83 0-4.84 4.5-8.73 10.14-8.73zM224.46 150.86h7.64l8.1 19.65 8.21-19.65h7.6v25.7h-5.6v-19.27l-7.8 19.27h-4.74l-7.81-19.27v19.27h-5.6v-25.7M267.66 176.56v-9.74h1.1c2.98 0 6.5.14 8.99-1.57a7.86 7.86 0 0 0 3.6-6.57 7.59 7.59 0 0 0-4.01-6.46c-2.53-1.46-5.27-1.36-8.17-1.36h-7.11v25.7h5.6zm0-14.36v-6.71h1.02c1.22 0 2.94-.08 4.17.2 1.67.39 2.9 1.5 2.9 3.07 0 1.49-1.1 2.7-2.74 3.16-1.35.35-2.94.28-4.33.28h-1.02zm11.53 14.36h6.17l3.35-6.64h10.7l3.27 6.64h6.17l-12.7-25.7h-4.38l-12.58 25.7zm11.56-11.27l3.23-7.79 3.23 7.8h-6.46zM312.73 150.86h6.3l12.59 18.78v-18.78h5.59v25.7H331l-12.67-18.71v18.71h-5.6v-25.7M351.06 167.06l-9.93-16.2h6.18l6.57 11.83 6.59-11.83h6.12l-9.93 16.2v9.5h-5.6v-9.5M382.2 150.86h5.6v21.07h9.24v4.63H382.2v-25.7M401 176.56h5.6v-25.7H401zM413.26 150.86h7.64l8.09 19.65 8.22-19.65h7.6v25.7h-5.6v-19.27l-7.81 19.27h-4.73l-7.81-19.27v19.27h-5.6v-25.7M450.86 176.56h5.6v-25.7h-5.6zM466.18 155.49h-5.56v-4.63h16.8v4.63h-5.64v21.07h-5.6v-21.07M481.09 150.86h16.23v4.63h-10.63v5.91h10.18v4.62h-10.18v5.91h10.63v4.63h-16.23v-25.7M503.16 176.56h6.46c4.62 0 8.9-.31 12.54-2.96a12.42 12.42 0 0 0 5.2-9.77 12.6 12.6 0 0 0-5.2-9.98c-3.55-2.57-8.17-2.96-12.67-2.99h-6.33v25.7zm5.6-4.63V155.5h.4c2.95 0 6.06.06 8.6 1.52a7.87 7.87 0 0 1 4 6.82c0 2.5-1.31 4.83-3.64 6.36-2.61 1.64-5.52 1.74-8.67 1.74h-.69z"/>
  </g>
</svg>
