<svg xmlns="http://www.w3.org/2000/svg" width="45.064" height="47.119" viewBox="0 0 45.064 47.119"><g id="storage" transform="translate(-1.84 -0.75)"><path id="Path_24" data-name="Path 24" d="M44.356,7.167,23.987,18.161,3.609,7.15" transform="translate(0.385 6.148)" fill="none" stroke="currentColor" stroke-linecap="round" stroke-linejoin="round" stroke-width="3"></path><path id="Path_25" data-name="Path 25" d="M12,12V32.432" transform="translate(12.372 12.309)" fill="none" stroke="currentColor" stroke-linecap="round" stroke-linejoin="round" stroke-width="3"></path><path id="Path_26" data-name="Path 26" d="M21.943,2.918a5.152,5.152,0,0,1,4.857,0l16.175,8.73A4.5,4.5,0,0,1,45.4,15.58v17.46a4.5,4.5,0,0,1-2.429,3.932L26.8,45.7a5.151,5.151,0,0,1-4.857,0L5.768,36.971A4.5,4.5,0,0,1,3.34,33.039V15.58a4.5,4.5,0,0,1,2.429-3.932Z" transform="translate(0 0)" fill="none" stroke="currentColor" stroke-linecap="round" stroke-linejoin="round" stroke-width="3"></path><path id="Path_27" data-name="Path 27" d="M8.5,4.5,26.714,14.716" transform="translate(7.372 2.783)" fill="none" stroke="currentColor" stroke-linecap="round" stroke-linejoin="round" stroke-width="3"></path></g></svg>