<?xml version="1.0" standalone="no"?>
<!DOCTYPE svg PUBLIC "-//W3C//DTD SVG 1.1//EN" "http://www.w3.org/Graphics/SVG/1.1/DTD/svg11.dtd" >
<svg xmlns="http://www.w3.org/2000/svg" xmlns:xlink="http://www.w3.org/1999/xlink" version="1.1">
<metadata>
Created by FontForge 20170731 at Sun Feb 19 15:25:39 2017
 By Aleksey,,,
Copyright (c)2016. HK Nova is a trademark of Alfredo Marco Pradil. All rights reserved.
</metadata>
<defs>
<font id="" horiz-adv-x="0" >
  <font-face 
    font-family=""
    font-weight="600"
    font-stretch="normal"
    units-per-em="2048"
    panose-1="0 0 7 0 0 0 0 0 0 0"
    ascent="1536"
    descent="-512"
    x-height="1059"
    cap-height="1536"
    bbox="-1660 -572.455 3015 2510"
    underline-thickness="0"
    underline-position="0"
    unicode-range="U+0020-FB02"
  />
<missing-glyph horiz-adv-x="1227" 
d="M206 0q-41 0 -41 41v1454q0 41 41 41h815q41 0 41 -41v-1454q0 -41 -41 -41h-815zM353 229q0 -41 41 -41h439q41 0 41 41v1078q0 41 -41 41h-439q-41 0 -41 -41v-1078z" />
    <glyph glyph-name="uniFB01" unicode="fi" horiz-adv-x="1305" 
d="M249 0q-41 0 -41 41v797q0 41 -40 41h-89q-41 0 -41 41v98q0 41 41 41h89q40 0 40 41v103q0 171 85 262t243 91q70 0 134 -17q35 -8 35 -45v-110q0 -44 -47 -36q-33 9 -64 9q-66 0 -103.5 -40t-37.5 -117v-100q0 -41 41 -41h172q41 0 41 -41v-98q0 -41 -41 -41h-172
q-41 0 -41 -41v-797q0 -41 -41 -41h-163zM1020 1262q-62 0 -106 43t-44 104q0 62 44 104.5t106 42.5q60 0 103.5 -42.5t43.5 -104.5q0 -60 -43.5 -103.5t-103.5 -43.5zM938 0q-41 0 -41 41v977q0 41 41 41h161q41 0 41 -41v-977q0 -41 -41 -41h-161z" />
    <glyph glyph-name="uniFB02" unicode="fl" horiz-adv-x="1305" 
d="M249 0q-41 0 -41 41v797q0 41 -40 41h-89q-41 0 -41 41v98q0 41 41 41h89q40 0 40 41v103q0 171 85 262t243 91q70 0 134 -17q35 -8 35 -45v-110q0 -44 -47 -36q-33 9 -64 9q-66 0 -103.5 -40t-37.5 -117v-100q0 -41 41 -41h172q41 0 41 -41v-98q0 -41 -41 -41h-172
q-41 0 -41 -41v-797q0 -41 -41 -41h-163zM938 0q-41 0 -41 41v1454q0 41 41 41h161q41 0 41 -41v-1454q0 -41 -41 -41h-161z" />
    <glyph glyph-name="f_f.liga" unicode="ff" horiz-adv-x="1396" 
d="M249 0q-41 0 -41 41v797q0 41 -40 41h-89q-41 0 -41 41v98q0 41 41 41h89q40 0 40 41v119q0 154 89 245.5t241 91.5q70 0 135 -18q32 -11 32 -47v-124q0 -45 -46 -29q-38 12 -67 12q-63 0 -101 -42t-38 -116v-92q0 -41 41 -41h337q41 0 41 41v119q0 154 89 245.5
t241 91.5q70 0 135 -18q31 -11 31 -47v-124q0 -45 -45 -29q-39 12 -67 12q-63 0 -101 -42t-38 -116v-92q0 -41 41 -41h172q41 0 41 -41v-98q0 -41 -41 -41h-172q-41 0 -41 -41v-797q0 -41 -41 -41h-163q-41 0 -41 41v797q0 41 -41 41h-337q-41 0 -41 -41v-797q0 -41 -41 -41
h-163z" />
    <glyph glyph-name=".notdef" horiz-adv-x="1227" 
d="M206 0q-41 0 -41 41v1454q0 41 41 41h815q41 0 41 -41v-1454q0 -41 -41 -41h-815zM353 229q0 -41 41 -41h439q41 0 41 41v1078q0 41 -41 41h-439q-41 0 -41 -41v-1078z" />
    <glyph glyph-name="glyph1" 
 />
    <glyph glyph-name="glyph2" horiz-adv-x="682" 
 />
    <glyph glyph-name="space" unicode=" " horiz-adv-x="586" 
 />
    <glyph glyph-name="exclam" unicode="!" horiz-adv-x="684" 
d="M252 487q-41 0 -41 41v967q0 41 41 41h167q41 0 41 -41v-967q0 -41 -41 -41h-167zM335 -20q-60 0 -103.5 43.5t-43.5 103.5q0 61 43.5 104.5t103.5 43.5q62 0 105.5 -43.5t43.5 -104.5q0 -60 -44 -103.5t-105 -43.5z" />
    <glyph glyph-name="quotedbl" unicode="&#x22;" horiz-adv-x="1068" 
d="M281 887q-19 0 -30 10.5t-11 29.5l-18 567q-2 42 40 42h150q42 0 41 -42l-13 -567q-2 -40 -41 -40h-118zM669 887q-39 0 -41 40l-14 567q0 42 41 42h152q40 0 40 -42l-18 -567q-2 -40 -41 -40h-119z" />
    <glyph glyph-name="numbersign" unicode="#" horiz-adv-x="1602" 
d="M383 0q-20 0 -31 11.5t-8 31.5l37 259q3 20 -7.5 31.5t-31.5 11.5h-201q-43 0 -37 43l14 97q5 39 43 39h211q40 0 45 37l52 345q3 20 -7.5 31.5t-31.5 11.5h-201q-20 0 -30 13t-7 33l15 94q5 37 44 37h208q40 0 45 37l38 275q6 38 45 38h94q20 0 30 -12t7 -31l-36 -264
q-3 -20 7 -31.5t30 -11.5h278q40 0 45 37l38 274q6 39 45 39h93q20 0 31 -12t8 -31l-37 -264q-3 -20 7.5 -31.5t31.5 -11.5h201q20 0 30.5 -12.5t7.5 -32.5l-15 -95q-6 -37 -44 -37h-210q-39 0 -45 -36l-48 -346q-3 -20 7.5 -31.5t31.5 -11.5h198q43 0 37 -43l-13 -97
q-5 -39 -43 -39h-209q-40 0 -45 -37l-41 -271q-5 -37 -45 -37h-91q-21 0 -31.5 11.5t-7.5 31.5l36 259q3 20 -7.5 31.5t-31.5 11.5h-280q-38 0 -44 -39l-36 -267q-6 -39 -44 -39h-94zM596 567q-3 -20 7.5 -31.5t30.5 -11.5h277q40 0 45 37l50 345q3 20 -7.5 31.5t-31.5 11.5
h-278q-39 0 -45 -37z" />
    <glyph glyph-name="dollar" unicode="$" horiz-adv-x="1310" 
d="M1149 417q0 -179 -107 -290t-279 -139v-117q0 -41 -40 -41h-147q-41 0 -41 41v119q-117 20 -223.5 73.5t-188.5 132.5q-26 28 0 57l102 123q27 32 57 -1q76 -80 174 -127t197 -47q106 0 174 54.5t68 147.5q0 42 -18.5 78.5t-36.5 58.5t-70.5 52t-76 41t-97.5 43
q-13 6 -20 9q-55 24 -88.5 39t-82 41.5t-79 50t-65 58.5t-53.5 72t-32 86t-13 105q0 170 103.5 279t268.5 134v117q0 41 41 41h147q40 0 40 -41v-126q174 -39 314 -162q30 -27 4 -58l-88 -117q-26 -33 -58 -1q-150 132 -317 132q-88 0 -146.5 -46t-58.5 -129q0 -39 18 -73
t35.5 -55t70 -50t74.5 -39t97 -42q17 -7 25 -11q51 -22 86.5 -38.5t83 -43t79 -51.5t66 -61.5t55 -76t33.5 -91.5t13 -111z" />
    <glyph glyph-name="percent" unicode="%" horiz-adv-x="1750" 
d="M455 871q-142 0 -242.5 101t-100.5 244q0 141 100.5 240.5t242.5 99.5q141 0 241 -99.5t100 -240.5q0 -143 -100 -244t-241 -101zM373 0q-24 0 -32 13.5t3 35.5l836 1460q16 27 49 27h142q24 0 32 -13.5t-3 -35.5l-835 -1460q-14 -27 -48 -27h-144zM455 1053
q67 0 113.5 47.5t46.5 115.5q0 65 -47.5 112.5t-112.5 47.5q-67 0 -115 -47t-48 -113q0 -68 48 -115.5t115 -47.5zM1297 -16q-143 0 -243 100t-100 243q0 141 101 241t242 100q142 0 241.5 -100t99.5 -241q0 -142 -99.5 -242.5t-241.5 -100.5zM1297 165q67 0 114.5 47.5
t47.5 114.5q0 65 -48 112.5t-114 47.5q-68 0 -115 -46.5t-47 -113.5t47.5 -114.5t114.5 -47.5z" />
    <glyph glyph-name="ampersand" unicode="&#x26;" horiz-adv-x="1541" 
d="M582 -23q-200 0 -331.5 123.5t-131.5 325.5q0 73 18.5 132.5t60.5 113.5t89 97t125 103q32 26 7 59q-117 146 -117 282q0 149 100 245.5t254 96.5q153 0 254.5 -93t101.5 -236q0 -103 -53.5 -178t-162.5 -162q-32 -26 -8 -59l211 -265q13 -16 28 -16t29 16l164 203
q28 33 58 5l97 -90q31 -28 5 -59l-192 -236q-21 -27 0 -57l220 -280q16 -21 9 -36t-32 -15l-190 1q-33 0 -50 23l-107 136q-26 36 -60 2q-197 -182 -396 -182zM662 1026q72 52 107.5 95t35.5 102q0 64 -43.5 103t-104.5 40q-66 2 -108 -38t-42 -107q0 -35 15 -70t30.5 -56
t50.5 -62q26 -29 59 -7zM572 190q121 0 274 146q27 26 4 58l-244 306q-25 31 -58 9q-50 -36 -81 -62t-64.5 -62t-49.5 -75.5t-16 -84.5q0 -95 70.5 -165t164.5 -70z" />
    <glyph glyph-name="quotesingle" unicode="'" horiz-adv-x="678" 
d="M280 887q-39 0 -41 40l-17 567q0 42 41 42h153q42 0 41 -42l-17 -567q-2 -40 -41 -40h-119z" />
    <glyph glyph-name="parenleft" unicode="(" horiz-adv-x="707" 
d="M560 -431q-26 -34 -58 -9q-184 149 -289.5 436.5t-105.5 671.5q0 380 105.5 670.5t289.5 437.5q31 25 58 -8l79 -98q24 -30 -6 -56q-145 -121 -229 -368t-84 -578q0 -335 84 -580t229 -364q30 -25 6 -57z" />
    <glyph glyph-name="parenright" unicode=")" horiz-adv-x="707" 
d="M205 -440q-32 -26 -57 9l-80 98q-23 33 7 57q145 119 228.5 364t83.5 580q0 331 -84 578t-228 367q-30 26 -7 57l80 98q26 34 57 8q184 -147 289.5 -437t105.5 -671q0 -385 -105 -672.5t-290 -435.5z" />
    <glyph glyph-name="asterisk" unicode="*" horiz-adv-x="1009" 
d="M337 877l-41 25q-35 23 -10 57l140 176q17 21 8.5 36.5t-35.5 11.5l-226 -32q-20 -3 -32 7.5t-12 30.5v47q0 20 12 30t32 8l226 -33q28 -4 36 11t-9 37l-140 178q-27 35 11 56l40 24q38 21 55 -19l84 -209q10 -25 27 -25t28 25l85 209q7 19 22 24.5t32 -5.5l43 -24
q39 -21 10 -56l-142 -178q-17 -22 -9 -37t36 -11l226 33q20 2 32 -8t12 -30v-47q0 -20 -12 -30.5t-32 -7.5l-226 31q-27 4 -35.5 -11t8.5 -36l142 -176q29 -34 -9 -57l-44 -26q-38 -21 -54 19l-85 210q-11 25 -28 25t-27 -25l-84 -210q-17 -41 -55 -18z" />
    <glyph glyph-name="plus" unicode="+" horiz-adv-x="1245" 
d="M562 195q-41 0 -41 41v312q0 41 -41 41h-312q-41 0 -41 41v122q0 41 41 41h312q41 0 41 41v311q0 41 41 41h122q41 0 41 -41v-311q0 -41 41 -41h311q41 0 41 -41v-122q0 -41 -41 -41h-311q-41 0 -41 -41v-312q0 -41 -41 -41h-122z" />
    <glyph glyph-name="comma" unicode="," horiz-adv-x="686" 
d="M221 -375q-21 0 -31 12.5t-7 32.5l98 564q6 37 44 37h178q22 0 31.5 -12.5t2.5 -33.5l-172 -566q-10 -34 -47 -34h-97z" />
    <glyph glyph-name="hyphen" unicode="-" horiz-adv-x="1040" 
d="M203 432q-41 0 -41 41v119q0 41 41 41h635q41 0 41 -41v-119q0 -41 -41 -41h-635z" />
    <glyph glyph-name="period" unicode="." horiz-adv-x="675" 
d="M337 -20q-60 0 -104 43.5t-44 103.5t44 104t104 44t104 -44t44 -104t-44 -103.5t-104 -43.5z" />
    <glyph glyph-name="slash" unicode="/" horiz-adv-x="1223" 
d="M52 -381q-23 0 -31.5 14t1.5 35l956 1839q14 29 48 29h146q23 0 31.5 -13.5t-2.5 -35.5l-954 -1839q-14 -29 -48 -29h-147z" />
    <glyph glyph-name="zero" unicode="0" horiz-adv-x="1307" 
d="M654 -20q-260 0 -412 203t-152 585q0 385 148.5 586.5t415.5 201.5q266 0 415 -202t149 -586q0 -382 -152.5 -585t-411.5 -203zM655 207q147 0 229 140t82 421q0 150 -23 260t-66 175t-98 95.5t-124 30.5q-144 0 -228 -134.5t-84 -426.5q0 -281 82 -421t230 -140z" />
    <glyph glyph-name="one" unicode="1" horiz-adv-x="1307" 
d="M806 268q0 -41 41 -41h238q41 0 41 -41v-145q0 -41 -41 -41h-809q-41 0 -41 41v145q0 41 41 41h238q41 0 41 41v926q0 26 -14.5 33t-35.5 -10l-220 -177q-21 -16 -35.5 -9t-14.5 33v168q0 28 25 49l299 237q22 18 51 18h155q41 0 41 -41v-1227z" />
    <glyph glyph-name="two" unicode="2" horiz-adv-x="1307" 
d="M553 279q-22 -20 -16.5 -36t33.5 -16h567q41 0 41 -41v-145q0 -41 -41 -41h-955q-41 0 -41 41v128q0 32 24 52q183 167 310.5 295.5t203.5 217.5t118 161t55.5 120t13.5 101q0 61 -19.5 107t-53 72t-73 38.5t-85.5 12.5q-103 0 -164.5 -58t-70.5 -162q-3 -41 -43 -41
l-179 1q-42 0 -39 41q15 198 153 315.5t348 116.5q210 -2 343.5 -118t134.5 -303q0 -103 -38 -207.5t-115 -212t-176 -212.5t-236 -227z" />
    <glyph glyph-name="three" unicode="3" horiz-adv-x="1307" 
d="M942 858q-38 -23 3 -38q111 -47 177 -141.5t66 -231.5q0 -212 -152.5 -339.5t-395.5 -127.5q-143 0 -259.5 46.5t-193.5 144t-87 231.5q-5 42 38 42l176 1q36 0 41 -39q15 -98 93.5 -151t191.5 -53q136 0 214.5 69.5t78.5 186.5q0 121 -81 187t-212 66h-88q-41 0 -41 41
v127q0 41 39 41h80q101 0 166 59t65 156q0 92 -60.5 146t-162.5 54q-92 0 -152 -41.5t-72 -116.5q-9 -39 -43 -39h-172q-43 0 -40 43q16 170 150.5 272.5t326.5 102.5q201 0 334 -113t133 -288q0 -99 -44 -175t-117 -122z" />
    <glyph glyph-name="four" unicode="4" horiz-adv-x="1307" 
d="M1214 534q41 0 41 -41v-145q0 -41 -41 -41h-161q-41 0 -41 -41v-225q0 -41 -41 -41h-170q-41 0 -41 41v225q0 41 -41 41h-622q-41 0 -41 41v129q0 25 14 50l594 982q15 27 49 27h258q41 0 41 -41v-920q0 -41 41 -41h161zM330 583q-11 -21 -3.5 -35t31.5 -14h361
q41 0 41 41v642q0 29 -17.5 33.5t-31.5 -21.5z" />
    <glyph glyph-name="five" unicode="5" horiz-adv-x="1307" 
d="M605 975q287 0 430 -122.5t143 -347.5q0 -239 -146.5 -381.5t-382.5 -142.5q-134 0 -247.5 48t-192 145.5t-96.5 228.5q-3 20 7.5 31t30.5 11h178q35 0 45 -37q26 -98 101.5 -147.5t172.5 -49.5q128 0 204.5 76.5t76.5 206.5q0 264 -343 264h-393q-21 0 -31 12t-6 33
l134 696q6 37 43 37h755q41 0 41 -41v-145q0 -41 -41 -41h-574q-38 0 -44 -37l-46 -252q-3 -20 7.5 -32.5t30.5 -12.5h143z" />
    <glyph glyph-name="six" unicode="6" horiz-adv-x="1307" 
d="M1210 523q1 -149 -72.5 -273.5t-199 -196t-274.5 -71.5q-115 0 -218.5 39.5t-179 108t-121 164.5t-48.5 205q-4 188 135 372l490 640q18 25 49 25h201q26 0 32.5 -14.5t-9.5 -35.5l-325 -405q-14 -17 -12 -27.5t19 -9.5q15 -2 52 -4q88 -7 172.5 -46.5t153.5 -104.5
t111.5 -161t43.5 -205zM963 526q-5 136 -93 220.5t-220 84.5q-144 0 -230 -93t-82 -232q5 -132 92.5 -212.5t227.5 -80.5q138 0 224 91.5t81 221.5z" />
    <glyph glyph-name="seven" unicode="7" horiz-adv-x="1307" 
d="M129 1495q0 41 41 41h976q41 0 41 -41v-140q0 -27 -13 -52l-695 -1274q-14 -29 -49 -29h-200q-24 0 -32 14.5t3 34.5l678 1211q12 20 4 34.5t-32 14.5h-681q-41 0 -41 41v145z" />
    <glyph glyph-name="eight" unicode="8" horiz-adv-x="1307" 
d="M643 -20q-155 0 -279 55.5t-196.5 162t-72.5 247.5q0 127 60 223t171 152q39 21 2 48q-150 103 -150 289q0 178 132 288.5t333 110.5q202 0 334 -110.5t132 -288.5q0 -187 -150 -291q-37 -25 3 -45q110 -56 170.5 -152t60.5 -224q0 -211 -156 -338t-394 -127zM644 923
q100 0 163 60.5t63 151.5q0 89 -62.5 146.5t-163.5 57.5t-163.5 -57.5t-62.5 -146.5q0 -91 63 -151.5t163 -60.5zM643 206q133 0 215.5 70.5t82.5 192.5q0 121 -82.5 190t-215.5 69q-131 0 -213.5 -69t-82.5 -190q0 -122 82.5 -192.5t213.5 -70.5z" />
    <glyph glyph-name="nine" unicode="9" horiz-adv-x="1307" 
d="M336 0q-26 0 -32.5 14.5t9.5 35.5l325 405q16 21 9.5 33.5t-32.5 10.5q-31 0 -76 5q-77 11 -154.5 53.5t-140.5 107.5t-103.5 157t-43.5 191q-3 147 71 272t201 197t276 72q153 0 281 -67t204.5 -186t79.5 -264q6 -187 -134 -372l-490 -640q-19 -25 -49 -25h-201z
M657 705q145 0 231 93.5t81 231.5q-5 132 -92.5 212.5t-227.5 80.5q-137 0 -223.5 -90.5t-81.5 -222.5q5 -135 93 -220t220 -85z" />
    <glyph glyph-name="colon" unicode=":" horiz-adv-x="651" 
d="M325 749q-59 0 -103 43.5t-44 104.5q0 59 44 103t103 44q61 0 104.5 -44t43.5 -103q0 -61 -43.5 -104.5t-104.5 -43.5zM325 -20q-60 0 -103.5 43.5t-43.5 103.5t44 104t103 44q61 0 104.5 -44t43.5 -104q0 -61 -43.5 -104t-104.5 -43z" />
    <glyph glyph-name="semicolon" unicode=";" horiz-adv-x="680" 
d="M368 749q-60 0 -103.5 43.5t-43.5 104.5q0 59 43.5 103t103.5 44q61 0 105 -44t44 -103q0 -61 -44 -104.5t-105 -43.5zM184 -375q-21 0 -31.5 12.5t-7.5 32.5l98 564q6 37 45 37h178q22 0 31.5 -12.5t2.5 -33.5l-172 -566q-10 -34 -47 -34h-97z" />
    <glyph glyph-name="less" unicode="&#x3c;" horiz-adv-x="1394" 
d="M1196 1412q22 11 36 2.5t14 -31.5v-139q0 -32 -30 -47l-835 -420q-23 -11 -23 -29t23 -29l836 -422q29 -15 29 -47v-141q0 -24 -14 -33t-36 2l-1052 532q-29 15 -29 47v179q0 32 31 48z" />
    <glyph glyph-name="equal" unicode="=" horiz-adv-x="1311" 
d="M287 806q-41 0 -41 41v122q0 41 41 41h737q41 0 41 -41v-122q0 -41 -41 -41h-737zM287 374q-41 0 -41 41v121q0 41 41 41h737q41 0 41 -41v-121q0 -41 -41 -41h-737z" />
    <glyph glyph-name="greater" unicode="&#x3e;" horiz-adv-x="1394" 
d="M149 1383q0 23 13.5 31t35.5 -2l1050 -528q31 -16 31 -48v-179q0 -32 -28 -47l-1053 -532q-22 -11 -35.5 -2t-13.5 33v141q0 33 28 47l836 422q23 11 23 29t-23 29l-834 420q-30 15 -30 47v139z" />
    <glyph glyph-name="question" unicode="?" horiz-adv-x="1143" 
d="M491 455q-41 0 -41 41v313q0 41 41 41q58 1 100 6.5t88.5 21t75 42t47.5 73t19 110.5q0 109 -73 174t-186 65q-102 0 -172 -57t-85 -149q-6 -39 -42 -39h-139q-43 0 -40 42q16 182 148 296.5t329 114.5q207 0 342.5 -123.5t135.5 -321.5q0 -81 -21 -148t-54 -110t-78 -75
t-87 -48t-88 -25q-37 -6 -37 -43v-160q0 -41 -41 -41h-142zM569 -20q-61 0 -104.5 43t-43.5 104t43.5 104.5t104.5 43.5t104.5 -43.5t43.5 -104.5t-43 -104t-105 -43z" />
    <glyph glyph-name="at" unicode="@" horiz-adv-x="1791" 
d="M924 -246q-226 0 -404 96.5t-277.5 270.5t-99.5 396q0 163 62.5 307t168.5 244.5t251 159t306 58.5q114 0 219.5 -26.5t197 -81t160 -132t107.5 -186.5t39 -237q0 -127 -34.5 -226.5t-92.5 -158.5t-127.5 -89.5t-145.5 -30.5q-69 0 -115 27t-65 71q-8 17 -14 18.5
t-20 -13.5q-40 -45 -100 -73.5t-129 -28.5q-138 0 -218.5 94.5t-80.5 243.5q0 86 28.5 168.5t80 149.5t130 108t171.5 41q129 0 185 -88q27 -44 37 -2l5 25q8 36 45 36h70q21 0 30.5 -12t5.5 -33q-31 -151 -73 -360q-26 -106 -15 -163t75 -57q88 0 145 93t57 245
q0 168 -74.5 287.5t-199 177t-286.5 57.5q-179 0 -317.5 -81t-212.5 -221t-74 -314q0 -184 81.5 -323t220 -210t313.5 -71q250 0 427 124q35 21 59 -10l42 -60q25 -33 -7 -54q-222 -156 -537 -156zM842 265q59 0 106 30t74 77t41 98t15 101q3 90 -33.5 149t-122.5 59
q-70 0 -125 -51t-81.5 -125t-26.5 -152q0 -32 7.5 -62t23.5 -59t47.5 -47t74.5 -18z" />
    <glyph glyph-name="A" unicode="A" horiz-adv-x="1584" 
d="M99 0q-23 0 -31.5 12.5t0.5 34.5l569 1457q13 32 47 32h214q36 0 47 -32l571 -1457q8 -22 -0.5 -34.5t-31.5 -12.5h-181q-34 0 -46 33l-99 260q-14 33 -47 33h-638q-34 0 -46 -33l-100 -260q-12 -33 -46 -33h-182zM570 549h443q23 0 31.5 12.5t1.5 34.5l-228 597
q-6 17 -16 23.5t-20 0t-17 -23.5l-228 -597q-7 -22 2 -34.5t31 -12.5z" />
    <glyph glyph-name="B" unicode="B" horiz-adv-x="1399" 
d="M248 0q-41 0 -41 41v1454q0 41 41 41h470q215 0 345 -113.5t130 -303.5q0 -194 -133 -295q-35 -28 5 -42q114 -44 177 -136t63 -228q0 -189 -125.5 -303.5t-337.5 -114.5h-594zM498 883h217q108 0 172.5 61.5t64.5 156.5q0 98 -57 155t-180 57h-217q-40 0 -40 -41v-348
q0 -41 40 -41zM498 227h309q121 0 184 62t63 158q0 94 -67 158.5t-180 64.5h-309q-40 0 -40 -41v-361q0 -41 40 -41z" />
    <glyph glyph-name="C" unicode="C" horiz-adv-x="1545" 
d="M904 -20q-167 0 -316 61t-256 165.5t-169 250.5t-62 311t62 311t169 250.5t256 165.5t316 61q151 0 295 -55.5t252 -153.5q32 -27 0 -57l-122 -116q-27 -29 -58 0q-72 66 -168 103t-199 37q-113 0 -214 -42.5t-174 -115t-115.5 -173.5t-42.5 -215t42.5 -215t115.5 -173.5
t174 -115t214 -42.5q103 0 199 37t168 104q30 27 58 -1l122 -116q32 -30 2 -56q-108 -98 -253 -154t-296 -56z" />
    <glyph glyph-name="D" unicode="D" horiz-adv-x="1598" 
d="M248 0q-41 0 -41 41v1454q0 41 41 41h465q370 0 573 -207t203 -561t-203 -561t-573 -207h-465zM503 231h200q260 0 391 138t131 399t-131 399t-391 138h-200q-41 0 -41 -41v-992q0 -41 41 -41z" />
    <glyph glyph-name="E" unicode="E" horiz-adv-x="1225" 
d="M248 0q-41 0 -41 41v1454q0 41 41 41h811q41 0 41 -41v-149q0 -41 -41 -41h-554q-41 0 -41 -41v-342q0 -41 41 -41h476q41 0 41 -41v-147q0 -41 -41 -41h-476q-41 0 -41 -41v-339q0 -41 41 -41h554q41 0 41 -41v-149q0 -41 -41 -41h-811z" />
    <glyph glyph-name="F" unicode="F" horiz-adv-x="1188" 
d="M248 0q-41 0 -41 41v1454q0 41 41 41h819q41 0 41 -41v-149q0 -41 -41 -41h-562q-41 0 -41 -41v-340q0 -41 41 -41h476q41 0 41 -41v-148q0 -41 -41 -41h-476q-41 0 -41 -41v-571q0 -41 -41 -41h-175z" />
    <glyph glyph-name="G" unicode="G" horiz-adv-x="1788" 
d="M904 -20q-167 0 -316 61t-255.5 166t-169 251t-62.5 310t62.5 310t169 251t255.5 166t316 61q199 0 368 -83.5t279 -230.5q12 -17 9 -31.5t-21 -23.5l-152 -86q-33 -18 -57 13q-76 93 -187 146.5t-239 53.5q-113 0 -214 -42.5t-174 -115t-115.5 -175t-42.5 -218.5
q0 -150 68.5 -273t195 -195.5t285.5 -72.5q185 0 323 97t190 259q6 21 -4 33t-32 12h-319q-41 0 -41 41v137q0 41 41 41h598q40 0 43 -42q0 -58 -1 -87q-16 -210 -124.5 -377.5t-285.5 -261.5t-391 -94z" />
    <glyph glyph-name="H" unicode="H" horiz-adv-x="1654" 
d="M248 0q-41 0 -41 41v1454q0 41 41 41h175q41 0 41 -41v-571q0 -40 41 -40h645q41 0 41 40v571q0 41 41 41h175q41 0 41 -41v-1454q0 -41 -41 -41h-175q-41 0 -41 41v573q0 41 -41 41h-645q-41 0 -41 -41v-573q0 -41 -41 -41h-175z" />
    <glyph glyph-name="I" unicode="I" horiz-adv-x="671" 
d="M248 0q-41 0 -41 41v1454q0 41 41 41h175q41 0 41 -41v-1454q0 -41 -41 -41h-175z" />
    <glyph glyph-name="J" unicode="J" horiz-adv-x="1104" 
d="M415 -20q-172 0 -334 75q-36 17 -17 56l75 142q19 36 56 17q97 -53 209 -53q126 0 194 79t68 215v984q0 41 41 41h175q41 0 41 -41v-1030q0 -221 -140.5 -353t-367.5 -132z" />
    <glyph glyph-name="K" unicode="K" horiz-adv-x="1460" 
d="M248 0q-41 0 -41 41v1454q0 41 41 41h175q41 0 41 -41v-555q0 -28 16 -34t35 15l507 592q20 23 50 23h229q26 0 33.5 -16t-10.5 -35l-562 -635q-25 -30 -1 -57l612 -743q17 -20 10.5 -35t-32.5 -15h-240q-33 0 -50 25l-547 688q-18 23 -34 17t-16 -34v-655q0 -41 -41 -41
h-175z" />
    <glyph glyph-name="L" unicode="L" horiz-adv-x="1061" 
d="M248 0q-41 0 -41 41v1454q0 41 41 41h175q41 0 41 -41v-1223q0 -41 41 -41h456q40 0 40 -41v-149q0 -41 -40 -41h-713z" />
    <glyph glyph-name="M" unicode="M" horiz-adv-x="2034" 
d="M248 0q-41 0 -41 41v1454q0 41 41 41h259q36 0 48 -32l435 -1010q10 -26 26 -26t27 26l436 1010q12 32 48 32h259q41 0 41 -41v-1454q0 -41 -41 -41h-175q-41 0 -41 41v994q0 31 -18 35t-29 -25l-429 -1013q-12 -32 -48 -32h-60q-36 0 -48 32l-427 1013
q-12 29 -29.5 24.5t-17.5 -34.5v-994q0 -41 -41 -41h-175z" />
    <glyph glyph-name="N" unicode="N" horiz-adv-x="1825" 
d="M248 0q-41 0 -41 41v1454q0 41 41 41h154q31 0 50 -23l863 -1054q18 -22 34.5 -16t16.5 34v1018q0 41 41 41h170q41 0 41 -41v-1454q0 -41 -41 -41h-155q-31 0 -50 23l-863 1056q-18 22 -34.5 16.5t-16.5 -34.5v-1020q0 -41 -41 -41h-169z" />
    <glyph glyph-name="O" unicode="O" horiz-adv-x="1809" 
d="M904 -20q-167 0 -316 61t-255.5 166t-169 251t-62.5 310t62.5 310t169 251t255.5 166t316 61t316 -61t256 -166t169.5 -251t62.5 -310t-62.5 -310t-169.5 -251t-256 -166t-316 -61zM904 222q151 0 277 72t198 197.5t72 276.5t-72 276.5t-198 197.5t-277 72
q-150 0 -275.5 -72t-198 -197.5t-72.5 -276.5t72.5 -276.5t198 -197.5t275.5 -72z" />
    <glyph glyph-name="P" unicode="P" horiz-adv-x="1420" 
d="M248 0q-41 0 -41 41v1454q0 41 41 41h596q145 0 259 -65.5t174.5 -175.5t60.5 -243q0 -206 -137 -342t-357 -136h-339q-41 0 -41 -41v-492q0 -41 -41 -41h-175zM505 794h304q133 0 205.5 68.5t72.5 190.5q0 119 -73.5 191t-204.5 72h-304q-41 0 -41 -41v-440
q0 -41 41 -41z" />
    <glyph glyph-name="Q" unicode="Q" horiz-adv-x="1835" 
d="M1559 -79q-31 -16 -56 9l-140 145q-25 25 -58 9q-183 -104 -400 -104q-167 0 -316 61t-255.5 166t-169 251t-62.5 310t62.5 310t169 251t255.5 166t316 61t316 -61t256 -166t169 -251t62 -310q0 -293 -183 -509q-25 -31 2 -58l162 -165q32 -35 -11 -58zM905 222
q116 0 209 48q21 7 24 23t-13 32l-224 233q-15 16 -12.5 31.5t23.5 24.5l125 50q31 14 55 -11l202 -207q33 -33 58 3q100 143 100 319q0 151 -72 276.5t-198 197.5t-277 72q-150 0 -275.5 -72t-198 -197.5t-72.5 -276.5t72.5 -276.5t198 -197.5t275.5 -72z" />
    <glyph glyph-name="R" unicode="R" horiz-adv-x="1446" 
d="M248 0q-41 0 -41 41v1454q0 41 41 41h551q212 0 340.5 -128t128.5 -318q0 -129 -65 -231t-175 -152q-39 -19 -19 -55l356 -603q12 -19 3.5 -34t-32.5 -15h-188q-34 0 -49 29l-334 602q-16 29 -49 29h-211q-41 0 -41 -41v-578q0 -41 -41 -41h-175zM464 915q0 -41 41 -41
h275q110 0 174 57.5t64 159.5q0 100 -64.5 161t-173.5 61h-275q-41 0 -41 -41v-357z" />
    <glyph glyph-name="S" unicode="S" horiz-adv-x="1220" 
d="M633 -20q-148 0 -289 58.5t-244 157.5q-26 28 0 57l102 123q27 32 57 -1q76 -80 174 -127t197 -47q106 0 174 54.5t68 147.5q0 42 -18.5 78.5t-36.5 58.5t-70.5 52t-76 41t-97.5 43q-13 6 -20 9q-55 24 -88.5 39t-82 41.5t-79 50t-65 58.5t-53.5 72t-32 86t-13 105
q0 128 62 224.5t165 145.5t231 49q254 0 456 -177q30 -27 4 -58l-88 -117q-26 -33 -58 -1q-150 132 -317 132q-88 0 -146.5 -46t-58.5 -129q0 -39 18 -73t35.5 -55t70 -50t74.5 -39t97 -42q17 -7 25 -11q51 -22 86.5 -38.5t83 -43t79 -51.5t66 -61.5t55 -76t33.5 -91.5
t13 -111q0 -139 -68.5 -240t-178 -149t-246.5 -48z" />
    <glyph glyph-name="T" unicode="T" horiz-adv-x="1183" 
d="M505 0q-41 0 -41 41v1223q0 41 -41 41h-323q-41 0 -41 41v149q0 41 41 41h983q41 0 41 -41v-149q0 -41 -41 -41h-322q-41 0 -41 -41v-1223q0 -41 -41 -41h-174z" />
    <glyph glyph-name="U" unicode="U" horiz-adv-x="1572" 
d="M785 -20q-175 0 -312 62.5t-217 187t-80 293.5v972q0 41 41 41h175q41 0 41 -41v-929q0 -183 95 -269t257 -86q78 0 141.5 20t112 61t75 111t26.5 163v929q0 41 40 41h175q41 0 41 -41v-972q0 -169 -80 -293.5t-217.5 -187t-313.5 -62.5z" />
    <glyph glyph-name="V" unicode="V" horiz-adv-x="1535" 
d="M678 0q-35 0 -47 33l-565 1456q-8 22 1 34.5t32 12.5h182q34 0 46 -33l414 -1106q10 -27 26.5 -27t26.5 27l414 1106q12 33 46 33h182q23 0 31.5 -12.5t1.5 -34.5l-566 -1456q-12 -33 -47 -33h-178z" />
    <glyph glyph-name="W" unicode="W" horiz-adv-x="2245" 
d="M534 0q-36 0 -45 35l-416 1455q-5 21 4.5 33.5t31.5 12.5h182q37 0 45 -36l293 -1063q5 -19 15.5 -26.5t20.5 -0.5t16 26l316 1066q10 34 45 34h161q35 0 45 -34l316 -1066q6 -19 16 -26t20.5 0.5t15.5 26.5l293 1063q8 36 45 36h182q22 0 31.5 -12.5t4.5 -33.5
l-416 -1455q-9 -35 -45 -35h-207q-37 0 -46 34l-309 1013q-9 30 -26 30t-26 -30l-310 -1013q-11 -34 -46 -34h-207z" />
    <glyph glyph-name="X" unicode="X" horiz-adv-x="1438" 
d="M112 0q-25 0 -33 15t6 34l477 707q17 29 0 57l-454 674q-14 19 -6 34t32 15h207q33 0 49 -27l300 -466q12 -19 28.5 -19t28.5 19l301 466q16 27 49 27h206q25 0 33 -15t-6 -34l-455 -672q-17 -29 0 -58l477 -708q14 -19 6.5 -34t-32.5 -15h-208q-33 0 -49 27l-322 501
q-12 20 -28.5 20t-28.5 -20l-321 -501q-16 -27 -49 -27h-208z" />
    <glyph glyph-name="Y" unicode="Y" horiz-adv-x="1404" 
d="M616 0q-41 0 -41 41v653q0 29 -14 51l-491 742q-14 19 -6.5 34t32.5 15h208q34 0 49 -27l322 -512q13 -20 29 -20t29 20l322 512q15 27 49 27h204q25 0 32.5 -15t-6.5 -34l-488 -738q-14 -24 -14 -51v-657q0 -41 -41 -41h-175z" />
    <glyph glyph-name="Z" unicode="Z" horiz-adv-x="1267" 
d="M145 0q-41 0 -41 41v138q0 24 16 51l698 1026q14 22 7.5 35.5t-31.5 13.5h-649q-41 0 -41 41v149q0 41 41 41h978q41 0 41 -41v-140q0 -26 -17 -51l-696 -1024q-14 -20 -6.5 -34.5t32.5 -14.5h646q41 0 41 -41v-149q0 -41 -41 -41h-978z" />
    <glyph glyph-name="bracketleft" unicode="[" horiz-adv-x="701" 
d="M206 -512q-41 0 -41 41v2247q0 41 41 41h399q41 0 41 -41v-97q0 -41 -41 -41h-183q-41 0 -41 -41v-1889q0 -41 41 -41h183q41 0 41 -41v-97q0 -41 -41 -41h-399z" />
    <glyph glyph-name="backslash" unicode="\" horiz-adv-x="1223" 
d="M1026 -381q-34 0 -48 29l-956 1839q-10 22 -1.5 35.5t31.5 13.5h147q34 0 48 -29l954 -1839q11 -21 2.5 -35t-31.5 -14h-146z" />
    <glyph glyph-name="bracketright" unicode="]" horiz-adv-x="701" 
d="M96 -512q-41 0 -41 41v97q0 41 41 41h183q40 0 40 41v1889q0 41 -40 41h-183q-41 0 -41 41v97q0 41 41 41h399q41 0 41 -41v-2247q0 -41 -41 -41h-399z" />
    <glyph glyph-name="asciicircum" unicode="^" horiz-adv-x="1546" 
d="M148 406q-23 0 -32 13.5t1 35.5l531 1050q15 31 47 31h157q31 0 47 -31l530 -1050q10 -22 1 -35.5t-32 -13.5h-120q-32 0 -47 30l-428 851q-11 23 -29 23t-29 -23l-430 -852q-15 -29 -47 -29h-120z" />
    <glyph glyph-name="underscore" unicode="_" horiz-adv-x="1348" 
d="M203 -193q-41 0 -41 41v119q0 41 41 41h942q41 0 41 -41v-119q0 -41 -41 -41h-942z" />
    <glyph glyph-name="grave" unicode="`" horiz-adv-x="496" 
d="M316 1204q-30 0 -51 22l-180 201q-28 33 6 58l62 45q33 26 58 -8l202 -269q15 -22 8 -35.5t-33 -13.5h-72z" />
    <glyph glyph-name="a" unicode="a" horiz-adv-x="1377" 
d="M597 -21q-139 0 -258 71.5t-190.5 199t-71.5 281.5q0 115 42 218t112.5 176t166 115.5t199.5 42.5q194 0 325 -120q20 -19 34 -15.5t14 28.5v42q0 41 40 41h162q41 0 41 -41v-977q0 -41 -41 -41h-162q-41 0 -41 41v37q0 27 -11.5 35t-27.5 -8q-129 -126 -333 -126z
M656 193q141 0 237 96t96 242q0 145 -96 241.5t-237 96.5t-238 -96.5t-97 -241.5q0 -146 96.5 -242t238.5 -96z" />
    <glyph glyph-name="b" unicode="b" horiz-adv-x="1378" 
d="M781 -21q-194 0 -325 118q-20 19 -33.5 15.5t-13.5 -28.5v-43q0 -41 -41 -41h-162q-41 0 -41 41v1454q0 41 41 41h161q41 0 41 -41l1 -513q0 -27 13.5 -32.5t33.5 13.5q131 120 325 120q104 0 199 -42.5t165.5 -115.5t112.5 -176t42 -218q0 -116 -42 -219t-112.5 -175.5
t-165.5 -115t-199 -42.5zM722 193q142 0 238.5 96t96.5 242q0 145 -97 241.5t-238 96.5t-237 -96.5t-96 -241.5q0 -146 96 -242t237 -96z" />
    <glyph glyph-name="c" unicode="c" horiz-adv-x="1142" 
d="M645 -18q-159 0 -289.5 71t-205.5 197t-75 280q0 235 164 392t406 157q127 0 237 -47t189 -132q27 -30 -6 -57l-114 -95q-30 -24 -58 6q-94 111 -249 111q-143 0 -238.5 -95t-95.5 -240t95.5 -239.5t238.5 -94.5q155 0 249 110q28 31 58 7l114 -95q34 -26 9 -54
q-79 -86 -190 -134t-239 -48z" />
    <glyph glyph-name="d" unicode="d" horiz-adv-x="1378" 
d="M597 -21q-139 0 -258 71.5t-190.5 199t-71.5 281.5q0 115 42 218t112.5 176t166 115.5t199.5 42.5q194 0 325 -120q20 -19 33.5 -13.5t13.5 32.5l1 513q0 41 40 41h162q41 0 41 -41v-1454q0 -41 -41 -41h-162q-41 0 -41 41v37q0 27 -11.5 35t-27.5 -8
q-129 -126 -333 -126zM656 193q141 0 237 96t96 242q0 145 -96 241.5t-237 96.5t-238 -96.5t-97 -241.5q0 -146 96.5 -242t238.5 -96z" />
    <glyph glyph-name="e" unicode="e" horiz-adv-x="1246" 
d="M640 -20q-162 0 -292 73.5t-201.5 199t-71.5 277.5q0 113 42.5 214.5t116 175t177.5 117t222 43.5q151 0 274.5 -67t196.5 -188.5t76 -273.5l-1 -17q-2 -18 -13 -29t-29 -11h-783q-20 0 -31 -12t-7 -32q19 -120 110 -195t213 -75q80 0 149.5 32.5t115.5 93.5q24 32 57 18
l120 -51q41 -19 21 -52q-72 -113 -192 -177t-270 -64zM372 653h521q22 0 32 13t1 34q-34 88 -112 140t-179 52q-102 0 -181 -51.5t-116 -140.5q-9 -21 1.5 -34t32.5 -13z" />
    <glyph glyph-name="f" unicode="f" horiz-adv-x="732" 
d="M249 0q-41 0 -41 41v797q0 41 -40 41h-89q-41 0 -41 41v98q0 41 41 41h89q40 0 40 41v103q0 171 85 262t243 91q70 0 134 -17q35 -8 35 -45v-110q0 -44 -47 -36q-33 9 -64 9q-66 0 -103.5 -40t-37.5 -117v-100q0 -41 41 -41h172q41 0 41 -41v-98q0 -41 -41 -41h-172
q-41 0 -41 -41v-797q0 -41 -41 -41h-163z" />
    <glyph glyph-name="g" unicode="g" horiz-adv-x="1350" 
d="M627 -498q-315 0 -496 230q-23 31 8 57l100 89q32 26 57 -10q116 -161 326 -161q155 0 236.5 83.5t81.5 231.5v82q0 27 -13.5 32t-33.5 -13q-118 -112 -298 -112q-220 0 -370 154t-150 383q0 228 149 379.5t368 151.5q183 0 301 -112q20 -19 33.5 -14t13.5 32v33
q0 41 41 41h163q41 0 41 -41v-979q0 -248 -147 -392.5t-411 -144.5zM637 225q134 0 226.5 92t92.5 231q0 138 -93 230.5t-226 92.5q-134 0 -226 -92.5t-92 -230.5q0 -139 92 -231t226 -92z" />
    <glyph glyph-name="h" unicode="h" horiz-adv-x="1249" 
d="M206 0q-41 0 -41 41v1454q0 41 41 41h157q41 0 41 -41v-515q0 -27 13 -31.5t32 16.5q106 114 275 114q176 0 280 -110t104 -315v-613q0 -41 -41 -41h-156q-41 0 -41 41v574q0 135 -61 195t-163 60q-109 0 -175 -67.5t-67 -197.5v-564q0 -41 -41 -41h-157z" />
    <glyph glyph-name="i" unicode="i" horiz-adv-x="573" 
d="M288 1262q-62 0 -106 43t-44 104q0 62 44 104.5t106 42.5q60 0 103.5 -42.5t43.5 -104.5q0 -60 -43.5 -103.5t-103.5 -43.5zM206 0q-41 0 -41 41v977q0 41 41 41h161q41 0 41 -41v-977q0 -41 -41 -41h-161z" />
    <glyph glyph-name="j" unicode="j" horiz-adv-x="574" 
d="M288 1262q-61 0 -105 43t-44 104q0 62 44 104.5t105 42.5t104.5 -42.5t43.5 -104.5q0 -60 -44 -103.5t-104 -43.5zM-106 -496q-43 -3 -43 39v124q0 39 40 42q134 11 204 93.5t70 219.5v996q0 41 41 41h162q41 0 41 -41v-979q0 -238 -135.5 -381t-379.5 -154z" />
    <glyph glyph-name="k" unicode="k" horiz-adv-x="1196" 
d="M206 0q-41 0 -41 41v1454q0 41 41 41h161q41 0 41 -41v-813q0 -28 16.5 -34.5t35.5 14.5l341 374q23 23 51 23h203q26 0 32.5 -15.5t-11.5 -35.5l-388 -410q-27 -28 0 -58l454 -489q18 -19 10.5 -35t-33.5 -16h-214q-31 0 -51 23l-394 437q-19 21 -35.5 14.5t-16.5 -34.5
v-399q0 -41 -41 -41h-161z" />
    <glyph glyph-name="l" unicode="l" horiz-adv-x="573" 
d="M206 0q-41 0 -41 41v1454q0 41 41 41h161q41 0 41 -41v-1454q0 -41 -41 -41h-161z" />
    <glyph glyph-name="m" unicode="m" horiz-adv-x="1823" 
d="M206 0q-41 0 -41 41v977q0 41 41 41h161q41 0 41 -41v-36q0 -28 13 -31.5t32 17.5q101 111 258 111q187 0 272 -128q25 -36 50 -3q110 131 287 131q161 0 260 -96.5t99 -257.5v-684q0 -41 -41 -41h-161q-41 0 -41 41v611q0 110 -52.5 164t-138.5 54q-93 0 -147 -60
t-54 -168v-601q0 -41 -41 -41h-162q-41 0 -41 41v611q0 110 -52.5 164t-138.5 54q-93 0 -147 -60t-54 -168v-601q0 -41 -41 -41h-161z" />
    <glyph glyph-name="n" unicode="n" horiz-adv-x="1254" 
d="M206 0q-41 0 -41 41v977q0 41 41 41h162q41 0 41 -41v-36q0 -28 12.5 -31.5t32.5 16.5q106 112 274 112q176 0 280.5 -110t104.5 -315v-613q0 -41 -41 -41h-163q-41 0 -41 41v574q0 255 -220 255q-107 0 -172.5 -68t-66.5 -197v-564q0 -41 -41 -41h-162z" />
    <glyph glyph-name="o" unicode="o" horiz-adv-x="1290" 
d="M645 -20q-159 0 -289.5 71t-205.5 197.5t-75 281.5q0 154 75 280t205.5 197.5t289.5 71.5q158 0 289 -71.5t206 -197.5t75 -280q0 -116 -44 -218.5t-120 -175t-181.5 -114.5t-224.5 -42zM644 195q140 0 237.5 96t97.5 239q0 142 -97.5 238.5t-237.5 96.5t-237 -96
t-97 -239q0 -144 96.5 -239.5t237.5 -95.5z" />
    <glyph glyph-name="p" unicode="p" horiz-adv-x="1378" 
d="M206 -498q-41 0 -41 41v1475q0 41 41 41h161q41 0 41 -41v-39q0 -27 13.5 -32t33.5 13q130 119 324 119q105 0 200.5 -42t166 -114.5t112.5 -175.5t42 -218q0 -154 -71 -280.5t-190 -197.5t-260 -71q-195 0 -324 117q-20 19 -33.5 14t-13.5 -32v-536q0 -41 -41 -41h-161z
M723 190q141 0 237.5 96.5t96.5 242.5q0 145 -96.5 241t-237.5 96t-237.5 -96t-96.5 -241q0 -146 96.5 -242.5t237.5 -96.5z" />
    <glyph glyph-name="q" unicode="q" horiz-adv-x="1378" 
d="M1010 -498q-40 0 -40 41v536q0 27 -13.5 32t-34.5 -14q-128 -117 -323 -117q-141 0 -260.5 71t-190.5 197.5t-71 280.5q0 115 42 218t112.5 175.5t166.5 114.5t201 42q194 0 323 -119q21 -18 34.5 -13t13.5 32v39q0 41 40 41h162q41 0 41 -41v-1475q0 -41 -41 -41h-162z
M655 190q141 0 237.5 96.5t96.5 242.5q0 145 -96.5 241t-237.5 96t-237.5 -96t-96.5 -241q0 -146 96.5 -242.5t237.5 -96.5z" />
    <glyph glyph-name="r" unicode="r" horiz-adv-x="798" 
d="M206 0q-41 0 -41 41v977q0 41 41 41h153q41 0 41 -41v-75q0 -28 13 -32.5t32 17.5q103 117 278 137q44 6 44 -38v-149q0 -40 -41 -42q-154 -7 -236 -79.5t-82 -226.5v-489q0 -41 -41 -41h-161z" />
    <glyph glyph-name="s" unicode="s" horiz-adv-x="969" 
d="M489 -20q-216 0 -396 115q-33 21 -11 56l66 112q20 36 56 10q64 -44 140 -71.5t145 -27.5q75 0 119.5 32t44.5 90q0 25 -12 46t-26 34t-48 28t-53.5 21.5t-66.5 20.5q-11 3 -16 5q-43 13 -65.5 21t-62 24.5t-61.5 31t-50.5 39t-43.5 51t-26 63.5t-11 81
q0 152 111.5 234.5t278.5 82.5q177 0 327 -87q37 -20 12 -55l-67 -100q-23 -33 -57 -12q-115 66 -224 66q-68 0 -109 -27.5t-41 -77.5q0 -14 3.5 -26.5t13 -23t18 -18.5t25.5 -16.5l29 -14.5t35 -13.5t36.5 -12t40.5 -12.5t41 -12q54 -17 89.5 -31t80.5 -40.5t72 -58t46 -81
t19 -110.5q0 -161 -110.5 -248.5t-291.5 -87.5z" />
    <glyph glyph-name="t" unicode="t" horiz-adv-x="781" 
d="M535 0q-153 0 -241.5 82.5t-88.5 234.5v521q0 41 -41 41h-89q-41 0 -41 41v98q0 41 41 41h89q41 0 41 41v211q0 41 41 41h162q41 0 41 -41v-211q0 -41 41 -41h172q41 0 41 -41v-98q0 -41 -41 -41h-172q-41 0 -41 -41v-494q0 -74 37.5 -112.5t101.5 -38.5h72q41 0 41 -41
v-111q0 -41 -41 -41h-125z" />
    <glyph glyph-name="u" unicode="u" horiz-adv-x="1207" 
d="M603 -20q-217 0 -341.5 106.5t-124.5 294.5v637q0 41 41 41h159q41 0 41 -41v-624q0 -99 62 -149.5t163 -50.5q102 0 163.5 50.5t61.5 149.5v624q0 41 41 41h160q40 0 40 -41v-637q0 -188 -124.5 -294.5t-341.5 -106.5z" />
    <glyph glyph-name="v" unicode="v" horiz-adv-x="1154" 
d="M516 0q-35 0 -49 32l-427 980q-9 21 -0.5 34t31.5 13h172q36 0 48 -33l259 -660q6 -18 16 -24.5t20 0t17 24.5l260 661q12 32 48 32h172q23 0 31.5 -13t-0.5 -34l-430 -981q-12 -31 -47 -31h-121z" />
    <glyph glyph-name="w" unicode="w" horiz-adv-x="1774" 
d="M442 -1q-35 0 -47 33l-352 980q-7 21 2.5 34t31.5 13h171q37 0 47 -34l205 -618q6 -18 16 -25t20.5 -0.5t16.5 23.5l241 621q11 33 46 33h92q36 0 47 -33l240 -620q7 -17 17.5 -23.5t20.5 0.5t16 25l204 617q12 34 48 34h172q22 0 31 -13t2 -34l-354 -980
q-13 -33 -46 -33h-129q-37 0 -47 33l-241 627q-9 27 -26 27t-27 -27l-242 -627q-10 -33 -47 -33h-129z" />
    <glyph glyph-name="x" unicode="x" horiz-adv-x="1226" 
d="M88 0q-26 0 -33 15t10 36l376 451q24 28 0 57l-376 449q-17 20 -10 35.5t33 15.5h197q32 0 50 -25l248 -304q29 -32 58 0l249 305q18 24 51 24h196q26 0 33.5 -15.5t-9.5 -35.5l-377 -450q-23 -28 0 -57l377 -450q17 -21 9.5 -36t-33.5 -15h-197q-32 0 -50 25l-247 302
q-29 34 -58 0l-248 -304q-17 -23 -50 -23h-199z" />
    <glyph glyph-name="y" unicode="y" horiz-adv-x="1111" 
d="M266 -498q-23 0 -32 13t-1 34l188 476q11 25 0 53l-381 934q-9 21 0 34t32 13h182q35 0 47 -34l236 -650q6 -18 16.5 -24t20.5 0.5t16 24.5l229 649q12 34 46 34h174q23 0 32 -13t1 -34l-593 -1477q-13 -33 -47 -33h-166z" />
    <glyph glyph-name="z" unicode="z" horiz-adv-x="1049" 
d="M104 0q-25 0 -32.5 15t6.5 34l495 762q14 19 6 34t-33 15h-419q-41 0 -41 41v117q0 41 41 41h807q25 0 32.5 -14.5t-6.5 -34.5l-496 -762q-14 -20 -6 -34.5t33 -14.5h451q41 0 41 -41v-117q0 -41 -41 -41h-838z" />
    <glyph glyph-name="braceleft" unicode="{" horiz-adv-x="666" 
d="M484 -501q-122 0 -197 86t-75 214v482q0 142 -23 197.5t-100 92.5q-30 13 -30 47v92q0 34 31 47q76 36 99 92.5t23 198.5v480q0 130 75 215.5t197 85.5h72q41 0 41 -41v-112q0 -41 -31 -41h-33q-104 0 -104 -149v-450q0 -135 -31.5 -217t-124.5 -134q-35 -20 0 -42
q93 -52 124.5 -134t31.5 -216v-453q0 -77 24 -111.5t80 -34.5h23q41 0 41 -41v-113q0 -41 -41 -41h-72z" />
    <glyph glyph-name="bar" unicode="|" horiz-adv-x="653" 
d="M289 -307q-41 0 -41 41v1761q0 41 41 41h75q41 0 41 -41v-1761q0 -41 -41 -41h-75z" />
    <glyph glyph-name="braceright" unicode="}" horiz-adv-x="666" 
d="M110 -501q-41 0 -41 41v113q0 41 33 41h31q56 0 80 34.5t24 111.5v453q0 134 31.5 216t124.5 134q35 22 0 42q-93 52 -124.5 134t-31.5 217v450q0 149 -104 149h-23q-41 0 -41 41v112q0 41 41 41h72q122 0 197 -85.5t75 -215.5v-480q0 -142 23 -198.5t99 -92.5
q31 -13 31 -47v-92q0 -34 -30 -47q-77 -37 -100 -92.5t-23 -197.5v-482q0 -128 -75 -214t-197 -86h-72z" />
    <glyph glyph-name="asciitilde" unicode="~" horiz-adv-x="1422" 
d="M921 323q-28 0 -56 5t-48.5 11.5t-44.5 20t-37.5 22t-34 27t-27.5 25t-25 25.5t-20 21q-57 61 -108 61q-59 0 -94.5 -45t-43.5 -115q-5 -41 -42 -41h-109q-20 0 -31 11t-10 30q2 157 92.5 253.5t241.5 96.5q86 0 144.5 -35t117.5 -112q19 -24 32.5 -37t36.5 -25.5
t49 -12.5q53 0 91.5 42.5t43.5 114.5q3 41 41 41h108q19 0 30.5 -11.5t11.5 -32.5q-1 -148 -88 -244t-221 -96z" />
    <glyph glyph-name="exclamdown" unicode="&#xa1;" horiz-adv-x="684" 
d="M335 1044q61 0 105 -43.5t44 -103.5q0 -61 -43.5 -104.5t-105.5 -43.5q-60 0 -103.5 43.5t-43.5 104.5q0 60 43.5 103.5t103.5 43.5zM252 537h167q41 0 41 -41v-967q0 -41 -41 -41h-167q-41 0 -41 41v967q0 41 41 41z" />
    <glyph glyph-name="cent" unicode="&#xa2;" horiz-adv-x="1337" 
d="M652 0q-41 0 -41 41v152q0 37 -37 44q-190 42 -310 188t-120 345t120 345t310 188q37 7 37 44v148q0 41 41 41h67q41 0 41 -41v-139q0 -37 39 -43q203 -26 341 -173q28 -31 -6 -58l-115 -94q-29 -26 -57 6q-96 110 -249 110q-143 0 -238.5 -94.5t-95.5 -239.5
t95.5 -239.5t238.5 -94.5q153 0 249 110q27 32 57 7l115 -95q35 -26 9 -55q-139 -150 -344 -176q-39 -6 -39 -43v-143q0 -41 -41 -41h-67z" />
    <glyph glyph-name="sterling" unicode="&#xa3;" horiz-adv-x="1448" 
d="M199 0q-40 0 -40 41v84q0 38 23 43l21 3q119 15 119 136v298q0 41 -41 41h-82q-40 0 -40 41v113q0 41 40 41h82q41 0 41 41v154q0 227 143 373.5t366 146.5q152 0 284 -89.5t187 -231.5q15 -35 -23 -52l-149 -64q-38 -17 -51 26q-27 84 -96.5 135.5t-151.5 51.5
q-123 0 -195 -79t-72 -217v-154q0 -41 41 -41h266q41 0 41 -41v-113q0 -41 -41 -41h-266q-41 0 -41 -41v-343q0 -41 41 -41h620q41 0 41 -41v-139q0 -41 -41 -41h-1026z" />
    <glyph glyph-name="currency" unicode="&#xa4;" horiz-adv-x="1418" 
d="M707 267q-124 0 -232 60q-31 20 -56 -5l-54 -55q-28 -28 -58 1l-74 80q-26 30 0 58l52 51q27 24 6 56q-60 107 -60 230q0 125 60 231q21 32 -6 56l-50 49q-26 28 0 58l74 80q29 29 58 0l54 -54q25 -25 56 -5q106 62 234 62q122 0 228 -61q31 -20 56 5l52 53q29 27 58 0
l77 -76q27 -29 0 -58l-52 -51q-25 -25 -5 -56q60 -108 60 -233q0 -124 -60 -232q-20 -31 5 -56l51 -49q26 -28 0 -58l-74 -80q-29 -29 -58 -1l-54 55q-25 25 -58 5q-105 -60 -230 -60zM707 454q121 0 205 85.5t84 204.5t-85 203t-204 84q-120 0 -204 -86t-84 -206
q0 -121 84.5 -203t203.5 -82z" />
    <glyph glyph-name="yen" unicode="&#xa5;" horiz-adv-x="1538" 
d="M683 0q-41 0 -41 41v165q0 41 -41 41h-283q-41 0 -41 41v88q0 41 41 41h283q41 0 41 41v73q0 41 -41 41h-283q-41 0 -41 41v96q0 41 41 41h246q25 0 33 15t-6 34l-455 688q-14 19 -6 34t33 15h208q34 0 49 -27l322 -512q13 -20 29 -20t29 20l322 512q15 27 49 27h204
q24 0 32 -15t-6 -34l-454 -688q-14 -19 -6 -34t33 -15h247q41 0 41 -41v-96q0 -41 -41 -41h-281q-41 0 -41 -41v-73q0 -41 41 -41h279q41 0 41 -41v-88q0 -41 -41 -41h-279q-41 0 -41 -41v-165q0 -41 -41 -41h-175z" />
    <glyph glyph-name="brokenbar" unicode="&#xa6;" horiz-adv-x="653" 
d="M289 799q-41 0 -41 41v655q0 41 41 41h75q41 0 41 -41v-655q0 -41 -41 -41h-75zM289 -307q-41 0 -41 41v655q0 41 41 41h75q41 0 41 -41v-655q0 -41 -41 -41h-75z" />
    <glyph glyph-name="section" unicode="&#xa7;" horiz-adv-x="1013" 
d="M507 -8q-170 3 -281 124q-26 29 5 57l65 55q26 24 58 -5q69 -69 159 -70q66 -2 110 30t45 95q1 41 -20.5 73.5t-57 53.5t-81.5 43t-93.5 40.5t-93 48t-81 64.5t-55.5 90t-18 124q3 111 72 188q24 29 -1 57q-74 77 -70 193q3 94 51.5 162t122.5 99.5t163 29.5
q164 -3 280 -124q27 -30 -5 -58l-63 -53q-27 -26 -58 4q-69 70 -159 72q-67 1 -111 -30t-47 -96q-2 -46 25.5 -81t72.5 -59t99.5 -46t109 -50.5t99 -65t71 -96.5t23.5 -138q-3 -113 -69 -190q-24 -28 -1 -56q73 -78 69 -192q-4 -141 -101 -218.5t-234 -74.5zM554 611
q29 -15 54 -1q60 37 65 117q1 22 -5.5 42.5t-14.5 35.5t-27 30.5t-32.5 25.5t-42 24t-43.5 21t-48 21q-31 14 -54 0q-30 -16 -47 -47.5t-19 -69.5q-2 -37 12.5 -66t47.5 -52t61 -38t79 -37q9 -4 14 -6z" />
    <glyph glyph-name="dieresis" unicode="&#xa8;" horiz-adv-x="929" 
d="M261 1288q-55 0 -95 39.5t-40 94.5q0 56 40 95t95 39t95 -39t40 -95q0 -55 -40 -94.5t-95 -39.5zM667 1288q-56 0 -95.5 39.5t-39.5 94.5q0 56 39.5 95t95.5 39t95 -39t39 -95t-39.5 -95t-94.5 -39z" />
    <glyph glyph-name="copyright" unicode="&#xa9;" horiz-adv-x="1856" 
d="M928 -20q-160 0 -306 62.5t-251.5 168t-168 251.5t-62.5 306t62.5 306t168 251.5t251.5 168t306 62.5q128 0 248.5 -40t217.5 -113t170 -170t113 -217t40 -248t-40 -248t-113 -217t-170 -170t-217.5 -113t-248.5 -40zM928 116q180 0 330 86.5t236.5 236.5t86.5 329
t-86.5 329t-236.5 236.5t-330 86.5q-179 0 -329 -86.5t-236.5 -236.5t-86.5 -329t86.5 -329t236.5 -236.5t329 -86.5zM932 330q-182 0 -310 128t-128 310q0 183 128 310.5t310 127.5q81 0 159.5 -31t136.5 -85q29 -29 -2 -58l-46 -35q-26 -25 -57 1q-81 70 -191 70
q-126 0 -211.5 -86t-85.5 -214q0 -126 85.5 -212t211.5 -86q110 0 191 70q31 26 57 1l46 -35q31 -30 3 -58q-59 -55 -137.5 -86.5t-159.5 -31.5z" />
    <glyph glyph-name="ordfeminine" unicode="&#xaa;" horiz-adv-x="985" 
d="M427 909q-127 0 -216.5 93.5t-89.5 226.5t89.5 226t216.5 93q111 0 184 -75q16 -16 26.5 -13.5t10.5 21.5v14q0 41 41 41h67q41 0 41 -41v-532q0 -41 -41 -41h-67q-41 0 -41 41v8q0 21 -10 25t-25 -12q-77 -75 -186 -75zM458 1039q78 0 134 55.5t56 134.5q0 78 -56 132.5
t-134 54.5q-79 0 -133.5 -54.5t-54.5 -132.5q0 -79 54.5 -134.5t133.5 -55.5z" />
    <glyph glyph-name="guillemotleft" unicode="&#xab;" horiz-adv-x="1088" 
d="M406 195q-33 0 -51 24l-266 324q-24 29 0 57l266 324q18 24 51 24h105q27 0 34 -14.5t-10 -36.5l-245 -297q-24 -28 0 -57l245 -297q17 -22 10 -36.5t-34 -14.5h-105zM840 195q-32 0 -51 24l-266 324q-23 29 0 57l266 324q19 24 51 24h108q26 0 33.5 -14.5t-8.5 -36.5
l-246 -297q-23 -28 0 -57l246 -297q16 -22 8.5 -36.5t-33.5 -14.5h-108z" />
    <glyph glyph-name="logicalnot" unicode="&#xac;" horiz-adv-x="1698" 
d="M1288 196q-41 0 -41 41v442q0 41 -41 41h-1030q-41 0 -41 41v125q0 41 41 41h1235q41 0 41 -41v-649q0 -41 -41 -41h-123z" />
    <glyph glyph-name="uni00AD" unicode="&#xad;" horiz-adv-x="1040" 
d="M203 427q-41 0 -41 41v128q0 41 41 41h635q41 0 41 -41v-128q0 -41 -41 -41h-635z" />
    <glyph glyph-name="registered" unicode="&#xae;" horiz-adv-x="1856" 
d="M928 -20q-160 0 -306 62.5t-251.5 168t-168 251.5t-62.5 306t62.5 306t168 251.5t251.5 168t306 62.5q128 0 248.5 -40t217.5 -113t170 -170t113 -217t40 -248t-40 -248t-113 -217t-170 -170t-217.5 -113t-248.5 -40zM928 116q180 0 330 86.5t236.5 236.5t86.5 329
t-86.5 329t-236.5 236.5t-330 86.5q-179 0 -329 -86.5t-236.5 -236.5t-86.5 -329t86.5 -329t236.5 -236.5t329 -86.5zM689 304q-41 0 -41 40v848q0 41 41 41h322q113 0 191 -78t78 -190q0 -71 -32.5 -130t-88.5 -94q-33 -22 -19 -55l145 -335q9 -22 1 -34.5t-31 -12.5h-76
q-36 0 -48 31l-140 332q-12 31 -49 31h-102q-41 0 -41 -41v-313q0 -40 -41 -40h-69zM799 872q0 -41 41 -41h151q61 0 101.5 35.5t40.5 95.5q0 59 -41 96.5t-101 37.5h-151q-41 0 -41 -41v-183z" />
    <glyph glyph-name="macron" unicode="&#xaf;" horiz-adv-x="957" 
d="M194 1232q-41 0 -41 41v71q0 41 41 41h569q41 0 41 -41v-71q0 -41 -41 -41h-569z" />
    <glyph glyph-name="degree" unicode="&#xb0;" horiz-adv-x="946" 
d="M472 972q-122 0 -207.5 85.5t-85.5 206.5t85.5 206.5t207.5 85.5t207 -85t85 -207t-85 -207t-207 -85zM472 1109q65 0 109.5 45t44.5 110t-44.5 110t-109.5 45t-109.5 -45t-44.5 -110t44.5 -110t109.5 -45z" />
    <glyph glyph-name="plusminus" unicode="&#xb1;" horiz-adv-x="1307" 
d="M596 358q-41 0 -41 41v311q0 41 -41 41h-312q-41 0 -41 41v122q0 41 41 41h312q41 0 41 41v312q0 41 41 41h122q41 0 41 -41v-312q0 -41 41 -41h312q41 0 41 -41v-122q0 -41 -41 -41h-312q-41 0 -41 -41v-311q0 -41 -41 -41h-122zM188 2q-41 0 -41 41v122q0 41 41 41h924
q41 0 41 -41v-122q0 -41 -41 -41h-924z" />
    <glyph glyph-name="acute" unicode="&#xb4;" horiz-adv-x="490" 
d="M176 1204h-72q-26 0 -33 13.5t8 35.5l202 269q25 34 58 8l62 -45q34 -25 6 -58l-180 -201q-21 -22 -51 -22z" />
    <glyph glyph-name="mu" unicode="&#xb5;" horiz-adv-x="1382" 
d="M288 -512q-41 0 -41 41v1454q0 41 41 41h144q41 0 41 -41v-567q0 -99 69 -168.5t169 -69.5q105 0 178 69.5t73 168.5v567q0 41 41 41h143q41 0 41 -41v-942q0 -41 -41 -41h-143q-41 0 -41 41v25q0 27 -13.5 32t-34.5 -14q-112 -104 -266 -104q-98 0 -184 48
q-22 13 -35 5.5t-13 -31.5v-473q0 -41 -41 -41h-87z" />
    <glyph glyph-name="paragraph" unicode="&#xb6;" horiz-adv-x="1216" 
d="M559 -307q-41 0 -41 41v1075q0 40 -36 42q-7 0 -20 0.5t-19 0.5q-162 8 -250 96.5t-88 245.5q0 165 96.5 253.5t267.5 88.5h136q41 0 41 -41v-1761q0 -41 -41 -41h-46zM879 -307q-41 0 -41 41v1761q0 41 41 41h48q40 0 40 -41v-1761q0 -41 -40 -41h-48z" />
    <glyph glyph-name="periodcentered" unicode="&#xb7;" horiz-adv-x="619" 
d="M310 625q-46 0 -79 32.5t-33 79.5q0 45 33.5 78.5t78.5 33.5t79 -33.5t34 -78.5q0 -47 -34 -79.5t-79 -32.5z" />
    <glyph glyph-name="cedilla" unicode="&#xb8;" horiz-adv-x="624" 
d="M316 -532q-67 0 -125 30t-92 79q-12 17 -6 31t26 22l42 14q28 12 55 -15q41 -38 97 -38q40 0 68.5 27.5t28.5 69.5q0 44 -28 69t-72 25q-27 0 -51 -10q-34 -13 -55 1l-36 21q-32 21 -16 56l81 154h126l-40 -77q-23 -44 -7 -47q5 -1 27 -1q85 0 140.5 -53.5t55.5 -137.5
q0 -92 -63.5 -156t-155.5 -64z" />
    <glyph glyph-name="ordmasculine" unicode="&#xba;" horiz-adv-x="889" 
d="M443 909q-141 0 -239 93t-98 227q0 133 98 226t239 93q142 0 240.5 -93t98.5 -226q0 -134 -98.5 -227t-240.5 -93zM443 1039q78 0 133.5 55.5t55.5 134.5q0 78 -55.5 132.5t-133.5 54.5q-79 0 -134 -54.5t-55 -132.5q0 -79 55 -134.5t134 -55.5z" />
    <glyph glyph-name="guillemotright" unicode="&#xbb;" horiz-adv-x="1088" 
d="M140 195q-27 0 -34 14.5t10 36.5l245 297q24 29 0 57l-245 297q-17 22 -10 36.5t34 14.5h105q31 0 51 -24l266 -324q23 -28 0 -57l-266 -324q-20 -24 -51 -24h-105zM574 195q-27 0 -34 14.5t10 36.5l245 297q24 29 0 57l-245 297q-17 22 -10 36.5t34 14.5h108
q33 0 51 -24l266 -324q24 -28 0 -57l-266 -324q-18 -24 -51 -24h-108z" />
    <glyph glyph-name="onequarter" unicode="&#xbc;" horiz-adv-x="1641" 
d="M227 614q-16 0 -16 17l1 744l-174 -135q-8 -6 -14 -3.5t-6 12.5v119q0 10 9 21l189 140q8 7 20 7h121q17 0 17 -16v-889q0 -17 -17 -17h-130zM258 0q-23 0 -32 15t3 34l824 1458q14 29 49 29h94q23 0 31.5 -15t-3.5 -34l-823 -1458q-14 -29 -49 -29h-94zM1343 0
q-16 0 -16 16v179h-413q-17 0 -17 16v99q0 5 7 21l362 580q7 11 20 11h183q16 0 16 -17v-582h77q16 0 16 -17v-95q0 -16 -16 -16h-77v-179q0 -16 -16 -16h-126zM1046 323h281v468z" />
    <glyph glyph-name="onehalf" unicode="&#xbd;" horiz-adv-x="1684" 
d="M227 614q-16 0 -16 17l1 744l-174 -135q-8 -6 -14 -3.5t-6 12.5v119q0 10 9 21l189 140q8 7 20 7h121q17 0 17 -16v-889q0 -17 -17 -17h-130zM258 0q-23 0 -32 15t3 34l824 1458q14 29 49 29h94q23 0 31.5 -15t-3.5 -34l-823 -1458q-14 -29 -49 -29h-94zM1014 0
q-17 0 -17 16v124q0 11 11 19q139 107 228 186.5t132 135.5t57.5 92t14.5 74q0 79 -39 114.5t-95 33.5q-62 -2 -95 -39.5t-35 -96.5q-2 -17 -18 -17h-134q-18 0 -15 17q4 123 89.5 200t214.5 77q125 0 204.5 -75t81.5 -197q2 -123 -93.5 -247.5t-327.5 -287.5h425
q17 0 17 -16v-97q0 -16 -17 -16h-589z" />
    <glyph glyph-name="threequarters" unicode="&#xbe;" horiz-adv-x="1850" 
d="M348 602q-124 0 -211 72t-94 183q0 17 17 17l134 1q17 0 18 -16q6 -54 44 -84.5t93 -30.5q63 0 103 41t40 109q0 66 -41.5 104t-114.5 38h-36q-16 0 -16 17v97q0 16 16 16h27q60 0 94 34.5t34 92.5q0 54 -32 86t-81 32q-47 0 -76 -26t-33 -77q-3 -17 -18 -17l-131 2
q-16 0 -16 16q7 108 83.5 173.5t190.5 65.5q113 0 188.5 -70t75.5 -176q0 -115 -89 -177q66 -35 103 -94.5t37 -135.5q0 -123 -88.5 -208t-220.5 -85zM467 0q-23 0 -32 15t3 34l824 1458q14 29 49 29h94q23 0 31.5 -15t-3.5 -34l-823 -1458q-14 -29 -49 -29h-94zM1552 0
q-16 0 -16 16v179h-413q-17 0 -17 16v99q0 5 7 21l362 580q7 11 20 11h183q16 0 16 -17v-582h77q16 0 16 -17v-95q0 -16 -16 -16h-77v-179q0 -16 -16 -16h-126zM1255 323h281v468z" />
    <glyph glyph-name="questiondown" unicode="&#xbf;" horiz-adv-x="1143" 
d="M554 1046q61 0 104.5 -43t43.5 -104t-43.5 -104.5t-104.5 -43.5t-104.5 43.5t-43.5 104.5t43 104t105 43zM632 571q41 0 41 -41v-313q0 -41 -41 -41q-58 -1 -100 -6.5t-88.5 -21t-75 -42t-47.5 -73t-19 -110.5q0 -109 73 -174t186 -65q102 0 172 57t85 149q6 39 42 39
h139q43 0 40 -42q-16 -182 -148 -296.5t-329 -114.5q-207 0 -342.5 123.5t-135.5 321.5q0 81 21 148t54 110t78 75t87 48t88 25q37 6 37 43v160q0 41 41 41h142z" />
    <glyph glyph-name="Agrave" unicode="&#xc0;" horiz-adv-x="1584" 
d="M740 1681q-30 0 -51 22l-180 201q-28 33 6 58l62 45q33 26 58 -8l202 -269q15 -22 8 -35.5t-33 -13.5h-72zM99 0q-23 0 -31.5 12.5t0.5 34.5l569 1457q13 32 47 32h214q36 0 47 -32l571 -1457q8 -22 -0.5 -34.5t-31.5 -12.5h-181q-34 0 -46 33l-99 260q-14 33 -47 33
h-638q-34 0 -46 -33l-100 -260q-12 -33 -46 -33h-182zM570 549h443q23 0 31.5 12.5t1.5 34.5l-228 597q-6 17 -16 23.5t-20 0t-17 -23.5l-228 -597q-7 -22 2 -34.5t31 -12.5z" />
    <glyph glyph-name="Aacute" unicode="&#xc1;" horiz-adv-x="1584" 
d="M822 1681h-72q-26 0 -33 13.5t8 35.5l202 269q25 34 58 8l62 -45q34 -25 6 -58l-180 -201q-21 -22 -51 -22zM99 0q-23 0 -31.5 12.5t0.5 34.5l569 1457q13 32 47 32h214q36 0 47 -32l571 -1457q8 -22 -0.5 -34.5t-31.5 -12.5h-181q-34 0 -46 33l-99 260q-14 33 -47 33
h-638q-34 0 -46 -33l-100 -260q-12 -33 -46 -33h-182zM570 549h443q23 0 31.5 12.5t1.5 34.5l-228 597q-6 17 -16 23.5t-20 0t-17 -23.5l-228 -597q-7 -22 2 -34.5t31 -12.5z" />
    <glyph glyph-name="Acircumflex" unicode="&#xc2;" horiz-adv-x="1584" 
d="M661 1740q-18 -26 -50 -26h-67q-25 0 -32.5 15t6.5 35l162 223q17 26 49 26h124q32 0 49 -26l162 -223q14 -21 7 -35.5t-32 -14.5h-69q-33 0 -49 26l-100 142q-13 18 -29 17.5t-29 -17.5zM99 0q-23 0 -31.5 12.5t0.5 34.5l569 1457q13 32 47 32h214q36 0 47 -32
l571 -1457q8 -22 -0.5 -34.5t-31.5 -12.5h-181q-34 0 -46 33l-99 260q-14 33 -47 33h-638q-34 0 -46 -33l-100 -260q-12 -33 -46 -33h-182zM570 549h443q23 0 31.5 12.5t1.5 34.5l-228 597q-6 17 -16 23.5t-20 0t-17 -23.5l-228 -597q-7 -22 2 -34.5t31 -12.5z" />
    <glyph glyph-name="Atilde" unicode="&#xc3;" horiz-adv-x="1584" 
d="M930 1728q-119 0 -192 114q-34 53 -82 53q-38 0 -61.5 -31t-29.5 -82q-3 -41 -42 -41h-47q-43 0 -40 43q10 107 67.5 172t148.5 65q118 0 192 -113q33 -54 84 -54q77 0 90 113q3 41 42 41h47q43 0 40 -47q-12 -104 -68.5 -168.5t-148.5 -64.5zM99 0q-23 0 -31.5 12.5
t0.5 34.5l569 1457q13 32 47 32h214q36 0 47 -32l571 -1457q8 -22 -0.5 -34.5t-31.5 -12.5h-181q-34 0 -46 33l-99 260q-14 33 -47 33h-638q-34 0 -46 -33l-100 -260q-12 -33 -46 -33h-182zM570 549h443q23 0 31.5 12.5t1.5 34.5l-228 597q-6 17 -16 23.5t-20 0t-17 -23.5
l-228 -597q-7 -22 2 -34.5t31 -12.5z" />
    <glyph glyph-name="Adieresis" unicode="&#xc4;" horiz-adv-x="1584" 
d="M589 1765q-55 0 -95 39.5t-40 94.5q0 56 40 95t95 39t95 -39t40 -95q0 -55 -40 -94.5t-95 -39.5zM995 1765q-56 0 -95.5 39.5t-39.5 94.5q0 56 39.5 95t95.5 39t95 -39t39 -95q0 -55 -39.5 -94.5t-94.5 -39.5zM99 0q-23 0 -31.5 12.5t0.5 34.5l569 1457q13 32 47 32h214
q36 0 47 -32l571 -1457q8 -22 -0.5 -34.5t-31.5 -12.5h-181q-34 0 -46 33l-99 260q-14 33 -47 33h-638q-34 0 -46 -33l-100 -260q-12 -33 -46 -33h-182zM570 549h443q23 0 31.5 12.5t1.5 34.5l-228 597q-6 17 -16 23.5t-20 0t-17 -23.5l-228 -597q-7 -22 2 -34.5t31 -12.5z
" />
    <glyph glyph-name="Aring" unicode="&#xc5;" horiz-adv-x="1584" 
d="M792 1658q-97 0 -166 68.5t-69 164.5q0 95 69 163t166 68q95 0 162.5 -68t67.5 -163q0 -96 -67.5 -164.5t-162.5 -68.5zM792 1770q50 0 84.5 34t34.5 87q0 49 -35 85.5t-84 36.5t-83.5 -36.5t-34.5 -85.5q0 -53 33.5 -87t84.5 -34zM99 0q-23 0 -31.5 12.5t0.5 34.5
l569 1457q13 32 47 32h214q36 0 47 -32l571 -1457q8 -22 -0.5 -34.5t-31.5 -12.5h-181q-34 0 -46 33l-99 260q-14 33 -47 33h-638q-34 0 -46 -33l-100 -260q-12 -33 -46 -33h-182zM570 549h443q23 0 31.5 12.5t1.5 34.5l-228 597q-6 17 -16 23.5t-20 0t-17 -23.5l-228 -597
q-7 -22 2 -34.5t31 -12.5z" />
    <glyph glyph-name="AE" unicode="&#xc6;" horiz-adv-x="2012" 
d="M99 0q-23 0 -31.5 12.5t0.5 34.5l569 1457q13 32 47 32h1161q41 0 41 -41v-149q0 -41 -41 -41h-562q-41 0 -41 -41v-341q0 -41 41 -41h476q41 0 41 -41v-149q0 -41 -41 -41h-476q-41 0 -41 -41v-338q0 -41 41 -41h562q41 0 41 -41v-149q0 -41 -41 -41h-819q-41 0 -41 41
v244q0 41 -41 41h-467q-34 0 -46 -33l-98 -260q-12 -33 -46 -33h-188zM574 549h370q41 0 41 41v673q0 41 -41 41h-102q-34 0 -47 -33l-254 -675q-7 -22 2 -34.5t31 -12.5z" />
    <glyph glyph-name="Ccedilla" unicode="&#xc7;" horiz-adv-x="1545" 
d="M1451 246q32 -30 2 -56q-100 -91 -232.5 -146t-273.5 -63l-28 -54q-23 -44 -7 -47q5 -1 27 -1q85 0 140.5 -53.5t55.5 -137.5q0 -92 -63.5 -156t-155.5 -64q-67 0 -125 30t-92 79q-12 17 -6 31t26 22l42 14q28 12 55 -15q41 -38 97 -38q40 0 68.5 27.5t28.5 69.5
q0 44 -28 69t-72 25q-27 0 -51 -10q-34 -13 -55 1l-36 21q-32 21 -16 56l70 134q-204 19 -368.5 125.5t-258.5 279.5t-94 379q0 165 62 311t169 250.5t256 165.5t316 61q151 0 295 -55.5t252 -153.5q32 -27 0 -57l-122 -116q-27 -29 -58 0q-72 66 -168 103t-199 37
q-113 0 -214 -42.5t-174 -115t-115.5 -173.5t-42.5 -215t42.5 -215t115.5 -173.5t174 -115t214 -42.5q103 0 199 37t168 104q30 27 58 -1z" />
    <glyph glyph-name="Egrave" unicode="&#xc8;" horiz-adv-x="1225" 
d="M605 1681q-30 0 -51 22l-180 201q-28 33 6 58l62 45q33 26 58 -8l202 -269q15 -22 8 -35.5t-33 -13.5h-72zM248 0q-41 0 -41 41v1454q0 41 41 41h811q41 0 41 -41v-149q0 -41 -41 -41h-554q-41 0 -41 -41v-342q0 -41 41 -41h476q41 0 41 -41v-147q0 -41 -41 -41h-476
q-41 0 -41 -41v-339q0 -41 41 -41h554q41 0 41 -41v-149q0 -41 -41 -41h-811z" />
    <glyph glyph-name="Eacute" unicode="&#xc9;" horiz-adv-x="1225" 
d="M687 1681h-72q-26 0 -33 13.5t8 35.5l202 269q25 34 58 8l62 -45q34 -25 6 -58l-180 -201q-21 -22 -51 -22zM248 0q-41 0 -41 41v1454q0 41 41 41h811q41 0 41 -41v-149q0 -41 -41 -41h-554q-41 0 -41 -41v-342q0 -41 41 -41h476q41 0 41 -41v-147q0 -41 -41 -41h-476
q-41 0 -41 -41v-339q0 -41 41 -41h554q41 0 41 -41v-149q0 -41 -41 -41h-811z" />
    <glyph glyph-name="Ecircumflex" unicode="&#xca;" horiz-adv-x="1225" 
d="M526 1740q-18 -26 -50 -26h-67q-25 0 -32.5 15t6.5 35l162 223q17 26 49 26h124q32 0 49 -26l162 -223q14 -21 7 -35.5t-32 -14.5h-69q-33 0 -49 26l-100 142q-13 18 -29 17.5t-29 -17.5zM248 0q-41 0 -41 41v1454q0 41 41 41h811q41 0 41 -41v-149q0 -41 -41 -41h-554
q-41 0 -41 -41v-342q0 -41 41 -41h476q41 0 41 -41v-147q0 -41 -41 -41h-476q-41 0 -41 -41v-339q0 -41 41 -41h554q41 0 41 -41v-149q0 -41 -41 -41h-811z" />
    <glyph glyph-name="Edieresis" unicode="&#xcb;" horiz-adv-x="1225" 
d="M454 1765q-55 0 -95 39.5t-40 94.5q0 56 40 95t95 39t95 -39t40 -95q0 -55 -40 -94.5t-95 -39.5zM860 1765q-56 0 -95.5 39.5t-39.5 94.5q0 56 39.5 95t95.5 39t95 -39t39 -95q0 -55 -39 -94.5t-95 -39.5zM248 0q-41 0 -41 41v1454q0 41 41 41h811q41 0 41 -41v-149
q0 -41 -41 -41h-554q-41 0 -41 -41v-342q0 -41 41 -41h476q41 0 41 -41v-147q0 -41 -41 -41h-476q-41 0 -41 -41v-339q0 -41 41 -41h554q41 0 41 -41v-149q0 -41 -41 -41h-811z" />
    <glyph glyph-name="Igrave" unicode="&#xcc;" horiz-adv-x="671" 
d="M282 1681q-30 0 -51 22l-180 201q-28 33 6 58l62 45q33 26 58 -8l202 -269q15 -22 8 -35.5t-33 -13.5h-72zM248 0q-41 0 -41 41v1454q0 41 41 41h175q41 0 41 -41v-1454q0 -41 -41 -41h-175z" />
    <glyph glyph-name="Iacute" unicode="&#xcd;" horiz-adv-x="671" 
d="M364 1681h-72q-26 0 -33 13.5t8 35.5l202 269q25 34 58 8l62 -45q34 -25 6 -58l-180 -201q-21 -22 -51 -22zM248 0q-41 0 -41 41v1454q0 41 41 41h175q41 0 41 -41v-1454q0 -41 -41 -41h-175z" />
    <glyph glyph-name="Icircumflex" unicode="&#xce;" horiz-adv-x="671" 
d="M203 1740q-18 -26 -50 -26h-67q-25 0 -32.5 15t6.5 35l162 223q17 26 49 26h124q32 0 49 -26l162 -223q14 -21 7 -35.5t-32 -14.5h-69q-33 0 -49 26l-100 142q-13 18 -29 17.5t-29 -17.5zM248 0q-41 0 -41 41v1454q0 41 41 41h175q41 0 41 -41v-1454q0 -41 -41 -41h-175z
" />
    <glyph glyph-name="Idieresis" unicode="&#xcf;" horiz-adv-x="671" 
d="M131 1765q-55 0 -95 39.5t-40 94.5q0 56 40 95t95 39t95 -39t40 -95q0 -55 -40 -94.5t-95 -39.5zM537 1765q-56 0 -95.5 39.5t-39.5 94.5q0 56 39.5 95t95.5 39t95 -39t39 -95q0 -55 -39.5 -94.5t-94.5 -39.5zM248 0q-41 0 -41 41v1454q0 41 41 41h175q41 0 41 -41v-1454
q0 -41 -41 -41h-175z" />
    <glyph glyph-name="Eth" unicode="&#xd0;" horiz-adv-x="1598" 
d="M713 1536q370 0 573 -207t203 -561t-203 -561t-573 -207h-465q-41 0 -41 41v648h-109q-41 0 -41 41v76q0 41 41 41h109v648q0 41 41 41h465zM703 231q260 0 391 138t131 399t-131 399t-391 138h-200q-41 0 -41 -41v-417h213q41 0 41 -41v-76q0 -41 -41 -41h-213v-417
q0 -41 41 -41h200z" />
    <glyph glyph-name="Ntilde" unicode="&#xd1;" horiz-adv-x="1825" 
d="M1053 1728q-119 0 -192 114q-34 53 -82 53q-38 0 -61.5 -31t-29.5 -82q-3 -41 -42 -41h-47q-43 0 -40 43q10 107 67.5 172t148.5 65q118 0 192 -113q33 -54 84 -54q77 0 90 113q3 41 42 41h47q43 0 40 -47q-12 -104 -68.5 -168.5t-148.5 -64.5zM248 0q-41 0 -41 41v1454
q0 41 41 41h154q31 0 50 -23l863 -1054q18 -22 34.5 -16t16.5 34v1018q0 41 41 41h170q41 0 41 -41v-1454q0 -41 -41 -41h-155q-31 0 -50 23l-863 1056q-18 22 -34.5 16.5t-16.5 -34.5v-1020q0 -41 -41 -41h-169z" />
    <glyph glyph-name="Ograve" unicode="&#xd2;" horiz-adv-x="1809" 
d="M852 1681q-30 0 -51 22l-180 201q-28 33 6 58l62 45q33 26 58 -8l202 -269q15 -22 8 -35.5t-33 -13.5h-72zM904 -20q-167 0 -316 61t-255.5 166t-169 251t-62.5 310t62.5 310t169 251t255.5 166t316 61t316 -61t256 -166t169.5 -251t62.5 -310t-62.5 -310t-169.5 -251
t-256 -166t-316 -61zM904 222q151 0 277 72t198 197.5t72 276.5t-72 276.5t-198 197.5t-277 72q-150 0 -275.5 -72t-198 -197.5t-72.5 -276.5t72.5 -276.5t198 -197.5t275.5 -72z" />
    <glyph glyph-name="Oacute" unicode="&#xd3;" horiz-adv-x="1809" 
d="M934 1681h-72q-26 0 -33 13.5t8 35.5l202 269q25 34 58 8l62 -45q34 -25 6 -58l-180 -201q-21 -22 -51 -22zM904 -20q-167 0 -316 61t-255.5 166t-169 251t-62.5 310t62.5 310t169 251t255.5 166t316 61t316 -61t256 -166t169.5 -251t62.5 -310t-62.5 -310t-169.5 -251
t-256 -166t-316 -61zM904 222q151 0 277 72t198 197.5t72 276.5t-72 276.5t-198 197.5t-277 72q-150 0 -275.5 -72t-198 -197.5t-72.5 -276.5t72.5 -276.5t198 -197.5t275.5 -72z" />
    <glyph glyph-name="Ocircumflex" unicode="&#xd4;" horiz-adv-x="1809" 
d="M773 1740q-18 -26 -50 -26h-67q-25 0 -32.5 15t6.5 35l162 223q17 26 49 26h124q32 0 49 -26l162 -223q14 -21 7 -35.5t-32 -14.5h-69q-33 0 -49 26l-100 142q-13 18 -29 17.5t-29 -17.5zM904 -20q-167 0 -316 61t-255.5 166t-169 251t-62.5 310t62.5 310t169 251
t255.5 166t316 61t316 -61t256 -166t169.5 -251t62.5 -310t-62.5 -310t-169.5 -251t-256 -166t-316 -61zM904 222q151 0 277 72t198 197.5t72 276.5t-72 276.5t-198 197.5t-277 72q-150 0 -275.5 -72t-198 -197.5t-72.5 -276.5t72.5 -276.5t198 -197.5t275.5 -72z" />
    <glyph glyph-name="Otilde" unicode="&#xd5;" horiz-adv-x="1809" 
d="M1042 1728q-119 0 -192 114q-34 53 -82 53q-38 0 -61.5 -31t-29.5 -82q-3 -41 -42 -41h-47q-43 0 -40 43q10 107 67.5 172t148.5 65q118 0 192 -113q33 -54 84 -54q77 0 90 113q3 41 42 41h47q43 0 40 -47q-12 -104 -68.5 -168.5t-148.5 -64.5zM904 -20q-167 0 -316 61
t-255.5 166t-169 251t-62.5 310t62.5 310t169 251t255.5 166t316 61t316 -61t256 -166t169.5 -251t62.5 -310t-62.5 -310t-169.5 -251t-256 -166t-316 -61zM904 222q151 0 277 72t198 197.5t72 276.5t-72 276.5t-198 197.5t-277 72q-150 0 -275.5 -72t-198 -197.5
t-72.5 -276.5t72.5 -276.5t198 -197.5t275.5 -72z" />
    <glyph glyph-name="Odieresis" unicode="&#xd6;" horiz-adv-x="1809" 
d="M701 1765q-55 0 -95 39.5t-40 94.5q0 56 40 95t95 39t95 -39t40 -95q0 -55 -40 -94.5t-95 -39.5zM1107 1765q-56 0 -95.5 39.5t-39.5 94.5q0 56 39.5 95t95.5 39t95 -39t39 -95q0 -55 -39.5 -94.5t-94.5 -39.5zM904 -20q-167 0 -316 61t-255.5 166t-169 251t-62.5 310
t62.5 310t169 251t255.5 166t316 61t316 -61t256 -166t169.5 -251t62.5 -310t-62.5 -310t-169.5 -251t-256 -166t-316 -61zM904 222q151 0 277 72t198 197.5t72 276.5t-72 276.5t-198 197.5t-277 72q-150 0 -275.5 -72t-198 -197.5t-72.5 -276.5t72.5 -276.5t198 -197.5
t275.5 -72z" />
    <glyph glyph-name="multiply" unicode="&#xd7;" horiz-adv-x="1101" 
d="M312 301q-30 -30 -58 0l-86 87q-27 30 0 57l210 210q28 28 0 57l-210 208q-28 28 0 57l86 88q28 28 58 0l210 -209q30 -28 58 0l208 209q28 29 57 0l88 -88q29 -29 0 -57l-211 -208q-28 -29 0 -57l211 -210q29 -29 0 -57l-88 -87q-28 -30 -57 0l-208 209q-28 28 -58 0z
" />
    <glyph glyph-name="Oslash" unicode="&#xd8;" horiz-adv-x="1809" 
d="M378 -54l-60 36q-36 22 -12 57l59 87q23 33 -7 57q-121 109 -189 260.5t-68 324.5q0 164 62.5 310t169 251t255.5 166t316 61q189 0 354 -77q37 -17 57 14l59 84q22 36 57 13l60 -37q33 -22 11 -58l-60 -85q-22 -33 7 -57q123 -109 191 -260t68 -325q0 -164 -62.5 -310
t-169.5 -251t-256 -166t-316 -61q-188 0 -353 77q-38 17 -57 -14l-59 -84q-21 -34 -57 -13zM500 398q30 -33 57 5l569 816q13 18 8.5 33.5t-25.5 22.5q-97 39 -205 39q-150 0 -275.5 -72t-198 -197.5t-72.5 -276.5q0 -217 142 -370zM904 222q151 0 277 72t198 197.5
t72 276.5q0 218 -142 371q-32 33 -57 -5l-570 -817q-25 -38 15 -56q100 -39 207 -39z" />
    <glyph glyph-name="Ugrave" unicode="&#xd9;" horiz-adv-x="1572" 
d="M733 1681q-30 0 -51 22l-180 201q-28 33 6 58l62 45q33 26 58 -8l202 -269q15 -22 8 -35.5t-33 -13.5h-72zM785 -20q-175 0 -312 62.5t-217 187t-80 293.5v972q0 41 41 41h175q41 0 41 -41v-929q0 -183 95 -269t257 -86q78 0 141.5 20t112 61t75 111t26.5 163v929
q0 41 40 41h175q41 0 41 -41v-972q0 -169 -80 -293.5t-217.5 -187t-313.5 -62.5z" />
    <glyph glyph-name="Uacute" unicode="&#xda;" horiz-adv-x="1572" 
d="M815 1681h-72q-26 0 -33 13.5t8 35.5l202 269q25 34 58 8l62 -45q34 -25 6 -58l-180 -201q-21 -22 -51 -22zM785 -20q-175 0 -312 62.5t-217 187t-80 293.5v972q0 41 41 41h175q41 0 41 -41v-929q0 -183 95 -269t257 -86q78 0 141.5 20t112 61t75 111t26.5 163v929
q0 41 40 41h175q41 0 41 -41v-972q0 -169 -80 -293.5t-217.5 -187t-313.5 -62.5z" />
    <glyph glyph-name="Ucircumflex" unicode="&#xdb;" horiz-adv-x="1572" 
d="M654 1740q-18 -26 -50 -26h-67q-25 0 -32.5 15t6.5 35l162 223q17 26 49 26h124q32 0 49 -26l162 -223q14 -21 7 -35.5t-32 -14.5h-69q-33 0 -49 26l-100 142q-13 18 -29 17.5t-29 -17.5zM785 -20q-175 0 -312 62.5t-217 187t-80 293.5v972q0 41 41 41h175q41 0 41 -41
v-929q0 -183 95 -269t257 -86q78 0 141.5 20t112 61t75 111t26.5 163v929q0 41 40 41h175q41 0 41 -41v-972q0 -169 -80 -293.5t-217.5 -187t-313.5 -62.5z" />
    <glyph glyph-name="Udieresis" unicode="&#xdc;" horiz-adv-x="1572" 
d="M582 1765q-55 0 -95 39.5t-40 94.5q0 56 40 95t95 39t95 -39t40 -95q0 -55 -40 -94.5t-95 -39.5zM988 1765q-56 0 -95.5 39.5t-39.5 94.5q0 56 39.5 95t95.5 39t95 -39t39 -95q0 -55 -39 -94.5t-95 -39.5zM785 -20q-175 0 -312 62.5t-217 187t-80 293.5v972q0 41 41 41
h175q41 0 41 -41v-929q0 -183 95 -269t257 -86q78 0 141.5 20t112 61t75 111t26.5 163v929q0 41 40 41h175q41 0 41 -41v-972q0 -169 -80 -293.5t-217.5 -187t-313.5 -62.5z" />
    <glyph glyph-name="Yacute" unicode="&#xdd;" horiz-adv-x="1404" 
d="M734 1681h-72q-26 0 -33 13.5t8 35.5l202 269q25 34 58 8l62 -45q34 -25 6 -58l-180 -201q-21 -22 -51 -22zM616 0q-41 0 -41 41v653q0 29 -14 51l-491 742q-14 19 -6.5 34t32.5 15h208q34 0 49 -27l322 -512q13 -20 29 -20t29 20l322 512q15 27 49 27h204q25 0 32.5 -15
t-6.5 -34l-488 -738q-14 -24 -14 -51v-657q0 -41 -41 -41h-175z" />
    <glyph glyph-name="Thorn" unicode="&#xde;" horiz-adv-x="1326" 
d="M247 0q-41 0 -41 41v1450q0 41 41 41h166q41 0 41 -41v-133q0 -41 41 -41h311q184 0 313.5 -131t129.5 -318q0 -182 -129.5 -308t-313.5 -126h-311q-41 0 -41 -41v-352q0 -41 -41 -41h-166zM454 702q0 -40 41 -40h298q94 0 156 60.5t62 152.5q0 93 -62 154t-156 61h-298
q-41 0 -41 -41v-347z" />
    <glyph glyph-name="germandbls" unicode="&#xdf;" horiz-adv-x="1326" 
d="M205 0q-41 0 -41 41v930q0 125 28 226t75.5 167t112.5 110t136.5 63t150.5 19q227 0 360 -121t133 -309q0 -168 -109 -288q-26 -31 7 -55q88 -62 138.5 -157.5t50.5 -208.5q0 -82 -27.5 -156.5t-77.5 -133t-128.5 -93t-173.5 -34.5h-166q-41 0 -41 41v140q0 41 41 41h112
q96 0 156 57.5t60 160.5q0 102 -72.5 170.5t-175.5 68.5h-94q-41 0 -41 41v120q0 41 37 41h42q96 0 163.5 70.5t67.5 170.5q0 101 -69 163.5t-183 62.5q-123 0 -196 -83t-73 -261v-963q0 -41 -41 -41h-162z" />
    <glyph glyph-name="agrave" unicode="&#xe0;" horiz-adv-x="1377" 
d="M637 1204q-30 0 -51 22l-180 201q-28 33 6 58l62 45q33 26 58 -8l202 -269q15 -22 8 -35.5t-33 -13.5h-72zM597 -21q-139 0 -258 71.5t-190.5 199t-71.5 281.5q0 115 42 218t112.5 176t166 115.5t199.5 42.5q194 0 325 -120q20 -19 34 -15.5t14 28.5v42q0 41 40 41h162
q41 0 41 -41v-977q0 -41 -41 -41h-162q-41 0 -41 41v37q0 27 -11.5 35t-27.5 -8q-129 -126 -333 -126zM656 193q141 0 237 96t96 242q0 145 -96 241.5t-237 96.5t-238 -96.5t-97 -241.5q0 -146 96.5 -242t238.5 -96z" />
    <glyph glyph-name="aacute" unicode="&#xe1;" horiz-adv-x="1377" 
d="M719 1204h-72q-26 0 -33 13.5t8 35.5l202 269q25 34 58 8l62 -45q34 -25 6 -58l-180 -201q-21 -22 -51 -22zM597 -21q-139 0 -258 71.5t-190.5 199t-71.5 281.5q0 115 42 218t112.5 176t166 115.5t199.5 42.5q194 0 325 -120q20 -19 34 -15.5t14 28.5v42q0 41 40 41h162
q41 0 41 -41v-977q0 -41 -41 -41h-162q-41 0 -41 41v37q0 27 -11.5 35t-27.5 -8q-129 -126 -333 -126zM656 193q141 0 237 96t96 242q0 145 -96 241.5t-237 96.5t-238 -96.5t-97 -241.5q0 -146 96.5 -242t238.5 -96z" />
    <glyph glyph-name="acircumflex" unicode="&#xe2;" horiz-adv-x="1377" 
d="M558 1263q-18 -26 -50 -26h-67q-25 0 -32.5 15t6.5 35l162 223q17 26 49 26h124q32 0 49 -26l162 -223q14 -21 7 -35.5t-32 -14.5h-69q-33 0 -49 26l-100 142q-13 18 -29 17.5t-29 -17.5zM597 -21q-139 0 -258 71.5t-190.5 199t-71.5 281.5q0 115 42 218t112.5 176
t166 115.5t199.5 42.5q194 0 325 -120q20 -19 34 -15.5t14 28.5v42q0 41 40 41h162q41 0 41 -41v-977q0 -41 -41 -41h-162q-41 0 -41 41v37q0 27 -11.5 35t-27.5 -8q-129 -126 -333 -126zM656 193q141 0 237 96t96 242q0 145 -96 241.5t-237 96.5t-238 -96.5t-97 -241.5
q0 -146 96.5 -242t238.5 -96z" />
    <glyph glyph-name="atilde" unicode="&#xe3;" horiz-adv-x="1377" 
d="M827 1251q-119 0 -192 114q-34 53 -82 53q-38 0 -61.5 -31t-29.5 -82q-3 -41 -42 -41h-47q-43 0 -40 43q10 107 67.5 172t148.5 65q118 0 192 -113q33 -54 84 -54q77 0 90 113q3 41 42 41h47q43 0 40 -47q-12 -104 -68.5 -168.5t-148.5 -64.5zM597 -21q-139 0 -258 71.5
t-190.5 199t-71.5 281.5q0 115 42 218t112.5 176t166 115.5t199.5 42.5q194 0 325 -120q20 -19 34 -15.5t14 28.5v42q0 41 40 41h162q41 0 41 -41v-977q0 -41 -41 -41h-162q-41 0 -41 41v37q0 27 -11.5 35t-27.5 -8q-129 -126 -333 -126zM656 193q141 0 237 96t96 242
q0 145 -96 241.5t-237 96.5t-238 -96.5t-97 -241.5q0 -146 96.5 -242t238.5 -96z" />
    <glyph glyph-name="adieresis" unicode="&#xe4;" horiz-adv-x="1377" 
d="M486 1288q-55 0 -95 39.5t-40 94.5q0 56 40 95t95 39t95 -39t40 -95q0 -55 -40 -94.5t-95 -39.5zM892 1288q-56 0 -95.5 39.5t-39.5 94.5q0 56 39.5 95t95.5 39t95 -39t39 -95t-39 -95t-95 -39zM597 -21q-139 0 -258 71.5t-190.5 199t-71.5 281.5q0 115 42 218t112.5 176
t166 115.5t199.5 42.5q194 0 325 -120q20 -19 34 -15.5t14 28.5v42q0 41 40 41h162q41 0 41 -41v-977q0 -41 -41 -41h-162q-41 0 -41 41v37q0 27 -11.5 35t-27.5 -8q-129 -126 -333 -126zM656 193q141 0 237 96t96 242q0 145 -96 241.5t-237 96.5t-238 -96.5t-97 -241.5
q0 -146 96.5 -242t238.5 -96z" />
    <glyph glyph-name="aring" unicode="&#xe5;" horiz-adv-x="1377" 
d="M689 1181q-97 0 -166 68.5t-69 164.5q0 95 69 163t166 68q95 0 162.5 -68t67.5 -163q0 -96 -67.5 -164.5t-162.5 -68.5zM689 1293q50 0 84.5 34t34.5 87q0 49 -35 85.5t-84 36.5t-83.5 -36.5t-34.5 -85.5q0 -53 33.5 -87t84.5 -34zM597 -21q-139 0 -258 71.5t-190.5 199
t-71.5 281.5q0 115 42 218t112.5 176t166 115.5t199.5 42.5q194 0 325 -120q20 -19 34 -15.5t14 28.5v42q0 41 40 41h162q41 0 41 -41v-977q0 -41 -41 -41h-162q-41 0 -41 41v37q0 27 -11.5 35t-27.5 -8q-129 -126 -333 -126zM656 193q141 0 237 96t96 242q0 145 -96 241.5
t-237 96.5t-238 -96.5t-97 -241.5q0 -146 96.5 -242t238.5 -96z" />
    <glyph glyph-name="ae" unicode="&#xe6;" horiz-adv-x="1878" 
d="M437 -20q-160 0 -260 84t-100 231q0 153 112.5 251t330.5 100l163 1q37 0 45 33q2 9 7 26t6.5 24t1 17.5t-5.5 20.5q-53 124 -222 124q-150 0 -282 -96q-17 -13 -32 -9.5t-24 20.5l-50 97q-19 33 12 56q179 121 398 121q211 0 325 -116q25 -30 56 -6q148 121 347 121
q150 0 274 -67t197 -187.5t76 -270.5l-3 -27q-4 -34 -39 -34h-780q-21 0 -31.5 -11.5t-6.5 -32.5q20 -120 109 -195t210 -75q80 0 149.5 32.5t115.5 93.5q24 32 57 18l120 -51q41 -19 18 -55q-70 -113 -190 -175.5t-269 -62.5q-121 0 -225.5 43t-181.5 120q-28 30 -56 -1
q-76 -83 -165 -122.5t-207 -39.5zM1007 653h511q22 0 32 13t2 34q-35 89 -109.5 140.5t-175.5 51.5t-178.5 -51.5t-114.5 -140.5q-9 -20 1 -33.5t32 -13.5zM492 159q146 0 240 118q21 24 9 56q-21 56 -26 107q-8 38 -44 38h-118q-130 0 -185.5 -48t-55.5 -122t49 -111.5
t131 -37.5z" />
    <glyph glyph-name="ccedilla" unicode="&#xe7;" horiz-adv-x="1142" 
d="M1065 218q34 -26 9 -54q-148 -160 -377 -180l-30 -57q-23 -44 -7 -47q5 -1 27 -1q85 0 140.5 -53.5t55.5 -137.5q0 -92 -63.5 -156t-155.5 -64q-67 0 -125 30t-92 79q-12 17 -6 31t26 22l42 14q28 12 55 -15q41 -38 97 -38q40 0 68.5 27.5t28.5 69.5q0 44 -28 69t-72 25
q-27 0 -51 -10q-34 -13 -55 1l-36 21q-32 21 -16 56l72 136q-216 25 -356.5 176.5t-140.5 367.5q0 235 164 392t406 157q127 0 237 -47t189 -132q27 -30 -6 -57l-114 -95q-30 -24 -58 6q-94 111 -249 111q-143 0 -238.5 -95t-95.5 -240t95.5 -239.5t238.5 -94.5
q155 0 249 110q28 31 58 7z" />
    <glyph glyph-name="egrave" unicode="&#xe8;" horiz-adv-x="1246" 
d="M591 1212q-30 0 -51 22l-180 201q-28 33 6 58l62 45q33 26 58 -8l202 -269q15 -22 8 -35.5t-33 -13.5h-72zM640 -20q-162 0 -292 73.5t-201.5 199t-71.5 277.5q0 113 42.5 214.5t116 175t177.5 117t222 43.5q151 0 274.5 -67t196.5 -188.5t76 -273.5l-1 -17
q-2 -18 -13 -29t-29 -11h-783q-20 0 -31 -12t-7 -32q19 -120 110 -195t213 -75q80 0 149.5 32.5t115.5 93.5q24 32 57 18l120 -51q41 -19 21 -52q-72 -113 -192 -177t-270 -64zM372 653h521q22 0 32 13t1 34q-34 88 -112 140t-179 52q-102 0 -181 -51.5t-116 -140.5
q-9 -21 1.5 -34t32.5 -13z" />
    <glyph glyph-name="eacute" unicode="&#xe9;" horiz-adv-x="1246" 
d="M673 1212h-72q-26 0 -33 13.5t8 35.5l202 269q25 34 58 8l62 -45q34 -25 6 -58l-180 -201q-21 -22 -51 -22zM640 -20q-162 0 -292 73.5t-201.5 199t-71.5 277.5q0 113 42.5 214.5t116 175t177.5 117t222 43.5q151 0 274.5 -67t196.5 -188.5t76 -273.5l-1 -17
q-2 -18 -13 -29t-29 -11h-783q-20 0 -31 -12t-7 -32q19 -120 110 -195t213 -75q80 0 149.5 32.5t115.5 93.5q24 32 57 18l120 -51q41 -19 21 -52q-72 -113 -192 -177t-270 -64zM372 653h521q22 0 32 13t1 34q-34 88 -112 140t-179 52q-102 0 -181 -51.5t-116 -140.5
q-9 -21 1.5 -34t32.5 -13z" />
    <glyph glyph-name="ecircumflex" unicode="&#xea;" horiz-adv-x="1246" 
d="M512 1271q-18 -26 -50 -26h-67q-25 0 -32.5 15t6.5 35l162 223q17 26 49 26h124q32 0 49 -26l162 -223q14 -21 7 -35.5t-32 -14.5h-69q-33 0 -49 26l-100 142q-13 18 -29 17.5t-29 -17.5zM640 -20q-162 0 -292 73.5t-201.5 199t-71.5 277.5q0 113 42.5 214.5t116 175
t177.5 117t222 43.5q151 0 274.5 -67t196.5 -188.5t76 -273.5l-1 -17q-2 -18 -13 -29t-29 -11h-783q-20 0 -31 -12t-7 -32q19 -120 110 -195t213 -75q80 0 149.5 32.5t115.5 93.5q24 32 57 18l120 -51q41 -19 21 -52q-72 -113 -192 -177t-270 -64zM372 653h521q22 0 32 13
t1 34q-34 88 -112 140t-179 52q-102 0 -181 -51.5t-116 -140.5q-9 -21 1.5 -34t32.5 -13z" />
    <glyph glyph-name="edieresis" unicode="&#xeb;" horiz-adv-x="1246" 
d="M440 1296q-55 0 -95 39.5t-40 94.5q0 56 40 95t95 39t95 -39t40 -95q0 -55 -40 -94.5t-95 -39.5zM846 1296q-56 0 -95.5 39.5t-39.5 94.5q0 56 39.5 95t95.5 39t95 -39t39 -95t-39 -95t-95 -39zM640 -20q-162 0 -292 73.5t-201.5 199t-71.5 277.5q0 113 42.5 214.5
t116 175t177.5 117t222 43.5q151 0 274.5 -67t196.5 -188.5t76 -273.5l-1 -17q-2 -18 -13 -29t-29 -11h-783q-20 0 -31 -12t-7 -32q19 -120 110 -195t213 -75q80 0 149.5 32.5t115.5 93.5q24 32 57 18l120 -51q41 -19 21 -52q-72 -113 -192 -177t-270 -64zM372 653h521
q22 0 32 13t1 34q-34 88 -112 140t-179 52q-102 0 -181 -51.5t-116 -140.5q-9 -21 1.5 -34t32.5 -13z" />
    <glyph glyph-name="igrave" unicode="&#xec;" horiz-adv-x="573" 
d="M235 1204q-30 0 -51 22l-180 201q-28 33 6 58l62 45q33 26 58 -8l202 -269q15 -22 8 -35.5t-33 -13.5h-72zM206 0q-41 0 -41 41v977q0 41 41 41h161q41 0 41 -41v-977q0 -41 -41 -41h-161z" />
    <glyph glyph-name="iacute" unicode="&#xed;" horiz-adv-x="573" 
d="M317 1204h-72q-26 0 -33 13.5t8 35.5l202 269q25 34 58 8l62 -45q34 -25 6 -58l-180 -201q-21 -22 -51 -22zM206 0q-41 0 -41 41v977q0 41 41 41h161q41 0 41 -41v-977q0 -41 -41 -41h-161z" />
    <glyph glyph-name="icircumflex" unicode="&#xee;" horiz-adv-x="573" 
d="M156 1263q-18 -26 -50 -26h-67q-25 0 -32.5 15t6.5 35l162 223q17 26 49 26h124q32 0 49 -26l162 -223q14 -21 7 -35.5t-32 -14.5h-69q-33 0 -49 26l-100 142q-13 18 -29 17.5t-29 -17.5zM206 0q-41 0 -41 41v977q0 41 41 41h161q41 0 41 -41v-977q0 -41 -41 -41h-161z
" />
    <glyph glyph-name="idieresis" unicode="&#xef;" horiz-adv-x="573" 
d="M84 1288q-55 0 -95 39.5t-40 94.5q0 56 40 95t95 39t95 -39t40 -95q0 -55 -40 -94.5t-95 -39.5zM490 1288q-56 0 -95.5 39.5t-39.5 94.5q0 56 39.5 95t95.5 39t95 -39t39 -95t-39 -95t-95 -39zM206 0q-41 0 -41 41v977q0 41 41 41h161q41 0 41 -41v-977q0 -41 -41 -41
h-161z" />
    <glyph glyph-name="eth" unicode="&#xf0;" horiz-adv-x="1257" 
d="M618 -18q-149 0 -276 72t-200.5 197t-70.5 272q2 107 45.5 202.5t111.5 162t153 107t171 45.5q19 0 33 8.5t19 22.5q7 28 -15 53l-63 76q-22 25 -55 17l-218 -59q-39 -13 -49 29l-8 30q-10 40 29 49l149 39q22 7 27 22.5t-10 33.5l-105 124q-16 21 -8.5 36t33.5 15h199
q32 0 49 -25q21 -26 82 -101q21 -27 53 -18l205 56q38 10 50 -30l7 -30q10 -40 -29 -49l-139 -36q-21 -7 -22 -27.5t21 -49.5q150 -185 217 -276q103 -141 142.5 -239t36.5 -212q-3 -145 -79.5 -264t-204.5 -186t-281 -67zM623 213q139 0 227 81t92 212q5 138 -81 231.5
t-230 93.5q-132 0 -220.5 -85t-92.5 -220q-5 -131 81.5 -222t223.5 -91z" />
    <glyph glyph-name="ntilde" unicode="&#xf1;" horiz-adv-x="1254" 
d="M765 1251q-119 0 -192 114q-34 53 -82 53q-38 0 -61.5 -31t-29.5 -82q-3 -41 -42 -41h-47q-43 0 -40 43q10 107 67.5 172t148.5 65q118 0 192 -113q33 -54 84 -54q77 0 90 113q3 41 42 41h47q43 0 40 -47q-12 -104 -68.5 -168.5t-148.5 -64.5zM206 0q-41 0 -41 41v977
q0 41 41 41h162q41 0 41 -41v-36q0 -28 12.5 -31.5t32.5 16.5q106 112 274 112q176 0 280.5 -110t104.5 -315v-613q0 -41 -41 -41h-163q-41 0 -41 41v574q0 255 -220 255q-107 0 -172.5 -68t-66.5 -197v-564q0 -41 -41 -41h-162z" />
    <glyph glyph-name="ograve" unicode="&#xf2;" horiz-adv-x="1290" 
d="M593 1203q-30 0 -51 22l-180 201q-28 33 6 58l62 45q33 26 58 -8l202 -269q15 -22 8 -35.5t-33 -13.5h-72zM645 -20q-159 0 -289.5 71t-205.5 197.5t-75 281.5q0 154 75 280t205.5 197.5t289.5 71.5q158 0 289 -71.5t206 -197.5t75 -280q0 -116 -44 -218.5t-120 -175
t-181.5 -114.5t-224.5 -42zM644 195q140 0 237.5 96t97.5 239q0 142 -97.5 238.5t-237.5 96.5t-237 -96t-97 -239q0 -144 96.5 -239.5t237.5 -95.5z" />
    <glyph glyph-name="oacute" unicode="&#xf3;" horiz-adv-x="1290" 
d="M675 1203h-72q-26 0 -33 13.5t8 35.5l202 269q25 34 58 8l62 -45q34 -25 6 -58l-180 -201q-21 -22 -51 -22zM645 -20q-159 0 -289.5 71t-205.5 197.5t-75 281.5q0 154 75 280t205.5 197.5t289.5 71.5q158 0 289 -71.5t206 -197.5t75 -280q0 -116 -44 -218.5t-120 -175
t-181.5 -114.5t-224.5 -42zM644 195q140 0 237.5 96t97.5 239q0 142 -97.5 238.5t-237.5 96.5t-237 -96t-97 -239q0 -144 96.5 -239.5t237.5 -95.5z" />
    <glyph glyph-name="ocircumflex" unicode="&#xf4;" horiz-adv-x="1290" 
d="M514 1262q-18 -26 -50 -26h-67q-25 0 -32.5 15t6.5 35l162 223q17 26 49 26h124q32 0 49 -26l162 -223q14 -21 7 -35.5t-32 -14.5h-69q-33 0 -49 26l-100 142q-13 18 -29 17.5t-29 -17.5zM645 -20q-159 0 -289.5 71t-205.5 197.5t-75 281.5q0 154 75 280t205.5 197.5
t289.5 71.5q158 0 289 -71.5t206 -197.5t75 -280q0 -116 -44 -218.5t-120 -175t-181.5 -114.5t-224.5 -42zM644 195q140 0 237.5 96t97.5 239q0 142 -97.5 238.5t-237.5 96.5t-237 -96t-97 -239q0 -144 96.5 -239.5t237.5 -95.5z" />
    <glyph glyph-name="otilde" unicode="&#xf5;" horiz-adv-x="1290" 
d="M783 1250q-119 0 -192 114q-34 53 -82 53q-38 0 -61.5 -31t-29.5 -82q-3 -41 -42 -41h-47q-43 0 -40 43q10 107 67.5 172t148.5 65q118 0 192 -113q33 -54 84 -54q77 0 90 113q3 41 42 41h47q43 0 40 -47q-12 -104 -68.5 -168.5t-148.5 -64.5zM645 -20q-159 0 -289.5 71
t-205.5 197.5t-75 281.5q0 154 75 280t205.5 197.5t289.5 71.5q158 0 289 -71.5t206 -197.5t75 -280q0 -116 -44 -218.5t-120 -175t-181.5 -114.5t-224.5 -42zM644 195q140 0 237.5 96t97.5 239q0 142 -97.5 238.5t-237.5 96.5t-237 -96t-97 -239q0 -144 96.5 -239.5
t237.5 -95.5z" />
    <glyph glyph-name="odieresis" unicode="&#xf6;" horiz-adv-x="1290" 
d="M442 1287q-55 0 -95 39.5t-40 94.5q0 56 40 95t95 39t95 -39t40 -95q0 -55 -40 -94.5t-95 -39.5zM848 1287q-56 0 -95.5 39.5t-39.5 94.5q0 56 39.5 95t95.5 39t95 -39t39 -95q0 -55 -39 -94.5t-95 -39.5zM645 -20q-159 0 -289.5 71t-205.5 197.5t-75 281.5q0 154 75 280
t205.5 197.5t289.5 71.5q158 0 289 -71.5t206 -197.5t75 -280q0 -116 -44 -218.5t-120 -175t-181.5 -114.5t-224.5 -42zM644 195q140 0 237.5 96t97.5 239q0 142 -97.5 238.5t-237.5 96.5t-237 -96t-97 -239q0 -144 96.5 -239.5t237.5 -95.5z" />
    <glyph glyph-name="divide" unicode="&#xf7;" horiz-adv-x="1072" 
d="M530 919q-57 0 -99 41t-42 100q0 57 42.5 99.5t98.5 42.5q57 0 100 -42.5t43 -99.5q0 -59 -42.5 -100t-100.5 -41zM168 589q-41 0 -41 41v122q0 41 41 41h736q41 0 41 -41v-122q0 -41 -41 -41h-736zM530 179q-57 0 -99 41t-42 101q0 56 42.5 98.5t98.5 42.5
q57 0 100 -42.5t43 -98.5q0 -60 -42.5 -101t-100.5 -41z" />
    <glyph glyph-name="oslash" unicode="&#xf8;" horiz-adv-x="1290" 
d="M274 -54l-48 29q-35 23 -13 58l32 46q21 33 -7 58q-163 157 -163 393q0 154 75 280t205.5 197.5t289.5 71.5q122 0 224 -42q36 -14 57 15l32 48q23 35 57 12l49 -29q35 -23 11 -58l-31 -46q-20 -31 7 -57q78 -74 121 -175.5t43 -216.5q0 -116 -44 -218.5t-120 -175
t-181.5 -114.5t-224.5 -42q-123 0 -224 42q-35 13 -56 -16l-33 -48q-23 -32 -58 -12zM370 340q12 -18 28 -17t30 19l319 455q13 18 9.5 33.5t-21.5 21.5q-46 13 -91 13q-140 0 -237 -96t-97 -239q0 -106 60 -190zM644 195q140 0 237.5 96t97.5 239q0 107 -61 190
q-12 18 -28 17t-29 -19l-318 -455q-13 -17 -8.5 -34t25.5 -21q42 -13 84 -13z" />
    <glyph glyph-name="ugrave" unicode="&#xf9;" horiz-adv-x="1207" 
d="M551 1204q-30 0 -51 22l-180 201q-28 33 6 58l62 45q33 26 58 -8l202 -269q15 -22 8 -35.5t-33 -13.5h-72zM603 -20q-217 0 -341.5 106.5t-124.5 294.5v637q0 41 41 41h159q41 0 41 -41v-624q0 -99 62 -149.5t163 -50.5q102 0 163.5 50.5t61.5 149.5v624q0 41 41 41h160
q40 0 40 -41v-637q0 -188 -124.5 -294.5t-341.5 -106.5z" />
    <glyph glyph-name="uacute" unicode="&#xfa;" horiz-adv-x="1207" 
d="M633 1204h-72q-26 0 -33 13.5t8 35.5l202 269q25 34 58 8l62 -45q34 -25 6 -58l-180 -201q-21 -22 -51 -22zM603 -20q-217 0 -341.5 106.5t-124.5 294.5v637q0 41 41 41h159q41 0 41 -41v-624q0 -99 62 -149.5t163 -50.5q102 0 163.5 50.5t61.5 149.5v624q0 41 41 41h160
q40 0 40 -41v-637q0 -188 -124.5 -294.5t-341.5 -106.5z" />
    <glyph glyph-name="ucircumflex" unicode="&#xfb;" horiz-adv-x="1207" 
d="M472 1263q-18 -26 -50 -26h-67q-25 0 -32.5 15t6.5 35l162 223q17 26 49 26h124q32 0 49 -26l162 -223q14 -21 7 -35.5t-32 -14.5h-69q-33 0 -49 26l-100 142q-13 18 -29 17.5t-29 -17.5zM603 -20q-217 0 -341.5 106.5t-124.5 294.5v637q0 41 41 41h159q41 0 41 -41v-624
q0 -99 62 -149.5t163 -50.5q102 0 163.5 50.5t61.5 149.5v624q0 41 41 41h160q40 0 40 -41v-637q0 -188 -124.5 -294.5t-341.5 -106.5z" />
    <glyph glyph-name="udieresis" unicode="&#xfc;" horiz-adv-x="1207" 
d="M400 1288q-55 0 -95 39.5t-40 94.5q0 56 40 95t95 39t95 -39t40 -95q0 -55 -40 -94.5t-95 -39.5zM806 1288q-56 0 -95.5 39.5t-39.5 94.5q0 56 39.5 95t95.5 39t95 -39t39 -95t-39 -95t-95 -39zM603 -20q-217 0 -341.5 106.5t-124.5 294.5v637q0 41 41 41h159
q41 0 41 -41v-624q0 -99 62 -149.5t163 -50.5q102 0 163.5 50.5t61.5 149.5v624q0 41 41 41h160q40 0 40 -41v-637q0 -188 -124.5 -294.5t-341.5 -106.5z" />
    <glyph glyph-name="yacute" unicode="&#xfd;" horiz-adv-x="1111" 
d="M587 1204h-72q-26 0 -33 13.5t8 35.5l202 269q25 34 58 8l62 -45q34 -25 6 -58l-180 -201q-21 -22 -51 -22zM266 -498q-23 0 -32 13t-1 34l188 476q11 25 0 53l-381 934q-9 21 0 34t32 13h182q35 0 47 -34l236 -650q6 -18 16.5 -24t20.5 0.5t16 24.5l229 649q12 34 46 34
h174q23 0 32 -13t1 -34l-593 -1477q-13 -33 -47 -33h-166z" />
    <glyph glyph-name="thorn" unicode="&#xfe;" horiz-adv-x="1379" 
d="M207 -498q-41 0 -41 41v1952q0 41 41 41h162q41 0 41 -41v-516q0 -27 13 -32t34 13q130 119 323 119q105 0 201 -42t166.5 -114.5t112.5 -175.5t42 -218q0 -154 -71 -280.5t-190.5 -197.5t-260.5 -71q-195 0 -323 117q-21 19 -34 14t-13 -32v-536q0 -41 -41 -41h-162z
M724 190q139 0 236.5 99t97.5 240q0 140 -97.5 238.5t-236.5 98.5q-140 0 -237 -98t-97 -239t97 -240t237 -99z" />
    <glyph glyph-name="ydieresis" unicode="&#xff;" horiz-adv-x="1111" 
d="M354 1288q-55 0 -95 39.5t-40 94.5q0 56 40 95t95 39t95 -39t40 -95q0 -55 -40 -94.5t-95 -39.5zM760 1288q-56 0 -95.5 39.5t-39.5 94.5q0 56 39.5 95t95.5 39t95 -39t39 -95t-39 -95t-95 -39zM266 -498q-23 0 -32 13t-1 34l188 476q11 25 0 53l-381 934q-9 21 0 34
t32 13h182q35 0 47 -34l236 -650q6 -18 16.5 -24t20.5 0.5t16 24.5l229 649q12 34 46 34h174q23 0 32 -13t1 -34l-593 -1477q-13 -33 -47 -33h-166z" />
    <glyph glyph-name="Amacron" unicode="&#x100;" horiz-adv-x="1584" 
d="M508 1709q-41 0 -41 41v71q0 41 41 41h569q41 0 41 -41v-71q0 -41 -41 -41h-569zM99 0q-23 0 -31.5 12.5t0.5 34.5l569 1457q13 32 47 32h214q36 0 47 -32l571 -1457q8 -22 -0.5 -34.5t-31.5 -12.5h-181q-34 0 -46 33l-99 260q-14 33 -47 33h-638q-34 0 -46 -33
l-100 -260q-12 -33 -46 -33h-182zM570 549h443q23 0 31.5 12.5t1.5 34.5l-228 597q-6 17 -16 23.5t-20 0t-17 -23.5l-228 -597q-7 -22 2 -34.5t31 -12.5z" />
    <glyph glyph-name="amacron" unicode="&#x101;" horiz-adv-x="1377" 
d="M405 1232q-41 0 -41 41v71q0 41 41 41h569q41 0 41 -41v-71q0 -41 -41 -41h-569zM597 -21q-139 0 -258 71.5t-190.5 199t-71.5 281.5q0 115 42 218t112.5 176t166 115.5t199.5 42.5q194 0 325 -120q20 -19 34 -15.5t14 28.5v42q0 41 40 41h162q41 0 41 -41v-977
q0 -41 -41 -41h-162q-41 0 -41 41v37q0 27 -11.5 35t-27.5 -8q-129 -126 -333 -126zM656 193q141 0 237 96t96 242q0 145 -96 241.5t-237 96.5t-238 -96.5t-97 -241.5q0 -146 96.5 -242t238.5 -96z" />
    <glyph glyph-name="Abreve" unicode="&#x102;" horiz-adv-x="1584" 
d="M791 1675q-149 0 -244.5 77t-108.5 218q-3 43 40 43h63q38 0 41 -40q12 -82 68.5 -131.5t140.5 -49.5q85 0 141.5 49.5t68.5 131.5q3 40 41 40h64q43 0 40 -43q-13 -141 -109 -218t-246 -77zM99 0q-23 0 -31.5 12.5t0.5 34.5l569 1457q13 32 47 32h214q36 0 47 -32
l571 -1457q8 -22 -0.5 -34.5t-31.5 -12.5h-181q-34 0 -46 33l-99 260q-14 33 -47 33h-638q-34 0 -46 -33l-100 -260q-12 -33 -46 -33h-182zM570 549h443q23 0 31.5 12.5t1.5 34.5l-228 597q-6 17 -16 23.5t-20 0t-17 -23.5l-228 -597q-7 -22 2 -34.5t31 -12.5z" />
    <glyph glyph-name="abreve" unicode="&#x103;" horiz-adv-x="1377" 
d="M688 1198q-149 0 -244.5 77t-108.5 218q-3 43 40 43h63q38 0 41 -40q12 -82 68.5 -131.5t140.5 -49.5q85 0 141.5 49.5t68.5 131.5q3 40 41 40h64q43 0 40 -43q-13 -141 -109 -218t-246 -77zM597 -21q-139 0 -258 71.5t-190.5 199t-71.5 281.5q0 115 42 218t112.5 176
t166 115.5t199.5 42.5q194 0 325 -120q20 -19 34 -15.5t14 28.5v42q0 41 40 41h162q41 0 41 -41v-977q0 -41 -41 -41h-162q-41 0 -41 41v37q0 27 -11.5 35t-27.5 -8q-129 -126 -333 -126zM656 193q141 0 237 96t96 242q0 145 -96 241.5t-237 96.5t-238 -96.5t-97 -241.5
q0 -146 96.5 -242t238.5 -96z" />
    <glyph glyph-name="Aogonek" unicode="&#x104;" horiz-adv-x="1584" 
d="M1516 47q8 -22 -0.5 -34.5t-31.5 -12.5q-101 -46 -168.5 -120t-67.5 -147q0 -49 29.5 -74t76.5 -25q34 0 84 18q46 21 46 -26v-95q0 -34 -32 -47q-60 -17 -119 -14q-117 2 -183 61t-66 155q0 93 63 176t177 138h-21q-34 0 -46 33l-99 260q-14 33 -47 33h-638
q-34 0 -46 -33l-100 -260q-12 -33 -46 -33h-182q-23 0 -31.5 12.5t0.5 34.5l569 1457q13 32 47 32h214q36 0 47 -32zM1013 549q23 0 31.5 12.5t1.5 34.5l-228 597q-6 17 -16 23.5t-20 0t-17 -23.5l-228 -597q-7 -22 2 -34.5t31 -12.5h443z" />
    <glyph glyph-name="aogonek" unicode="&#x105;" horiz-adv-x="1377" 
d="M1172 1059q41 0 41 -41v-977q0 -41 -41 -41q-101 -46 -168.5 -120t-67.5 -147q0 -49 29.5 -74t76.5 -25q34 0 84 18q46 21 46 -26v-95q0 -34 -32 -47q-60 -17 -119 -14q-117 2 -183 61t-66 155q0 93 63 176t177 138h-2q-41 0 -41 41v37q0 27 -11.5 35t-27.5 -8
q-129 -126 -333 -126q-139 0 -258 71.5t-190.5 199t-71.5 281.5q0 115 42 218t112.5 176t166 115.5t199.5 42.5q194 0 325 -120q20 -19 34 -15.5t14 28.5v42q0 41 40 41h162zM656 193q141 0 237 96t96 242q0 145 -96 241.5t-237 96.5t-238 -96.5t-97 -241.5
q0 -146 96.5 -242t238.5 -96z" />
    <glyph glyph-name="Cacute" unicode="&#x106;" horiz-adv-x="1545" 
d="M932 1681h-72q-26 0 -33 13.5t8 35.5l202 269q25 34 58 8l62 -45q34 -25 6 -58l-180 -201q-21 -22 -51 -22zM904 -20q-167 0 -316 61t-256 165.5t-169 250.5t-62 311t62 311t169 250.5t256 165.5t316 61q151 0 295 -55.5t252 -153.5q32 -27 0 -57l-122 -116
q-27 -29 -58 0q-72 66 -168 103t-199 37q-113 0 -214 -42.5t-174 -115t-115.5 -173.5t-42.5 -215t42.5 -215t115.5 -173.5t174 -115t214 -42.5q103 0 199 37t168 104q30 27 58 -1l122 -116q32 -30 2 -56q-108 -98 -253 -154t-296 -56z" />
    <glyph glyph-name="cacute" unicode="&#x107;" horiz-adv-x="1142" 
d="M670 1204h-72q-26 0 -33 13.5t8 35.5l202 269q25 34 58 8l62 -45q34 -25 6 -58l-180 -201q-21 -22 -51 -22zM645 -18q-159 0 -289.5 71t-205.5 197t-75 280q0 235 164 392t406 157q127 0 237 -47t189 -132q27 -30 -6 -57l-114 -95q-30 -24 -58 6q-94 111 -249 111
q-143 0 -238.5 -95t-95.5 -240t95.5 -239.5t238.5 -94.5q155 0 249 110q28 31 58 7l114 -95q34 -26 9 -54q-79 -86 -190 -134t-239 -48z" />
    <glyph glyph-name="Cdotaccent" unicode="&#x10a;" horiz-adv-x="1545" 
d="M903 1739q-61 0 -105 43t-44 104q0 62 44 104.5t105 42.5q60 0 103.5 -42.5t43.5 -104.5q0 -60 -43.5 -103.5t-103.5 -43.5zM904 -20q-167 0 -316 61t-256 165.5t-169 250.5t-62 311t62 311t169 250.5t256 165.5t316 61q151 0 295 -55.5t252 -153.5q32 -27 0 -57
l-122 -116q-27 -29 -58 0q-72 66 -168 103t-199 37q-113 0 -214 -42.5t-174 -115t-115.5 -173.5t-42.5 -215t42.5 -215t115.5 -173.5t174 -115t214 -42.5q103 0 199 37t168 104q30 27 58 -1l122 -116q32 -30 2 -56q-108 -98 -253 -154t-296 -56z" />
    <glyph glyph-name="cdotaccent" unicode="&#x10b;" horiz-adv-x="1142" 
d="M641 1262q-61 0 -105 43t-44 104q0 62 44 104.5t105 42.5q60 0 103.5 -42.5t43.5 -104.5q0 -60 -43.5 -103.5t-103.5 -43.5zM645 -18q-159 0 -289.5 71t-205.5 197t-75 280q0 235 164 392t406 157q127 0 237 -47t189 -132q27 -30 -6 -57l-114 -95q-30 -24 -58 6
q-94 111 -249 111q-143 0 -238.5 -95t-95.5 -240t95.5 -239.5t238.5 -94.5q155 0 249 110q28 31 58 7l114 -95q34 -26 9 -54q-79 -86 -190 -134t-239 -48z" />
    <glyph glyph-name="Ccaron" unicode="&#x10c;" horiz-adv-x="1545" 
d="M839 1714q-31 0 -49 26l-162 224q-14 20 -6.5 34.5t32.5 14.5h67q32 0 50 -25l102 -142q13 -18 29 -18t29 18l100 142q18 25 49 25h69q25 0 32 -14t-7 -35l-162 -224q-18 -26 -49 -26h-124zM904 -20q-167 0 -316 61t-256 165.5t-169 250.5t-62 311t62 311t169 250.5
t256 165.5t316 61q151 0 295 -55.5t252 -153.5q32 -27 0 -57l-122 -116q-27 -29 -58 0q-72 66 -168 103t-199 37q-113 0 -214 -42.5t-174 -115t-115.5 -173.5t-42.5 -215t42.5 -215t115.5 -173.5t174 -115t214 -42.5q103 0 199 37t168 104q30 27 58 -1l122 -116
q32 -30 2 -56q-108 -98 -253 -154t-296 -56z" />
    <glyph glyph-name="ccaron" unicode="&#x10d;" horiz-adv-x="1142" 
d="M577 1237q-31 0 -49 26l-162 224q-14 19 -6.5 34t32.5 15h67q32 0 50 -25l102 -142q13 -18 29 -18t29 18l100 142q18 25 49 25h69q25 0 32 -14t-7 -35l-162 -224q-18 -26 -49 -26h-124zM645 -18q-159 0 -289.5 71t-205.5 197t-75 280q0 235 164 392t406 157
q127 0 237 -47t189 -132q27 -30 -6 -57l-114 -95q-30 -24 -58 6q-94 111 -249 111q-143 0 -238.5 -95t-95.5 -240t95.5 -239.5t238.5 -94.5q155 0 249 110q28 31 58 7l114 -95q34 -26 9 -54q-79 -86 -190 -134t-239 -48z" />
    <glyph glyph-name="Dcaron" unicode="&#x10e;" horiz-adv-x="1598" 
d="M608 1714q-31 0 -49 26l-162 224q-14 20 -6.5 34.5t32.5 14.5h67q32 0 50 -25l102 -142q13 -18 29 -18t29 18l100 142q18 25 49 25h69q25 0 32 -14t-7 -35l-162 -224q-18 -26 -49 -26h-124zM248 0q-41 0 -41 41v1454q0 41 41 41h465q370 0 573 -207t203 -561t-203 -561
t-573 -207h-465zM503 231h200q260 0 391 138t131 399t-131 399t-391 138h-200q-41 0 -41 -41v-992q0 -41 41 -41z" />
    <glyph glyph-name="dcaron" unicode="&#x10f;" horiz-adv-x="1569" 
d="M597 -21q-139 0 -258 71.5t-190.5 199t-71.5 281.5q0 115 42 218t112.5 176t166 115.5t199.5 42.5q194 0 325 -120q20 -19 33.5 -13.5t13.5 32.5l1 513q0 41 40 41h162q41 0 41 -41v-1454q0 -41 -41 -41h-162q-41 0 -41 41v37q0 27 -11.5 35t-27.5 -8
q-129 -126 -333 -126zM1380 890q-21 0 -31 12.5t-7 32.5l98 564q6 37 44 37h178q22 0 31.5 -12.5t2.5 -33.5l-172 -566q-10 -34 -47 -34h-97zM656 193q141 0 237 96t96 242q0 145 -96 241.5t-237 96.5t-238 -96.5t-97 -241.5q0 -146 96.5 -242t238.5 -96z" />
    <glyph glyph-name="Dcroat" unicode="&#x110;" horiz-adv-x="1598" 
d="M713 1536q370 0 573 -207t203 -561t-203 -561t-573 -207h-465q-41 0 -41 41v648h-109q-41 0 -41 41v76q0 41 41 41h109v648q0 41 41 41h465zM703 231q260 0 391 138t131 399t-131 399t-391 138h-200q-41 0 -41 -41v-417h213q41 0 41 -41v-76q0 -41 -41 -41h-213v-417
q0 -41 41 -41h200z" />
    <glyph glyph-name="dcroat" unicode="&#x111;" horiz-adv-x="1378" 
d="M597 -21q-139 0 -258 71.5t-190.5 199t-71.5 281.5q0 115 42 218t112.5 176t166 115.5t199.5 42.5q194 0 325 -120q20 -19 33.5 -13.5t13.5 32.5v203q0 41 -41 41h-203q-41 0 -41 41v76q0 41 41 41h204q41 0 41 41v70q0 41 40 41h162q41 0 41 -41v-70q0 -41 41 -41h49
q40 0 40 -41v-76q0 -41 -40 -41h-49q-41 0 -41 -41v-1144q0 -41 -41 -41h-162q-41 0 -41 41v43q0 24 -12 30t-27 -9q-129 -126 -333 -126zM656 193q141 0 237 96t96 242q0 145 -96 241.5t-237 96.5t-238 -96.5t-97 -241.5q0 -146 96.5 -242t238.5 -96z" />
    <glyph glyph-name="Emacron" unicode="&#x112;" horiz-adv-x="1225" 
d="M373 1709q-41 0 -41 41v71q0 41 41 41h569q41 0 41 -41v-71q0 -41 -41 -41h-569zM248 0q-41 0 -41 41v1454q0 41 41 41h811q41 0 41 -41v-149q0 -41 -41 -41h-554q-41 0 -41 -41v-342q0 -41 41 -41h476q41 0 41 -41v-147q0 -41 -41 -41h-476q-41 0 -41 -41v-339
q0 -41 41 -41h554q41 0 41 -41v-149q0 -41 -41 -41h-811z" />
    <glyph glyph-name="emacron" unicode="&#x113;" horiz-adv-x="1246" 
d="M359 1240q-41 0 -41 41v71q0 41 41 41h569q41 0 41 -41v-71q0 -41 -41 -41h-569zM640 -20q-162 0 -292 73.5t-201.5 199t-71.5 277.5q0 113 42.5 214.5t116 175t177.5 117t222 43.5q151 0 274.5 -67t196.5 -188.5t76 -273.5l-1 -17q-2 -18 -13 -29t-29 -11h-783
q-20 0 -31 -12t-7 -32q19 -120 110 -195t213 -75q80 0 149.5 32.5t115.5 93.5q24 32 57 18l120 -51q41 -19 21 -52q-72 -113 -192 -177t-270 -64zM372 653h521q22 0 32 13t1 34q-34 88 -112 140t-179 52q-102 0 -181 -51.5t-116 -140.5q-9 -21 1.5 -34t32.5 -13z" />
    <glyph glyph-name="Edotaccent" unicode="&#x116;" horiz-adv-x="1225" 
d="M658 1739q-61 0 -105 43t-44 104q0 62 44 104.5t105 42.5q60 0 103.5 -42.5t43.5 -104.5q0 -60 -43.5 -103.5t-103.5 -43.5zM248 0q-41 0 -41 41v1454q0 41 41 41h811q41 0 41 -41v-149q0 -41 -41 -41h-554q-41 0 -41 -41v-342q0 -41 41 -41h476q41 0 41 -41v-147
q0 -41 -41 -41h-476q-41 0 -41 -41v-339q0 -41 41 -41h554q41 0 41 -41v-149q0 -41 -41 -41h-811z" />
    <glyph glyph-name="edotaccent" unicode="&#x117;" horiz-adv-x="1246" 
d="M644 1270q-61 0 -105 43t-44 104q0 62 44 104.5t105 42.5q60 0 103.5 -42.5t43.5 -104.5q0 -60 -43.5 -103.5t-103.5 -43.5zM640 -20q-162 0 -292 73.5t-201.5 199t-71.5 277.5q0 113 42.5 214.5t116 175t177.5 117t222 43.5q151 0 274.5 -67t196.5 -188.5t76 -273.5
l-1 -17q-2 -18 -13 -29t-29 -11h-783q-20 0 -31 -12t-7 -32q19 -120 110 -195t213 -75q80 0 149.5 32.5t115.5 93.5q24 32 57 18l120 -51q41 -19 21 -52q-72 -113 -192 -177t-270 -64zM372 653h521q22 0 32 13t1 34q-34 88 -112 140t-179 52q-102 0 -181 -51.5t-116 -140.5
q-9 -21 1.5 -34t32.5 -13z" />
    <glyph glyph-name="Eogonek" unicode="&#x118;" horiz-adv-x="1225" 
d="M505 1305q-41 0 -41 -41v-342q0 -41 41 -41h476q41 0 41 -41v-147q0 -41 -41 -41h-476q-41 0 -41 -41v-339q0 -41 41 -41h554q41 0 41 -41v-149q0 -41 -41 -41q-101 -46 -168.5 -120t-67.5 -147q0 -49 29.5 -74t76.5 -25q34 0 84 18q46 21 46 -26v-95q0 -34 -32 -47
q-60 -17 -119 -14q-117 2 -183 61t-66 155q0 93 63 176t177 138h-651q-41 0 -41 41v1454q0 41 41 41h811q41 0 41 -41v-149q0 -41 -41 -41h-554z" />
    <glyph glyph-name="eogonek" unicode="&#x119;" horiz-adv-x="1246" 
d="M633 1080q151 0 274.5 -67t196.5 -188.5t76 -273.5l-1 -17q-2 -18 -13 -29t-29 -11h-783q-20 0 -31 -12t-7 -32q19 -120 110 -195t213 -75q80 0 149.5 32.5t115.5 93.5q24 32 57 18l120 -51q41 -19 21 -52q-93 -147 -258 -206q-67 -47 -106.5 -104t-39.5 -112
q0 -49 29.5 -74t76.5 -25q34 0 84 18q46 21 46 -26v-95q0 -34 -32 -47q-60 -17 -119 -14q-117 2 -183 61t-66 155q0 128 111 228h-5q-162 0 -292 73.5t-201.5 199t-71.5 277.5q0 113 42.5 214.5t116 175t177.5 117t222 43.5zM893 653q22 0 32 13t1 34q-34 88 -112 140
t-179 52q-102 0 -181 -51.5t-116 -140.5q-9 -21 1.5 -34t32.5 -13h521z" />
    <glyph glyph-name="Ecaron" unicode="&#x11a;" horiz-adv-x="1225" 
d="M594 1714q-31 0 -49 26l-162 224q-14 20 -6.5 34.5t32.5 14.5h67q32 0 50 -25l102 -142q13 -18 29 -18t29 18l100 142q18 25 49 25h69q25 0 32 -14t-7 -35l-162 -224q-18 -26 -49 -26h-124zM248 0q-41 0 -41 41v1454q0 41 41 41h811q41 0 41 -41v-149q0 -41 -41 -41h-554
q-41 0 -41 -41v-342q0 -41 41 -41h476q41 0 41 -41v-147q0 -41 -41 -41h-476q-41 0 -41 -41v-339q0 -41 41 -41h554q41 0 41 -41v-149q0 -41 -41 -41h-811z" />
    <glyph glyph-name="ecaron" unicode="&#x11b;" horiz-adv-x="1246" 
d="M580 1245q-31 0 -49 26l-162 224q-14 19 -6.5 34t32.5 15h67q32 0 50 -25l102 -142q13 -18 29 -18t29 18l100 142q18 25 49 25h69q25 0 32 -14t-7 -35l-162 -224q-18 -26 -49 -26h-124zM640 -20q-162 0 -292 73.5t-201.5 199t-71.5 277.5q0 113 42.5 214.5t116 175
t177.5 117t222 43.5q151 0 274.5 -67t196.5 -188.5t76 -273.5l-1 -17q-2 -18 -13 -29t-29 -11h-783q-20 0 -31 -12t-7 -32q19 -120 110 -195t213 -75q80 0 149.5 32.5t115.5 93.5q24 32 57 18l120 -51q41 -19 21 -52q-72 -113 -192 -177t-270 -64zM372 653h521q22 0 32 13
t1 34q-34 88 -112 140t-179 52q-102 0 -181 -51.5t-116 -140.5q-9 -21 1.5 -34t32.5 -13z" />
    <glyph glyph-name="Gbreve" unicode="&#x11e;" horiz-adv-x="1788" 
d="M878 1675q-149 0 -244.5 77t-108.5 218q-3 43 40 43h63q38 0 41 -40q12 -82 68.5 -131.5t140.5 -49.5q85 0 141.5 49.5t68.5 131.5q3 40 41 40h64q43 0 40 -43q-13 -141 -109 -218t-246 -77zM904 -20q-167 0 -316 61t-255.5 166t-169 251t-62.5 310t62.5 310t169 251
t255.5 166t316 61q199 0 368 -83.5t279 -230.5q12 -17 9 -31.5t-21 -23.5l-152 -86q-33 -18 -57 13q-76 93 -187 146.5t-239 53.5q-113 0 -214 -42.5t-174 -115t-115.5 -175t-42.5 -218.5q0 -150 68.5 -273t195 -195.5t285.5 -72.5q185 0 323 97t190 259q6 21 -4 33t-32 12
h-319q-41 0 -41 41v137q0 41 41 41h598q40 0 43 -42q0 -58 -1 -87q-16 -210 -124.5 -377.5t-285.5 -261.5t-391 -94z" />
    <glyph glyph-name="gbreve" unicode="&#x11f;" horiz-adv-x="1350" 
d="M647 1198q-149 0 -244.5 77t-108.5 218q-3 43 40 43h63q38 0 41 -40q12 -82 68.5 -131.5t140.5 -49.5q85 0 141.5 49.5t68.5 131.5q3 40 41 40h64q43 0 40 -43q-13 -141 -109 -218t-246 -77zM627 -498q-315 0 -496 230q-23 31 8 57l100 89q32 26 57 -10
q116 -161 326 -161q155 0 236.5 83.5t81.5 231.5v82q0 27 -13.5 32t-33.5 -13q-118 -112 -298 -112q-220 0 -370 154t-150 383q0 228 149 379.5t368 151.5q183 0 301 -112q20 -19 33.5 -14t13.5 32v33q0 41 41 41h163q41 0 41 -41v-979q0 -248 -147 -392.5t-411 -144.5z
M637 225q134 0 226.5 92t92.5 231q0 138 -93 230.5t-226 92.5q-134 0 -226 -92.5t-92 -230.5q0 -139 92 -231t226 -92z" />
    <glyph glyph-name="Gdotaccent" unicode="&#x120;" horiz-adv-x="1788" 
d="M880 1739q-61 0 -105 43t-44 104q0 62 44 104.5t105 42.5q60 0 103.5 -42.5t43.5 -104.5q0 -60 -43.5 -103.5t-103.5 -43.5zM904 -20q-167 0 -316 61t-255.5 166t-169 251t-62.5 310t62.5 310t169 251t255.5 166t316 61q199 0 368 -83.5t279 -230.5q12 -17 9 -31.5
t-21 -23.5l-152 -86q-33 -18 -57 13q-76 93 -187 146.5t-239 53.5q-113 0 -214 -42.5t-174 -115t-115.5 -175t-42.5 -218.5q0 -150 68.5 -273t195 -195.5t285.5 -72.5q185 0 323 97t190 259q6 21 -4 33t-32 12h-319q-41 0 -41 41v137q0 41 41 41h598q40 0 43 -42
q0 -58 -1 -87q-16 -210 -124.5 -377.5t-285.5 -261.5t-391 -94z" />
    <glyph glyph-name="gdotaccent" unicode="&#x121;" horiz-adv-x="1350" 
d="M649 1262q-61 0 -105 43t-44 104q0 62 44 104.5t105 42.5q60 0 103.5 -42.5t43.5 -104.5q0 -60 -43.5 -103.5t-103.5 -43.5zM627 -498q-315 0 -496 230q-23 31 8 57l100 89q32 26 57 -10q116 -161 326 -161q155 0 236.5 83.5t81.5 231.5v82q0 27 -13.5 32t-33.5 -13
q-118 -112 -298 -112q-220 0 -370 154t-150 383q0 228 149 379.5t368 151.5q183 0 301 -112q20 -19 33.5 -14t13.5 32v33q0 41 41 41h163q41 0 41 -41v-979q0 -248 -147 -392.5t-411 -144.5zM637 225q134 0 226.5 92t92.5 231q0 138 -93 230.5t-226 92.5q-134 0 -226 -92.5
t-92 -230.5q0 -139 92 -231t226 -92z" />
    <glyph glyph-name="uni0122" unicode="&#x122;" horiz-adv-x="1788" 
d="M904 -20q-167 0 -316 61t-255.5 166t-169 251t-62.5 310t62.5 310t169 251t255.5 166t316 61q199 0 368 -83.5t279 -230.5q12 -17 9 -31.5t-21 -23.5l-152 -86q-33 -18 -57 13q-76 93 -187 146.5t-239 53.5q-113 0 -214 -42.5t-174 -115t-115.5 -175t-42.5 -218.5
q0 -150 68.5 -273t195 -195.5t285.5 -72.5q185 0 323 97t190 259q6 21 -4 33t-32 12h-319q-41 0 -41 41v137q0 41 41 41h598q40 0 43 -42q0 -58 -1 -87q-16 -210 -124.5 -377.5t-285.5 -261.5t-391 -94zM688 -567l-52 24q-37 18 -21 54l136 311q13 31 48 31h134q25 0 33 -15
t-5 -35l-219 -354q-19 -30 -54 -16z" />
    <glyph glyph-name="uni0123" unicode="&#x123;" horiz-adv-x="1350" 
d="M782 1537q21 0 31 -6t7 -17l-98 -279q-6 -18 -44 -18h-178q-22 0 -31.5 6.5t-2.5 16.5l172 280q11 17 47 17h97zM627 -498q-315 0 -496 230q-23 31 8 57l100 89q32 26 57 -10q116 -161 326 -161q155 0 236.5 83.5t81.5 231.5v82q0 27 -13.5 32t-33.5 -13
q-118 -112 -298 -112q-220 0 -370 154t-150 383q0 228 149 379.5t368 151.5q183 0 301 -112q20 -19 33.5 -14t13.5 32v33q0 41 41 41h163q41 0 41 -41v-979q0 -248 -147 -392.5t-411 -144.5zM637 225q134 0 226.5 92t92.5 231q0 138 -93 230.5t-226 92.5q-134 0 -226 -92.5
t-92 -230.5q0 -139 92 -231t226 -92z" />
    <glyph glyph-name="Hbar" unicode="&#x126;" horiz-adv-x="1654" 
d="M1534 1268q41 0 41 -41v-43q0 -41 -41 -41h-86v-1102q0 -41 -41 -41h-175q-41 0 -41 41v573q0 41 -41 41h-645q-41 0 -41 -41v-573q0 -41 -41 -41h-175q-41 0 -41 41v1102h-90q-41 0 -41 41v43q0 41 41 41h90v227q0 41 41 41h175q41 0 41 -41v-227h727v227q0 41 41 41
h175q41 0 41 -41v-227h86zM1191 924v219h-727v-219q0 -40 41 -40h645q41 0 41 40z" />
    <glyph glyph-name="hbar" unicode="&#x127;" horiz-adv-x="1249" 
d="M206 0q-41 0 -41 41v1144q0 41 -41 41h-48q-41 0 -41 41v76q0 41 41 41h48q41 0 41 41v70q0 41 41 41h157q41 0 41 -41v-70q0 -41 41 -41h208q41 0 41 -41v-76q0 -41 -41 -41h-208q-41 0 -41 -41v-205q0 -27 13 -31.5t32 16.5q106 114 275 114q176 0 280 -110t104 -315
v-613q0 -41 -41 -41h-156q-41 0 -41 41v574q0 135 -61 195t-163 60q-109 0 -175 -67.5t-67 -197.5v-564q0 -41 -41 -41h-157z" />
    <glyph glyph-name="Itilde" unicode="&#x128;" horiz-adv-x="671" 
d="M472 1728q-119 0 -192 114q-34 53 -82 53q-38 0 -61.5 -31t-29.5 -82q-3 -41 -42 -41h-47q-43 0 -40 43q10 107 67.5 172t148.5 65q118 0 192 -113q33 -54 84 -54q77 0 90 113q3 41 42 41h47q43 0 40 -47q-12 -104 -68.5 -168.5t-148.5 -64.5zM248 0q-41 0 -41 41v1454
q0 41 41 41h175q41 0 41 -41v-1454q0 -41 -41 -41h-175z" />
    <glyph glyph-name="itilde" unicode="&#x129;" horiz-adv-x="573" 
d="M425 1251q-119 0 -192 114q-34 53 -82 53q-38 0 -61.5 -31t-29.5 -82q-3 -41 -42 -41h-47q-43 0 -40 43q10 107 67.5 172t148.5 65q118 0 192 -113q33 -54 84 -54q77 0 90 113q3 41 42 41h47q43 0 40 -47q-12 -104 -68.5 -168.5t-148.5 -64.5zM206 0q-41 0 -41 41v977
q0 41 41 41h161q41 0 41 -41v-977q0 -41 -41 -41h-161z" />
    <glyph glyph-name="Imacron" unicode="&#x12a;" horiz-adv-x="671" 
d="M50 1709q-41 0 -41 41v71q0 41 41 41h569q41 0 41 -41v-71q0 -41 -41 -41h-569zM248 0q-41 0 -41 41v1454q0 41 41 41h175q41 0 41 -41v-1454q0 -41 -41 -41h-175z" />
    <glyph glyph-name="imacron" unicode="&#x12b;" horiz-adv-x="573" 
d="M3 1232q-41 0 -41 41v71q0 41 41 41h569q41 0 41 -41v-71q0 -41 -41 -41h-569zM206 0q-41 0 -41 41v977q0 41 41 41h161q41 0 41 -41v-977q0 -41 -41 -41h-161z" />
    <glyph glyph-name="Iogonek" unicode="&#x12e;" horiz-adv-x="671" 
d="M464 41q0 -25 -15 -34l15 -7q-101 -46 -168.5 -120t-67.5 -147q0 -49 29.5 -74t76.5 -25q34 0 84 18q46 21 46 -26v-95q0 -34 -32 -47q-60 -17 -119 -14q-117 2 -183 61t-66 155q0 93 63 176t177 138h-56q-41 0 -41 41v1454q0 41 41 41h175q41 0 41 -41v-1454z" />
    <glyph glyph-name="iogonek" unicode="&#x12f;" horiz-adv-x="573" 
d="M288 1262q-61 0 -105 43t-44 104q0 62 44 104.5t105 42.5q60 0 103.5 -42.5t43.5 -104.5q0 -60 -43.5 -103.5t-103.5 -43.5zM367 1059q41 0 41 -41v-977q0 -25 -15 -34l15 -7q-101 -46 -168.5 -120t-67.5 -147q0 -49 29.5 -74t76.5 -25q34 0 84 18q46 21 46 -26v-95
q0 -34 -32 -47q-60 -17 -119 -14q-117 2 -183 61t-66 155q0 93 63 176t177 138h-42q-41 0 -41 41v977q0 41 41 41h161z" />
    <glyph glyph-name="Idotaccent" unicode="&#x130;" horiz-adv-x="671" 
d="M335 1739q-61 0 -105 43t-44 104q0 62 44 104.5t105 42.5q60 0 103.5 -42.5t43.5 -104.5q0 -60 -43.5 -103.5t-103.5 -43.5zM248 0q-41 0 -41 41v1454q0 41 41 41h175q41 0 41 -41v-1454q0 -41 -41 -41h-175z" />
    <glyph glyph-name="dotlessi" unicode="&#x131;" horiz-adv-x="573" 
d="M206 0q-41 0 -41 41v977q0 41 41 41h161q41 0 41 -41v-977q0 -41 -41 -41h-161z" />
    <glyph glyph-name="uni0136" unicode="&#x136;" horiz-adv-x="1460" 
d="M248 0q-41 0 -41 41v1454q0 41 41 41h175q41 0 41 -41v-555q0 -28 16 -34t35 15l507 592q20 23 50 23h229q26 0 33.5 -16t-10.5 -35l-562 -635q-25 -30 -1 -57l612 -743q17 -20 10.5 -35t-32.5 -15h-240q-33 0 -50 25l-547 688q-18 23 -34 17t-16 -34v-655q0 -41 -41 -41
h-175zM531 -567l-52 24q-37 18 -21 54l136 311q13 31 48 31h134q25 0 33 -15t-5 -35l-219 -354q-19 -30 -54 -16z" />
    <glyph glyph-name="uni0137" unicode="&#x137;" horiz-adv-x="1196" 
d="M206 0q-41 0 -41 41v1454q0 41 41 41h161q41 0 41 -41v-813q0 -28 16.5 -34.5t35.5 14.5l341 374q23 23 51 23h203q26 0 32.5 -15.5t-11.5 -35.5l-388 -410q-27 -28 0 -58l454 -489q18 -19 10.5 -35t-33.5 -16h-214q-31 0 -51 23l-394 437q-19 21 -35.5 14.5t-16.5 -34.5
v-399q0 -41 -41 -41h-161zM405 -567l-52 24q-37 18 -21 54l136 311q13 31 48 31h134q25 0 33 -15t-5 -35l-219 -354q-19 -30 -54 -16z" />
    <glyph glyph-name="Lacute" unicode="&#x139;" horiz-adv-x="1061" 
d="M365 1681h-72q-26 0 -33 13.5t8 35.5l202 269q25 34 58 8l62 -45q34 -25 6 -58l-180 -201q-21 -22 -51 -22zM248 0q-41 0 -41 41v1454q0 41 41 41h175q41 0 41 -41v-1223q0 -41 41 -41h456q40 0 40 -41v-149q0 -41 -40 -41h-713z" />
    <glyph glyph-name="lacute" unicode="&#x13a;" horiz-adv-x="573" 
d="M317 1681h-72q-26 0 -33 13.5t8 35.5l202 269q25 34 58 8l62 -45q34 -25 6 -58l-180 -201q-21 -22 -51 -22zM206 0q-41 0 -41 41v1454q0 41 41 41h161q41 0 41 -41v-1454q0 -41 -41 -41h-161z" />
    <glyph glyph-name="uni013B" unicode="&#x13b;" horiz-adv-x="1061" 
d="M248 0q-41 0 -41 41v1454q0 41 41 41h175q41 0 41 -41v-1223q0 -41 41 -41h456q40 0 40 -41v-149q0 -41 -40 -41h-713zM414 -567l-52 24q-37 18 -21 54l136 311q13 31 48 31h134q25 0 33 -15t-5 -35l-219 -354q-19 -30 -54 -16z" />
    <glyph glyph-name="uni013C" unicode="&#x13c;" horiz-adv-x="573" 
d="M206 0q-41 0 -41 41v1454q0 41 41 41h161q41 0 41 -41v-1454q0 -41 -41 -41h-161zM96 -567l-52 24q-37 18 -21 54l136 311q13 31 48 31h134q25 0 33 -15t-5 -35l-219 -354q-19 -30 -54 -16z" />
    <glyph glyph-name="Lcaron" unicode="&#x13d;" horiz-adv-x="1128" 
d="M248 0q-41 0 -41 41v1454q0 41 41 41h175q41 0 41 -41v-1223q0 -41 41 -41h456q40 0 40 -41v-149q0 -41 -40 -41h-713zM720 890q-21 0 -31 12.5t-7 32.5l98 564q6 37 44 37h178q22 0 31.5 -12.5t2.5 -33.5l-172 -566q-10 -34 -47 -34h-97z" />
    <glyph glyph-name="lcaron" unicode="&#x13e;" horiz-adv-x="750" 
d="M206 0q-41 0 -41 41v1454q0 41 41 41h161q41 0 41 -41v-1454q0 -41 -41 -41h-161zM561 890q-21 0 -31 12.5t-7 32.5l98 564q6 37 44 37h178q22 0 31.5 -12.5t2.5 -33.5l-172 -566q-10 -34 -47 -34h-97z" />
    <glyph glyph-name="Lslash" unicode="&#x141;" horiz-adv-x="1061" 
d="M961 231q40 0 40 -41v-149q0 -41 -40 -41h-713q-41 0 -41 41v514l-98 -73q-20 -15 -34.5 -7.5t-14.5 32.5v86q0 30 24 50l123 91v761q0 41 41 41h175q41 0 41 -41v-571l174 129q20 15 34.5 7.5t14.5 -32.5v-87q0 -31 -25 -49l-198 -147v-473q0 -41 41 -41h456z" />
    <glyph glyph-name="lslash" unicode="&#x142;" horiz-adv-x="686" 
d="M269 0q-41 0 -41 41v507q0 25 -15 32.5t-34 -7.5l-95 -70q-20 -16 -34.5 -8.5t-14.5 32.5v87q0 30 24 49l144 107q25 18 25 49v676q0 41 41 41h161q41 0 41 -41v-465q0 -25 14.5 -32.5t34.5 8.5l93 68q19 15 34 7.5t15 -32.5v-88q0 -29 -25 -49l-141 -105
q-25 -18 -25 -49v-717q0 -41 -41 -41h-161z" />
    <glyph glyph-name="Nacute" unicode="&#x143;" horiz-adv-x="1825" 
d="M945 1681h-72q-26 0 -33 13.5t8 35.5l202 269q25 34 58 8l62 -45q34 -25 6 -58l-180 -201q-21 -22 -51 -22zM248 0q-41 0 -41 41v1454q0 41 41 41h154q31 0 50 -23l863 -1054q18 -22 34.5 -16t16.5 34v1018q0 41 41 41h170q41 0 41 -41v-1454q0 -41 -41 -41h-155
q-31 0 -50 23l-863 1056q-18 22 -34.5 16.5t-16.5 -34.5v-1020q0 -41 -41 -41h-169z" />
    <glyph glyph-name="nacute" unicode="&#x144;" horiz-adv-x="1254" 
d="M657 1204h-72q-26 0 -33 13.5t8 35.5l202 269q25 34 58 8l62 -45q34 -25 6 -58l-180 -201q-21 -22 -51 -22zM206 0q-41 0 -41 41v977q0 41 41 41h162q41 0 41 -41v-36q0 -28 12.5 -31.5t32.5 16.5q106 112 274 112q176 0 280.5 -110t104.5 -315v-613q0 -41 -41 -41h-163
q-41 0 -41 41v574q0 255 -220 255q-107 0 -172.5 -68t-66.5 -197v-564q0 -41 -41 -41h-162z" />
    <glyph glyph-name="uni0145" unicode="&#x145;" horiz-adv-x="1825" 
d="M248 0q-41 0 -41 41v1454q0 41 41 41h154q31 0 50 -23l863 -1054q18 -22 34.5 -16t16.5 34v1018q0 41 41 41h170q41 0 41 -41v-1454q0 -41 -41 -41h-155q-31 0 -50 23l-863 1056q-18 22 -34.5 16.5t-16.5 -34.5v-1020q0 -41 -41 -41h-169zM720 -567l-52 24q-37 18 -21 54
l136 311q13 31 48 31h134q25 0 33 -15t-5 -35l-219 -354q-19 -30 -54 -16z" />
    <glyph glyph-name="uni0146" unicode="&#x146;" horiz-adv-x="1254" 
d="M206 0q-41 0 -41 41v977q0 41 41 41h162q41 0 41 -41v-36q0 -28 12.5 -31.5t32.5 16.5q106 112 274 112q176 0 280.5 -110t104.5 -315v-613q0 -41 -41 -41h-163q-41 0 -41 41v574q0 255 -220 255q-107 0 -172.5 -68t-66.5 -197v-564q0 -41 -41 -41h-162zM436 -567l-52 24
q-37 18 -21 54l136 311q13 31 48 31h134q25 0 33 -15t-5 -35l-219 -354q-19 -30 -54 -16z" />
    <glyph glyph-name="Ncaron" unicode="&#x147;" horiz-adv-x="1825" 
d="M852 1714q-31 0 -49 26l-162 224q-14 20 -6.5 34.5t32.5 14.5h67q32 0 50 -25l102 -142q13 -18 29 -18t29 18l100 142q18 25 49 25h69q25 0 32 -14t-7 -35l-162 -224q-18 -26 -49 -26h-124zM248 0q-41 0 -41 41v1454q0 41 41 41h154q31 0 50 -23l863 -1054
q18 -22 34.5 -16t16.5 34v1018q0 41 41 41h170q41 0 41 -41v-1454q0 -41 -41 -41h-155q-31 0 -50 23l-863 1056q-18 22 -34.5 16.5t-16.5 -34.5v-1020q0 -41 -41 -41h-169z" />
    <glyph glyph-name="ncaron" unicode="&#x148;" horiz-adv-x="1254" 
d="M564 1237q-31 0 -49 26l-162 224q-14 19 -6.5 34t32.5 15h67q32 0 50 -25l102 -142q13 -18 29 -18t29 18l100 142q18 25 49 25h69q25 0 32 -14t-7 -35l-162 -224q-18 -26 -49 -26h-124zM206 0q-41 0 -41 41v977q0 41 41 41h162q41 0 41 -41v-36q0 -28 12.5 -31.5
t32.5 16.5q106 112 274 112q176 0 280.5 -110t104.5 -315v-613q0 -41 -41 -41h-163q-41 0 -41 41v574q0 255 -220 255q-107 0 -172.5 -68t-66.5 -197v-564q0 -41 -41 -41h-162z" />
    <glyph glyph-name="Eng" unicode="&#x14a;" horiz-adv-x="1825" 
d="M1577 1536q41 0 41 -41v-1456q0 -238 -135.5 -381t-379.5 -154q-43 -3 -43 39v124q0 39 40 42q134 11 204 93t70 219l-2 2l-863 1056q-18 22 -34.5 16.5t-16.5 -34.5v-1020q0 -41 -41 -41h-169q-41 0 -41 41v1454q0 41 41 41h154q31 0 50 -23l863 -1054q18 -22 34.5 -16
t16.5 34v1018q0 41 41 41h170z" />
    <glyph glyph-name="eng" unicode="&#x14b;" horiz-adv-x="1254" 
d="M658 -498q-41 0 -41 41v97q0 41 41 41h72q63 0 100.5 41.5t37.5 116.5v760q0 138 -59 200.5t-161 62.5q-106 0 -172 -68t-67 -197v-556q0 -41 -41 -41h-162q-41 0 -41 41v977q0 41 41 41h162q41 0 41 -41v-7q0 -26 12.5 -33t31.5 10q105 91 258 91q177 0 289.5 -118
t112.5 -324v-797q0 -155 -88.5 -246.5t-240.5 -91.5h-126z" />
    <glyph glyph-name="Omacron" unicode="&#x14c;" horiz-adv-x="1809" 
d="M620 1709q-41 0 -41 41v71q0 41 41 41h569q41 0 41 -41v-71q0 -41 -41 -41h-569zM904 -20q-167 0 -316 61t-255.5 166t-169 251t-62.5 310t62.5 310t169 251t255.5 166t316 61t316 -61t256 -166t169.5 -251t62.5 -310t-62.5 -310t-169.5 -251t-256 -166t-316 -61z
M904 222q151 0 277 72t198 197.5t72 276.5t-72 276.5t-198 197.5t-277 72q-150 0 -275.5 -72t-198 -197.5t-72.5 -276.5t72.5 -276.5t198 -197.5t275.5 -72z" />
    <glyph glyph-name="omacron" unicode="&#x14d;" horiz-adv-x="1290" 
d="M361 1231q-41 0 -41 41v71q0 41 41 41h569q41 0 41 -41v-71q0 -41 -41 -41h-569zM645 -20q-159 0 -289.5 71t-205.5 197.5t-75 281.5q0 154 75 280t205.5 197.5t289.5 71.5q158 0 289 -71.5t206 -197.5t75 -280q0 -116 -44 -218.5t-120 -175t-181.5 -114.5t-224.5 -42z
M644 195q140 0 237.5 96t97.5 239q0 142 -97.5 238.5t-237.5 96.5t-237 -96t-97 -239q0 -144 96.5 -239.5t237.5 -95.5z" />
    <glyph glyph-name="Ohungarumlaut" unicode="&#x150;" horiz-adv-x="1809" 
d="M702 1681q-26 0 -33 13.5t8 35.5l203 269q24 33 57 8l63 -45q34 -25 6 -58l-182 -201q-18 -22 -51 -22h-71zM1066 1681q-26 0 -33 13.5t9 35.5l203 269q23 34 56 8l64 -45q33 -25 5 -58l-181 -201q-19 -22 -51 -22h-72zM904 -20q-167 0 -316 61t-255.5 166t-169 251
t-62.5 310t62.5 310t169 251t255.5 166t316 61t316 -61t256 -166t169.5 -251t62.5 -310t-62.5 -310t-169.5 -251t-256 -166t-316 -61zM904 222q151 0 277 72t198 197.5t72 276.5t-72 276.5t-198 197.5t-277 72q-150 0 -275.5 -72t-198 -197.5t-72.5 -276.5t72.5 -276.5
t198 -197.5t275.5 -72z" />
    <glyph glyph-name="ohungarumlaut" unicode="&#x151;" horiz-adv-x="1290" 
d="M443 1203q-26 0 -33 13.5t8 35.5l203 269q24 33 57 8l63 -45q34 -25 6 -58l-182 -201q-18 -22 -51 -22h-71zM807 1203q-26 0 -33 13.5t9 35.5l203 269q23 34 56 8l64 -45q33 -25 5 -58l-181 -201q-19 -22 -51 -22h-72zM645 -20q-159 0 -289.5 71t-205.5 197.5t-75 281.5
q0 154 75 280t205.5 197.5t289.5 71.5q158 0 289 -71.5t206 -197.5t75 -280q0 -116 -44 -218.5t-120 -175t-181.5 -114.5t-224.5 -42zM644 195q140 0 237.5 96t97.5 239q0 142 -97.5 238.5t-237.5 96.5t-237 -96t-97 -239q0 -144 96.5 -239.5t237.5 -95.5z" />
    <glyph glyph-name="OE" unicode="&#x152;" horiz-adv-x="2154" 
d="M877 0q-370 0 -573 207t-203 561t203 561t573 207h1111q41 0 41 -41v-149q0 -41 -41 -41h-563q-41 0 -41 -41v-341q0 -41 41 -41h477q41 0 41 -41v-149q0 -41 -41 -41h-477q-41 0 -41 -41v-338q0 -41 41 -41h563q41 0 41 -41v-149q0 -41 -41 -41h-1111zM887 231h200
q41 0 41 41v992q0 41 -41 41h-200q-260 0 -391 -138t-131 -399t131 -399t391 -138z" />
    <glyph glyph-name="oe" unicode="&#x153;" horiz-adv-x="2161" 
d="M645 -20q-159 0 -289.5 71t-205.5 197.5t-75 281.5q0 154 75 280t205.5 197.5t289.5 71.5q140 0 260 -59.5t196 -163.5q74 104 191.5 164t255.5 60q151 0 274.5 -67t196.5 -188.5t76 -273.5l-1 -17q-1 -18 -12 -29t-30 -11h-783q-20 0 -31 -12t-7 -32q22 -120 112 -195
t211 -75q80 0 149.5 32.5t115.5 93.5q24 32 57 18l120 -51q19 -7 25 -21.5t-4 -30.5q-68 -114 -189 -177.5t-273 -63.5q-143 0 -261 59.5t-193 163.5q-76 -104 -196 -163.5t-260 -59.5zM1282 653h521q22 0 32 13t1 34q-34 88 -112 140t-179 52q-102 0 -181 -51.5
t-116 -140.5q-9 -21 1.5 -34t32.5 -13zM644 195q140 0 237.5 96t97.5 239q0 142 -97.5 238.5t-237.5 96.5t-237 -96t-97 -239q0 -144 96.5 -239.5t237.5 -95.5z" />
    <glyph glyph-name="Racute" unicode="&#x154;" horiz-adv-x="1446" 
d="M761 1681h-72q-26 0 -33 13.5t8 35.5l202 269q25 34 58 8l62 -45q34 -25 6 -58l-180 -201q-21 -22 -51 -22zM248 0q-41 0 -41 41v1454q0 41 41 41h551q212 0 340.5 -128t128.5 -318q0 -129 -65 -231t-175 -152q-39 -19 -19 -55l356 -603q12 -19 3.5 -34t-32.5 -15h-188
q-34 0 -49 29l-334 602q-16 29 -49 29h-211q-41 0 -41 -41v-578q0 -41 -41 -41h-175zM464 915q0 -41 41 -41h275q110 0 174 57.5t64 159.5q0 100 -64.5 161t-173.5 61h-275q-41 0 -41 -41v-357z" />
    <glyph glyph-name="racute" unicode="&#x155;" horiz-adv-x="798" 
d="M421 1204h-72q-26 0 -33 13.5t8 35.5l202 269q25 34 58 8l62 -45q34 -25 6 -58l-180 -201q-21 -22 -51 -22zM206 0q-41 0 -41 41v977q0 41 41 41h153q41 0 41 -41v-75q0 -28 13 -32.5t32 17.5q103 117 278 137q44 6 44 -38v-149q0 -40 -41 -42q-154 -7 -236 -79.5
t-82 -226.5v-489q0 -41 -41 -41h-161z" />
    <glyph glyph-name="uni0156" unicode="&#x156;" horiz-adv-x="1446" 
d="M248 0q-41 0 -41 41v1454q0 41 41 41h551q212 0 340.5 -128t128.5 -318q0 -129 -65 -231t-175 -152q-39 -19 -19 -55l356 -603q12 -19 3.5 -34t-32.5 -15h-188q-34 0 -49 29l-334 602q-16 29 -49 29h-211q-41 0 -41 -41v-578q0 -41 -41 -41h-175zM464 915q0 -41 41 -41
h275q110 0 174 57.5t64 159.5q0 100 -64.5 161t-173.5 61h-275q-41 0 -41 -41v-357zM540 -567l-52 24q-37 18 -21 54l136 311q13 31 48 31h134q25 0 33 -15t-5 -35l-219 -354q-19 -30 -54 -16z" />
    <glyph glyph-name="uni0157" unicode="&#x157;" horiz-adv-x="798" 
d="M206 0q-41 0 -41 41v977q0 41 41 41h153q41 0 41 -41v-75q0 -28 13 -32.5t32 17.5q103 117 278 137q44 6 44 -38v-149q0 -40 -41 -42q-154 -7 -236 -79.5t-82 -226.5v-489q0 -41 -41 -41h-161zM101 -567l-52 24q-37 18 -21 54l136 311q13 31 48 31h134q25 0 33 -15
t-5 -35l-219 -354q-19 -30 -54 -16z" />
    <glyph glyph-name="Rcaron" unicode="&#x158;" horiz-adv-x="1446" 
d="M668 1714q-31 0 -49 26l-162 224q-14 20 -6.5 34.5t32.5 14.5h67q32 0 50 -25l102 -142q13 -18 29 -18t29 18l100 142q18 25 49 25h69q25 0 32 -14t-7 -35l-162 -224q-18 -26 -49 -26h-124zM248 0q-41 0 -41 41v1454q0 41 41 41h551q212 0 340.5 -128t128.5 -318
q0 -129 -65 -231t-175 -152q-39 -19 -19 -55l356 -603q12 -19 3.5 -34t-32.5 -15h-188q-34 0 -49 29l-334 602q-16 29 -49 29h-211q-41 0 -41 -41v-578q0 -41 -41 -41h-175zM464 915q0 -41 41 -41h275q110 0 174 57.5t64 159.5q0 100 -64.5 161t-173.5 61h-275
q-41 0 -41 -41v-357z" />
    <glyph glyph-name="rcaron" unicode="&#x159;" horiz-adv-x="798" 
d="M328 1237q-31 0 -49 26l-162 224q-14 19 -6.5 34t32.5 15h67q32 0 50 -25l102 -142q13 -18 29 -18t29 18l100 142q18 25 49 25h69q25 0 32 -14t-7 -35l-162 -224q-18 -26 -49 -26h-124zM206 0q-41 0 -41 41v977q0 41 41 41h153q41 0 41 -41v-75q0 -28 13 -32.5t32 17.5
q103 117 278 137q44 6 44 -38v-149q0 -40 -41 -42q-154 -7 -236 -79.5t-82 -226.5v-489q0 -41 -41 -41h-161z" />
    <glyph glyph-name="Sacute" unicode="&#x15a;" horiz-adv-x="1220" 
d="M631 1681h-72q-26 0 -33 13.5t8 35.5l202 269q25 34 58 8l62 -45q34 -25 6 -58l-180 -201q-21 -22 -51 -22zM633 -20q-148 0 -289 58.5t-244 157.5q-26 28 0 57l102 123q27 32 57 -1q76 -80 174 -127t197 -47q106 0 174 54.5t68 147.5q0 42 -18.5 78.5t-36.5 58.5
t-70.5 52t-76 41t-97.5 43q-13 6 -20 9q-55 24 -88.5 39t-82 41.5t-79 50t-65 58.5t-53.5 72t-32 86t-13 105q0 128 62 224.5t165 145.5t231 49q254 0 456 -177q30 -27 4 -58l-88 -117q-26 -33 -58 -1q-150 132 -317 132q-88 0 -146.5 -46t-58.5 -129q0 -39 18 -73t35.5 -55
t70 -50t74.5 -39t97 -42q17 -7 25 -11q51 -22 86.5 -38.5t83 -43t79 -51.5t66 -61.5t55 -76t33.5 -91.5t13 -111q0 -139 -68.5 -240t-178 -149t-246.5 -48z" />
    <glyph glyph-name="sacute" unicode="&#x15b;" horiz-adv-x="969" 
d="M519 1204h-72q-26 0 -33 13.5t8 35.5l202 269q25 34 58 8l62 -45q34 -25 6 -58l-180 -201q-21 -22 -51 -22zM489 -20q-216 0 -396 115q-33 21 -11 56l66 112q20 36 56 10q64 -44 140 -71.5t145 -27.5q75 0 119.5 32t44.5 90q0 25 -12 46t-26 34t-48 28t-53.5 21.5
t-66.5 20.5q-11 3 -16 5q-43 13 -65.5 21t-62 24.5t-61.5 31t-50.5 39t-43.5 51t-26 63.5t-11 81q0 152 111.5 234.5t278.5 82.5q177 0 327 -87q37 -20 12 -55l-67 -100q-23 -33 -57 -12q-115 66 -224 66q-68 0 -109 -27.5t-41 -77.5q0 -14 3.5 -26.5t13 -23t18 -18.5
t25.5 -16.5l29 -14.5t35 -13.5t36.5 -12t40.5 -12.5t41 -12q54 -17 89.5 -31t80.5 -40.5t72 -58t46 -81t19 -110.5q0 -161 -110.5 -248.5t-291.5 -87.5z" />
    <glyph glyph-name="Scedilla" unicode="&#x15e;" horiz-adv-x="1220" 
d="M650 -20l-28 -54q-23 -44 -7 -47q5 -1 27 -1q85 0 140.5 -53.5t55.5 -137.5q0 -92 -63.5 -156t-155.5 -64q-67 0 -125 30t-92 79q-12 17 -6 31t26 22l42 14q28 12 55 -15q41 -38 97 -38q40 0 68.5 27.5t28.5 69.5q0 44 -28 69t-72 25q-27 0 -51 -10q-34 -13 -55 1l-36 21
q-32 21 -16 56l73 139q-121 18 -232.5 72.5t-195.5 135.5q-26 28 0 57l102 123q27 32 57 -1q76 -80 174 -127t197 -47q106 0 174 54.5t68 147.5q0 42 -18.5 78.5t-36.5 58.5t-70.5 52t-76 41t-97.5 43q-13 6 -20 9q-55 24 -88.5 39t-82 41.5t-79 50t-65 58.5t-53.5 72
t-32 86t-13 105q0 128 62 224.5t165 145.5t231 49q254 0 456 -177q30 -27 4 -58l-88 -117q-26 -33 -58 -1q-150 132 -317 132q-88 0 -146.5 -46t-58.5 -129q0 -39 18 -73t35.5 -55t70 -50t74.5 -39t97 -42q17 -7 25 -11q51 -22 86.5 -38.5t83 -43t79 -51.5t66 -61.5t55 -76
t33.5 -91.5t13 -111q0 -103 -37.5 -186t-103 -136.5t-151 -83t-184.5 -31.5z" />
    <glyph glyph-name="scedilla" unicode="&#x15f;" horiz-adv-x="969" 
d="M553 -17l-29 -56q-23 -44 -7 -47q5 -1 27 -1q85 0 140.5 -53.5t55.5 -137.5q0 -92 -63.5 -156t-155.5 -64q-67 0 -125 30t-92 79q-12 17 -6 31t26 22l42 14q28 12 55 -15q41 -38 97 -38q40 0 68.5 27.5t28.5 69.5q0 44 -28 69t-72 25q-27 0 -51 -10q-34 -13 -55 1l-36 21
q-32 21 -16 56l70 133q-182 15 -334 112q-33 21 -11 56l66 112q20 36 56 10q64 -44 140 -71.5t145 -27.5q75 0 119.5 32t44.5 90q0 25 -12 46t-26 34t-48 28t-53.5 21.5t-66.5 20.5q-11 3 -16 5q-43 13 -65.5 21t-62 24.5t-61.5 31t-50.5 39t-43.5 51t-26 63.5t-11 81
q0 152 111.5 234.5t278.5 82.5q177 0 327 -87q37 -20 12 -55l-67 -100q-23 -33 -57 -12q-115 66 -224 66q-68 0 -109 -27.5t-41 -77.5q0 -14 3.5 -26.5t13 -23t18 -18.5t25.5 -16.5l29 -14.5t35 -13.5t36.5 -12t40.5 -12.5t41 -12q54 -17 89.5 -31t80.5 -40.5t72 -58t46 -81
t19 -110.5q0 -146 -92 -231.5t-246 -101.5z" />
    <glyph glyph-name="Scaron" unicode="&#x160;" horiz-adv-x="1220" 
d="M538 1714q-31 0 -49 26l-162 224q-14 20 -6.5 34.5t32.5 14.5h67q32 0 50 -25l102 -142q13 -18 29 -18t29 18l100 142q18 25 49 25h69q25 0 32 -14t-7 -35l-162 -224q-18 -26 -49 -26h-124zM633 -20q-148 0 -289 58.5t-244 157.5q-26 28 0 57l102 123q27 32 57 -1
q76 -80 174 -127t197 -47q106 0 174 54.5t68 147.5q0 42 -18.5 78.5t-36.5 58.5t-70.5 52t-76 41t-97.5 43q-13 6 -20 9q-55 24 -88.5 39t-82 41.5t-79 50t-65 58.5t-53.5 72t-32 86t-13 105q0 128 62 224.5t165 145.5t231 49q254 0 456 -177q30 -27 4 -58l-88 -117
q-26 -33 -58 -1q-150 132 -317 132q-88 0 -146.5 -46t-58.5 -129q0 -39 18 -73t35.5 -55t70 -50t74.5 -39t97 -42q17 -7 25 -11q51 -22 86.5 -38.5t83 -43t79 -51.5t66 -61.5t55 -76t33.5 -91.5t13 -111q0 -139 -68.5 -240t-178 -149t-246.5 -48z" />
    <glyph glyph-name="scaron" unicode="&#x161;" horiz-adv-x="969" 
d="M426 1237q-31 0 -49 26l-162 224q-14 19 -6.5 34t32.5 15h67q32 0 50 -25l102 -142q13 -18 29 -18t29 18l100 142q18 25 49 25h69q25 0 32 -14t-7 -35l-162 -224q-18 -26 -49 -26h-124zM489 -20q-216 0 -396 115q-33 21 -11 56l66 112q20 36 56 10q64 -44 140 -71.5
t145 -27.5q75 0 119.5 32t44.5 90q0 25 -12 46t-26 34t-48 28t-53.5 21.5t-66.5 20.5q-11 3 -16 5q-43 13 -65.5 21t-62 24.5t-61.5 31t-50.5 39t-43.5 51t-26 63.5t-11 81q0 152 111.5 234.5t278.5 82.5q177 0 327 -87q37 -20 12 -55l-67 -100q-23 -33 -57 -12
q-115 66 -224 66q-68 0 -109 -27.5t-41 -77.5q0 -14 3.5 -26.5t13 -23t18 -18.5t25.5 -16.5l29 -14.5t35 -13.5t36.5 -12t40.5 -12.5t41 -12q54 -17 89.5 -31t80.5 -40.5t72 -58t46 -81t19 -110.5q0 -161 -110.5 -248.5t-291.5 -87.5z" />
    <glyph glyph-name="uni0162" unicode="&#x162;" horiz-adv-x="1183" 
d="M1083 1536q41 0 41 -41v-149q0 -41 -41 -41h-322q-41 0 -41 -41v-1223q0 -41 -41 -41h-26l-38 -73q-23 -44 -7 -47q5 -1 27 -1q85 0 140.5 -53.5t55.5 -137.5q0 -92 -63.5 -156t-155.5 -64q-67 0 -125 30t-92 79q-12 17 -6 31t26 22l42 14q28 12 55 -15q41 -38 97 -38
q40 0 68.5 27.5t28.5 69.5q0 44 -28 69t-72 25q-27 0 -51 -10q-34 -13 -55 1l-36 21q-32 21 -16 56l79 150h-22q-41 0 -41 41v1223q0 41 -41 41h-323q-41 0 -41 41v149q0 41 41 41h983z" />
    <glyph glyph-name="uni0163" unicode="&#x163;" horiz-adv-x="781" 
d="M595 -121q85 0 140.5 -53.5t55.5 -137.5q0 -92 -63.5 -156t-155.5 -64q-67 0 -125 30t-92 79q-12 17 -6 31t26 22l42 14q28 12 55 -15q41 -38 97 -38q40 0 68.5 27.5t28.5 69.5q0 44 -28 69t-72 25q-27 0 -51 -10q-34 -13 -55 1l-36 21q-32 21 -16 56l80 152
q-133 13 -208 94t-75 221v521q0 41 -41 41h-89q-41 0 -41 41v98q0 41 41 41h89q41 0 41 41v211q0 41 41 41h162q41 0 41 -41v-211q0 -41 41 -41h172q41 0 41 -41v-98q0 -41 -41 -41h-172q-41 0 -41 -41v-494q0 -74 37.5 -112.5t101.5 -38.5h72q41 0 41 -41v-111
q0 -41 -41 -41h-47l-38 -73q-23 -44 -7 -47q5 -1 27 -1z" />
    <glyph glyph-name="Tcaron" unicode="&#x164;" horiz-adv-x="1183" 
d="M528 1714q-31 0 -49 26l-162 224q-14 20 -6.5 34.5t32.5 14.5h67q32 0 50 -25l102 -142q13 -18 29 -18t29 18l100 142q18 25 49 25h69q25 0 32 -14t-7 -35l-162 -224q-18 -26 -49 -26h-124zM505 0q-41 0 -41 41v1223q0 41 -41 41h-323q-41 0 -41 41v149q0 41 41 41h983
q41 0 41 -41v-149q0 -41 -41 -41h-322q-41 0 -41 -41v-1223q0 -41 -41 -41h-174z" />
    <glyph glyph-name="tcaron" unicode="&#x165;" horiz-adv-x="782" 
d="M639 1208q-20 0 -30.5 12.5t-7.5 32.5l98 564q6 37 44 37h179q21 0 31 -12.5t3 -33.5l-173 -566q-10 -34 -47 -34h-97zM535 0q-153 0 -241.5 82.5t-88.5 234.5v521q0 41 -41 41h-89q-41 0 -41 41v98q0 41 41 41h89q41 0 41 41v211q0 41 41 41h162q41 0 41 -41v-211
q0 -41 41 -41h172q41 0 41 -41v-98q0 -41 -41 -41h-172q-41 0 -41 -41v-494q0 -74 37.5 -112.5t101.5 -38.5h72q41 0 41 -41v-111q0 -41 -41 -41h-125z" />
    <glyph glyph-name="Tbar" unicode="&#x166;" horiz-adv-x="1183" 
d="M505 0q-41 0 -41 41v607q0 41 -41 41h-121q-41 0 -41 41v76q0 41 41 41h121q41 0 41 41v376q0 41 -41 41h-323q-41 0 -41 41v149q0 41 41 41h983q41 0 41 -41v-149q0 -41 -41 -41h-322q-41 0 -41 -41v-376q0 -41 41 -41h119q41 0 41 -41v-76q0 -41 -41 -41h-119
q-41 0 -41 -41v-607q0 -41 -41 -41h-174z" />
    <glyph glyph-name="tbar" unicode="&#x167;" horiz-adv-x="875" 
d="M582 0q-152 0 -240.5 82.5t-88.5 234.5v110q0 41 -41 41h-89q-41 0 -41 41v76q0 41 41 41h89q41 0 41 41v171q0 41 -41 41h-89q-41 0 -41 41v98q0 41 41 41h89q41 0 41 41v211q0 41 41 41h162q41 0 41 -41v-211q0 -41 41 -41h172q41 0 41 -41v-98q0 -41 -41 -41h-172
q-41 0 -41 -41v-171q0 -41 41 -41h162q41 0 41 -41v-76q0 -41 -41 -41h-162q-41 0 -41 -38v-86q0 -74 37.5 -112.5t101.5 -38.5h72q41 0 41 -41v-111q0 -41 -41 -41h-126z" />
    <glyph glyph-name="Utilde" unicode="&#x168;" horiz-adv-x="1572" 
d="M923 1728q-119 0 -192 114q-34 53 -82 53q-38 0 -61.5 -31t-29.5 -82q-3 -41 -42 -41h-47q-43 0 -40 43q10 107 67.5 172t148.5 65q118 0 192 -113q33 -54 84 -54q77 0 90 113q3 41 42 41h47q43 0 40 -47q-12 -104 -68.5 -168.5t-148.5 -64.5zM785 -20q-175 0 -312 62.5
t-217 187t-80 293.5v972q0 41 41 41h175q41 0 41 -41v-929q0 -183 95 -269t257 -86q78 0 141.5 20t112 61t75 111t26.5 163v929q0 41 40 41h175q41 0 41 -41v-972q0 -169 -80 -293.5t-217.5 -187t-313.5 -62.5z" />
    <glyph glyph-name="utilde" unicode="&#x169;" horiz-adv-x="1207" 
d="M741 1251q-119 0 -192 114q-34 53 -82 53q-38 0 -61.5 -31t-29.5 -82q-3 -41 -42 -41h-47q-43 0 -40 43q10 107 67.5 172t148.5 65q118 0 192 -113q33 -54 84 -54q77 0 90 113q3 41 42 41h47q43 0 40 -47q-12 -104 -68.5 -168.5t-148.5 -64.5zM603 -20
q-217 0 -341.5 106.5t-124.5 294.5v637q0 41 41 41h159q41 0 41 -41v-624q0 -99 62 -149.5t163 -50.5q102 0 163.5 50.5t61.5 149.5v624q0 41 41 41h160q40 0 40 -41v-637q0 -188 -124.5 -294.5t-341.5 -106.5z" />
    <glyph glyph-name="Umacron" unicode="&#x16a;" horiz-adv-x="1572" 
d="M501 1709q-41 0 -41 41v71q0 41 41 41h569q41 0 41 -41v-71q0 -41 -41 -41h-569zM785 -20q-175 0 -312 62.5t-217 187t-80 293.5v972q0 41 41 41h175q41 0 41 -41v-929q0 -183 95 -269t257 -86q78 0 141.5 20t112 61t75 111t26.5 163v929q0 41 40 41h175q41 0 41 -41
v-972q0 -169 -80 -293.5t-217.5 -187t-313.5 -62.5z" />
    <glyph glyph-name="umacron" unicode="&#x16b;" horiz-adv-x="1207" 
d="M319 1232q-41 0 -41 41v71q0 41 41 41h569q41 0 41 -41v-71q0 -41 -41 -41h-569zM603 -20q-217 0 -341.5 106.5t-124.5 294.5v637q0 41 41 41h159q41 0 41 -41v-624q0 -99 62 -149.5t163 -50.5q102 0 163.5 50.5t61.5 149.5v624q0 41 41 41h160q40 0 40 -41v-637
q0 -188 -124.5 -294.5t-341.5 -106.5z" />
    <glyph glyph-name="Uring" unicode="&#x16e;" horiz-adv-x="1572" 
d="M785 1658q-97 0 -166 68.5t-69 164.5q0 95 69 163t166 68q95 0 162.5 -68t67.5 -163q0 -96 -67.5 -164.5t-162.5 -68.5zM785 1770q50 0 84.5 34t34.5 87q0 49 -35 85.5t-84 36.5t-83.5 -36.5t-34.5 -85.5q0 -53 33.5 -87t84.5 -34zM785 -20q-175 0 -312 62.5t-217 187
t-80 293.5v972q0 41 41 41h175q41 0 41 -41v-929q0 -183 95 -269t257 -86q78 0 141.5 20t112 61t75 111t26.5 163v929q0 41 40 41h175q41 0 41 -41v-972q0 -169 -80 -293.5t-217.5 -187t-313.5 -62.5z" />
    <glyph glyph-name="uring" unicode="&#x16f;" horiz-adv-x="1207" 
d="M603 1181q-97 0 -166 68.5t-69 164.5q0 95 69 163t166 68q95 0 162.5 -68t67.5 -163q0 -96 -67.5 -164.5t-162.5 -68.5zM603 1293q50 0 84.5 34t34.5 87q0 49 -35 85.5t-84 36.5t-83.5 -36.5t-34.5 -85.5q0 -53 33.5 -87t84.5 -34zM603 -20q-217 0 -341.5 106.5
t-124.5 294.5v637q0 41 41 41h159q41 0 41 -41v-624q0 -99 62 -149.5t163 -50.5q102 0 163.5 50.5t61.5 149.5v624q0 41 41 41h160q40 0 40 -41v-637q0 -188 -124.5 -294.5t-341.5 -106.5z" />
    <glyph glyph-name="Uhungarumlaut" unicode="&#x170;" horiz-adv-x="1572" 
d="M583 1681q-26 0 -33 13.5t8 35.5l203 269q24 33 57 8l63 -45q34 -25 6 -58l-182 -201q-18 -22 -51 -22h-71zM947 1681q-26 0 -33 13.5t9 35.5l203 269q23 34 56 8l64 -45q33 -25 5 -58l-181 -201q-19 -22 -51 -22h-72zM785 -20q-175 0 -312 62.5t-217 187t-80 293.5v972
q0 41 41 41h175q41 0 41 -41v-929q0 -183 95 -269t257 -86q78 0 141.5 20t112 61t75 111t26.5 163v929q0 41 40 41h175q41 0 41 -41v-972q0 -169 -80 -293.5t-217.5 -187t-313.5 -62.5z" />
    <glyph glyph-name="uhungarumlaut" unicode="&#x171;" horiz-adv-x="1207" 
d="M401 1204q-26 0 -33 13.5t8 35.5l203 269q24 33 57 8l63 -45q34 -25 6 -58l-182 -201q-18 -22 -51 -22h-71zM765 1204q-26 0 -33 13.5t9 35.5l203 269q23 34 56 8l64 -45q33 -25 5 -58l-181 -201q-19 -22 -51 -22h-72zM603 -20q-217 0 -341.5 106.5t-124.5 294.5v637
q0 41 41 41h159q41 0 41 -41v-624q0 -99 62 -149.5t163 -50.5q102 0 163.5 50.5t61.5 149.5v624q0 41 41 41h160q40 0 40 -41v-637q0 -188 -124.5 -294.5t-341.5 -106.5z" />
    <glyph glyph-name="Uogonek" unicode="&#x172;" horiz-adv-x="1572" 
d="M1355 1536q41 0 41 -41v-972q0 -203 -111.5 -337.5t-301.5 -182.5q-75 -47 -121.5 -108.5t-46.5 -121.5q0 -49 29.5 -74t76.5 -25q34 0 84 18q46 21 46 -26v-95q0 -34 -32 -47q-60 -17 -119 -14q-117 2 -183 61t-66 155q0 145 142 254h-8q-175 0 -312 62.5t-217 187
t-80 293.5v972q0 41 41 41h175q41 0 41 -41v-929q0 -183 95 -269t257 -86q78 0 141.5 20t112 61t75 111t26.5 163v929q0 41 40 41h175z" />
    <glyph glyph-name="uogonek" unicode="&#x173;" horiz-adv-x="1207" 
d="M1029 1059q40 0 40 -41v-637q0 -162 -93.5 -264.5t-260.5 -128.5q-93 -47 -152.5 -116.5t-59.5 -138.5q0 -49 29.5 -74t76.5 -25q34 0 84 18q46 21 46 -26v-95q0 -34 -32 -47q-60 -17 -119 -14q-117 2 -183 61t-66 155q0 86 54 163.5t152 132.5q-191 14 -299.5 119
t-108.5 280v637q0 41 41 41h159q41 0 41 -41v-624q0 -99 62 -149.5t163 -50.5q102 0 163.5 50.5t61.5 149.5v624q0 41 41 41h160z" />
    <glyph glyph-name="Wcircumflex" unicode="&#x174;" horiz-adv-x="2245" 
d="M946 1740q-18 -26 -50 -26h-67q-25 0 -32.5 15t6.5 35l162 223q17 26 49 26h124q32 0 49 -26l162 -223q14 -21 7 -35.5t-32 -14.5h-69q-33 0 -49 26l-100 142q-13 18 -29 17.5t-29 -17.5zM534 0q-36 0 -45 35l-416 1455q-5 21 4.5 33.5t31.5 12.5h182q37 0 45 -36
l293 -1063q5 -19 15.5 -26.5t20.5 -0.5t16 26l316 1066q10 34 45 34h161q35 0 45 -34l316 -1066q6 -19 16 -26t20.5 0.5t15.5 26.5l293 1063q8 36 45 36h182q22 0 31.5 -12.5t4.5 -33.5l-416 -1455q-9 -35 -45 -35h-207q-37 0 -46 34l-309 1013q-9 30 -26 30t-26 -30
l-310 -1013q-11 -34 -46 -34h-207z" />
    <glyph glyph-name="wcircumflex" unicode="&#x175;" horiz-adv-x="1774" 
d="M756 1263q-18 -26 -50 -26h-67q-25 0 -32.5 15t6.5 35l162 223q17 26 49 26h124q32 0 49 -26l162 -223q14 -21 7 -35.5t-32 -14.5h-69q-33 0 -49 26l-100 142q-13 18 -29 17.5t-29 -17.5zM442 -1q-35 0 -47 33l-352 980q-7 21 2.5 34t31.5 13h171q37 0 47 -34l205 -618
q6 -18 16 -25t20.5 -0.5t16.5 23.5l241 621q11 33 46 33h92q36 0 47 -33l240 -620q7 -17 17.5 -23.5t20.5 0.5t16 25l204 617q12 34 48 34h172q22 0 31 -13t2 -34l-354 -980q-13 -33 -46 -33h-129q-37 0 -47 33l-241 627q-9 27 -26 27t-27 -27l-242 -627q-10 -33 -47 -33
h-129z" />
    <glyph glyph-name="Ycircumflex" unicode="&#x176;" horiz-adv-x="1404" 
d="M573 1740q-18 -26 -50 -26h-67q-25 0 -32.5 15t6.5 35l162 223q17 26 49 26h124q32 0 49 -26l162 -223q14 -21 7 -35.5t-32 -14.5h-69q-33 0 -49 26l-100 142q-13 18 -29 17.5t-29 -17.5zM616 0q-41 0 -41 41v653q0 29 -14 51l-491 742q-14 19 -6.5 34t32.5 15h208
q34 0 49 -27l322 -512q13 -20 29 -20t29 20l322 512q15 27 49 27h204q25 0 32.5 -15t-6.5 -34l-488 -738q-14 -24 -14 -51v-657q0 -41 -41 -41h-175z" />
    <glyph glyph-name="ycircumflex" unicode="&#x177;" horiz-adv-x="1111" 
d="M426 1263q-18 -26 -50 -26h-67q-25 0 -32.5 15t6.5 35l162 223q17 26 49 26h124q32 0 49 -26l162 -223q14 -21 7 -35.5t-32 -14.5h-69q-33 0 -49 26l-100 142q-13 18 -29 17.5t-29 -17.5zM266 -498q-23 0 -32 13t-1 34l188 476q11 25 0 53l-381 934q-9 21 0 34t32 13h182
q35 0 47 -34l236 -650q6 -18 16.5 -24t20.5 0.5t16 24.5l229 649q12 34 46 34h174q23 0 32 -13t1 -34l-593 -1477q-13 -33 -47 -33h-166z" />
    <glyph glyph-name="Ydieresis" unicode="&#x178;" horiz-adv-x="1404" 
d="M501 1765q-55 0 -95 39.5t-40 94.5q0 56 40 95t95 39t95 -39t40 -95q0 -55 -40 -94.5t-95 -39.5zM907 1765q-56 0 -95.5 39.5t-39.5 94.5q0 56 39.5 95t95.5 39t95 -39t39 -95q0 -55 -39.5 -94.5t-94.5 -39.5zM616 0q-41 0 -41 41v653q0 29 -14 51l-491 742
q-14 19 -6.5 34t32.5 15h208q34 0 49 -27l322 -512q13 -20 29 -20t29 20l322 512q15 27 49 27h204q25 0 32.5 -15t-6.5 -34l-488 -738q-14 -24 -14 -51v-657q0 -41 -41 -41h-175z" />
    <glyph glyph-name="Zacute" unicode="&#x179;" horiz-adv-x="1267" 
d="M692 1681h-72q-26 0 -33 13.5t8 35.5l202 269q25 34 58 8l62 -45q34 -25 6 -58l-180 -201q-21 -22 -51 -22zM145 0q-41 0 -41 41v138q0 24 16 51l698 1026q14 22 7.5 35.5t-31.5 13.5h-649q-41 0 -41 41v149q0 41 41 41h978q41 0 41 -41v-140q0 -26 -17 -51l-696 -1024
q-14 -20 -6.5 -34.5t32.5 -14.5h646q41 0 41 -41v-149q0 -41 -41 -41h-978z" />
    <glyph glyph-name="zacute" unicode="&#x17a;" horiz-adv-x="1049" 
d="M573 1204h-72q-26 0 -33 13.5t8 35.5l202 269q25 34 58 8l62 -45q34 -25 6 -58l-180 -201q-21 -22 -51 -22zM104 0q-25 0 -32.5 15t6.5 34l495 762q14 19 6 34t-33 15h-419q-41 0 -41 41v117q0 41 41 41h807q25 0 32.5 -14.5t-6.5 -34.5l-496 -762q-14 -20 -6 -34.5
t33 -14.5h451q41 0 41 -41v-117q0 -41 -41 -41h-838z" />
    <glyph glyph-name="Zdotaccent" unicode="&#x17b;" horiz-adv-x="1267" 
d="M663 1739q-61 0 -105 43t-44 104q0 62 44 104.5t105 42.5q60 0 103.5 -42.5t43.5 -104.5q0 -60 -43.5 -103.5t-103.5 -43.5zM145 0q-41 0 -41 41v138q0 24 16 51l698 1026q14 22 7.5 35.5t-31.5 13.5h-649q-41 0 -41 41v149q0 41 41 41h978q41 0 41 -41v-140
q0 -26 -17 -51l-696 -1024q-14 -20 -6.5 -34.5t32.5 -14.5h646q41 0 41 -41v-149q0 -41 -41 -41h-978z" />
    <glyph glyph-name="zdotaccent" unicode="&#x17c;" horiz-adv-x="1049" 
d="M544 1262q-61 0 -105 43t-44 104q0 62 44 104.5t105 42.5q60 0 103.5 -42.5t43.5 -104.5q0 -60 -43.5 -103.5t-103.5 -43.5zM104 0q-25 0 -32.5 15t6.5 34l495 762q14 19 6 34t-33 15h-419q-41 0 -41 41v117q0 41 41 41h807q25 0 32.5 -14.5t-6.5 -34.5l-496 -762
q-14 -20 -6 -34.5t33 -14.5h451q41 0 41 -41v-117q0 -41 -41 -41h-838z" />
    <glyph glyph-name="Zcaron" unicode="&#x17d;" horiz-adv-x="1267" 
d="M599 1714q-31 0 -49 26l-162 224q-14 20 -6.5 34.5t32.5 14.5h67q32 0 50 -25l102 -142q13 -18 29 -18t29 18l100 142q18 25 49 25h69q25 0 32 -14t-7 -35l-162 -224q-18 -26 -49 -26h-124zM145 0q-41 0 -41 41v138q0 24 16 51l698 1026q14 22 7.5 35.5t-31.5 13.5h-649
q-41 0 -41 41v149q0 41 41 41h978q41 0 41 -41v-140q0 -26 -17 -51l-696 -1024q-14 -20 -6.5 -34.5t32.5 -14.5h646q41 0 41 -41v-149q0 -41 -41 -41h-978z" />
    <glyph glyph-name="zcaron" unicode="&#x17e;" horiz-adv-x="1049" 
d="M480 1237q-31 0 -49 26l-162 224q-14 19 -6.5 34t32.5 15h67q32 0 50 -25l102 -142q13 -18 29 -18t29 18l100 142q18 25 49 25h69q25 0 32 -14t-7 -35l-162 -224q-18 -26 -49 -26h-124zM104 0q-25 0 -32.5 15t6.5 34l495 762q14 19 6 34t-33 15h-419q-41 0 -41 41v117
q0 41 41 41h807q25 0 32.5 -14.5t-6.5 -34.5l-496 -762q-14 -20 -6 -34.5t33 -14.5h451q41 0 41 -41v-117q0 -41 -41 -41h-838z" />
    <glyph glyph-name="florin" unicode="&#x192;" horiz-adv-x="1103" 
d="M197 -512q-20 0 -31 11.5t-7 31.5l197 1244q3 20 -7.5 31.5t-31.5 11.5h-81q-20 0 -31 12t-8 31l20 126q5 37 45 37h94q40 0 45 37l23 149q24 147 143.5 246.5t266.5 99.5q68 0 123 -20q29 -12 26 -50l-12 -110q-6 -42 -47 -24q-32 9 -62 9q-78 0 -131 -50.5t-67 -136.5
l-17 -105q-3 -20 7.5 -32.5t30.5 -12.5h188q20 0 31 -11.5t8 -31.5l-19 -125q-6 -38 -45 -38h-202q-39 0 -45 -36l-200 -1257q-5 -37 -45 -37h-159z" />
    <glyph glyph-name="Ohorn" unicode="&#x1a0;" horiz-adv-x="1809" 
d="M1745 1542q41 0 41 -41v-116q0 -117 -48 -174.5t-124 -65.5q94 -174 94 -377q0 -164 -62.5 -310t-169.5 -251t-256 -166t-316 -61t-316 61t-255.5 166t-169 251t-62.5 310t62.5 310t169 251t255.5 166t316 61q195 0 361.5 -80.5t277.5 -222.5q94 4 94 134v114q0 41 40 41
h68zM904 222q151 0 277 72t198 197.5t72 276.5t-72 276.5t-198 197.5t-277 72q-150 0 -275.5 -72t-198 -197.5t-72.5 -276.5t72.5 -276.5t198 -197.5t275.5 -72z" />
    <glyph glyph-name="ohorn" unicode="&#x1a1;" horiz-adv-x="1290" 
d="M1263 1246q41 0 41 -41v-116q0 -124 -54 -181t-136 -60q101 -139 101 -318q0 -116 -44 -218.5t-120 -175t-181.5 -114.5t-224.5 -42q-159 0 -289.5 71t-205.5 197.5t-75 281.5q0 154 75 280t205.5 197.5t289.5 71.5q196 0 345 -107q37 -15 66 -15q99 0 99 134v114
q0 41 40 41h68zM644 195q140 0 237.5 96t97.5 239q0 142 -97.5 238.5t-237.5 96.5t-237 -96t-97 -239q0 -144 96.5 -239.5t237.5 -95.5z" />
    <glyph glyph-name="Uhorn" unicode="&#x1af;" horiz-adv-x="1572" 
d="M1670 1682q41 0 41 -41v-116q0 -66 -16.5 -114.5t-45.5 -75.5t-62.5 -39t-72.5 -12q-55 0 -118 22v-783q0 -169 -80 -293.5t-217.5 -187t-313.5 -62.5q-175 0 -312 62.5t-217 187t-80 293.5v972q0 41 41 41h175q41 0 41 -41v-929q0 -183 95 -269t257 -86q78 0 141.5 20
t112 61t75 111t26.5 163v929q0 41 40 41h175q41 0 41 -41v-87q38 -15 67 -15q99 0 99 134v114q0 41 40 41h68z" />
    <glyph glyph-name="uhorn" unicode="&#x1b0;" horiz-adv-x="1207" 
d="M1317 1205q41 0 41 -41v-116q0 -66 -16.5 -114.5t-45.5 -75.5t-62.5 -39t-72.5 -12q-41 0 -92 14v-440q0 -188 -124.5 -294.5t-341.5 -106.5t-341.5 106.5t-124.5 294.5v637q0 41 41 41h159q41 0 41 -41v-624q0 -99 62 -149.5t163 -50.5q102 0 163.5 50.5t61.5 149.5v624
q0 41 41 41h160q40 0 40 -41v-96q24 -6 41 -6q99 0 99 134v114q0 41 40 41h68z" />
    <glyph glyph-name="uni01CD" unicode="&#x1cd;" horiz-adv-x="1584" 
d="M729 1714q-31 0 -49 26l-162 224q-14 20 -6.5 34.5t32.5 14.5h67q32 0 50 -25l102 -142q13 -18 29 -18t29 18l100 142q18 25 49 25h69q25 0 32 -14t-7 -35l-162 -224q-18 -26 -49 -26h-124zM99 0q-23 0 -31.5 12.5t0.5 34.5l569 1457q13 32 47 32h214q36 0 47 -32
l571 -1457q8 -22 -0.5 -34.5t-31.5 -12.5h-181q-34 0 -46 33l-99 260q-14 33 -47 33h-638q-34 0 -46 -33l-100 -260q-12 -33 -46 -33h-182zM570 549h443q23 0 31.5 12.5t1.5 34.5l-228 597q-6 17 -16 23.5t-20 0t-17 -23.5l-228 -597q-7 -22 2 -34.5t31 -12.5z" />
    <glyph glyph-name="uni01CE" unicode="&#x1ce;" horiz-adv-x="1377" 
d="M626 1237q-31 0 -49 26l-162 224q-14 19 -6.5 34t32.5 15h67q32 0 50 -25l102 -142q13 -18 29 -18t29 18l100 142q18 25 49 25h69q25 0 32 -14t-7 -35l-162 -224q-18 -26 -49 -26h-124zM597 -21q-139 0 -258 71.5t-190.5 199t-71.5 281.5q0 115 42 218t112.5 176
t166 115.5t199.5 42.5q194 0 325 -120q20 -19 34 -15.5t14 28.5v42q0 41 40 41h162q41 0 41 -41v-977q0 -41 -41 -41h-162q-41 0 -41 41v37q0 27 -11.5 35t-27.5 -8q-129 -126 -333 -126zM656 193q141 0 237 96t96 242q0 145 -96 241.5t-237 96.5t-238 -96.5t-97 -241.5
q0 -146 96.5 -242t238.5 -96z" />
    <glyph glyph-name="uni01CF" unicode="&#x1cf;" horiz-adv-x="671" 
d="M271 1714q-31 0 -49 26l-162 224q-14 20 -6.5 34.5t32.5 14.5h67q32 0 50 -25l102 -142q13 -18 29 -18t29 18l100 142q18 25 49 25h69q25 0 32 -14t-7 -35l-162 -224q-18 -26 -49 -26h-124zM248 0q-41 0 -41 41v1454q0 41 41 41h175q41 0 41 -41v-1454q0 -41 -41 -41
h-175z" />
    <glyph glyph-name="uni01D0" unicode="&#x1d0;" horiz-adv-x="573" 
d="M224 1237q-31 0 -49 26l-162 224q-14 19 -6.5 34t32.5 15h67q32 0 50 -25l102 -142q13 -18 29 -18t29 18l100 142q18 25 49 25h69q25 0 32 -14t-7 -35l-162 -224q-18 -26 -49 -26h-124zM206 0q-41 0 -41 41v977q0 41 41 41h161q41 0 41 -41v-977q0 -41 -41 -41h-161z" />
    <glyph glyph-name="uni01D1" unicode="&#x1d1;" horiz-adv-x="1809" 
d="M841 1714q-31 0 -49 26l-162 224q-14 20 -6.5 34.5t32.5 14.5h67q32 0 50 -25l102 -142q13 -18 29 -18t29 18l100 142q18 25 49 25h69q25 0 32 -14t-7 -35l-162 -224q-18 -26 -49 -26h-124zM904 -20q-167 0 -316 61t-255.5 166t-169 251t-62.5 310t62.5 310t169 251
t255.5 166t316 61t316 -61t256 -166t169.5 -251t62.5 -310t-62.5 -310t-169.5 -251t-256 -166t-316 -61zM904 222q151 0 277 72t198 197.5t72 276.5t-72 276.5t-198 197.5t-277 72q-150 0 -275.5 -72t-198 -197.5t-72.5 -276.5t72.5 -276.5t198 -197.5t275.5 -72z" />
    <glyph glyph-name="uni01D2" unicode="&#x1d2;" horiz-adv-x="1290" 
d="M582 1236q-31 0 -49 26l-162 224q-14 20 -6.5 34.5t32.5 14.5h67q32 0 50 -25l102 -142q13 -18 29 -18t29 18l100 142q18 25 49 25h69q25 0 32 -14t-7 -35l-162 -224q-18 -26 -49 -26h-124zM645 -20q-159 0 -289.5 71t-205.5 197.5t-75 281.5q0 154 75 280t205.5 197.5
t289.5 71.5q158 0 289 -71.5t206 -197.5t75 -280q0 -116 -44 -218.5t-120 -175t-181.5 -114.5t-224.5 -42zM644 195q140 0 237.5 96t97.5 239q0 142 -97.5 238.5t-237.5 96.5t-237 -96t-97 -239q0 -144 96.5 -239.5t237.5 -95.5z" />
    <glyph glyph-name="uni01D3" unicode="&#x1d3;" horiz-adv-x="1572" 
d="M722 1714q-31 0 -49 26l-162 224q-14 20 -6.5 34.5t32.5 14.5h67q32 0 50 -25l102 -142q13 -18 29 -18t29 18l100 142q18 25 49 25h69q25 0 32 -14t-7 -35l-162 -224q-18 -26 -49 -26h-124zM785 -20q-175 0 -312 62.5t-217 187t-80 293.5v972q0 41 41 41h175q41 0 41 -41
v-929q0 -183 95 -269t257 -86q78 0 141.5 20t112 61t75 111t26.5 163v929q0 41 40 41h175q41 0 41 -41v-972q0 -169 -80 -293.5t-217.5 -187t-313.5 -62.5z" />
    <glyph glyph-name="uni01D4" unicode="&#x1d4;" horiz-adv-x="1207" 
d="M540 1237q-31 0 -49 26l-162 224q-14 19 -6.5 34t32.5 15h67q32 0 50 -25l102 -142q13 -18 29 -18t29 18l100 142q18 25 49 25h69q25 0 32 -14t-7 -35l-162 -224q-18 -26 -49 -26h-124zM603 -20q-217 0 -341.5 106.5t-124.5 294.5v637q0 41 41 41h159q41 0 41 -41v-624
q0 -99 62 -149.5t163 -50.5q102 0 163.5 50.5t61.5 149.5v624q0 41 41 41h160q40 0 40 -41v-637q0 -188 -124.5 -294.5t-341.5 -106.5z" />
    <glyph glyph-name="uni01D5" unicode="&#x1d5;" horiz-adv-x="1572" 
d="M501 2198q-41 0 -41 41v71q0 41 41 41h569q41 0 41 -41v-71q0 -41 -41 -41h-569zM582 1765q-55 0 -95 39.5t-40 94.5q0 56 40 95t95 39t95 -39t40 -95q0 -55 -40 -94.5t-95 -39.5zM988 1765q-56 0 -95.5 39.5t-39.5 94.5q0 56 39.5 95t95.5 39t95 -39t39 -95
q0 -55 -39 -94.5t-95 -39.5zM785 -20q-175 0 -312 62.5t-217 187t-80 293.5v972q0 41 41 41h175q41 0 41 -41v-929q0 -183 95 -269t257 -86q78 0 141.5 20t112 61t75 111t26.5 163v929q0 41 40 41h175q41 0 41 -41v-972q0 -169 -80 -293.5t-217.5 -187t-313.5 -62.5z" />
    <glyph glyph-name="uni01D6" unicode="&#x1d6;" horiz-adv-x="1207" 
d="M319 1721q-41 0 -41 41v71q0 41 41 41h569q41 0 41 -41v-71q0 -41 -41 -41h-569zM400 1288q-55 0 -95 39.5t-40 94.5q0 56 40 95t95 39t95 -39t40 -95q0 -55 -40 -94.5t-95 -39.5zM806 1288q-56 0 -95.5 39.5t-39.5 94.5q0 56 39.5 95t95.5 39t95 -39t39 -95t-39 -95
t-95 -39zM603 -20q-217 0 -341.5 106.5t-124.5 294.5v637q0 41 41 41h159q41 0 41 -41v-624q0 -99 62 -149.5t163 -50.5q102 0 163.5 50.5t61.5 149.5v624q0 41 41 41h160q40 0 40 -41v-637q0 -188 -124.5 -294.5t-341.5 -106.5z" />
    <glyph glyph-name="uni01D7" unicode="&#x1d7;" horiz-adv-x="1572" 
d="M815 2170h-72q-26 0 -33 13.5t8 35.5l202 269q25 34 58 8l62 -45q34 -25 6 -58l-180 -201q-21 -22 -51 -22zM582 1765q-55 0 -95 39.5t-40 94.5q0 56 40 95t95 39t95 -39t40 -95q0 -55 -40 -94.5t-95 -39.5zM988 1765q-56 0 -95.5 39.5t-39.5 94.5q0 56 39.5 95t95.5 39
t95 -39t39 -95q0 -55 -39 -94.5t-95 -39.5zM785 -20q-175 0 -312 62.5t-217 187t-80 293.5v972q0 41 41 41h175q41 0 41 -41v-929q0 -183 95 -269t257 -86q78 0 141.5 20t112 61t75 111t26.5 163v929q0 41 40 41h175q41 0 41 -41v-972q0 -169 -80 -293.5t-217.5 -187
t-313.5 -62.5z" />
    <glyph glyph-name="uni01D8" unicode="&#x1d8;" horiz-adv-x="1207" 
d="M633 1693h-72q-26 0 -33 13.5t8 35.5l202 269q25 34 58 8l62 -45q34 -25 6 -58l-180 -201q-21 -22 -51 -22zM400 1288q-55 0 -95 39.5t-40 94.5q0 56 40 95t95 39t95 -39t40 -95q0 -55 -40 -94.5t-95 -39.5zM806 1288q-56 0 -95.5 39.5t-39.5 94.5q0 56 39.5 95t95.5 39
t95 -39t39 -95t-39 -95t-95 -39zM603 -20q-217 0 -341.5 106.5t-124.5 294.5v637q0 41 41 41h159q41 0 41 -41v-624q0 -99 62 -149.5t163 -50.5q102 0 163.5 50.5t61.5 149.5v624q0 41 41 41h160q40 0 40 -41v-637q0 -188 -124.5 -294.5t-341.5 -106.5z" />
    <glyph glyph-name="uni01D9" unicode="&#x1d9;" horiz-adv-x="1572" 
d="M722 2203q-31 0 -49 26l-162 224q-14 19 -6.5 34t32.5 15h67q32 0 50 -25l102 -142q13 -18 29 -18t29 18l100 142q18 25 49 25h69q25 0 32 -14t-7 -35l-162 -224q-18 -26 -49 -26h-124zM582 1765q-55 0 -95 39.5t-40 94.5q0 56 40 95t95 39t95 -39t40 -95
q0 -55 -40 -94.5t-95 -39.5zM988 1765q-56 0 -95.5 39.5t-39.5 94.5q0 56 39.5 95t95.5 39t95 -39t39 -95q0 -55 -39 -94.5t-95 -39.5zM785 -20q-175 0 -312 62.5t-217 187t-80 293.5v972q0 41 41 41h175q41 0 41 -41v-929q0 -183 95 -269t257 -86q78 0 141.5 20t112 61
t75 111t26.5 163v929q0 41 40 41h175q41 0 41 -41v-972q0 -169 -80 -293.5t-217.5 -187t-313.5 -62.5z" />
    <glyph glyph-name="uni01DA" unicode="&#x1da;" horiz-adv-x="1207" 
d="M540 1726q-31 0 -49 26l-162 224q-14 20 -6.5 34.5t32.5 14.5h67q32 0 50 -25l102 -142q13 -18 29 -18t29 18l100 142q18 25 49 25h69q25 0 32 -14t-7 -35l-162 -224q-18 -26 -49 -26h-124zM400 1288q-55 0 -95 39.5t-40 94.5q0 56 40 95t95 39t95 -39t40 -95
q0 -55 -40 -94.5t-95 -39.5zM806 1288q-56 0 -95.5 39.5t-39.5 94.5q0 56 39.5 95t95.5 39t95 -39t39 -95t-39 -95t-95 -39zM603 -20q-217 0 -341.5 106.5t-124.5 294.5v637q0 41 41 41h159q41 0 41 -41v-624q0 -99 62 -149.5t163 -50.5q102 0 163.5 50.5t61.5 149.5v624
q0 41 41 41h160q40 0 40 -41v-637q0 -188 -124.5 -294.5t-341.5 -106.5z" />
    <glyph glyph-name="uni01DB" unicode="&#x1db;" horiz-adv-x="1572" 
d="M733 2170q-30 0 -51 22l-180 201q-28 33 6 58l62 45q33 26 58 -8l202 -269q15 -22 8 -35.5t-33 -13.5h-72zM582 1765q-55 0 -95 39.5t-40 94.5q0 56 40 95t95 39t95 -39t40 -95q0 -55 -40 -94.5t-95 -39.5zM988 1765q-56 0 -95.5 39.5t-39.5 94.5q0 56 39.5 95t95.5 39
t95 -39t39 -95q0 -55 -39 -94.5t-95 -39.5zM785 -20q-175 0 -312 62.5t-217 187t-80 293.5v972q0 41 41 41h175q41 0 41 -41v-929q0 -183 95 -269t257 -86q78 0 141.5 20t112 61t75 111t26.5 163v929q0 41 40 41h175q41 0 41 -41v-972q0 -169 -80 -293.5t-217.5 -187
t-313.5 -62.5z" />
    <glyph glyph-name="uni01DC" unicode="&#x1dc;" horiz-adv-x="1207" 
d="M551 1693q-30 0 -51 22l-180 201q-28 33 6 58l62 45q33 26 58 -8l202 -269q15 -22 8 -35.5t-33 -13.5h-72zM400 1288q-55 0 -95 39.5t-40 94.5q0 56 40 95t95 39t95 -39t40 -95q0 -55 -40 -94.5t-95 -39.5zM806 1288q-56 0 -95.5 39.5t-39.5 94.5q0 56 39.5 95t95.5 39
t95 -39t39 -95t-39 -95t-95 -39zM603 -20q-217 0 -341.5 106.5t-124.5 294.5v637q0 41 41 41h159q41 0 41 -41v-624q0 -99 62 -149.5t163 -50.5q102 0 163.5 50.5t61.5 149.5v624q0 41 41 41h160q40 0 40 -41v-637q0 -188 -124.5 -294.5t-341.5 -106.5z" />
    <glyph glyph-name="uni0218" unicode="&#x218;" horiz-adv-x="1220" 
d="M633 -20q-148 0 -289 58.5t-244 157.5q-26 28 0 57l102 123q27 32 57 -1q76 -80 174 -127t197 -47q106 0 174 54.5t68 147.5q0 42 -18.5 78.5t-36.5 58.5t-70.5 52t-76 41t-97.5 43q-13 6 -20 9q-55 24 -88.5 39t-82 41.5t-79 50t-65 58.5t-53.5 72t-32 86t-13 105
q0 128 62 224.5t165 145.5t231 49q254 0 456 -177q30 -27 4 -58l-88 -117q-26 -33 -58 -1q-150 132 -317 132q-88 0 -146.5 -46t-58.5 -129q0 -39 18 -73t35.5 -55t70 -50t74.5 -39t97 -42q17 -7 25 -11q51 -22 86.5 -38.5t83 -43t79 -51.5t66 -61.5t55 -76t33.5 -91.5
t13 -111q0 -139 -68.5 -240t-178 -149t-246.5 -48zM407 -568l-52 24q-37 18 -21 54l136 311q13 31 48 31h134q25 0 33 -15t-5 -35l-219 -354q-19 -30 -54 -16z" />
    <glyph glyph-name="uni0219" unicode="&#x219;" horiz-adv-x="969" 
d="M489 -20q-216 0 -396 115q-33 21 -11 56l66 112q20 36 56 10q64 -44 140 -71.5t145 -27.5q75 0 119.5 32t44.5 90q0 25 -12 46t-26 34t-48 28t-53.5 21.5t-66.5 20.5q-11 3 -16 5q-43 13 -65.5 21t-62 24.5t-61.5 31t-50.5 39t-43.5 51t-26 63.5t-11 81
q0 152 111.5 234.5t278.5 82.5q177 0 327 -87q37 -20 12 -55l-67 -100q-23 -33 -57 -12q-115 66 -224 66q-68 0 -109 -27.5t-41 -77.5q0 -14 3.5 -26.5t13 -23t18 -18.5t25.5 -16.5l29 -14.5t35 -13.5t36.5 -12t40.5 -12.5t41 -12q54 -17 89.5 -31t80.5 -40.5t72 -58t46 -81
t19 -110.5q0 -161 -110.5 -248.5t-291.5 -87.5zM309 -567l-52 24q-37 18 -21 54l136 311q13 31 48 31h134q25 0 33 -15t-5 -35l-219 -354q-19 -30 -54 -16z" />
    <glyph glyph-name="uni021A" unicode="&#x21a;" horiz-adv-x="1183" 
d="M505 0q-41 0 -41 41v1223q0 41 -41 41h-323q-41 0 -41 41v149q0 41 41 41h983q41 0 41 -41v-149q0 -41 -41 -41h-322q-41 0 -41 -41v-1223q0 -41 -41 -41h-174zM400 -567l-52 24q-37 18 -21 54l136 311q13 31 48 31h134q25 0 33 -15t-5 -35l-219 -354q-19 -30 -54 -16z
" />
    <glyph glyph-name="uni021B" unicode="&#x21b;" horiz-adv-x="781" 
d="M535 0q-153 0 -241.5 82.5t-88.5 234.5v521q0 41 -41 41h-89q-41 0 -41 41v98q0 41 41 41h89q41 0 41 41v211q0 41 41 41h162q41 0 41 -41v-211q0 -41 41 -41h172q41 0 41 -41v-98q0 -41 -41 -41h-172q-41 0 -41 -41v-494q0 -74 37.5 -112.5t101.5 -38.5h72q41 0 41 -41
v-111q0 -41 -41 -41h-125zM360 -567l-52 24q-37 18 -21 54l136 311q13 31 48 31h134q25 0 33 -15t-5 -35l-219 -354q-19 -30 -54 -16z" />
    <glyph glyph-name="uni0237" unicode="&#x237;" horiz-adv-x="574" 
d="M-106 -496q-43 -3 -43 39v124q0 39 40 42q134 11 204 93.5t70 219.5v996q0 41 41 41h162q41 0 41 -41v-979q0 -238 -135.5 -381t-379.5 -154z" />
    <glyph glyph-name="circumflex" unicode="&#x2c6;" horiz-adv-x="769" 
d="M254 1263q-18 -26 -50 -26h-67q-25 0 -32.5 15t6.5 35l162 223q17 26 49 26h124q32 0 49 -26l162 -223q14 -21 7 -35.5t-32 -14.5h-69q-33 0 -49 26l-100 142q-13 18 -29 17.5t-29 -17.5z" />
    <glyph glyph-name="caron" unicode="&#x2c7;" horiz-adv-x="770" 
d="M322 1237q-31 0 -49 26l-162 224q-14 19 -6.5 34t32.5 15h67q32 0 50 -25l102 -142q13 -18 29 -18t29 18l100 142q18 25 49 25h69q25 0 32 -14t-7 -35l-162 -224q-18 -26 -49 -26h-124z" />
    <glyph glyph-name="breve" unicode="&#x2d8;" horiz-adv-x="913" 
d="M455 1198q-149 0 -244.5 77t-108.5 218q-3 43 40 43h63q38 0 41 -40q12 -82 68.5 -131.5t140.5 -49.5q85 0 141.5 49.5t68.5 131.5q3 40 41 40h64q43 0 40 -43q-13 -141 -109 -218t-246 -77z" />
    <glyph glyph-name="dotaccent" unicode="&#x2d9;" horiz-adv-x="546" 
d="M273 1262q-61 0 -105 43t-44 104q0 62 44 104.5t105 42.5q60 0 103.5 -42.5t43.5 -104.5q0 -60 -43.5 -103.5t-103.5 -43.5z" />
    <glyph glyph-name="ring" unicode="&#x2da;" horiz-adv-x="680" 
d="M341 1146q-97 0 -166 68.5t-69 164.5q0 95 69 163t166 68q95 0 162.5 -68t67.5 -163q0 -96 -67.5 -164.5t-162.5 -68.5zM341 1258q50 0 84.5 34t34.5 87q0 49 -35 85.5t-84 36.5t-83.5 -36.5t-34.5 -85.5q0 -53 33.5 -87t84.5 -34z" />
    <glyph glyph-name="ogonek" unicode="&#x2db;" horiz-adv-x="606" 
d="M339 -530q-117 2 -183 61t-66 155q0 110 86.5 204t238.5 144l75 -34q-101 -46 -168.5 -120t-67.5 -147q0 -49 29.5 -74t76.5 -25q34 0 84 18q46 21 46 -26v-95q0 -34 -32 -47q-60 -17 -119 -14z" />
    <glyph glyph-name="tilde" unicode="&#x2dc;" horiz-adv-x="952" 
d="M616 1251q-119 0 -192 114q-34 53 -82 53q-38 0 -61.5 -31t-29.5 -82q-3 -41 -42 -41h-47q-43 0 -40 43q10 107 67.5 172t148.5 65q118 0 192 -113q33 -54 84 -54q77 0 90 113q3 41 42 41h47q43 0 40 -47q-12 -104 -68.5 -168.5t-148.5 -64.5z" />
    <glyph glyph-name="hungarumlaut" unicode="&#x2dd;" horiz-adv-x="903" 
d="M111 1204q-26 0 -33 13.5t8 35.5l203 269q24 33 57 8l63 -45q34 -25 6 -58l-182 -201q-18 -22 -51 -22h-71zM475 1204q-26 0 -33 13.5t9 35.5l203 269q23 34 56 8l64 -45q33 -25 5 -58l-181 -201q-19 -22 -51 -22h-72z" />
    <glyph glyph-name="gravecomb" unicode="&#x300;" 
d="M-176 1204q-30 0 -51 22l-180 201q-28 33 6 58l62 45q33 26 58 -8l202 -269q15 -22 8 -35.5t-33 -13.5h-72z" />
    <glyph glyph-name="acutecomb" unicode="&#x301;" 
d="M-320 1204h-72q-26 0 -33 13.5t8 35.5l202 269q25 34 58 8l62 -45q34 -25 6 -58l-180 -201q-21 -22 -51 -22z" />
    <glyph glyph-name="uni0302" unicode="&#x302;" 
d="M-515 1263q-18 -26 -50 -26h-67q-25 0 -32.5 15t6.5 35l162 223q17 26 49 26h124q32 0 49 -26l162 -223q14 -21 7 -35.5t-32 -14.5h-69q-33 0 -49 26l-100 142q-13 18 -29 17.5t-29 -17.5z" />
    <glyph glyph-name="tildecomb" unicode="&#x303;" 
d="M-336 1251q-119 0 -192 114q-34 53 -82 53q-38 0 -61.5 -31t-29.5 -82q-3 -41 -42 -41h-47q-43 0 -40 43q10 107 67.5 172t148.5 65q118 0 192 -113q33 -54 84 -54q77 0 90 113q3 41 42 41h47q43 0 40 -47q-12 -104 -68.5 -168.5t-148.5 -64.5z" />
    <glyph glyph-name="uni0304" unicode="&#x304;" 
d="M-763 1232q-41 0 -41 41v71q0 41 41 41h569q41 0 41 -41v-71q0 -41 -41 -41h-569z" />
    <glyph glyph-name="uni0306" unicode="&#x306;" 
d="M-458 1198q-149 0 -244.5 77t-108.5 218q-3 43 40 43h63q38 0 41 -40q12 -82 68.5 -131.5t140.5 -49.5q85 0 141.5 49.5t68.5 131.5q3 40 41 40h64q43 0 40 -43q-13 -141 -109 -218t-246 -77z" />
    <glyph glyph-name="uni0307" unicode="&#x307;" 
d="M-273 1262q-61 0 -105 43t-44 104q0 62 44 104.5t105 42.5q60 0 103.5 -42.5t43.5 -104.5q0 -60 -43.5 -103.5t-103.5 -43.5z" />
    <glyph glyph-name="uni0308" unicode="&#x308;" 
d="M-668 1288q-55 0 -95 39.5t-40 94.5q0 56 40 95t95 39t95 -39t40 -95q0 -55 -40 -94.5t-95 -39.5zM-262 1288q-56 0 -95.5 39.5t-39.5 94.5q0 56 39.5 95t95.5 39t95 -39t39 -95t-39 -95t-95 -39z" />
    <glyph glyph-name="hookabovecomb" unicode="&#x309;" 
d="M-335 1134q-41 0 -41 41v58q0 34 35 46q81 28 81 92q0 31 -20 51t-55 20q-31 0 -55 -14q-37 -18 -58 11l-18 27q-23 37 11 56q56 34 128 34q88 0 142.5 -50t54.5 -130q0 -105 -97 -149q-33 -15 -33 -47v-5q0 -41 -41 -41h-34z" />
    <glyph glyph-name="uni030A" unicode="&#x30a;" 
d="M-339 1146q-97 0 -166 68.5t-69 164.5q0 95 69 163t166 68q95 0 162.5 -68t67.5 -163q0 -96 -67.5 -164.5t-162.5 -68.5zM-339 1258q50 0 84.5 34t34.5 87q0 49 -35 85.5t-84 36.5t-83.5 -36.5t-34.5 -85.5q0 -53 33.5 -87t84.5 -34z" />
    <glyph glyph-name="uni030B" unicode="&#x30b;" 
d="M-762 1204q-26 0 -33 13.5t8 35.5l203 269q24 33 57 8l63 -45q34 -25 6 -58l-182 -201q-18 -22 -51 -22h-71zM-398 1204q-26 0 -33 13.5t9 35.5l203 269q23 34 56 8l64 -45q33 -25 5 -58l-181 -201q-19 -22 -51 -22h-72z" />
    <glyph glyph-name="uni030C" unicode="&#x30c;" 
d="M-447 1237q-31 0 -49 26l-162 224q-14 19 -6.5 34t32.5 15h67q32 0 50 -25l102 -142q13 -18 29 -18t29 18l100 142q18 25 49 25h69q25 0 32 -14t-7 -35l-162 -224q-18 -26 -49 -26h-124z" />
    <glyph glyph-name="uni0312" unicode="&#x312;" 
d="M-154 1537q21 0 31 -6t7 -17l-98 -279q-6 -18 -44 -18h-178q-22 0 -31.5 6.5t-2.5 16.5l172 280q11 17 47 17h97z" />
    <glyph glyph-name="uni031B" unicode="&#x31b;" 
d="M-333 756q-106 0 -213 67l66 71q54 -29 96 -29q99 0 99 134v114q0 41 40 41h68q41 0 41 -41v-116q0 -66 -16.5 -114.5t-45.5 -75.5t-62.5 -39t-72.5 -12z" />
    <glyph glyph-name="dotbelowcomb" unicode="&#x323;" 
d="M-264 -512q-61 0 -105 43.5t-44 104.5t44 104.5t105 43.5q60 0 104 -43.5t44 -104.5t-44 -104.5t-104 -43.5z" />
    <glyph glyph-name="uni0326" unicode="&#x326;" 
d="M-359 -567l-52 24q-37 18 -21 54l136 311q13 31 48 31h134q25 0 33 -15t-5 -35l-219 -354q-19 -30 -54 -16z" />
    <glyph glyph-name="uni0327" unicode="&#x327;" 
d="M-308 -532q-67 0 -125 30t-92 79q-12 17 -6 31t26 22l42 14q28 12 55 -15q41 -38 97 -38q40 0 68.5 27.5t28.5 69.5q0 44 -28 69t-72 25q-27 0 -51 -10q-34 -13 -55 1l-36 21q-32 21 -16 56l81 154h126l-40 -77q-23 -44 -7 -47q5 -1 27 -1q85 0 140.5 -53.5t55.5 -137.5
q0 -92 -63.5 -156t-155.5 -64z" />
    <glyph glyph-name="uni0328" unicode="&#x328;" 
d="M-267 -530q-117 2 -183 61t-66 155q0 110 86.5 204t238.5 144l75 -34q-101 -46 -168.5 -120t-67.5 -147q0 -49 29.5 -74t76.5 -25q34 0 84 18q46 21 46 -26v-95q0 -34 -32 -47q-60 -17 -119 -14z" />
    <glyph glyph-name="uni0335" unicode="&#x335;" 
d="M-779 438q-41 0 -41 41v76q0 41 41 41h577q41 0 41 -41v-76q0 -41 -41 -41h-577z" />
    <glyph glyph-name="uni0336" unicode="&#x336;" 
d="M-1619 470q-41 0 -41 41v43q0 41 41 41h1417q41 0 41 -41v-43q0 -41 -41 -41h-1417z" />
    <glyph glyph-name="uni0337" unicode="&#x337;" 
d="M-634 265q-20 -15 -34.5 -7.5t-14.5 32.5v86q0 30 24 50l554 410q19 15 34 7.5t15 -32.5v-87q0 -31 -25 -49z" />
    <glyph glyph-name="uni0338" unicode="&#x338;" 
d="M-834 177l-49 30q-34 22 -12 57l745 1067q24 36 57 12l49 -29q34 -22 11 -57l-743 -1067q-23 -33 -58 -13z" />
    <glyph glyph-name="uni0394" unicode="&#x394;" horiz-adv-x="1602" 
d="M99 0q-23 0 -32 12.5t-1 34.5l586 1456q13 33 47 33h204q34 0 47 -33l586 -1456q8 -22 -1 -34.5t-32 -12.5h-1404zM452 229h699q23 0 31.5 12.5t0.5 34.5l-354 914q-11 26 -27 26t-27 -26l-356 -914q-8 -22 1 -34.5t32 -12.5z" />
    <glyph glyph-name="uni03A9" unicode="&#x3a9;" horiz-adv-x="1801" 
d="M160 0q-41 0 -41 41v129q0 41 41 41h173q26 0 32.5 14.5t-11.5 35.5q-86 100 -143.5 249t-57.5 312q0 202 94 365.5t266.5 258.5t391.5 95q171 0 313.5 -59.5t235.5 -159t144 -228.5t51 -269q0 -158 -57.5 -310t-146.5 -256q-19 -19 -12.5 -33.5t33.5 -14.5h175
q41 0 41 -41v-129q0 -41 -41 -41h-563q-40 0 -40 41v84q0 32 27 50q133 84 218 239.5t85 360.5q0 151 -52.5 274.5t-159 200t-249.5 76.5q-210 0 -342 -155t-132 -399q0 -201 87.5 -361t215.5 -237q29 -17 29 -49v-84q0 -41 -41 -41h-564z" />
    <glyph glyph-name="uni03BC" unicode="&#x3bc;" horiz-adv-x="1228" 
d="M200 -481q-41 0 -41 41v1362q0 41 41 41h166q41 0 41 -41v-524q0 -83 58.5 -141.5t143.5 -58.5q89 0 152 58.5t63 141.5v524q0 41 41 41h164q41 0 41 -41v-881q0 -41 -41 -41h-164q-41 0 -41 37v23q0 23 -14 25.5t-34 -14.5q-103 -89 -241 -89q-78 0 -148 36
q-20 11 -33 3t-13 -31v-430q0 -41 -41 -41h-100z" />
    <glyph glyph-name="pi" unicode="&#x3c0;" horiz-adv-x="1310" 
d="M203 0q-22 0 -31 12.5t-3 33.5q45 140 79 331.5t43 349.5q2 43 -42 43q-87 -3 -140 -17q-42 -14 -48 29l-16 87q-6 36 23 50q94 44 306 44h852q42 0 39 -43l-11 -111q-3 -39 -43 -39h-81q-41 0 -41 -41v-440q0 -146 17 -245q6 -44 -37 -44h-145q-37 0 -47 30
q-20 71 -20 244v455q0 41 -41 41h-256q-38 0 -41 -39q-12 -175 -46.5 -377.5t-80.5 -321.5q-13 -32 -48 -32h-141z" />
    <glyph glyph-name="Wgrave" unicode="&#x1e80;" horiz-adv-x="2245" 
d="M1025 1681q-30 0 -51 22l-180 201q-28 33 6 58l62 45q33 26 58 -8l202 -269q15 -22 8 -35.5t-33 -13.5h-72zM534 0q-36 0 -45 35l-416 1455q-5 21 4.5 33.5t31.5 12.5h182q37 0 45 -36l293 -1063q5 -19 15.5 -26.5t20.5 -0.5t16 26l316 1066q10 34 45 34h161q35 0 45 -34
l316 -1066q6 -19 16 -26t20.5 0.5t15.5 26.5l293 1063q8 36 45 36h182q22 0 31.5 -12.5t4.5 -33.5l-416 -1455q-9 -35 -45 -35h-207q-37 0 -46 34l-309 1013q-9 30 -26 30t-26 -30l-310 -1013q-11 -34 -46 -34h-207z" />
    <glyph glyph-name="wgrave" unicode="&#x1e81;" horiz-adv-x="1774" 
d="M835 1204q-30 0 -51 22l-180 201q-28 33 6 58l62 45q33 26 58 -8l202 -269q15 -22 8 -35.5t-33 -13.5h-72zM442 -1q-35 0 -47 33l-352 980q-7 21 2.5 34t31.5 13h171q37 0 47 -34l205 -618q6 -18 16 -25t20.5 -0.5t16.5 23.5l241 621q11 33 46 33h92q36 0 47 -33
l240 -620q7 -17 17.5 -23.5t20.5 0.5t16 25l204 617q12 34 48 34h172q22 0 31 -13t2 -34l-354 -980q-13 -33 -46 -33h-129q-37 0 -47 33l-241 627q-9 27 -26 27t-27 -27l-242 -627q-10 -33 -47 -33h-129z" />
    <glyph glyph-name="Wacute" unicode="&#x1e82;" horiz-adv-x="2245" 
d="M1107 1681h-72q-26 0 -33 13.5t8 35.5l202 269q25 34 58 8l62 -45q34 -25 6 -58l-180 -201q-21 -22 -51 -22zM534 0q-36 0 -45 35l-416 1455q-5 21 4.5 33.5t31.5 12.5h182q37 0 45 -36l293 -1063q5 -19 15.5 -26.5t20.5 -0.5t16 26l316 1066q10 34 45 34h161
q35 0 45 -34l316 -1066q6 -19 16 -26t20.5 0.5t15.5 26.5l293 1063q8 36 45 36h182q22 0 31.5 -12.5t4.5 -33.5l-416 -1455q-9 -35 -45 -35h-207q-37 0 -46 34l-309 1013q-9 30 -26 30t-26 -30l-310 -1013q-11 -34 -46 -34h-207z" />
    <glyph glyph-name="wacute" unicode="&#x1e83;" horiz-adv-x="1774" 
d="M917 1204h-72q-26 0 -33 13.5t8 35.5l202 269q25 34 58 8l62 -45q34 -25 6 -58l-180 -201q-21 -22 -51 -22zM442 -1q-35 0 -47 33l-352 980q-7 21 2.5 34t31.5 13h171q37 0 47 -34l205 -618q6 -18 16 -25t20.5 -0.5t16.5 23.5l241 621q11 33 46 33h92q36 0 47 -33
l240 -620q7 -17 17.5 -23.5t20.5 0.5t16 25l204 617q12 34 48 34h172q22 0 31 -13t2 -34l-354 -980q-13 -33 -46 -33h-129q-37 0 -47 33l-241 627q-9 27 -26 27t-27 -27l-242 -627q-10 -33 -47 -33h-129z" />
    <glyph glyph-name="Wdieresis" unicode="&#x1e84;" horiz-adv-x="2245" 
d="M874 1765q-55 0 -95 39.5t-40 94.5q0 56 40 95t95 39t95 -39t40 -95q0 -55 -40 -94.5t-95 -39.5zM1280 1765q-56 0 -95.5 39.5t-39.5 94.5q0 56 39.5 95t95.5 39t95 -39t39 -95q0 -55 -39 -94.5t-95 -39.5zM534 0q-36 0 -45 35l-416 1455q-5 21 4.5 33.5t31.5 12.5h182
q37 0 45 -36l293 -1063q5 -19 15.5 -26.5t20.5 -0.5t16 26l316 1066q10 34 45 34h161q35 0 45 -34l316 -1066q6 -19 16 -26t20.5 0.5t15.5 26.5l293 1063q8 36 45 36h182q22 0 31.5 -12.5t4.5 -33.5l-416 -1455q-9 -35 -45 -35h-207q-37 0 -46 34l-309 1013q-9 30 -26 30
t-26 -30l-310 -1013q-11 -34 -46 -34h-207z" />
    <glyph glyph-name="wdieresis" unicode="&#x1e85;" horiz-adv-x="1774" 
d="M684 1288q-55 0 -95 39.5t-40 94.5q0 56 40 95t95 39t95 -39t40 -95q0 -55 -40 -94.5t-95 -39.5zM1090 1288q-56 0 -95.5 39.5t-39.5 94.5q0 56 39.5 95t95.5 39t95 -39t39 -95t-39 -95t-95 -39zM442 -1q-35 0 -47 33l-352 980q-7 21 2.5 34t31.5 13h171q37 0 47 -34
l205 -618q6 -18 16 -25t20.5 -0.5t16.5 23.5l241 621q11 33 46 33h92q36 0 47 -33l240 -620q7 -17 17.5 -23.5t20.5 0.5t16 25l204 617q12 34 48 34h172q22 0 31 -13t2 -34l-354 -980q-13 -33 -46 -33h-129q-37 0 -47 33l-241 627q-9 27 -26 27t-27 -27l-242 -627
q-10 -33 -47 -33h-129z" />
    <glyph glyph-name="uni1EA0" unicode="&#x1ea0;" horiz-adv-x="1584" 
d="M99 0q-23 0 -31.5 12.5t0.5 34.5l569 1457q13 32 47 32h214q36 0 47 -32l571 -1457q8 -22 -0.5 -34.5t-31.5 -12.5h-181q-34 0 -46 33l-99 260q-14 33 -47 33h-638q-34 0 -46 -33l-100 -260q-12 -33 -46 -33h-182zM570 549h443q23 0 31.5 12.5t1.5 34.5l-228 597
q-6 17 -16 23.5t-20 0t-17 -23.5l-228 -597q-7 -22 2 -34.5t31 -12.5zM793 -512q-61 0 -105 43.5t-44 104.5t44 104.5t105 43.5q60 0 104 -43.5t44 -104.5t-44 -104.5t-104 -43.5z" />
    <glyph glyph-name="uni1EA1" unicode="&#x1ea1;" horiz-adv-x="1377" 
d="M597 -21q-139 0 -258 71.5t-190.5 199t-71.5 281.5q0 115 42 218t112.5 176t166 115.5t199.5 42.5q194 0 325 -120q20 -19 34 -15.5t14 28.5v42q0 41 40 41h162q41 0 41 -41v-977q0 -41 -41 -41h-162q-41 0 -41 41v37q0 27 -11.5 35t-27.5 -8q-129 -126 -333 -126z
M656 193q141 0 237 96t96 242q0 145 -96 241.5t-237 96.5t-238 -96.5t-97 -241.5q0 -146 96.5 -242t238.5 -96zM690 -512q-61 0 -105 43.5t-44 104.5t44 104.5t105 43.5q60 0 104 -43.5t44 -104.5t-44 -104.5t-104 -43.5z" />
    <glyph glyph-name="uni1EA2" unicode="&#x1ea2;" horiz-adv-x="1584" 
d="M778 1611q-41 0 -41 41v58q0 34 35 46q81 28 81 92q0 31 -20 51t-55 20q-31 0 -55 -14q-37 -18 -58 11l-18 27q-23 37 11 56q56 34 128 34q88 0 142.5 -50t54.5 -130q0 -105 -97 -149q-33 -15 -33 -47v-5q0 -41 -41 -41h-34zM99 0q-23 0 -31.5 12.5t0.5 34.5l569 1457
q13 32 47 32h214q36 0 47 -32l571 -1457q8 -22 -0.5 -34.5t-31.5 -12.5h-181q-34 0 -46 33l-99 260q-14 33 -47 33h-638q-34 0 -46 -33l-100 -260q-12 -33 -46 -33h-182zM570 549h443q23 0 31.5 12.5t1.5 34.5l-228 597q-6 17 -16 23.5t-20 0t-17 -23.5l-228 -597
q-7 -22 2 -34.5t31 -12.5z" />
    <glyph glyph-name="uni1EA3" unicode="&#x1ea3;" horiz-adv-x="1377" 
d="M675 1134q-41 0 -41 41v58q0 34 35 46q81 28 81 92q0 31 -20 51t-55 20q-31 0 -55 -14q-37 -18 -58 11l-18 27q-23 37 11 56q56 34 128 34q88 0 142.5 -50t54.5 -130q0 -105 -97 -149q-33 -15 -33 -47v-5q0 -41 -41 -41h-34zM597 -21q-139 0 -258 71.5t-190.5 199
t-71.5 281.5q0 115 42 218t112.5 176t166 115.5t199.5 42.5q194 0 325 -120q20 -19 34 -15.5t14 28.5v42q0 41 40 41h162q41 0 41 -41v-977q0 -41 -41 -41h-162q-41 0 -41 41v37q0 27 -11.5 35t-27.5 -8q-129 -126 -333 -126zM656 193q141 0 237 96t96 242q0 145 -96 241.5
t-237 96.5t-238 -96.5t-97 -241.5q0 -146 96.5 -242t238.5 -96z" />
    <glyph glyph-name="uni1EA4" unicode="&#x1ea4;" horiz-adv-x="1584" 
d="M821 2158h-72q-26 0 -33 13.5t8 35.5l202 269q25 34 58 8l62 -45q34 -25 6 -58l-180 -201q-21 -22 -51 -22zM661 1740q-18 -26 -50 -26h-67q-25 0 -32.5 15t6.5 35l162 223q17 26 49 26h124q32 0 49 -26l162 -223q14 -21 7 -35.5t-32 -14.5h-69q-33 0 -49 26l-100 142
q-13 18 -29 17.5t-29 -17.5zM99 0q-23 0 -31.5 12.5t0.5 34.5l569 1457q13 32 47 32h214q36 0 47 -32l571 -1457q8 -22 -0.5 -34.5t-31.5 -12.5h-181q-34 0 -46 33l-99 260q-14 33 -47 33h-638q-34 0 -46 -33l-100 -260q-12 -33 -46 -33h-182zM570 549h443q23 0 31.5 12.5
t1.5 34.5l-228 597q-6 17 -16 23.5t-20 0t-17 -23.5l-228 -597q-7 -22 2 -34.5t31 -12.5z" />
    <glyph glyph-name="uni1EA5" unicode="&#x1ea5;" horiz-adv-x="1377" 
d="M718 1681h-72q-26 0 -33 13.5t8 35.5l202 269q25 34 58 8l62 -45q34 -25 6 -58l-180 -201q-21 -22 -51 -22zM558 1263q-18 -26 -50 -26h-67q-25 0 -32.5 15t6.5 35l162 223q17 26 49 26h124q32 0 49 -26l162 -223q14 -21 7 -35.5t-32 -14.5h-69q-33 0 -49 26l-100 142
q-13 18 -29 17.5t-29 -17.5zM597 -21q-139 0 -258 71.5t-190.5 199t-71.5 281.5q0 115 42 218t112.5 176t166 115.5t199.5 42.5q194 0 325 -120q20 -19 34 -15.5t14 28.5v42q0 41 40 41h162q41 0 41 -41v-977q0 -41 -41 -41h-162q-41 0 -41 41v37q0 27 -11.5 35t-27.5 -8
q-129 -126 -333 -126zM656 193q141 0 237 96t96 242q0 145 -96 241.5t-237 96.5t-238 -96.5t-97 -241.5q0 -146 96.5 -242t238.5 -96z" />
    <glyph glyph-name="uni1EA6" unicode="&#x1ea6;" horiz-adv-x="1584" 
d="M739 2158q-30 0 -51 22l-180 201q-28 33 6 58l62 45q33 26 58 -8l202 -269q15 -22 8 -35.5t-33 -13.5h-72zM661 1740q-18 -26 -50 -26h-67q-25 0 -32.5 15t6.5 35l162 223q17 26 49 26h124q32 0 49 -26l162 -223q14 -21 7 -35.5t-32 -14.5h-69q-33 0 -49 26l-100 142
q-13 18 -29 17.5t-29 -17.5zM99 0q-23 0 -31.5 12.5t0.5 34.5l569 1457q13 32 47 32h214q36 0 47 -32l571 -1457q8 -22 -0.5 -34.5t-31.5 -12.5h-181q-34 0 -46 33l-99 260q-14 33 -47 33h-638q-34 0 -46 -33l-100 -260q-12 -33 -46 -33h-182zM570 549h443q23 0 31.5 12.5
t1.5 34.5l-228 597q-6 17 -16 23.5t-20 0t-17 -23.5l-228 -597q-7 -22 2 -34.5t31 -12.5z" />
    <glyph glyph-name="uni1EA7" unicode="&#x1ea7;" horiz-adv-x="1377" 
d="M636 1681q-30 0 -51 22l-180 201q-28 33 6 58l62 45q33 26 58 -8l202 -269q15 -22 8 -35.5t-33 -13.5h-72zM558 1263q-18 -26 -50 -26h-67q-25 0 -32.5 15t6.5 35l162 223q17 26 49 26h124q32 0 49 -26l162 -223q14 -21 7 -35.5t-32 -14.5h-69q-33 0 -49 26l-100 142
q-13 18 -29 17.5t-29 -17.5zM597 -21q-139 0 -258 71.5t-190.5 199t-71.5 281.5q0 115 42 218t112.5 176t166 115.5t199.5 42.5q194 0 325 -120q20 -19 34 -15.5t14 28.5v42q0 41 40 41h162q41 0 41 -41v-977q0 -41 -41 -41h-162q-41 0 -41 41v37q0 27 -11.5 35t-27.5 -8
q-129 -126 -333 -126zM656 193q141 0 237 96t96 242q0 145 -96 241.5t-237 96.5t-238 -96.5t-97 -241.5q0 -146 96.5 -242t238.5 -96z" />
    <glyph glyph-name="uni1EA8" unicode="&#x1ea8;" horiz-adv-x="1584" 
d="M777 2088q-41 0 -41 41v58q0 34 35 46q81 28 81 92q0 31 -20 51t-55 20q-31 0 -55 -14q-37 -18 -58 11l-18 27q-23 37 11 56q56 34 128 34q88 0 142.5 -50t54.5 -130q0 -105 -97 -149q-33 -15 -33 -47v-5q0 -41 -41 -41h-34zM661 1740q-18 -26 -50 -26h-67
q-25 0 -32.5 15t6.5 35l162 223q17 26 49 26h124q32 0 49 -26l162 -223q14 -21 7 -35.5t-32 -14.5h-69q-33 0 -49 26l-100 142q-13 18 -29 17.5t-29 -17.5zM99 0q-23 0 -31.5 12.5t0.5 34.5l569 1457q13 32 47 32h214q36 0 47 -32l571 -1457q8 -22 -0.5 -34.5t-31.5 -12.5
h-181q-34 0 -46 33l-99 260q-14 33 -47 33h-638q-34 0 -46 -33l-100 -260q-12 -33 -46 -33h-182zM570 549h443q23 0 31.5 12.5t1.5 34.5l-228 597q-6 17 -16 23.5t-20 0t-17 -23.5l-228 -597q-7 -22 2 -34.5t31 -12.5z" />
    <glyph glyph-name="uni1EA9" unicode="&#x1ea9;" horiz-adv-x="1377" 
d="M674 1611q-41 0 -41 41v58q0 34 35 46q81 28 81 92q0 31 -20 51t-55 20q-31 0 -55 -14q-37 -18 -58 11l-18 27q-23 37 11 56q56 34 128 34q88 0 142.5 -50t54.5 -130q0 -105 -97 -149q-33 -15 -33 -47v-5q0 -41 -41 -41h-34zM558 1263q-18 -26 -50 -26h-67
q-25 0 -32.5 15t6.5 35l162 223q17 26 49 26h124q32 0 49 -26l162 -223q14 -21 7 -35.5t-32 -14.5h-69q-33 0 -49 26l-100 142q-13 18 -29 17.5t-29 -17.5zM597 -21q-139 0 -258 71.5t-190.5 199t-71.5 281.5q0 115 42 218t112.5 176t166 115.5t199.5 42.5q194 0 325 -120
q20 -19 34 -15.5t14 28.5v42q0 41 40 41h162q41 0 41 -41v-977q0 -41 -41 -41h-162q-41 0 -41 41v37q0 27 -11.5 35t-27.5 -8q-129 -126 -333 -126zM656 193q141 0 237 96t96 242q0 145 -96 241.5t-237 96.5t-238 -96.5t-97 -241.5q0 -146 96.5 -242t238.5 -96z" />
    <glyph glyph-name="uni1EAA" unicode="&#x1eaa;" horiz-adv-x="1584" 
d="M929 2205q-119 0 -192 114q-34 53 -82 53q-38 0 -61.5 -31t-29.5 -82q-3 -41 -42 -41h-47q-43 0 -40 43q10 107 67.5 172t148.5 65q118 0 192 -113q33 -54 84 -54q77 0 90 113q3 41 42 41h47q43 0 40 -47q-12 -104 -68.5 -168.5t-148.5 -64.5zM661 1740q-18 -26 -50 -26
h-67q-25 0 -32.5 15t6.5 35l162 223q17 26 49 26h124q32 0 49 -26l162 -223q14 -21 7 -35.5t-32 -14.5h-69q-33 0 -49 26l-100 142q-13 18 -29 17.5t-29 -17.5zM99 0q-23 0 -31.5 12.5t0.5 34.5l569 1457q13 32 47 32h214q36 0 47 -32l571 -1457q8 -22 -0.5 -34.5
t-31.5 -12.5h-181q-34 0 -46 33l-99 260q-14 33 -47 33h-638q-34 0 -46 -33l-100 -260q-12 -33 -46 -33h-182zM570 549h443q23 0 31.5 12.5t1.5 34.5l-228 597q-6 17 -16 23.5t-20 0t-17 -23.5l-228 -597q-7 -22 2 -34.5t31 -12.5z" />
    <glyph glyph-name="uni1EAB" unicode="&#x1eab;" horiz-adv-x="1377" 
d="M826 1728q-119 0 -192 114q-34 53 -82 53q-38 0 -61.5 -31t-29.5 -82q-3 -41 -42 -41h-47q-43 0 -40 43q10 107 67.5 172t148.5 65q118 0 192 -113q33 -54 84 -54q77 0 90 113q3 41 42 41h47q43 0 40 -47q-12 -104 -68.5 -168.5t-148.5 -64.5zM558 1263q-18 -26 -50 -26
h-67q-25 0 -32.5 15t6.5 35l162 223q17 26 49 26h124q32 0 49 -26l162 -223q14 -21 7 -35.5t-32 -14.5h-69q-33 0 -49 26l-100 142q-13 18 -29 17.5t-29 -17.5zM597 -21q-139 0 -258 71.5t-190.5 199t-71.5 281.5q0 115 42 218t112.5 176t166 115.5t199.5 42.5
q194 0 325 -120q20 -19 34 -15.5t14 28.5v42q0 41 40 41h162q41 0 41 -41v-977q0 -41 -41 -41h-162q-41 0 -41 41v37q0 27 -11.5 35t-27.5 -8q-129 -126 -333 -126zM656 193q141 0 237 96t96 242q0 145 -96 241.5t-237 96.5t-238 -96.5t-97 -241.5q0 -146 96.5 -242
t238.5 -96z" />
    <glyph glyph-name="uni1EAC" unicode="&#x1eac;" horiz-adv-x="1584" 
d="M661 1740q-18 -26 -50 -26h-67q-25 0 -32.5 15t6.5 35l162 223q17 26 49 26h124q32 0 49 -26l162 -223q14 -21 7 -35.5t-32 -14.5h-69q-33 0 -49 26l-100 142q-13 18 -29 17.5t-29 -17.5zM99 0q-23 0 -31.5 12.5t0.5 34.5l569 1457q13 32 47 32h214q36 0 47 -32
l571 -1457q8 -22 -0.5 -34.5t-31.5 -12.5h-181q-34 0 -46 33l-99 260q-14 33 -47 33h-638q-34 0 -46 -33l-100 -260q-12 -33 -46 -33h-182zM570 549h443q23 0 31.5 12.5t1.5 34.5l-228 597q-6 17 -16 23.5t-20 0t-17 -23.5l-228 -597q-7 -22 2 -34.5t31 -12.5zM793 -512
q-61 0 -105 43.5t-44 104.5t44 104.5t105 43.5q60 0 104 -43.5t44 -104.5t-44 -104.5t-104 -43.5z" />
    <glyph glyph-name="uni1EAD" unicode="&#x1ead;" horiz-adv-x="1377" 
d="M558 1263q-18 -26 -50 -26h-67q-25 0 -32.5 15t6.5 35l162 223q17 26 49 26h124q32 0 49 -26l162 -223q14 -21 7 -35.5t-32 -14.5h-69q-33 0 -49 26l-100 142q-13 18 -29 17.5t-29 -17.5zM597 -21q-139 0 -258 71.5t-190.5 199t-71.5 281.5q0 115 42 218t112.5 176
t166 115.5t199.5 42.5q194 0 325 -120q20 -19 34 -15.5t14 28.5v42q0 41 40 41h162q41 0 41 -41v-977q0 -41 -41 -41h-162q-41 0 -41 41v37q0 27 -11.5 35t-27.5 -8q-129 -126 -333 -126zM656 193q141 0 237 96t96 242q0 145 -96 241.5t-237 96.5t-238 -96.5t-97 -241.5
q0 -146 96.5 -242t238.5 -96zM690 -512q-61 0 -105 43.5t-44 104.5t44 104.5t105 43.5q60 0 104 -43.5t44 -104.5t-44 -104.5t-104 -43.5z" />
    <glyph glyph-name="uni1EAE" unicode="&#x1eae;" horiz-adv-x="1584" 
d="M822 2158h-72q-26 0 -33 13.5t8 35.5l202 269q25 34 58 8l62 -45q34 -25 6 -58l-180 -201q-21 -22 -51 -22zM791 1675q-149 0 -244.5 77t-108.5 218q-3 43 40 43h63q38 0 41 -40q12 -82 68.5 -131.5t140.5 -49.5q85 0 141.5 49.5t68.5 131.5q3 40 41 40h64q43 0 40 -43
q-13 -141 -109 -218t-246 -77zM99 0q-23 0 -31.5 12.5t0.5 34.5l569 1457q13 32 47 32h214q36 0 47 -32l571 -1457q8 -22 -0.5 -34.5t-31.5 -12.5h-181q-34 0 -46 33l-99 260q-14 33 -47 33h-638q-34 0 -46 -33l-100 -260q-12 -33 -46 -33h-182zM570 549h443q23 0 31.5 12.5
t1.5 34.5l-228 597q-6 17 -16 23.5t-20 0t-17 -23.5l-228 -597q-7 -22 2 -34.5t31 -12.5z" />
    <glyph glyph-name="uni1EAF" unicode="&#x1eaf;" horiz-adv-x="1377" 
d="M719 1681h-72q-26 0 -33 13.5t8 35.5l202 269q25 34 58 8l62 -45q34 -25 6 -58l-180 -201q-21 -22 -51 -22zM688 1198q-149 0 -244.5 77t-108.5 218q-3 43 40 43h63q38 0 41 -40q12 -82 68.5 -131.5t140.5 -49.5q85 0 141.5 49.5t68.5 131.5q3 40 41 40h64q43 0 40 -43
q-13 -141 -109 -218t-246 -77zM597 -21q-139 0 -258 71.5t-190.5 199t-71.5 281.5q0 115 42 218t112.5 176t166 115.5t199.5 42.5q194 0 325 -120q20 -19 34 -15.5t14 28.5v42q0 41 40 41h162q41 0 41 -41v-977q0 -41 -41 -41h-162q-41 0 -41 41v37q0 27 -11.5 35t-27.5 -8
q-129 -126 -333 -126zM656 193q141 0 237 96t96 242q0 145 -96 241.5t-237 96.5t-238 -96.5t-97 -241.5q0 -146 96.5 -242t238.5 -96z" />
    <glyph glyph-name="uni1EB0" unicode="&#x1eb0;" horiz-adv-x="1584" 
d="M740 2158q-30 0 -51 22l-180 201q-28 33 6 58l62 45q33 26 58 -8l202 -269q15 -22 8 -35.5t-33 -13.5h-72zM791 1675q-149 0 -244.5 77t-108.5 218q-3 43 40 43h63q38 0 41 -40q12 -82 68.5 -131.5t140.5 -49.5q85 0 141.5 49.5t68.5 131.5q3 40 41 40h64q43 0 40 -43
q-13 -141 -109 -218t-246 -77zM99 0q-23 0 -31.5 12.5t0.5 34.5l569 1457q13 32 47 32h214q36 0 47 -32l571 -1457q8 -22 -0.5 -34.5t-31.5 -12.5h-181q-34 0 -46 33l-99 260q-14 33 -47 33h-638q-34 0 -46 -33l-100 -260q-12 -33 -46 -33h-182zM570 549h443q23 0 31.5 12.5
t1.5 34.5l-228 597q-6 17 -16 23.5t-20 0t-17 -23.5l-228 -597q-7 -22 2 -34.5t31 -12.5z" />
    <glyph glyph-name="uni1EB1" unicode="&#x1eb1;" horiz-adv-x="1377" 
d="M637 1681q-30 0 -51 22l-180 201q-28 33 6 58l62 45q33 26 58 -8l202 -269q15 -22 8 -35.5t-33 -13.5h-72zM688 1198q-149 0 -244.5 77t-108.5 218q-3 43 40 43h63q38 0 41 -40q12 -82 68.5 -131.5t140.5 -49.5q85 0 141.5 49.5t68.5 131.5q3 40 41 40h64q43 0 40 -43
q-13 -141 -109 -218t-246 -77zM597 -21q-139 0 -258 71.5t-190.5 199t-71.5 281.5q0 115 42 218t112.5 176t166 115.5t199.5 42.5q194 0 325 -120q20 -19 34 -15.5t14 28.5v42q0 41 40 41h162q41 0 41 -41v-977q0 -41 -41 -41h-162q-41 0 -41 41v37q0 27 -11.5 35t-27.5 -8
q-129 -126 -333 -126zM656 193q141 0 237 96t96 242q0 145 -96 241.5t-237 96.5t-238 -96.5t-97 -241.5q0 -146 96.5 -242t238.5 -96z" />
    <glyph glyph-name="uni1EB2" unicode="&#x1eb2;" horiz-adv-x="1584" 
d="M778 2088q-41 0 -41 41v58q0 34 35 46q81 28 81 92q0 31 -20 51t-55 20q-31 0 -55 -14q-37 -18 -58 11l-18 27q-23 37 11 56q56 34 128 34q88 0 142.5 -50t54.5 -130q0 -105 -97 -149q-33 -15 -33 -47v-5q0 -41 -41 -41h-34zM791 1675q-149 0 -244.5 77t-108.5 218
q-3 43 40 43h63q38 0 41 -40q12 -82 68.5 -131.5t140.5 -49.5q85 0 141.5 49.5t68.5 131.5q3 40 41 40h64q43 0 40 -43q-13 -141 -109 -218t-246 -77zM99 0q-23 0 -31.5 12.5t0.5 34.5l569 1457q13 32 47 32h214q36 0 47 -32l571 -1457q8 -22 -0.5 -34.5t-31.5 -12.5h-181
q-34 0 -46 33l-99 260q-14 33 -47 33h-638q-34 0 -46 -33l-100 -260q-12 -33 -46 -33h-182zM570 549h443q23 0 31.5 12.5t1.5 34.5l-228 597q-6 17 -16 23.5t-20 0t-17 -23.5l-228 -597q-7 -22 2 -34.5t31 -12.5z" />
    <glyph glyph-name="uni1EB3" unicode="&#x1eb3;" horiz-adv-x="1377" 
d="M675 1611q-41 0 -41 41v58q0 34 35 46q81 28 81 92q0 31 -20 51t-55 20q-31 0 -55 -14q-37 -18 -58 11l-18 27q-23 37 11 56q56 34 128 34q88 0 142.5 -50t54.5 -130q0 -105 -97 -149q-33 -15 -33 -47v-5q0 -41 -41 -41h-34zM688 1198q-149 0 -244.5 77t-108.5 218
q-3 43 40 43h63q38 0 41 -40q12 -82 68.5 -131.5t140.5 -49.5q85 0 141.5 49.5t68.5 131.5q3 40 41 40h64q43 0 40 -43q-13 -141 -109 -218t-246 -77zM597 -21q-139 0 -258 71.5t-190.5 199t-71.5 281.5q0 115 42 218t112.5 176t166 115.5t199.5 42.5q194 0 325 -120
q20 -19 34 -15.5t14 28.5v42q0 41 40 41h162q41 0 41 -41v-977q0 -41 -41 -41h-162q-41 0 -41 41v37q0 27 -11.5 35t-27.5 -8q-129 -126 -333 -126zM656 193q141 0 237 96t96 242q0 145 -96 241.5t-237 96.5t-238 -96.5t-97 -241.5q0 -146 96.5 -242t238.5 -96z" />
    <glyph glyph-name="uni1EB4" unicode="&#x1eb4;" horiz-adv-x="1584" 
d="M930 2205q-119 0 -192 114q-34 53 -82 53q-38 0 -61.5 -31t-29.5 -82q-3 -41 -42 -41h-47q-43 0 -40 43q10 107 67.5 172t148.5 65q118 0 192 -113q33 -54 84 -54q77 0 90 113q3 41 42 41h47q43 0 40 -47q-12 -104 -68.5 -168.5t-148.5 -64.5zM791 1675q-149 0 -244.5 77
t-108.5 218q-3 43 40 43h63q38 0 41 -40q12 -82 68.5 -131.5t140.5 -49.5q85 0 141.5 49.5t68.5 131.5q3 40 41 40h64q43 0 40 -43q-13 -141 -109 -218t-246 -77zM99 0q-23 0 -31.5 12.5t0.5 34.5l569 1457q13 32 47 32h214q36 0 47 -32l571 -1457q8 -22 -0.5 -34.5
t-31.5 -12.5h-181q-34 0 -46 33l-99 260q-14 33 -47 33h-638q-34 0 -46 -33l-100 -260q-12 -33 -46 -33h-182zM570 549h443q23 0 31.5 12.5t1.5 34.5l-228 597q-6 17 -16 23.5t-20 0t-17 -23.5l-228 -597q-7 -22 2 -34.5t31 -12.5z" />
    <glyph glyph-name="uni1EB5" unicode="&#x1eb5;" horiz-adv-x="1377" 
d="M827 1728q-119 0 -192 114q-34 53 -82 53q-38 0 -61.5 -31t-29.5 -82q-3 -41 -42 -41h-47q-43 0 -40 43q10 107 67.5 172t148.5 65q118 0 192 -113q33 -54 84 -54q77 0 90 113q3 41 42 41h47q43 0 40 -47q-12 -104 -68.5 -168.5t-148.5 -64.5zM688 1198q-149 0 -244.5 77
t-108.5 218q-3 43 40 43h63q38 0 41 -40q12 -82 68.5 -131.5t140.5 -49.5q85 0 141.5 49.5t68.5 131.5q3 40 41 40h64q43 0 40 -43q-13 -141 -109 -218t-246 -77zM597 -21q-139 0 -258 71.5t-190.5 199t-71.5 281.5q0 115 42 218t112.5 176t166 115.5t199.5 42.5
q194 0 325 -120q20 -19 34 -15.5t14 28.5v42q0 41 40 41h162q41 0 41 -41v-977q0 -41 -41 -41h-162q-41 0 -41 41v37q0 27 -11.5 35t-27.5 -8q-129 -126 -333 -126zM656 193q141 0 237 96t96 242q0 145 -96 241.5t-237 96.5t-238 -96.5t-97 -241.5q0 -146 96.5 -242
t238.5 -96z" />
    <glyph glyph-name="uni1EB6" unicode="&#x1eb6;" horiz-adv-x="1584" 
d="M791 1675q-149 0 -244.5 77t-108.5 218q-3 43 40 43h63q38 0 41 -40q12 -82 68.5 -131.5t140.5 -49.5q85 0 141.5 49.5t68.5 131.5q3 40 41 40h64q43 0 40 -43q-13 -141 -109 -218t-246 -77zM99 0q-23 0 -31.5 12.5t0.5 34.5l569 1457q13 32 47 32h214q36 0 47 -32
l571 -1457q8 -22 -0.5 -34.5t-31.5 -12.5h-181q-34 0 -46 33l-99 260q-14 33 -47 33h-638q-34 0 -46 -33l-100 -260q-12 -33 -46 -33h-182zM570 549h443q23 0 31.5 12.5t1.5 34.5l-228 597q-6 17 -16 23.5t-20 0t-17 -23.5l-228 -597q-7 -22 2 -34.5t31 -12.5zM793 -512
q-61 0 -105 43.5t-44 104.5t44 104.5t105 43.5q60 0 104 -43.5t44 -104.5t-44 -104.5t-104 -43.5z" />
    <glyph glyph-name="uni1EB7" unicode="&#x1eb7;" horiz-adv-x="1377" 
d="M688 1198q-149 0 -244.5 77t-108.5 218q-3 43 40 43h63q38 0 41 -40q12 -82 68.5 -131.5t140.5 -49.5q85 0 141.5 49.5t68.5 131.5q3 40 41 40h64q43 0 40 -43q-13 -141 -109 -218t-246 -77zM597 -21q-139 0 -258 71.5t-190.5 199t-71.5 281.5q0 115 42 218t112.5 176
t166 115.5t199.5 42.5q194 0 325 -120q20 -19 34 -15.5t14 28.5v42q0 41 40 41h162q41 0 41 -41v-977q0 -41 -41 -41h-162q-41 0 -41 41v37q0 27 -11.5 35t-27.5 -8q-129 -126 -333 -126zM656 193q141 0 237 96t96 242q0 145 -96 241.5t-237 96.5t-238 -96.5t-97 -241.5
q0 -146 96.5 -242t238.5 -96zM690 -512q-61 0 -105 43.5t-44 104.5t44 104.5t105 43.5q60 0 104 -43.5t44 -104.5t-44 -104.5t-104 -43.5z" />
    <glyph glyph-name="uni1EB8" unicode="&#x1eb8;" horiz-adv-x="1225" 
d="M248 0q-41 0 -41 41v1454q0 41 41 41h811q41 0 41 -41v-149q0 -41 -41 -41h-554q-41 0 -41 -41v-342q0 -41 41 -41h476q41 0 41 -41v-147q0 -41 -41 -41h-476q-41 0 -41 -41v-339q0 -41 41 -41h554q41 0 41 -41v-149q0 -41 -41 -41h-811zM658 -512q-61 0 -105 43.5
t-44 104.5t44 104.5t105 43.5q60 0 104 -43.5t44 -104.5t-44 -104.5t-104 -43.5z" />
    <glyph glyph-name="uni1EB9" unicode="&#x1eb9;" horiz-adv-x="1246" 
d="M640 -20q-162 0 -292 73.5t-201.5 199t-71.5 277.5q0 113 42.5 214.5t116 175t177.5 117t222 43.5q151 0 274.5 -67t196.5 -188.5t76 -273.5l-1 -17q-2 -18 -13 -29t-29 -11h-783q-20 0 -31 -12t-7 -32q19 -120 110 -195t213 -75q80 0 149.5 32.5t115.5 93.5q24 32 57 18
l120 -51q41 -19 21 -52q-72 -113 -192 -177t-270 -64zM372 653h521q22 0 32 13t1 34q-34 88 -112 140t-179 52q-102 0 -181 -51.5t-116 -140.5q-9 -21 1.5 -34t32.5 -13zM652 -513q-61 0 -105 43.5t-44 104.5t44 104.5t105 43.5q60 0 104 -43.5t44 -104.5t-44 -104.5
t-104 -43.5z" />
    <glyph glyph-name="uni1EBA" unicode="&#x1eba;" horiz-adv-x="1225" 
d="M643 1611q-41 0 -41 41v58q0 34 35 46q81 28 81 92q0 31 -20 51t-55 20q-31 0 -55 -14q-37 -18 -58 11l-18 27q-23 37 11 56q56 34 128 34q88 0 142.5 -50t54.5 -130q0 -105 -97 -149q-33 -15 -33 -47v-5q0 -41 -41 -41h-34zM248 0q-41 0 -41 41v1454q0 41 41 41h811
q41 0 41 -41v-149q0 -41 -41 -41h-554q-41 0 -41 -41v-342q0 -41 41 -41h476q41 0 41 -41v-147q0 -41 -41 -41h-476q-41 0 -41 -41v-339q0 -41 41 -41h554q41 0 41 -41v-149q0 -41 -41 -41h-811z" />
    <glyph glyph-name="uni1EBB" unicode="&#x1ebb;" horiz-adv-x="1246" 
d="M629 1142q-41 0 -41 41v58q0 34 35 46q81 28 81 92q0 31 -20 51t-55 20q-31 0 -55 -14q-37 -18 -58 11l-18 27q-23 37 11 56q56 34 128 34q88 0 142.5 -50t54.5 -130q0 -105 -97 -149q-33 -15 -33 -47v-5q0 -41 -41 -41h-34zM640 -20q-162 0 -292 73.5t-201.5 199
t-71.5 277.5q0 113 42.5 214.5t116 175t177.5 117t222 43.5q151 0 274.5 -67t196.5 -188.5t76 -273.5l-1 -17q-2 -18 -13 -29t-29 -11h-783q-20 0 -31 -12t-7 -32q19 -120 110 -195t213 -75q80 0 149.5 32.5t115.5 93.5q24 32 57 18l120 -51q41 -19 21 -52
q-72 -113 -192 -177t-270 -64zM372 653h521q22 0 32 13t1 34q-34 88 -112 140t-179 52q-102 0 -181 -51.5t-116 -140.5q-9 -21 1.5 -34t32.5 -13z" />
    <glyph glyph-name="uni1EBC" unicode="&#x1ebc;" horiz-adv-x="1225" 
d="M795 1728q-119 0 -192 114q-34 53 -82 53q-38 0 -61.5 -31t-29.5 -82q-3 -41 -42 -41h-47q-43 0 -40 43q10 107 67.5 172t148.5 65q118 0 192 -113q33 -54 84 -54q77 0 90 113q3 41 42 41h47q43 0 40 -47q-12 -104 -68.5 -168.5t-148.5 -64.5zM248 0q-41 0 -41 41v1454
q0 41 41 41h811q41 0 41 -41v-149q0 -41 -41 -41h-554q-41 0 -41 -41v-342q0 -41 41 -41h476q41 0 41 -41v-147q0 -41 -41 -41h-476q-41 0 -41 -41v-339q0 -41 41 -41h554q41 0 41 -41v-149q0 -41 -41 -41h-811z" />
    <glyph glyph-name="uni1EBD" unicode="&#x1ebd;" horiz-adv-x="1246" 
d="M781 1259q-119 0 -192 114q-34 53 -82 53q-38 0 -61.5 -31t-29.5 -82q-3 -41 -42 -41h-47q-43 0 -40 43q10 107 67.5 172t148.5 65q118 0 192 -113q33 -54 84 -54q77 0 90 113q3 41 42 41h47q43 0 40 -47q-12 -104 -68.5 -168.5t-148.5 -64.5zM640 -20q-162 0 -292 73.5
t-201.5 199t-71.5 277.5q0 113 42.5 214.5t116 175t177.5 117t222 43.5q151 0 274.5 -67t196.5 -188.5t76 -273.5l-1 -17q-2 -18 -13 -29t-29 -11h-783q-20 0 -31 -12t-7 -32q19 -120 110 -195t213 -75q80 0 149.5 32.5t115.5 93.5q24 32 57 18l120 -51q41 -19 21 -52
q-72 -113 -192 -177t-270 -64zM372 653h521q22 0 32 13t1 34q-34 88 -112 140t-179 52q-102 0 -181 -51.5t-116 -140.5q-9 -21 1.5 -34t32.5 -13z" />
    <glyph glyph-name="uni1EBE" unicode="&#x1ebe;" horiz-adv-x="1225" 
d="M686 2158h-72q-26 0 -33 13.5t8 35.5l202 269q25 34 58 8l62 -45q34 -25 6 -58l-180 -201q-21 -22 -51 -22zM526 1740q-18 -26 -50 -26h-67q-25 0 -32.5 15t6.5 35l162 223q17 26 49 26h124q32 0 49 -26l162 -223q14 -21 7 -35.5t-32 -14.5h-69q-33 0 -49 26l-100 142
q-13 18 -29 17.5t-29 -17.5zM248 0q-41 0 -41 41v1454q0 41 41 41h811q41 0 41 -41v-149q0 -41 -41 -41h-554q-41 0 -41 -41v-342q0 -41 41 -41h476q41 0 41 -41v-147q0 -41 -41 -41h-476q-41 0 -41 -41v-339q0 -41 41 -41h554q41 0 41 -41v-149q0 -41 -41 -41h-811z" />
    <glyph glyph-name="uni1EBF" unicode="&#x1ebf;" horiz-adv-x="1246" 
d="M672 1689h-72q-26 0 -33 13.5t8 35.5l202 269q25 34 58 8l62 -45q34 -25 6 -58l-180 -201q-21 -22 -51 -22zM512 1271q-18 -26 -50 -26h-67q-25 0 -32.5 15t6.5 35l162 223q17 26 49 26h124q32 0 49 -26l162 -223q14 -21 7 -35.5t-32 -14.5h-69q-33 0 -49 26l-100 142
q-13 18 -29 17.5t-29 -17.5zM640 -20q-162 0 -292 73.5t-201.5 199t-71.5 277.5q0 113 42.5 214.5t116 175t177.5 117t222 43.5q151 0 274.5 -67t196.5 -188.5t76 -273.5l-1 -17q-2 -18 -13 -29t-29 -11h-783q-20 0 -31 -12t-7 -32q19 -120 110 -195t213 -75
q80 0 149.5 32.5t115.5 93.5q24 32 57 18l120 -51q41 -19 21 -52q-72 -113 -192 -177t-270 -64zM372 653h521q22 0 32 13t1 34q-34 88 -112 140t-179 52q-102 0 -181 -51.5t-116 -140.5q-9 -21 1.5 -34t32.5 -13z" />
    <glyph glyph-name="uni1EC0" unicode="&#x1ec0;" horiz-adv-x="1225" 
d="M604 2158q-30 0 -51 22l-180 201q-28 33 6 58l62 45q33 26 58 -8l202 -269q15 -22 8 -35.5t-33 -13.5h-72zM526 1740q-18 -26 -50 -26h-67q-25 0 -32.5 15t6.5 35l162 223q17 26 49 26h124q32 0 49 -26l162 -223q14 -21 7 -35.5t-32 -14.5h-69q-33 0 -49 26l-100 142
q-13 18 -29 17.5t-29 -17.5zM248 0q-41 0 -41 41v1454q0 41 41 41h811q41 0 41 -41v-149q0 -41 -41 -41h-554q-41 0 -41 -41v-342q0 -41 41 -41h476q41 0 41 -41v-147q0 -41 -41 -41h-476q-41 0 -41 -41v-339q0 -41 41 -41h554q41 0 41 -41v-149q0 -41 -41 -41h-811z" />
    <glyph glyph-name="uni1EC1" unicode="&#x1ec1;" horiz-adv-x="1246" 
d="M590 1689q-30 0 -51 22l-180 201q-28 33 6 58l62 45q33 26 58 -8l202 -269q15 -22 8 -35.5t-33 -13.5h-72zM512 1271q-18 -26 -50 -26h-67q-25 0 -32.5 15t6.5 35l162 223q17 26 49 26h124q32 0 49 -26l162 -223q14 -21 7 -35.5t-32 -14.5h-69q-33 0 -49 26l-100 142
q-13 18 -29 17.5t-29 -17.5zM640 -20q-162 0 -292 73.5t-201.5 199t-71.5 277.5q0 113 42.5 214.5t116 175t177.5 117t222 43.5q151 0 274.5 -67t196.5 -188.5t76 -273.5l-1 -17q-2 -18 -13 -29t-29 -11h-783q-20 0 -31 -12t-7 -32q19 -120 110 -195t213 -75
q80 0 149.5 32.5t115.5 93.5q24 32 57 18l120 -51q41 -19 21 -52q-72 -113 -192 -177t-270 -64zM372 653h521q22 0 32 13t1 34q-34 88 -112 140t-179 52q-102 0 -181 -51.5t-116 -140.5q-9 -21 1.5 -34t32.5 -13z" />
    <glyph glyph-name="uni1EC2" unicode="&#x1ec2;" horiz-adv-x="1225" 
d="M642 2088q-41 0 -41 41v58q0 34 35 46q81 28 81 92q0 31 -20 51t-55 20q-31 0 -55 -14q-37 -18 -58 11l-18 27q-23 37 11 56q56 34 128 34q88 0 142.5 -50t54.5 -130q0 -105 -97 -149q-33 -15 -33 -47v-5q0 -41 -41 -41h-34zM526 1740q-18 -26 -50 -26h-67
q-25 0 -32.5 15t6.5 35l162 223q17 26 49 26h124q32 0 49 -26l162 -223q14 -21 7 -35.5t-32 -14.5h-69q-33 0 -49 26l-100 142q-13 18 -29 17.5t-29 -17.5zM248 0q-41 0 -41 41v1454q0 41 41 41h811q41 0 41 -41v-149q0 -41 -41 -41h-554q-41 0 -41 -41v-342q0 -41 41 -41
h476q41 0 41 -41v-147q0 -41 -41 -41h-476q-41 0 -41 -41v-339q0 -41 41 -41h554q41 0 41 -41v-149q0 -41 -41 -41h-811z" />
    <glyph glyph-name="uni1EC3" unicode="&#x1ec3;" horiz-adv-x="1246" 
d="M628 1619q-41 0 -41 41v58q0 34 35 46q81 28 81 92q0 31 -20 51t-55 20q-31 0 -55 -14q-37 -18 -58 11l-18 27q-23 37 11 56q56 34 128 34q88 0 142.5 -50t54.5 -130q0 -105 -97 -149q-33 -15 -33 -47v-5q0 -41 -41 -41h-34zM512 1271q-18 -26 -50 -26h-67
q-25 0 -32.5 15t6.5 35l162 223q17 26 49 26h124q32 0 49 -26l162 -223q14 -21 7 -35.5t-32 -14.5h-69q-33 0 -49 26l-100 142q-13 18 -29 17.5t-29 -17.5zM640 -20q-162 0 -292 73.5t-201.5 199t-71.5 277.5q0 113 42.5 214.5t116 175t177.5 117t222 43.5q151 0 274.5 -67
t196.5 -188.5t76 -273.5l-1 -17q-2 -18 -13 -29t-29 -11h-783q-20 0 -31 -12t-7 -32q19 -120 110 -195t213 -75q80 0 149.5 32.5t115.5 93.5q24 32 57 18l120 -51q41 -19 21 -52q-72 -113 -192 -177t-270 -64zM372 653h521q22 0 32 13t1 34q-34 88 -112 140t-179 52
q-102 0 -181 -51.5t-116 -140.5q-9 -21 1.5 -34t32.5 -13z" />
    <glyph glyph-name="uni1EC4" unicode="&#x1ec4;" horiz-adv-x="1225" 
d="M794 2205q-119 0 -192 114q-34 53 -82 53q-38 0 -61.5 -31t-29.5 -82q-3 -41 -42 -41h-47q-43 0 -40 43q10 107 67.5 172t148.5 65q118 0 192 -113q33 -54 84 -54q77 0 90 113q3 41 42 41h47q43 0 40 -47q-12 -104 -68.5 -168.5t-148.5 -64.5zM526 1740q-18 -26 -50 -26
h-67q-25 0 -32.5 15t6.5 35l162 223q17 26 49 26h124q32 0 49 -26l162 -223q14 -21 7 -35.5t-32 -14.5h-69q-33 0 -49 26l-100 142q-13 18 -29 17.5t-29 -17.5zM248 0q-41 0 -41 41v1454q0 41 41 41h811q41 0 41 -41v-149q0 -41 -41 -41h-554q-41 0 -41 -41v-342
q0 -41 41 -41h476q41 0 41 -41v-147q0 -41 -41 -41h-476q-41 0 -41 -41v-339q0 -41 41 -41h554q41 0 41 -41v-149q0 -41 -41 -41h-811z" />
    <glyph glyph-name="uni1EC5" unicode="&#x1ec5;" horiz-adv-x="1246" 
d="M780 1736q-119 0 -192 114q-34 53 -82 53q-38 0 -61.5 -31t-29.5 -82q-3 -41 -42 -41h-47q-43 0 -40 43q10 107 67.5 172t148.5 65q118 0 192 -113q33 -54 84 -54q77 0 90 113q3 41 42 41h47q43 0 40 -47q-12 -104 -68.5 -168.5t-148.5 -64.5zM512 1271q-18 -26 -50 -26
h-67q-25 0 -32.5 15t6.5 35l162 223q17 26 49 26h124q32 0 49 -26l162 -223q14 -21 7 -35.5t-32 -14.5h-69q-33 0 -49 26l-100 142q-13 18 -29 17.5t-29 -17.5zM640 -20q-162 0 -292 73.5t-201.5 199t-71.5 277.5q0 113 42.5 214.5t116 175t177.5 117t222 43.5
q151 0 274.5 -67t196.5 -188.5t76 -273.5l-1 -17q-2 -18 -13 -29t-29 -11h-783q-20 0 -31 -12t-7 -32q19 -120 110 -195t213 -75q80 0 149.5 32.5t115.5 93.5q24 32 57 18l120 -51q41 -19 21 -52q-72 -113 -192 -177t-270 -64zM372 653h521q22 0 32 13t1 34q-34 88 -112 140
t-179 52q-102 0 -181 -51.5t-116 -140.5q-9 -21 1.5 -34t32.5 -13z" />
    <glyph glyph-name="uni1EC6" unicode="&#x1ec6;" horiz-adv-x="1225" 
d="M526 1740q-18 -26 -50 -26h-67q-25 0 -32.5 15t6.5 35l162 223q17 26 49 26h124q32 0 49 -26l162 -223q14 -21 7 -35.5t-32 -14.5h-69q-33 0 -49 26l-100 142q-13 18 -29 17.5t-29 -17.5zM248 0q-41 0 -41 41v1454q0 41 41 41h811q41 0 41 -41v-149q0 -41 -41 -41h-554
q-41 0 -41 -41v-342q0 -41 41 -41h476q41 0 41 -41v-147q0 -41 -41 -41h-476q-41 0 -41 -41v-339q0 -41 41 -41h554q41 0 41 -41v-149q0 -41 -41 -41h-811zM658 -512q-61 0 -105 43.5t-44 104.5t44 104.5t105 43.5q60 0 104 -43.5t44 -104.5t-44 -104.5t-104 -43.5z" />
    <glyph glyph-name="uni1EC7" unicode="&#x1ec7;" horiz-adv-x="1246" 
d="M512 1271q-18 -26 -50 -26h-67q-25 0 -32.5 15t6.5 35l162 223q17 26 49 26h124q32 0 49 -26l162 -223q14 -21 7 -35.5t-32 -14.5h-69q-33 0 -49 26l-100 142q-13 18 -29 17.5t-29 -17.5zM640 -20q-162 0 -292 73.5t-201.5 199t-71.5 277.5q0 113 42.5 214.5t116 175
t177.5 117t222 43.5q151 0 274.5 -67t196.5 -188.5t76 -273.5l-1 -17q-2 -18 -13 -29t-29 -11h-783q-20 0 -31 -12t-7 -32q19 -120 110 -195t213 -75q80 0 149.5 32.5t115.5 93.5q24 32 57 18l120 -51q41 -19 21 -52q-72 -113 -192 -177t-270 -64zM372 653h521q22 0 32 13
t1 34q-34 88 -112 140t-179 52q-102 0 -181 -51.5t-116 -140.5q-9 -21 1.5 -34t32.5 -13zM652 -513q-61 0 -105 43.5t-44 104.5t44 104.5t105 43.5q60 0 104 -43.5t44 -104.5t-44 -104.5t-104 -43.5z" />
    <glyph glyph-name="uni1EC8" unicode="&#x1ec8;" horiz-adv-x="671" 
d="M320 1611q-41 0 -41 41v58q0 34 35 46q81 28 81 92q0 31 -20 51t-55 20q-31 0 -55 -14q-37 -18 -58 11l-18 27q-23 37 11 56q56 34 128 34q88 0 142.5 -50t54.5 -130q0 -105 -97 -149q-33 -15 -33 -47v-5q0 -41 -41 -41h-34zM248 0q-41 0 -41 41v1454q0 41 41 41h175
q41 0 41 -41v-1454q0 -41 -41 -41h-175z" />
    <glyph glyph-name="uni1EC9" unicode="&#x1ec9;" horiz-adv-x="573" 
d="M273 1134q-41 0 -41 41v58q0 34 35 46q81 28 81 92q0 31 -20 51t-55 20q-31 0 -55 -14q-37 -18 -58 11l-18 27q-23 37 11 56q56 34 128 34q88 0 142.5 -50t54.5 -130q0 -105 -97 -149q-33 -15 -33 -47v-5q0 -41 -41 -41h-34zM206 0q-41 0 -41 41v977q0 41 41 41h161
q41 0 41 -41v-977q0 -41 -41 -41h-161z" />
    <glyph glyph-name="uni1ECA" unicode="&#x1eca;" horiz-adv-x="671" 
d="M248 0q-41 0 -41 41v1454q0 41 41 41h175q41 0 41 -41v-1454q0 -41 -41 -41h-175zM335 -512q-61 0 -105 43.5t-44 104.5t44 104.5t105 43.5q60 0 104 -43.5t44 -104.5t-44 -104.5t-104 -43.5z" />
    <glyph glyph-name="uni1ECB" unicode="&#x1ecb;" horiz-adv-x="573" 
d="M288 1262q-62 0 -106 43t-44 104q0 62 44 104.5t106 42.5q60 0 103.5 -42.5t43.5 -104.5q0 -60 -43.5 -103.5t-103.5 -43.5zM206 0q-41 0 -41 41v977q0 41 41 41h161q41 0 41 -41v-977q0 -41 -41 -41h-161zM288 -512q-61 0 -105 43.5t-44 104.5t44 104.5t105 43.5
q60 0 104 -43.5t44 -104.5t-44 -104.5t-104 -43.5z" />
    <glyph glyph-name="uni1ECC" unicode="&#x1ecc;" horiz-adv-x="1809" 
d="M904 -20q-167 0 -316 61t-255.5 166t-169 251t-62.5 310t62.5 310t169 251t255.5 166t316 61t316 -61t256 -166t169.5 -251t62.5 -310t-62.5 -310t-169.5 -251t-256 -166t-316 -61zM904 222q151 0 277 72t198 197.5t72 276.5t-72 276.5t-198 197.5t-277 72
q-150 0 -275.5 -72t-198 -197.5t-72.5 -276.5t72.5 -276.5t198 -197.5t275.5 -72zM905 -512q-61 0 -105 43.5t-44 104.5t44 104.5t105 43.5q60 0 104 -43.5t44 -104.5t-44 -104.5t-104 -43.5z" />
    <glyph glyph-name="uni1ECD" unicode="&#x1ecd;" horiz-adv-x="1290" 
d="M645 -20q-159 0 -289.5 71t-205.5 197.5t-75 281.5q0 154 75 280t205.5 197.5t289.5 71.5q158 0 289 -71.5t206 -197.5t75 -280q0 -116 -44 -218.5t-120 -175t-181.5 -114.5t-224.5 -42zM644 195q140 0 237.5 96t97.5 239q0 142 -97.5 238.5t-237.5 96.5t-237 -96
t-97 -239q0 -144 96.5 -239.5t237.5 -95.5zM646 -512q-61 0 -105 43.5t-44 104.5t44 104.5t105 43.5q60 0 104 -43.5t44 -104.5t-44 -104.5t-104 -43.5z" />
    <glyph glyph-name="uni1ECE" unicode="&#x1ece;" horiz-adv-x="1809" 
d="M890 1611q-41 0 -41 41v58q0 34 35 46q81 28 81 92q0 31 -20 51t-55 20q-31 0 -55 -14q-37 -18 -58 11l-18 27q-23 37 11 56q56 34 128 34q88 0 142.5 -50t54.5 -130q0 -105 -97 -149q-33 -15 -33 -47v-5q0 -41 -41 -41h-34zM904 -20q-167 0 -316 61t-255.5 166t-169 251
t-62.5 310t62.5 310t169 251t255.5 166t316 61t316 -61t256 -166t169.5 -251t62.5 -310t-62.5 -310t-169.5 -251t-256 -166t-316 -61zM904 222q151 0 277 72t198 197.5t72 276.5t-72 276.5t-198 197.5t-277 72q-150 0 -275.5 -72t-198 -197.5t-72.5 -276.5t72.5 -276.5
t198 -197.5t275.5 -72z" />
    <glyph glyph-name="uni1ECF" unicode="&#x1ecf;" horiz-adv-x="1290" 
d="M631 1133q-41 0 -41 41v58q0 34 35 46q81 28 81 92q0 31 -20 51t-55 20q-31 0 -55 -14q-37 -18 -58 11l-18 27q-23 37 11 56q56 34 128 34q88 0 142.5 -50t54.5 -130q0 -105 -97 -149q-33 -15 -33 -47v-5q0 -41 -41 -41h-34zM645 -20q-159 0 -289.5 71t-205.5 197.5
t-75 281.5q0 154 75 280t205.5 197.5t289.5 71.5q158 0 289 -71.5t206 -197.5t75 -280q0 -116 -44 -218.5t-120 -175t-181.5 -114.5t-224.5 -42zM644 195q140 0 237.5 96t97.5 239q0 142 -97.5 238.5t-237.5 96.5t-237 -96t-97 -239q0 -144 96.5 -239.5t237.5 -95.5z" />
    <glyph glyph-name="uni1ED0" unicode="&#x1ed0;" horiz-adv-x="1809" 
d="M933 2158h-72q-26 0 -33 13.5t8 35.5l202 269q25 34 58 8l62 -45q34 -25 6 -58l-180 -201q-21 -22 -51 -22zM773 1740q-18 -26 -50 -26h-67q-25 0 -32.5 15t6.5 35l162 223q17 26 49 26h124q32 0 49 -26l162 -223q14 -21 7 -35.5t-32 -14.5h-69q-33 0 -49 26l-100 142
q-13 18 -29 17.5t-29 -17.5zM904 -20q-167 0 -316 61t-255.5 166t-169 251t-62.5 310t62.5 310t169 251t255.5 166t316 61t316 -61t256 -166t169.5 -251t62.5 -310t-62.5 -310t-169.5 -251t-256 -166t-316 -61zM904 222q151 0 277 72t198 197.5t72 276.5t-72 276.5
t-198 197.5t-277 72q-150 0 -275.5 -72t-198 -197.5t-72.5 -276.5t72.5 -276.5t198 -197.5t275.5 -72z" />
    <glyph glyph-name="uni1ED1" unicode="&#x1ed1;" horiz-adv-x="1290" 
d="M674 1680h-72q-26 0 -33 13.5t8 35.5l202 269q25 34 58 8l62 -45q34 -25 6 -58l-180 -201q-21 -22 -51 -22zM514 1262q-18 -26 -50 -26h-67q-25 0 -32.5 15t6.5 35l162 223q17 26 49 26h124q32 0 49 -26l162 -223q14 -21 7 -35.5t-32 -14.5h-69q-33 0 -49 26l-100 142
q-13 18 -29 17.5t-29 -17.5zM645 -20q-159 0 -289.5 71t-205.5 197.5t-75 281.5q0 154 75 280t205.5 197.5t289.5 71.5q158 0 289 -71.5t206 -197.5t75 -280q0 -116 -44 -218.5t-120 -175t-181.5 -114.5t-224.5 -42zM644 195q140 0 237.5 96t97.5 239q0 142 -97.5 238.5
t-237.5 96.5t-237 -96t-97 -239q0 -144 96.5 -239.5t237.5 -95.5z" />
    <glyph glyph-name="uni1ED2" unicode="&#x1ed2;" horiz-adv-x="1809" 
d="M851 2158q-30 0 -51 22l-180 201q-28 33 6 58l62 45q33 26 58 -8l202 -269q15 -22 8 -35.5t-33 -13.5h-72zM773 1740q-18 -26 -50 -26h-67q-25 0 -32.5 15t6.5 35l162 223q17 26 49 26h124q32 0 49 -26l162 -223q14 -21 7 -35.5t-32 -14.5h-69q-33 0 -49 26l-100 142
q-13 18 -29 17.5t-29 -17.5zM904 -20q-167 0 -316 61t-255.5 166t-169 251t-62.5 310t62.5 310t169 251t255.5 166t316 61t316 -61t256 -166t169.5 -251t62.5 -310t-62.5 -310t-169.5 -251t-256 -166t-316 -61zM904 222q151 0 277 72t198 197.5t72 276.5t-72 276.5
t-198 197.5t-277 72q-150 0 -275.5 -72t-198 -197.5t-72.5 -276.5t72.5 -276.5t198 -197.5t275.5 -72z" />
    <glyph glyph-name="uni1ED3" unicode="&#x1ed3;" horiz-adv-x="1290" 
d="M592 1680q-30 0 -51 22l-180 201q-28 33 6 58l62 45q33 26 58 -8l202 -269q15 -22 8 -35.5t-33 -13.5h-72zM514 1262q-18 -26 -50 -26h-67q-25 0 -32.5 15t6.5 35l162 223q17 26 49 26h124q32 0 49 -26l162 -223q14 -21 7 -35.5t-32 -14.5h-69q-33 0 -49 26l-100 142
q-13 18 -29 17.5t-29 -17.5zM645 -20q-159 0 -289.5 71t-205.5 197.5t-75 281.5q0 154 75 280t205.5 197.5t289.5 71.5q158 0 289 -71.5t206 -197.5t75 -280q0 -116 -44 -218.5t-120 -175t-181.5 -114.5t-224.5 -42zM644 195q140 0 237.5 96t97.5 239q0 142 -97.5 238.5
t-237.5 96.5t-237 -96t-97 -239q0 -144 96.5 -239.5t237.5 -95.5z" />
    <glyph glyph-name="uni1ED4" unicode="&#x1ed4;" horiz-adv-x="1809" 
d="M889 2088q-41 0 -41 41v58q0 34 35 46q81 28 81 92q0 31 -20 51t-55 20q-31 0 -55 -14q-37 -18 -58 11l-18 27q-23 37 11 56q56 34 128 34q88 0 142.5 -50t54.5 -130q0 -105 -97 -149q-33 -15 -33 -47v-5q0 -41 -41 -41h-34zM773 1740q-18 -26 -50 -26h-67
q-25 0 -32.5 15t6.5 35l162 223q17 26 49 26h124q32 0 49 -26l162 -223q14 -21 7 -35.5t-32 -14.5h-69q-33 0 -49 26l-100 142q-13 18 -29 17.5t-29 -17.5zM904 -20q-167 0 -316 61t-255.5 166t-169 251t-62.5 310t62.5 310t169 251t255.5 166t316 61t316 -61t256 -166
t169.5 -251t62.5 -310t-62.5 -310t-169.5 -251t-256 -166t-316 -61zM904 222q151 0 277 72t198 197.5t72 276.5t-72 276.5t-198 197.5t-277 72q-150 0 -275.5 -72t-198 -197.5t-72.5 -276.5t72.5 -276.5t198 -197.5t275.5 -72z" />
    <glyph glyph-name="uni1ED5" unicode="&#x1ed5;" horiz-adv-x="1290" 
d="M630 1610q-41 0 -41 41v58q0 34 35 46q81 28 81 92q0 31 -20 51t-55 20q-31 0 -55 -14q-37 -18 -58 11l-18 27q-23 37 11 56q56 34 128 34q88 0 142.5 -50t54.5 -130q0 -105 -97 -149q-33 -15 -33 -47v-5q0 -41 -41 -41h-34zM514 1262q-18 -26 -50 -26h-67
q-25 0 -32.5 15t6.5 35l162 223q17 26 49 26h124q32 0 49 -26l162 -223q14 -21 7 -35.5t-32 -14.5h-69q-33 0 -49 26l-100 142q-13 18 -29 17.5t-29 -17.5zM645 -20q-159 0 -289.5 71t-205.5 197.5t-75 281.5q0 154 75 280t205.5 197.5t289.5 71.5q158 0 289 -71.5
t206 -197.5t75 -280q0 -116 -44 -218.5t-120 -175t-181.5 -114.5t-224.5 -42zM644 195q140 0 237.5 96t97.5 239q0 142 -97.5 238.5t-237.5 96.5t-237 -96t-97 -239q0 -144 96.5 -239.5t237.5 -95.5z" />
    <glyph glyph-name="uni1ED6" unicode="&#x1ed6;" horiz-adv-x="1809" 
d="M1041 2205q-119 0 -192 114q-34 53 -82 53q-38 0 -61.5 -31t-29.5 -82q-3 -41 -42 -41h-47q-43 0 -40 43q10 107 67.5 172t148.5 65q118 0 192 -113q33 -54 84 -54q77 0 90 113q3 41 42 41h47q43 0 40 -47q-12 -104 -68.5 -168.5t-148.5 -64.5zM773 1740q-18 -26 -50 -26
h-67q-25 0 -32.5 15t6.5 35l162 223q17 26 49 26h124q32 0 49 -26l162 -223q14 -21 7 -35.5t-32 -14.5h-69q-33 0 -49 26l-100 142q-13 18 -29 17.5t-29 -17.5zM904 -20q-167 0 -316 61t-255.5 166t-169 251t-62.5 310t62.5 310t169 251t255.5 166t316 61t316 -61t256 -166
t169.5 -251t62.5 -310t-62.5 -310t-169.5 -251t-256 -166t-316 -61zM904 222q151 0 277 72t198 197.5t72 276.5t-72 276.5t-198 197.5t-277 72q-150 0 -275.5 -72t-198 -197.5t-72.5 -276.5t72.5 -276.5t198 -197.5t275.5 -72z" />
    <glyph glyph-name="uni1ED7" unicode="&#x1ed7;" horiz-adv-x="1290" 
d="M782 1727q-119 0 -192 114q-34 53 -82 53q-38 0 -61.5 -31t-29.5 -82q-3 -41 -42 -41h-47q-43 0 -40 43q10 107 67.5 172t148.5 65q118 0 192 -113q33 -54 84 -54q77 0 90 113q3 41 42 41h47q43 0 40 -47q-12 -104 -68.5 -168.5t-148.5 -64.5zM514 1262q-18 -26 -50 -26
h-67q-25 0 -32.5 15t6.5 35l162 223q17 26 49 26h124q32 0 49 -26l162 -223q14 -21 7 -35.5t-32 -14.5h-69q-33 0 -49 26l-100 142q-13 18 -29 17.5t-29 -17.5zM645 -20q-159 0 -289.5 71t-205.5 197.5t-75 281.5q0 154 75 280t205.5 197.5t289.5 71.5q158 0 289 -71.5
t206 -197.5t75 -280q0 -116 -44 -218.5t-120 -175t-181.5 -114.5t-224.5 -42zM644 195q140 0 237.5 96t97.5 239q0 142 -97.5 238.5t-237.5 96.5t-237 -96t-97 -239q0 -144 96.5 -239.5t237.5 -95.5z" />
    <glyph glyph-name="uni1ED8" unicode="&#x1ed8;" horiz-adv-x="1809" 
d="M773 1740q-18 -26 -50 -26h-67q-25 0 -32.5 15t6.5 35l162 223q17 26 49 26h124q32 0 49 -26l162 -223q14 -21 7 -35.5t-32 -14.5h-69q-33 0 -49 26l-100 142q-13 18 -29 17.5t-29 -17.5zM904 -20q-167 0 -316 61t-255.5 166t-169 251t-62.5 310t62.5 310t169 251
t255.5 166t316 61t316 -61t256 -166t169.5 -251t62.5 -310t-62.5 -310t-169.5 -251t-256 -166t-316 -61zM904 222q151 0 277 72t198 197.5t72 276.5t-72 276.5t-198 197.5t-277 72q-150 0 -275.5 -72t-198 -197.5t-72.5 -276.5t72.5 -276.5t198 -197.5t275.5 -72zM905 -512
q-61 0 -105 43.5t-44 104.5t44 104.5t105 43.5q60 0 104 -43.5t44 -104.5t-44 -104.5t-104 -43.5z" />
    <glyph glyph-name="uni1ED9" unicode="&#x1ed9;" horiz-adv-x="1290" 
d="M514 1262q-18 -26 -50 -26h-67q-25 0 -32.5 15t6.5 35l162 223q17 26 49 26h124q32 0 49 -26l162 -223q14 -21 7 -35.5t-32 -14.5h-69q-33 0 -49 26l-100 142q-13 18 -29 17.5t-29 -17.5zM645 -20q-159 0 -289.5 71t-205.5 197.5t-75 281.5q0 154 75 280t205.5 197.5
t289.5 71.5q158 0 289 -71.5t206 -197.5t75 -280q0 -116 -44 -218.5t-120 -175t-181.5 -114.5t-224.5 -42zM644 195q140 0 237.5 96t97.5 239q0 142 -97.5 238.5t-237.5 96.5t-237 -96t-97 -239q0 -144 96.5 -239.5t237.5 -95.5zM646 -512q-61 0 -105 43.5t-44 104.5
t44 104.5t105 43.5q60 0 104 -43.5t44 -104.5t-44 -104.5t-104 -43.5z" />
    <glyph glyph-name="uni1EDA" unicode="&#x1eda;" horiz-adv-x="1809" 
d="M862 1681q-26 0 -33 13.5t8 35.5l202 269q25 34 58 8l62 -45q34 -25 6 -58l-180 -201q-21 -22 -51 -22h-72zM1745 1542q41 0 41 -41v-116q0 -117 -48 -174.5t-124 -65.5q94 -174 94 -377q0 -164 -62.5 -310t-169.5 -251t-256 -166t-316 -61t-316 61t-255.5 166t-169 251
t-62.5 310t62.5 310t169 251t255.5 166t316 61q195 0 361.5 -80.5t277.5 -222.5q94 4 94 134v114q0 41 40 41h68zM904 222q151 0 277 72t198 197.5t72 276.5t-72 276.5t-198 197.5t-277 72q-150 0 -275.5 -72t-198 -197.5t-72.5 -276.5t72.5 -276.5t198 -197.5t275.5 -72z
" />
    <glyph glyph-name="uni1EDB" unicode="&#x1edb;" horiz-adv-x="1290" 
d="M603 1203q-26 0 -33 13.5t8 35.5l202 269q25 34 58 8l62 -45q34 -25 6 -58l-180 -201q-21 -22 -51 -22h-72zM1263 1246q41 0 41 -41v-116q0 -124 -54 -181t-136 -60q101 -139 101 -318q0 -116 -44 -218.5t-120 -175t-181.5 -114.5t-224.5 -42q-159 0 -289.5 71
t-205.5 197.5t-75 281.5q0 154 75 280t205.5 197.5t289.5 71.5q196 0 345 -107q37 -15 66 -15q99 0 99 134v114q0 41 40 41h68zM644 195q140 0 237.5 96t97.5 239q0 142 -97.5 238.5t-237.5 96.5t-237 -96t-97 -239q0 -144 96.5 -239.5t237.5 -95.5z" />
    <glyph glyph-name="uni1EDC" unicode="&#x1edc;" horiz-adv-x="1809" 
d="M801 1703l-180 201q-28 33 6 58l62 45q33 26 58 -8l202 -269q15 -22 8 -35.5t-33 -13.5h-72q-30 0 -51 22zM1745 1542q41 0 41 -41v-116q0 -117 -48 -174.5t-124 -65.5q94 -174 94 -377q0 -164 -62.5 -310t-169.5 -251t-256 -166t-316 -61t-316 61t-255.5 166t-169 251
t-62.5 310t62.5 310t169 251t255.5 166t316 61q195 0 361.5 -80.5t277.5 -222.5q94 4 94 134v114q0 41 40 41h68zM904 222q151 0 277 72t198 197.5t72 276.5t-72 276.5t-198 197.5t-277 72q-150 0 -275.5 -72t-198 -197.5t-72.5 -276.5t72.5 -276.5t198 -197.5t275.5 -72z
" />
    <glyph glyph-name="uni1EDD" unicode="&#x1edd;" horiz-adv-x="1290" 
d="M542 1225l-180 201q-28 33 6 58l62 45q33 26 58 -8l202 -269q15 -22 8 -35.5t-33 -13.5h-72q-30 0 -51 22zM1263 1246q41 0 41 -41v-116q0 -124 -54 -181t-136 -60q101 -139 101 -318q0 -116 -44 -218.5t-120 -175t-181.5 -114.5t-224.5 -42q-159 0 -289.5 71
t-205.5 197.5t-75 281.5q0 154 75 280t205.5 197.5t289.5 71.5q196 0 345 -107q37 -15 66 -15q99 0 99 134v114q0 41 40 41h68zM644 195q140 0 237.5 96t97.5 239q0 142 -97.5 238.5t-237.5 96.5t-237 -96t-97 -239q0 -144 96.5 -239.5t237.5 -95.5z" />
    <glyph glyph-name="uni1EDE" unicode="&#x1ede;" horiz-adv-x="1809" 
d="M777 1916l-18 27q-23 37 11 56q56 34 128 34q88 0 142.5 -50t54.5 -130q0 -105 -97 -149q-33 -15 -33 -47v-5q0 -41 -41 -41h-34q-41 0 -41 41v58q0 34 35 46q81 28 81 92q0 31 -20 51t-55 20q-31 0 -55 -14q-37 -18 -58 11zM1745 1542q41 0 41 -41v-116
q0 -117 -48 -174.5t-124 -65.5q94 -174 94 -377q0 -164 -62.5 -310t-169.5 -251t-256 -166t-316 -61t-316 61t-255.5 166t-169 251t-62.5 310t62.5 310t169 251t255.5 166t316 61q195 0 361.5 -80.5t277.5 -222.5q94 4 94 134v114q0 41 40 41h68zM904 222q151 0 277 72
t198 197.5t72 276.5t-72 276.5t-198 197.5t-277 72q-150 0 -275.5 -72t-198 -197.5t-72.5 -276.5t72.5 -276.5t198 -197.5t275.5 -72z" />
    <glyph glyph-name="uni1EDF" unicode="&#x1edf;" horiz-adv-x="1290" 
d="M518 1438l-18 27q-23 37 11 56q56 34 128 34q88 0 142.5 -50t54.5 -130q0 -105 -97 -149q-33 -15 -33 -47v-5q0 -41 -41 -41h-34q-41 0 -41 41v58q0 34 35 46q81 28 81 92q0 31 -20 51t-55 20q-31 0 -55 -14q-37 -18 -58 11zM1263 1246q41 0 41 -41v-116q0 -124 -54 -181
t-136 -60q101 -139 101 -318q0 -116 -44 -218.5t-120 -175t-181.5 -114.5t-224.5 -42q-159 0 -289.5 71t-205.5 197.5t-75 281.5q0 154 75 280t205.5 197.5t289.5 71.5q196 0 345 -107q37 -15 66 -15q99 0 99 134v114q0 41 40 41h68zM644 195q140 0 237.5 96t97.5 239
q0 142 -97.5 238.5t-237.5 96.5t-237 -96t-97 -239q0 -144 96.5 -239.5t237.5 -95.5z" />
    <glyph glyph-name="uni1EE0" unicode="&#x1ee0;" horiz-adv-x="1809" 
d="M588 1741q-43 0 -40 43q10 107 67.5 172t148.5 65q118 0 192 -113q33 -54 84 -54q77 0 90 113q3 41 42 41h47q43 0 40 -47q-12 -104 -68.5 -168.5t-148.5 -64.5q-119 0 -192 114q-34 53 -82 53q-38 0 -61.5 -31t-29.5 -82q-3 -41 -42 -41h-47zM1745 1542q41 0 41 -41
v-116q0 -117 -48 -174.5t-124 -65.5q94 -174 94 -377q0 -164 -62.5 -310t-169.5 -251t-256 -166t-316 -61t-316 61t-255.5 166t-169 251t-62.5 310t62.5 310t169 251t255.5 166t316 61q195 0 361.5 -80.5t277.5 -222.5q94 4 94 134v114q0 41 40 41h68zM904 222q151 0 277 72
t198 197.5t72 276.5t-72 276.5t-198 197.5t-277 72q-150 0 -275.5 -72t-198 -197.5t-72.5 -276.5t72.5 -276.5t198 -197.5t275.5 -72z" />
    <glyph glyph-name="uni1EE1" unicode="&#x1ee1;" horiz-adv-x="1290" 
d="M329 1263q-43 0 -40 43q10 107 67.5 172t148.5 65q118 0 192 -113q33 -54 84 -54q77 0 90 113q3 41 42 41h47q43 0 40 -47q-12 -104 -68.5 -168.5t-148.5 -64.5q-119 0 -192 114q-34 53 -82 53q-38 0 -61.5 -31t-29.5 -82q-3 -41 -42 -41h-47zM1263 1246q41 0 41 -41
v-116q0 -124 -54 -181t-136 -60q101 -139 101 -318q0 -116 -44 -218.5t-120 -175t-181.5 -114.5t-224.5 -42q-159 0 -289.5 71t-205.5 197.5t-75 281.5q0 154 75 280t205.5 197.5t289.5 71.5q196 0 345 -107q37 -15 66 -15q99 0 99 134v114q0 41 40 41h68zM644 195
q140 0 237.5 96t97.5 239q0 142 -97.5 238.5t-237.5 96.5t-237 -96t-97 -239q0 -144 96.5 -239.5t237.5 -95.5z" />
    <glyph glyph-name="uni1EE2" unicode="&#x1ee2;" horiz-adv-x="1809" 
d="M1745 1542q41 0 41 -41v-116q0 -117 -48 -174.5t-124 -65.5q94 -174 94 -377q0 -164 -62.5 -310t-169.5 -251t-256 -166t-316 -61t-316 61t-255.5 166t-169 251t-62.5 310t62.5 310t169 251t255.5 166t316 61q195 0 361.5 -80.5t277.5 -222.5q94 4 94 134v114q0 41 40 41
h68zM904 222q151 0 277 72t198 197.5t72 276.5t-72 276.5t-198 197.5t-277 72q-150 0 -275.5 -72t-198 -197.5t-72.5 -276.5t72.5 -276.5t198 -197.5t275.5 -72zM905 -216q60 0 104 -43.5t44 -104.5t-44 -104.5t-104 -43.5q-61 0 -105 43.5t-44 104.5t44 104.5t105 43.5z
" />
    <glyph glyph-name="uni1EE3" unicode="&#x1ee3;" horiz-adv-x="1290" 
d="M1263 1246q41 0 41 -41v-116q0 -124 -54 -181t-136 -60q101 -139 101 -318q0 -116 -44 -218.5t-120 -175t-181.5 -114.5t-224.5 -42q-159 0 -289.5 71t-205.5 197.5t-75 281.5q0 154 75 280t205.5 197.5t289.5 71.5q196 0 345 -107q37 -15 66 -15q99 0 99 134v114
q0 41 40 41h68zM644 195q140 0 237.5 96t97.5 239q0 142 -97.5 238.5t-237.5 96.5t-237 -96t-97 -239q0 -144 96.5 -239.5t237.5 -95.5zM646 -216q60 0 104 -43.5t44 -104.5t-44 -104.5t-104 -43.5q-61 0 -105 43.5t-44 104.5t44 104.5t105 43.5z" />
    <glyph glyph-name="uni1EE4" unicode="&#x1ee4;" horiz-adv-x="1572" 
d="M785 -20q-175 0 -312 62.5t-217 187t-80 293.5v972q0 41 41 41h175q41 0 41 -41v-929q0 -183 95 -269t257 -86q78 0 141.5 20t112 61t75 111t26.5 163v929q0 41 40 41h175q41 0 41 -41v-972q0 -169 -80 -293.5t-217.5 -187t-313.5 -62.5zM786 -512q-61 0 -105 43.5
t-44 104.5t44 104.5t105 43.5q60 0 104 -43.5t44 -104.5t-44 -104.5t-104 -43.5z" />
    <glyph glyph-name="uni1EE5" unicode="&#x1ee5;" horiz-adv-x="1207" 
d="M603 -20q-217 0 -341.5 106.5t-124.5 294.5v637q0 41 41 41h159q41 0 41 -41v-624q0 -99 62 -149.5t163 -50.5q102 0 163.5 50.5t61.5 149.5v624q0 41 41 41h160q40 0 40 -41v-637q0 -188 -124.5 -294.5t-341.5 -106.5zM602 -512q-61 0 -105 43.5t-44 104.5t44 104.5
t105 43.5q60 0 104 -43.5t44 -104.5t-44 -104.5t-104 -43.5z" />
    <glyph glyph-name="uni1EE6" unicode="&#x1ee6;" horiz-adv-x="1572" 
d="M771 1611q-41 0 -41 41v58q0 34 35 46q81 28 81 92q0 31 -20 51t-55 20q-31 0 -55 -14q-37 -18 -58 11l-18 27q-23 37 11 56q56 34 128 34q88 0 142.5 -50t54.5 -130q0 -105 -97 -149q-33 -15 -33 -47v-5q0 -41 -41 -41h-34zM785 -20q-175 0 -312 62.5t-217 187
t-80 293.5v972q0 41 41 41h175q41 0 41 -41v-929q0 -183 95 -269t257 -86q78 0 141.5 20t112 61t75 111t26.5 163v929q0 41 40 41h175q41 0 41 -41v-972q0 -169 -80 -293.5t-217.5 -187t-313.5 -62.5z" />
    <glyph glyph-name="uni1EE7" unicode="&#x1ee7;" horiz-adv-x="1207" 
d="M589 1134q-41 0 -41 41v58q0 34 35 46q81 28 81 92q0 31 -20 51t-55 20q-31 0 -55 -14q-37 -18 -58 11l-18 27q-23 37 11 56q56 34 128 34q88 0 142.5 -50t54.5 -130q0 -105 -97 -149q-33 -15 -33 -47v-5q0 -41 -41 -41h-34zM603 -20q-217 0 -341.5 106.5t-124.5 294.5
v637q0 41 41 41h159q41 0 41 -41v-624q0 -99 62 -149.5t163 -50.5q102 0 163.5 50.5t61.5 149.5v624q0 41 41 41h160q40 0 40 -41v-637q0 -188 -124.5 -294.5t-341.5 -106.5z" />
    <glyph glyph-name="uni1EE8" unicode="&#x1ee8;" horiz-adv-x="1572" 
d="M743 1681q-26 0 -33 13.5t8 35.5l202 269q25 34 58 8l62 -45q34 -25 6 -58l-180 -201q-21 -22 -51 -22h-72zM1670 1682q41 0 41 -41v-116q0 -66 -16.5 -114.5t-45.5 -75.5t-62.5 -39t-72.5 -12q-55 0 -118 22v-783q0 -169 -80 -293.5t-217.5 -187t-313.5 -62.5
q-175 0 -312 62.5t-217 187t-80 293.5v972q0 41 41 41h175q41 0 41 -41v-929q0 -183 95 -269t257 -86q78 0 141.5 20t112 61t75 111t26.5 163v929q0 41 40 41h175q41 0 41 -41v-87q38 -15 67 -15q99 0 99 134v114q0 41 40 41h68z" />
    <glyph glyph-name="uni1EE9" unicode="&#x1ee9;" horiz-adv-x="1207" 
d="M561 1204q-26 0 -33 13.5t8 35.5l202 269q25 34 58 8l62 -45q34 -25 6 -58l-180 -201q-21 -22 -51 -22h-72zM1317 1205q41 0 41 -41v-116q0 -66 -16.5 -114.5t-45.5 -75.5t-62.5 -39t-72.5 -12q-41 0 -92 14v-440q0 -188 -124.5 -294.5t-341.5 -106.5t-341.5 106.5
t-124.5 294.5v637q0 41 41 41h159q41 0 41 -41v-624q0 -99 62 -149.5t163 -50.5q102 0 163.5 50.5t61.5 149.5v624q0 41 41 41h160q40 0 40 -41v-96q24 -6 41 -6q99 0 99 134v114q0 41 40 41h68z" />
    </font>
</defs>
</svg>
